<svg width="20" height="20" viewBox="0 0 20 20" fill="none" xmlns="http://www.w3.org/2000/svg">
<g clip-path="url(#clip0_119_3517)">
<path d="M10 17.5V3L8 1L5 2L2.5 4L1 7.5L1.5 11L0.5 13L1 15.5L3.5 17L7 19L10 17.5Z" fill="white"/>
<path d="M18.7972 6.34008C19.1955 4.37298 17.7996 2.52334 15.8525 2.3141C14.8349 -0.0882863 11.5501 -0.491606 10.0006 1.67123C8.45165 -0.490779 5.16677 -0.0894291 4.14864 2.3141C2.20033 2.5235 0.805917 4.37432 1.20396 6.34008C-0.247324 7.55623 -0.397343 9.72363 0.822822 11.129C-1.1987 13.8514 0.722691 17.8193 4.21011 17.8193C5.32373 20.1424 8.50311 20.4179 10.0005 18.3279C11.4992 20.4197 14.6785 20.1402 15.791 17.8193C19.2697 17.827 21.2003 13.8521 19.1783 11.129C20.4 9.72186 20.2467 7.55473 18.7972 6.34008ZM7.17612 18.4612C5.41424 18.4612 4.39761 16.3911 5.54566 15.0018C5.76752 14.7334 5.72972 14.336 5.46129 14.1142C5.19286 13.8924 4.79549 13.9302 4.57367 14.1986C4.04359 14.84 3.76144 15.6706 3.80601 16.5215C1.41533 16.2675 0.350503 13.4091 1.93088 11.6469C1.94818 11.6665 2.54092 10.8191 3.80561 10.6844C3.78458 11.0982 3.83998 11.5123 3.96903 11.906C4.05596 12.172 4.30284 12.3408 4.5682 12.3408C4.9954 12.3408 5.30111 11.9226 5.1676 11.5142C4.80546 10.4063 5.41211 9.21029 6.52001 8.84815C6.85098 8.73994 7.03158 8.38395 6.92337 8.05294C6.81516 7.72193 6.45929 7.54121 6.12816 7.64958C5.98521 7.69655 5.84551 7.75291 5.70998 7.81827C5.45877 7.17501 5.63208 6.41515 6.19219 5.95103C6.46031 5.72882 6.49755 5.33137 6.27538 5.06325C6.05321 4.79513 5.65572 4.75793 5.3876 4.98006C4.29563 5.88494 4.04295 7.40601 4.67778 8.5885C4.25252 9.05834 4.15376 9.40665 4.11822 9.40665C3.19281 9.40665 2.33652 9.70791 1.64195 10.2173C0.868178 9.24855 1.08858 7.7886 2.18059 7.10759C2.30269 7.03144 2.39507 6.91582 2.44239 6.77993C2.4897 6.64403 2.48911 6.49604 2.44071 6.36053C1.97753 5.06349 2.85116 3.53792 4.52351 3.53792C4.66258 3.53788 4.79773 3.49186 4.90793 3.40702C5.01813 3.32219 5.09719 3.20331 5.1328 3.06888C5.37779 2.14386 6.218 1.49784 7.17608 1.49784C8.34167 1.49784 9.28997 2.4461 9.28997 3.61173V16.3473C9.28997 17.5129 8.34171 18.4612 7.17612 18.4612ZM18.1989 10.2173C17.4469 9.66586 16.535 9.39191 15.7104 9.40728C15.5676 9.10779 15.3912 8.8405 15.1631 8.5885C15.7974 7.40696 15.5462 5.88573 14.4533 4.98006C14.1851 4.75789 13.7876 4.79513 13.5655 5.06325C13.3433 5.33141 13.3806 5.72885 13.6487 5.95103C14.2088 6.41511 14.3822 7.17501 14.1309 7.81827C13.9954 7.75291 13.8557 7.69656 13.7127 7.64958C13.3817 7.54129 13.0257 7.72197 12.9175 8.05294C12.8093 8.38391 12.9899 8.73994 13.3209 8.84815C14.4288 9.21029 15.0355 10.4063 14.6733 11.5142C14.5651 11.8452 14.7457 12.2012 15.0766 12.3094C15.4058 12.417 15.7631 12.2387 15.8719 11.906C16.0009 11.5123 16.0563 11.0982 16.0353 10.6844C17.5168 10.8422 18.658 12.102 18.658 13.6029C18.658 15.116 17.5071 16.3651 16.0349 16.5215C16.0794 15.6738 15.7994 14.8423 15.2673 14.1985C15.0455 13.93 14.648 13.8923 14.3796 14.1141C14.1112 14.3359 14.0734 14.7333 14.2953 15.0017C15.4412 16.3885 14.4276 18.4611 12.6648 18.4611C11.4992 18.4611 10.5509 17.5128 10.5509 16.3472V3.61173C10.5509 2.44614 11.4992 1.49784 12.6648 1.49784C13.6229 1.49784 14.4631 2.1439 14.7081 3.06888C14.7833 3.35283 15.0436 3.54789 15.3383 3.53761C16.8151 3.48331 17.9036 4.95086 17.4002 6.36057C17.3518 6.49608 17.3512 6.64407 17.3985 6.77997C17.4458 6.91586 17.5382 7.03148 17.6603 7.10763C18.7534 7.78931 18.9718 9.24973 18.1989 10.2173Z" fill="black"/>
</g>
<defs>
<clipPath id="clip0_119_3517">
<rect width="20" height="20" fill="white"/>
</clipPath>
</defs>
</svg>
