<svg width="20" height="20" viewBox="0 0 20 20" fill="none" xmlns="http://www.w3.org/2000/svg">
<path d="M1.5 14V4C1.66667 3.16667 3.2 1.5 8 1.5C12.8 1.5 14.6667 3.16667 15 4V8.5H12.5V9.5L11.5 10.5L10 10L9 11.5L9.5 12.5L10 13.5L9 15L9.5 16.5H9L3 16L1.5 14Z" fill="white"/>
<path d="M18.3334 13.8916L17.9667 13.6833C17.9889 13.4505 17.9889 13.2161 17.9667 12.9833L18.3334 12.775C18.5788 12.6348 18.7668 12.4125 18.8644 12.1472C18.962 11.8819 18.9628 11.5908 18.8667 11.325C18.6567 10.7671 18.3584 10.2466 17.9834 9.78329C17.7995 9.56871 17.5462 9.42535 17.2676 9.37815C16.989 9.33096 16.7026 9.3829 16.4584 9.52496L16.0917 9.73329C15.9261 9.62224 15.7535 9.52203 15.575 9.43329C15.5832 9.34459 15.5832 9.25533 15.575 9.16663V4.16663C15.575 2.11663 11.9084 1.04163 8.28335 1.04163C4.65835 1.04163 1.04169 2.11663 1.04169 4.16663V14.1666C1.04169 16.2166 4.70835 17.2916 8.33335 17.2916C8.83335 17.2916 9.33335 17.2916 9.80002 17.225C9.96083 17.2795 10.1312 17.3003 10.3004 17.2859C10.4696 17.2716 10.634 17.2225 10.7834 17.1416L11.1417 16.9333C11.3349 17.0659 11.5383 17.1829 11.75 17.2833V17.7C11.751 17.9916 11.8567 18.2732 12.0479 18.4935C12.2391 18.7138 12.503 18.858 12.7917 18.9C13.0681 18.9357 13.3463 18.9552 13.625 18.9583C13.9037 18.9555 14.182 18.936 14.4584 18.9C14.7477 18.8597 15.0127 18.7159 15.2042 18.4953C15.3957 18.2746 15.5008 17.9921 15.5 17.7V17.2833C15.7127 17.1848 15.9163 17.0677 16.1084 16.9333L16.475 17.1416C16.7198 17.2844 17.0072 17.3359 17.2863 17.2871C17.5654 17.2383 17.8182 17.0923 18 16.875C18.3767 16.4158 18.6751 15.8978 18.8834 15.3416C18.978 15.0739 18.9748 14.7813 18.874 14.5158C18.7733 14.2504 18.5818 14.0292 18.3334 13.8916ZM9.25835 9.78329C8.95367 10.1646 8.70143 10.585 8.50835 11.0333H8.33335C4.64169 11.0333 2.29169 9.92496 2.29169 9.15829V5.97496C4.15947 6.92433 6.23991 7.37772 8.33335 7.29163C10.4264 7.37363 12.5059 6.92046 14.375 5.97496V7.76663C13.8499 7.69164 13.3168 7.69164 12.7917 7.76663C12.503 7.80858 12.2391 7.95282 12.0479 8.17308C11.8567 8.39334 11.751 8.67496 11.75 8.96663V9.38329C11.5383 9.48364 11.3349 9.60067 11.1417 9.73329L10.7834 9.52496C10.5391 9.3829 10.2527 9.33096 9.9741 9.37815C9.69549 9.42535 9.44222 9.56871 9.25835 9.78329ZM8.33335 2.29163C11.9667 2.29163 14.375 3.41663 14.375 4.16663C14.375 4.91663 11.9667 6.04163 8.33335 6.04163C4.70002 6.04163 2.29169 4.91663 2.29169 4.16663C2.29169 3.41663 4.70002 2.29163 8.33335 2.29163ZM2.29169 14.1666V10.9833C4.1621 11.9245 6.24112 12.3747 8.33335 12.2916H8.45002C8.55486 12.4922 8.71359 12.6596 8.90835 12.775L9.26669 12.9833V13.6833L8.90835 13.8833C8.65664 14.0181 8.4608 14.2377 8.35554 14.5031C8.25029 14.7685 8.24243 15.0626 8.33335 15.3333C8.42815 15.57 8.53667 15.8009 8.65835 16.025H8.30002C4.64169 16.0416 2.29169 14.9333 2.29169 14.1666ZM16.6667 12.7583C16.6992 12.9483 16.7159 13.1406 16.7167 13.3333C16.7159 13.5232 16.6992 13.7128 16.6667 13.9C16.6423 14.0273 16.658 14.159 16.7117 14.2769C16.7655 14.3949 16.8546 14.4932 16.9667 14.5583L17.6834 14.9C17.5202 15.3072 17.3134 15.6955 17.0667 16.0583L16.3417 15.6416C16.2287 15.5768 16.0984 15.5484 15.9686 15.5604C15.8389 15.5723 15.716 15.624 15.6167 15.7083C15.3254 15.9544 14.9924 16.1463 14.6334 16.275C14.5111 16.3182 14.4053 16.3983 14.3307 16.5044C14.256 16.6104 14.2162 16.737 14.2167 16.8666V17.7C13.8172 17.7288 13.4162 17.7288 13.0167 17.7H13V16.8666C12.9993 16.7373 12.959 16.6112 12.8845 16.5054C12.81 16.3996 12.7049 16.3192 12.5834 16.275C12.2244 16.1463 11.8913 15.9544 11.6 15.7083C11.5013 15.6228 11.3783 15.5705 11.2482 15.5585C11.1182 15.5465 10.9877 15.5756 10.875 15.6416L10.225 16.0833C9.95235 15.7509 9.72017 15.3872 9.53335 15L10.25 14.5833C10.3621 14.5199 10.4519 14.4235 10.5071 14.3071C10.5623 14.1908 10.5802 14.0602 10.5584 13.9333C10.5168 13.7361 10.4972 13.5348 10.5 13.3333C10.4992 13.1429 10.5188 12.9529 10.5584 12.7666C10.5808 12.6385 10.5632 12.5066 10.508 12.3888C10.4529 12.271 10.3628 12.1731 10.25 12.1083L9.54169 11.7666C9.69791 11.3562 9.90509 10.967 10.1584 10.6083L10.8834 11.025C10.9955 11.0879 11.1241 11.1152 11.2521 11.1033C11.3801 11.0914 11.5014 11.0408 11.6 10.9583C11.8884 10.7081 12.2222 10.5157 12.5834 10.3916C12.7049 10.3474 12.81 10.2669 12.8845 10.1612C12.959 10.0554 12.9993 9.92933 13 9.79996V9.00829C13.2151 8.97507 13.4324 8.95836 13.65 8.95829H14.275V9.79163C14.2757 9.921 14.316 10.0471 14.3905 10.1528C14.465 10.2586 14.5701 10.339 14.6917 10.3833C15.0537 10.5054 15.3879 10.698 15.675 10.95C15.7759 11.0311 15.8985 11.0808 16.0275 11.0926C16.1564 11.1045 16.286 11.0781 16.4 11.0166L17.05 10.5666C17.315 10.9072 17.5414 11.2761 17.725 11.6666L17 12.0833C16.8768 12.1421 16.7769 12.2406 16.7164 12.363C16.6559 12.4855 16.6384 12.6247 16.6667 12.7583Z" fill="black"/>
</svg>
