<svg width="44" height="44" viewBox="0 0 44 44" fill="none" xmlns="http://www.w3.org/2000/svg">
<circle cx="22" cy="22" r="22" fill="#6083F3"/>
<g clip-path="url(#clip0_1126_322)">
<path d="M13 22C13 24.3869 13.9482 26.6761 15.636 28.364C17.3239 30.0518 19.6131 31 22 31C24.3869 31 26.6761 30.0518 28.364 28.364C30.0518 26.6761 31 24.3869 31 22C31 19.6131 30.0518 17.3239 28.364 15.636C26.6761 13.9482 24.3869 13 22 13" stroke="white" stroke-width="2" stroke-linecap="round" stroke-linejoin="round"/>
<path d="M27 22C27 21.0111 26.7068 20.0444 26.1574 19.2222C25.6079 18.3999 24.827 17.759 23.9134 17.3806C22.9998 17.0022 21.9945 16.9031 21.0246 17.0961C20.0546 17.289 19.1637 17.7652 18.4645 18.4645C17.7652 19.1637 17.289 20.0546 17.0961 21.0246C16.9031 21.9945 17.0022 22.9998 17.3806 23.9134C17.759 24.827 18.3999 25.6079 19.2222 26.1574C20.0444 26.7068 21.0111 27 22 27" stroke="white" stroke-width="2" stroke-linecap="round" stroke-linejoin="round"/>
</g>
<defs>
<clipPath id="clip0_1126_322">
<rect width="24" height="24" fill="white" transform="translate(10 10)"/>
</clipPath>
</defs>
</svg>
