<svg width="44" height="44" viewBox="0 0 44 44" fill="none" xmlns="http://www.w3.org/2000/svg">
<circle cx="22" cy="22" r="22" fill="#6083F3"/>
<g clip-path="url(#clip0_1126_411)">
<path d="M14 28C14 28.5304 14.2107 29.0391 14.5858 29.4142C14.9609 29.7893 15.4696 30 16 30C16.5304 30 17.0391 29.7893 17.4142 29.4142C17.7893 29.0391 18 28.5304 18 28C18 27.4696 17.7893 26.9609 17.4142 26.5858C17.0391 26.2107 16.5304 26 16 26C15.4696 26 14.9609 26.2107 14.5858 26.5858C14.2107 26.9609 14 27.4696 14 28Z" stroke="white" stroke-width="2" stroke-linecap="round" stroke-linejoin="round"/>
<path d="M26 28C26 28.5304 26.2107 29.0391 26.5858 29.4142C26.9609 29.7893 27.4696 30 28 30C28.5304 30 29.0391 29.7893 29.4142 29.4142C29.7893 29.0391 30 28.5304 30 28C30 27.4696 29.7893 26.9609 29.4142 26.5858C29.0391 26.2107 28.5304 26 28 26C27.4696 26 26.9609 26.2107 26.5858 26.5858C26.2107 26.9609 26 27.4696 26 28Z" stroke="white" stroke-width="2" stroke-linecap="round" stroke-linejoin="round"/>
<path d="M16 22V20C16 18.4087 16.6321 16.8826 17.7574 15.7574C18.8826 14.6321 20.4087 14 22 14C23.5913 14 25.1174 14.6321 26.2426 15.7574C27.3679 16.8826 28 18.4087 28 20V22" stroke="white" stroke-width="2" stroke-linecap="round" stroke-linejoin="round"/>
<path d="M25 19L28 22L31 19" stroke="white" stroke-width="2" stroke-linecap="round" stroke-linejoin="round"/>
</g>
<defs>
<clipPath id="clip0_1126_411">
<rect width="24" height="24" fill="white" transform="translate(10 10)"/>
</clipPath>
</defs>
</svg>
