<svg width="44" height="44" viewBox="0 0 44 44" fill="none" xmlns="http://www.w3.org/2000/svg">
<circle cx="22" cy="22" r="22" fill="#6083F3"/>
<g clip-path="url(#clip0_1126_413)">
<path d="M14 17V15C14 14.4696 14.2107 13.9609 14.5858 13.5858C14.9609 13.2107 15.4696 13 16 13H18" stroke="white" stroke-width="2" stroke-linecap="round" stroke-linejoin="round"/>
<path d="M14 25V27C14 27.5304 14.2107 28.0391 14.5858 28.4142C14.9609 28.7893 15.4696 29 16 29H18" stroke="white" stroke-width="2" stroke-linecap="round" stroke-linejoin="round"/>
<path d="M26 13H28C28.5304 13 29.0391 13.2107 29.4142 13.5858C29.7893 13.9609 30 14.4696 30 15V17" stroke="white" stroke-width="2" stroke-linecap="round" stroke-linejoin="round"/>
<path d="M26 29H28C28.5304 29 29.0391 28.7893 29.4142 28.4142C29.7893 28.0391 30 27.5304 30 27V25" stroke="white" stroke-width="2" stroke-linecap="round" stroke-linejoin="round"/>
<path d="M18.6031 18.6099C18.793 18.4164 19.0196 18.2627 19.2696 18.1578C19.5196 18.0528 19.788 17.9988 20.0591 17.9988C20.3302 17.9988 20.5986 18.0528 20.8486 18.1578C21.0986 18.2627 21.3252 18.4164 21.5151 18.6099L22.0001 18.9999L22.5001 18.6039C22.6899 18.4125 22.9158 18.2607 23.1647 18.1574C23.4136 18.054 23.6806 18.0011 23.9501 18.0018C24.2196 18.0024 24.4863 18.0566 24.7347 18.1612C24.9831 18.2657 25.2083 18.4186 25.3971 18.6109C25.7836 19.0044 26.0002 19.5339 26.0002 20.0854C26.0002 20.637 25.7836 21.1665 25.3971 21.5599L22.0001 24.9999L18.6031 21.5599C18.2163 21.1664 17.9995 20.6367 17.9995 20.0849C17.9995 19.5331 18.2163 19.0034 18.6031 18.6099Z" stroke="white" stroke-width="2" stroke-linecap="round" stroke-linejoin="round"/>
</g>
<defs>
<clipPath id="clip0_1126_413">
<rect width="24" height="24" fill="white" transform="translate(10 9)"/>
</clipPath>
</defs>
</svg>
