<svg width="48" height="48" viewBox="0 0 48 48" fill="none" xmlns="http://www.w3.org/2000/svg">
<circle cx="24" cy="24" r="24" fill="#6083F3"/>
<g clip-path="url(#clip0_1126_43)">
<path d="M30 16C30.7956 16 31.5587 16.3161 32.1213 16.8787C32.6839 17.4413 33 18.2044 33 19V27C33 27.7956 32.6839 28.5587 32.1213 29.1213C31.5587 29.6839 30.7956 30 30 30H25L20 33V30H18C17.2044 30 16.4413 29.6839 15.8787 29.1213C15.3161 28.5587 15 27.7956 15 27V19C15 18.2044 15.3161 17.4413 15.8787 16.8787C16.4413 16.3161 17.2044 16 18 16H30Z" stroke="white" stroke-width="2" stroke-linecap="round" stroke-linejoin="round"/>
<path d="M21.5 21H21.51" stroke="white" stroke-width="2" stroke-linecap="round" stroke-linejoin="round"/>
<path d="M26.5 21H26.51" stroke="white" stroke-width="2" stroke-linecap="round" stroke-linejoin="round"/>
<path d="M21.5 25C21.8259 25.3326 22.2148 25.5968 22.6441 25.7772C23.0734 25.9576 23.5344 26.0505 24 26.0505C24.4656 26.0505 24.9266 25.9576 25.3559 25.7772C25.7852 25.5968 26.1741 25.3326 26.5 25" stroke="white" stroke-width="2" stroke-linecap="round" stroke-linejoin="round"/>
</g>
<defs>
<clipPath id="clip0_1126_43">
<rect width="24" height="24" fill="white" transform="translate(12 12)"/>
</clipPath>
</defs>
</svg>
