<svg width="48" height="48" viewBox="0 0 48 48" fill="none" xmlns="http://www.w3.org/2000/svg">
<circle cx="24" cy="24" r="24" fill="#6083F3"/>
<g clip-path="url(#clip0_1126_51)">
<path d="M27.536 29.586C27.1412 29.2098 26.6168 29 26.0715 29C25.5262 29 25.0018 29.2098 24.607 29.586C24.4153 29.7683 24.2626 29.9876 24.1583 30.2307C24.054 30.4737 24.0002 30.7355 24.0002 31C24.0002 31.2645 24.054 31.5263 24.1583 31.7693C24.2626 32.0124 24.4153 32.2317 24.607 32.414C25.416 33.195 26.727 33.195 27.536 32.414M27.536 32.414C26.731 33.192 28.345 31.633 27.536 32.414ZM27.536 32.414L28.996 31.004L30.456 29.585" stroke="white" stroke-width="2" stroke-linecap="round" stroke-linejoin="round"/>
<path d="M27.54 29.582L29 31.002L30.46 32.412M30.46 32.412C29.655 31.633 31.269 33.192 30.46 32.412ZM30.46 32.412C31.265 33.191 32.58 33.193 33.389 32.412C33.5807 32.2298 33.7334 32.0105 33.8377 31.7674C33.942 31.5243 33.9958 31.2626 33.9958 30.998C33.9958 30.7335 33.942 30.4718 33.8377 30.2287C33.7334 29.9856 33.5807 29.7663 33.389 29.584C32.9942 29.2079 32.4698 28.998 31.9245 28.998C31.3792 28.998 30.8548 29.2079 30.46 29.584" stroke="white" stroke-width="2" stroke-linecap="round" stroke-linejoin="round"/>
<path d="M26 15V19C26 19.2652 26.1054 19.5196 26.2929 19.7071C26.4804 19.8946 26.7348 20 27 20H31" stroke="white" stroke-width="2" stroke-linecap="round" stroke-linejoin="round"/>
<path d="M21.5 33H19C18.4696 33 17.9609 32.7893 17.5858 32.4142C17.2107 32.0391 17 31.5304 17 31V17C17 16.4696 17.2107 15.9609 17.5858 15.5858C17.9609 15.2107 18.4696 15 19 15H26L31 20V26" stroke="white" stroke-width="2" stroke-linecap="round" stroke-linejoin="round"/>
</g>
<defs>
<clipPath id="clip0_1126_51">
<rect width="24" height="24" fill="white" transform="translate(12 12)"/>
</clipPath>
</defs>
</svg>
