<svg width="48" height="48" viewBox="0 0 48 48" fill="none" xmlns="http://www.w3.org/2000/svg">
<circle cx="24" cy="24" r="24" fill="#6083F3"/>
<g clip-path="url(#clip0_1126_37)">
<path d="M18.331 20H29.67C29.9584 20 30.2434 20.0623 30.5054 20.1827C30.7674 20.3031 31.0003 20.4788 31.1881 20.6976C31.3759 20.9164 31.5141 21.1733 31.5933 21.4506C31.6726 21.7279 31.6909 22.019 31.647 22.304L30.392 30.456C30.2831 31.1644 29.9241 31.8105 29.38 32.2771C28.836 32.7438 28.1428 33.0002 27.426 33H20.574C19.8574 33 19.1645 32.7434 18.6207 32.2768C18.0768 31.8102 17.718 31.1643 17.609 30.456L16.354 22.304C16.3102 22.019 16.3285 21.7279 16.4078 21.4506C16.487 21.1733 16.6252 20.9164 16.813 20.6976C17.0008 20.4788 17.2337 20.3031 17.4957 20.1827C17.7577 20.0623 18.0427 20 18.331 20Z" stroke="white" stroke-width="2" stroke-linecap="round" stroke-linejoin="round"/>
<path d="M21 23V18C21 17.2044 21.3161 16.4413 21.8787 15.8787C22.4413 15.3161 23.2044 15 24 15C24.7956 15 25.5587 15.3161 26.1213 15.8787C26.6839 16.4413 27 17.2044 27 18V23" stroke="white" stroke-width="2" stroke-linecap="round" stroke-linejoin="round"/>
</g>
<defs>
<clipPath id="clip0_1126_37">
<rect width="24" height="24" fill="white" transform="translate(12 12)"/>
</clipPath>
</defs>
</svg>
