<svg width="48" height="48" viewBox="0 0 48 48" fill="none" xmlns="http://www.w3.org/2000/svg">
<circle cx="24" cy="24" r="24" fill="#6083F3"/>
<g clip-path="url(#clip0_1126_143)">
<path d="M31.5001 24.5719L28.5001 27.4999M23.0001 30.9999C20.8345 28.8562 18.6678 26.7135 16.5001 24.5719C16.0054 24.0905 15.6157 23.5119 15.3556 22.8726C15.0955 22.2332 14.9706 21.5469 14.9888 20.8569C15.007 20.1668 15.1678 19.4881 15.4612 18.8633C15.7546 18.2385 16.1742 17.6812 16.6935 17.2265C17.2129 16.7718 17.8208 16.4296 18.4789 16.2214C19.137 16.0132 19.8311 15.9435 20.5174 16.0167C21.2038 16.09 21.8676 16.3045 22.4669 16.6468C23.0663 16.9892 23.5883 17.4519 24.0001 18.0059C24.4136 17.456 24.9362 16.9973 25.5352 16.6585C26.1341 16.3198 26.7966 16.1084 27.481 16.0375C28.1654 15.9665 28.8571 16.0376 29.5128 16.2463C30.1685 16.455 30.7741 16.7968 31.2916 17.2503C31.8091 17.7038 32.2275 18.2592 32.5205 18.8818C32.8135 19.5044 32.9748 20.1808 32.9944 20.8686C33.0139 21.5565 32.8913 22.2409 32.6342 22.8792C32.3771 23.5174 31.991 24.0958 31.5001 24.5779" stroke="white" stroke-width="2" stroke-linecap="round" stroke-linejoin="round"/>
<path d="M27 31L29 33L33 29" stroke="white" stroke-width="2" stroke-linecap="round" stroke-linejoin="round"/>
</g>
<defs>
<clipPath id="clip0_1126_143">
<rect width="24" height="24" fill="white" transform="translate(12 12)"/>
</clipPath>
</defs>
</svg>
