<svg width="44" height="44" viewBox="0 0 44 44" fill="none" xmlns="http://www.w3.org/2000/svg">
<circle cx="22" cy="22" r="22" fill="#6083F3"/>
<g clip-path="url(#clip0_1126_171)">
<path d="M29 27.9999C29.9283 27.9999 30.8185 27.6312 31.4749 26.9748C32.1313 26.3184 32.5 25.4282 32.5 24.4999C32.5 23.5717 32.1313 22.6814 31.4749 22.025C30.8185 21.3687 29.9283 20.9999 29 20.9999H28C28.397 19.2319 27.715 17.4069 26.212 16.2129C24.709 15.0199 22.612 14.6379 20.712 15.2129C18.812 15.7879 17.397 17.2319 17 18.9999C14.801 18.9119 12.845 20.3259 12.334 22.3729C11.822 24.4199 12.898 26.5269 14.9 27.3999" stroke="white" stroke-width="2" stroke-linecap="round" stroke-linejoin="round"/>
<path d="M18 26C18 25.7348 18.1054 25.4804 18.2929 25.2929C18.4804 25.1054 18.7348 25 19 25H25C25.2652 25 25.5196 25.1054 25.7071 25.2929C25.8946 25.4804 26 25.7348 26 26V29C26 29.2652 25.8946 29.5196 25.7071 29.7071C25.5196 29.8946 25.2652 30 25 30H19C18.7348 30 18.4804 29.8946 18.2929 29.7071C18.1054 29.5196 18 29.2652 18 29V26Z" stroke="white" stroke-width="2" stroke-linecap="round" stroke-linejoin="round"/>
<path d="M20 25V23C20 22.4696 20.2107 21.9609 20.5858 21.5858C20.9609 21.2107 21.4696 21 22 21C22.5304 21 23.0391 21.2107 23.4142 21.5858C23.7893 21.9609 24 22.4696 24 23V25" stroke="white" stroke-width="2" stroke-linecap="round" stroke-linejoin="round"/>
</g>
<defs>
<clipPath id="clip0_1126_171">
<rect width="24" height="24" fill="white" transform="translate(10 10)"/>
</clipPath>
</defs>
</svg>
