<svg width="44" height="44" viewBox="0 0 44 44" fill="none" xmlns="http://www.w3.org/2000/svg">
<circle cx="22" cy="22" r="22" fill="#6083F3"/>
<g clip-path="url(#clip0_1126_208)">
<path d="M17 17C17 15.6739 17.5268 14.4021 18.4645 13.4645C19.4021 12.5268 20.6739 12 22 12C23.3261 12 24.5979 12.5268 25.5355 13.4645C26.4732 14.4021 27 15.6739 27 17V27C27 28.3261 26.4732 29.5979 25.5355 30.5355C24.5979 31.4732 23.3261 32 22 32C20.6739 32 19.4021 31.4732 18.4645 30.5355C17.5268 29.5979 17 28.3261 17 27V17Z" stroke="white" stroke-width="2" stroke-linecap="round" stroke-linejoin="round"/>
<path d="M21 17C21 17.2652 21.1054 17.5196 21.2929 17.7071C21.4804 17.8946 21.7348 18 22 18C22.2652 18 22.5196 17.8946 22.7071 17.7071C22.8946 17.5196 23 17.2652 23 17C23 16.7348 22.8946 16.4804 22.7071 16.2929C22.5196 16.1054 22.2652 16 22 16C21.7348 16 21.4804 16.1054 21.2929 16.2929C21.1054 16.4804 21 16.7348 21 17Z" stroke="white" stroke-width="2" stroke-linecap="round" stroke-linejoin="round"/>
<path d="M21 22C21 22.2652 21.1054 22.5196 21.2929 22.7071C21.4804 22.8946 21.7348 23 22 23C22.2652 23 22.5196 22.8946 22.7071 22.7071C22.8946 22.5196 23 22.2652 23 22C23 21.7348 22.8946 21.4804 22.7071 21.2929C22.5196 21.1054 22.2652 21 22 21C21.7348 21 21.4804 21.1054 21.2929 21.2929C21.1054 21.4804 21 21.7348 21 22Z" stroke="white" stroke-width="2" stroke-linecap="round" stroke-linejoin="round"/>
<path d="M21 27C21 27.2652 21.1054 27.5196 21.2929 27.7071C21.4804 27.8946 21.7348 28 22 28C22.2652 28 22.5196 27.8946 22.7071 27.7071C22.8946 27.5196 23 27.2652 23 27C23 26.7348 22.8946 26.4804 22.7071 26.2929C22.5196 26.1054 22.2652 26 22 26C21.7348 26 21.4804 26.1054 21.2929 26.2929C21.1054 26.4804 21 26.7348 21 27Z" stroke="white" stroke-width="2" stroke-linecap="round" stroke-linejoin="round"/>
</g>
<defs>
<clipPath id="clip0_1126_208">
<rect width="24" height="24" fill="white" transform="translate(10 10)"/>
</clipPath>
</defs>
</svg>
