<svg width="44" height="44" viewBox="0 0 44 44" fill="none" xmlns="http://www.w3.org/2000/svg">
<circle cx="22" cy="22" r="22" fill="#6083F3"/>
<g clip-path="url(#clip0_1126_309)">
<path d="M20 23C20 23.5304 20.2107 24.0391 20.5858 24.4142C20.9609 24.7893 21.4696 25 22 25C22.5304 25 23.0391 24.7893 23.4142 24.4142C23.7893 24.0391 24 23.5304 24 23C24 22.4696 23.7893 21.9609 23.4142 21.5858C23.0391 21.2107 22.5304 21 22 21C21.4696 21 20.9609 21.2107 20.5858 21.5858C20.2107 21.9609 20 22.4696 20 23Z" stroke="white" stroke-width="2" stroke-linecap="round" stroke-linejoin="round"/>
<path d="M18 31V30C18 29.4696 18.2107 28.9609 18.5858 28.5858C18.9609 28.2107 19.4696 28 20 28H24C24.5304 28 25.0391 28.2107 25.4142 28.5858C25.7893 28.9609 26 29.4696 26 30V31" stroke="white" stroke-width="2" stroke-linecap="round" stroke-linejoin="round"/>
<path d="M25 15C25 15.5304 25.2107 16.0391 25.5858 16.4142C25.9609 16.7893 26.4696 17 27 17C27.5304 17 28.0391 16.7893 28.4142 16.4142C28.7893 16.0391 29 15.5304 29 15C29 14.4696 28.7893 13.9609 28.4142 13.5858C28.0391 13.2107 27.5304 13 27 13C26.4696 13 25.9609 13.2107 25.5858 13.5858C25.2107 13.9609 25 14.4696 25 15Z" stroke="white" stroke-width="2" stroke-linecap="round" stroke-linejoin="round"/>
<path d="M27 20H29C29.5304 20 30.0391 20.2107 30.4142 20.5858C30.7893 20.9609 31 21.4696 31 22V23" stroke="white" stroke-width="2" stroke-linecap="round" stroke-linejoin="round"/>
<path d="M15 15C15 15.5304 15.2107 16.0391 15.5858 16.4142C15.9609 16.7893 16.4696 17 17 17C17.5304 17 18.0391 16.7893 18.4142 16.4142C18.7893 16.0391 19 15.5304 19 15C19 14.4696 18.7893 13.9609 18.4142 13.5858C18.0391 13.2107 17.5304 13 17 13C16.4696 13 15.9609 13.2107 15.5858 13.5858C15.2107 13.9609 15 14.4696 15 15Z" stroke="white" stroke-width="2" stroke-linecap="round" stroke-linejoin="round"/>
<path d="M13 23V22C13 21.4696 13.2107 20.9609 13.5858 20.5858C13.9609 20.2107 14.4696 20 15 20H17" stroke="white" stroke-width="2" stroke-linecap="round" stroke-linejoin="round"/>
</g>
<defs>
<clipPath id="clip0_1126_309">
<rect width="24" height="24" fill="white" transform="translate(10 10)"/>
</clipPath>
</defs>
</svg>
