<svg width="44" height="44" viewBox="0 0 44 44" fill="none" xmlns="http://www.w3.org/2000/svg">
<circle cx="22" cy="22" r="22" fill="#6083F3"/>
<g clip-path="url(#clip0_1126_312)">
<path d="M14 16C14 17.657 17.582 19 22 19C26.418 19 30 17.657 30 16C30 14.343 26.418 13 22 13C17.582 13 14 14.343 14 16Z" stroke="white" stroke-width="2" stroke-linecap="round" stroke-linejoin="round"/>
<path d="M14 16V22C14 23.657 17.582 25 22 25M30 21.5V16" stroke="white" stroke-width="2" stroke-linecap="round" stroke-linejoin="round"/>
<path d="M14 22V28C14 29.657 17.582 31 22 31" stroke="white" stroke-width="2" stroke-linecap="round" stroke-linejoin="round"/>
<path d="M25 28C25 28.7956 25.3161 29.5587 25.8787 30.1213C26.4413 30.6839 27.2044 31 28 31C28.7956 31 29.5587 30.6839 30.1213 30.1213C30.6839 29.5587 31 28.7956 31 28C31 27.2044 30.6839 26.4413 30.1213 25.8787C29.5587 25.3161 28.7956 25 28 25C27.2044 25 26.4413 25.3161 25.8787 25.8787C25.3161 26.4413 25 27.2044 25 28Z" stroke="white" stroke-width="2" stroke-linecap="round" stroke-linejoin="round"/>
<path d="M30.2 30.2L32 32" stroke="white" stroke-width="2" stroke-linecap="round" stroke-linejoin="round"/>
</g>
<defs>
<clipPath id="clip0_1126_312">
<rect width="24" height="24" fill="white" transform="translate(10 10)"/>
</clipPath>
</defs>
</svg>
