<svg width="44" height="44" viewBox="0 0 44 44" fill="none" xmlns="http://www.w3.org/2000/svg">
<circle cx="22" cy="22" r="22" fill="#6083F3"/>
<g clip-path="url(#clip0_1126_313)">
<path d="M30.0001 21.0001C29.7555 19.2404 28.9391 17.61 27.6768 16.3599C26.4144 15.1099 24.7761 14.3095 23.0141 14.0821C21.4406 13.8773 19.8416 14.1395 18.4159 14.8361C16.9902 15.5327 15.8006 16.633 14.9951 18.0001" stroke="white" stroke-width="2" stroke-linecap="round" stroke-linejoin="round"/>
<path d="M14 23C14.2313 24.6651 14.975 26.217 16.128 27.4404C17.2809 28.6639 18.7859 29.4983 20.4344 29.828C22.0829 30.1577 23.793 29.9663 25.3279 29.2804C26.8627 28.5945 28.146 27.448 29 26" stroke="white" stroke-width="2" stroke-linecap="round" stroke-linejoin="round"/>
<path d="M28 26C28 26.2652 28.1054 26.5196 28.2929 26.7071C28.4804 26.8946 28.7348 27 29 27C29.2652 27 29.5196 26.8946 29.7071 26.7071C29.8946 26.5196 30 26.2652 30 26C30 25.7348 29.8946 25.4804 29.7071 25.2929C29.5196 25.1054 29.2652 25 29 25C28.7348 25 28.4804 25.1054 28.2929 25.2929C28.1054 25.4804 28 25.7348 28 26Z" stroke="white" stroke-width="2" stroke-linecap="round" stroke-linejoin="round"/>
<path d="M14 18C14 18.2652 14.1054 18.5196 14.2929 18.7071C14.4804 18.8946 14.7348 19 15 19C15.2652 19 15.5196 18.8946 15.7071 18.7071C15.8946 18.5196 16 18.2652 16 18C16 17.7348 15.8946 17.4804 15.7071 17.2929C15.5196 17.1054 15.2652 17 15 17C14.7348 17 14.4804 17.1054 14.2929 17.2929C14.1054 17.4804 14 17.7348 14 18Z" stroke="white" stroke-width="2" stroke-linecap="round" stroke-linejoin="round"/>
<path d="M19 22C19 22.7956 19.3161 23.5587 19.8787 24.1213C20.4413 24.6839 21.2044 25 22 25C22.7956 25 23.5587 24.6839 24.1213 24.1213C24.6839 23.5587 25 22.7956 25 22C25 21.2044 24.6839 20.4413 24.1213 19.8787C23.5587 19.3161 22.7956 19 22 19C21.2044 19 20.4413 19.3161 19.8787 19.8787C19.3161 20.4413 19 21.2044 19 22Z" stroke="white" stroke-width="2" stroke-linecap="round" stroke-linejoin="round"/>
</g>
<defs>
<clipPath id="clip0_1126_313">
<rect width="24" height="24" fill="white" transform="translate(10 10)"/>
</clipPath>
</defs>
</svg>
