<svg width="44" height="44" viewBox="0 0 44 44" fill="none" xmlns="http://www.w3.org/2000/svg">
<circle cx="22" cy="22" r="22" fill="#6083F3"/>
<g clip-path="url(#clip0_1126_314)">
<path d="M13 31H31" stroke="white" stroke-width="2" stroke-linecap="round" stroke-linejoin="round"/>
<path d="M13 17V18C13 18.7956 13.3161 19.5587 13.8787 20.1213C14.4413 20.6839 15.2044 21 16 21C16.7956 21 17.5587 20.6839 18.1213 20.1213C18.6839 19.5587 19 18.7956 19 18M13 17H31M13 17L15 13H29L31 17M19 18V17M19 18C19 18.7956 19.3161 19.5587 19.8787 20.1213C20.4413 20.6839 21.2044 21 22 21C22.7956 21 23.5587 20.6839 24.1213 20.1213C24.6839 19.5587 25 18.7956 25 18M25 18V17M25 18C25 18.7956 25.3161 19.5587 25.8787 20.1213C26.4413 20.6839 27.2044 21 28 21C28.7956 21 29.5587 20.6839 30.1213 20.1213C30.6839 19.5587 31 18.7956 31 18V17" stroke="white" stroke-width="2" stroke-linecap="round" stroke-linejoin="round"/>
<path d="M15 31.0001V20.8501" stroke="white" stroke-width="2" stroke-linecap="round" stroke-linejoin="round"/>
<path d="M29 31.0001V20.8501" stroke="white" stroke-width="2" stroke-linecap="round" stroke-linejoin="round"/>
<path d="M19 31V27C19 26.4696 19.2107 25.9609 19.5858 25.5858C19.9609 25.2107 20.4696 25 21 25H23C23.5304 25 24.0391 25.2107 24.4142 25.5858C24.7893 25.9609 25 26.4696 25 27V31" stroke="white" stroke-width="2" stroke-linecap="round" stroke-linejoin="round"/>
</g>
<defs>
<clipPath id="clip0_1126_314">
<rect width="24" height="24" fill="white" transform="translate(10 10)"/>
</clipPath>
</defs>
</svg>
