<svg width="44" height="44" viewBox="0 0 44 44" fill="none" xmlns="http://www.w3.org/2000/svg">
<circle cx="22" cy="22" r="22" fill="#6083F3"/>
<g clip-path="url(#clip0_1126_316)">
<path d="M29.875 16.2701C30.2187 16.4655 30.5041 16.749 30.7018 17.0914C30.8995 17.4338 31.0025 17.8227 31 18.2181V25.5021C31 26.3111 30.557 27.0571 29.842 27.4501L23.092 31.7201C22.7574 31.9038 22.3818 32.0001 22 32.0001C21.6182 32.0001 21.2426 31.9038 20.908 31.7201L14.158 27.4501C13.8082 27.2589 13.5161 26.9772 13.3124 26.6346C13.1087 26.2919 13.0008 25.9007 13 25.5021V18.2171C13 17.4081 13.443 16.6631 14.158 16.2701L20.908 12.2901C21.2525 12.1001 21.6396 12.0005 22.033 12.0005C22.4264 12.0005 22.8135 12.1001 23.158 12.2901L29.908 16.2701H29.875Z" stroke="white" stroke-width="2" stroke-linecap="round" stroke-linejoin="round"/>
<path d="M25.5 19.422C25.812 19.602 26.003 19.937 26 20.298V23.575C26 23.939 25.803 24.275 25.485 24.452L22.485 26.374C22.3366 26.4563 22.1697 26.4995 22 26.4995C21.8303 26.4995 21.6634 26.4563 21.515 26.374L18.515 24.452C18.3587 24.3653 18.2285 24.2383 18.1379 24.0843C18.0474 23.9302 17.9997 23.7547 18 23.576V20.298C18 19.934 18.197 19.598 18.514 19.421L21.514 17.631C21.825 17.457 22.204 17.457 22.514 17.631L25.514 19.421H25.5V19.422Z" stroke="white" stroke-width="2" stroke-linecap="round" stroke-linejoin="round"/>
</g>
<defs>
<clipPath id="clip0_1126_316">
<rect width="24" height="24" fill="white" transform="translate(10 10)"/>
</clipPath>
</defs>
</svg>
