<svg width="1184" height="345" viewBox="0 0 1184 345" fill="none" xmlns="http://www.w3.org/2000/svg">
<path d="M1182 0V114.5C1182 127.203 1171.7 137.5 1159 137.5H950C937.297 137.5 927 147.797 927 160.5V270C927 282.703 937.297 293 950 293H1023C1035.7 293 1046 282.703 1046 270V119C1046 106.297 1035.7 96 1023 96H896C883.297 96 873 106.297 873 119V319.5C873 332.203 862.703 342.5 850 342.5H-1.5" stroke="#EDFF6C" stroke-opacity="0.07" stroke-width="4"/>
<g clip-path="url(#clip0_119_2)">
<path d="M966.166 240.459H963.624C958.012 240.459 953.457 235.903 953.457 230.292C953.457 226.084 956.873 222.666 961.082 222.666H958.54C952.929 222.667 948.373 218.11 948.373 212.499C948.373 206.888 952.929 202.332 958.54 202.332H961.082C956.874 202.332 953.457 198.915 953.457 194.707C953.457 189.096 958.013 184.539 963.624 184.539H966.166M1006.83 240.459H1009.38C1014.99 240.459 1019.54 235.903 1019.54 230.292C1019.54 226.084 1016.13 222.666 1011.92 222.666H1014.46C1020.07 222.666 1024.63 218.11 1024.63 212.499C1024.63 206.888 1020.07 202.332 1014.46 202.332H1011.92C1016.13 202.332 1019.54 198.914 1019.54 194.707C1019.54 189.096 1014.99 184.539 1009.38 184.539H1006.83" stroke="#1C312B" stroke-width="4" stroke-miterlimit="10" stroke-linecap="round" stroke-linejoin="round"/>
<path d="M971.249 189.623C968.444 189.623 966.166 187.346 966.166 184.54C966.166 178.929 970.722 174.372 976.333 174.372C981.944 174.372 986.5 178.929 986.5 184.54M986.5 184.54C986.5 178.929 991.056 174.372 996.667 174.372C1002.28 174.372 1006.83 178.929 1006.83 184.54C1006.83 187.346 1004.56 189.623 1001.75 189.623M986.5 184.54V194.707M971.249 235.376C968.444 235.376 966.166 237.653 966.166 240.459C966.166 246.07 970.722 250.626 976.333 250.626C981.944 250.626 986.5 246.07 986.5 240.459M986.5 240.459C986.5 246.07 991.056 250.626 996.667 250.626C1002.28 250.626 1006.83 246.07 1006.83 240.459C1006.83 237.653 1004.56 235.376 1001.75 235.376M986.5 240.459V230.292M973.791 220.125V209.958C973.791 209.29 973.923 208.629 974.178 208.012C974.434 207.396 974.808 206.835 975.28 206.363C975.752 205.891 976.312 205.516 976.929 205.261C977.546 205.005 978.207 204.874 978.875 204.874C979.542 204.874 980.203 205.005 980.82 205.261C981.437 205.516 981.997 205.891 982.469 206.363C982.941 206.835 983.316 207.396 983.571 208.012C983.827 208.629 983.958 209.29 983.958 209.958V220.125M973.791 215.041H983.958M991.584 204.874H999.209M991.584 220.125H999.209M995.396 204.874V220.125" stroke="#1C312B" stroke-width="4" stroke-miterlimit="10" stroke-linecap="round" stroke-linejoin="round"/>
</g>
<defs>
<clipPath id="clip0_119_2">
<rect width="81" height="81" fill="white" transform="translate(946 172)"/>
</clipPath>
</defs>
</svg>
