<svg width="513" height="388" viewBox="0 0 513 388" fill="none" xmlns="http://www.w3.org/2000/svg">
<path d="M71.3676 177.421V178.421V361.584H103.888V178.473V177.473H104.888H115.359C119.057 177.473 120.995 173.194 118.642 170.415C118.641 170.414 118.64 170.413 118.639 170.412L92.678 140.409L71.3676 177.421ZM71.3676 177.421H70.3676M71.3676 177.421H70.3676M70.3676 177.421H59.8974C56.2311 177.421 54.2771 173.183 56.6624 170.419L70.3676 177.421ZM82.6299 140.409L82.6308 140.408C85.2901 137.344 90.0178 137.344 92.6771 140.408L82.6299 140.409ZM82.6299 140.409L56.663 170.419L82.6299 140.409Z" fill="#EDFF6C" stroke="black" stroke-width="2"/>
<path d="M456.523 169.765L430.555 139.754C427.497 136.229 422.055 136.229 418.996 139.754L393.028 169.765C390.074 173.186 392.51 178.421 397.019 178.421H407.489V362.584H442.062V178.473H452.532C457.042 178.473 459.426 173.186 456.523 169.765Z" fill="#161616"/>
<path d="M442.062 362.637V178.474H452.532C457.042 178.474 459.426 173.187 456.523 169.818L430.555 139.807C427.497 136.282 422.055 136.282 418.996 139.807L393.028 169.818C390.074 173.239 392.51 178.474 397.019 178.474H407.489V362.637" stroke="black" stroke-width="2.59165" stroke-miterlimit="10" stroke-linecap="round"/>
<path d="M201.35 97.1484L175.381 67.1371C172.323 63.6124 166.881 63.6124 163.823 67.1371L137.854 97.1484C134.9 100.569 137.336 105.804 141.845 105.804H152.316V362.585H186.836V105.856H197.307C201.868 105.856 204.252 100.569 201.35 97.1484Z" fill="#161616"/>
<path d="M201.35 97.1484L175.381 67.1371C172.323 63.6124 166.881 63.6124 163.823 67.1371L137.854 97.1484C134.9 100.569 137.336 105.804 141.845 105.804H152.316V362.585H186.836V105.856H197.307C201.868 105.856 204.252 100.569 201.35 97.1484Z" stroke="black" stroke-width="2.59165" stroke-miterlimit="10" stroke-linecap="round"/>
<path d="M363.986 361.637V50.291V49.291H364.986H377.737C382.365 49.291 384.824 43.8775 381.801 40.3713L363.986 361.637ZM363.986 361.637H323.95V50.291V49.291H322.95H310.199C305.615 49.291 303.117 43.8714 306.135 40.3713C306.135 40.3709 306.135 40.3705 306.136 40.3702L337.7 3.88188C341.036 0.0361345 346.953 0.0443584 350.232 3.87665L350.235 3.88084L381.801 40.3702L363.986 361.637Z" fill="#EDFF6C" stroke="black" stroke-width="2"/>
<path d="M114.911 135.307L122.754 143.15L130.597 135.307L122.754 127.463L114.911 135.307Z" fill="#161616"/>
<path d="M439.236 62.4727L450.084 73.3214L460.933 62.4727L450.084 51.6239L439.236 62.4727Z" fill="#161616"/>
<path d="M182.416 27.3343L190.259 35.1776L198.102 27.3343L190.259 19.4909L182.416 27.3343Z" fill="#161616"/>
<path d="M61.6094 64.5093L74.6572 77.5571L87.705 64.5093L74.6572 51.4615L61.6094 64.5093Z" fill="#161616"/>
<path d="M381.907 125.454L388.064 131.611L394.221 125.454L388.064 119.297L381.907 125.454Z" fill="#161616"/>
<path d="M2 362.637H511" stroke="black" stroke-width="2.59165" stroke-miterlimit="10" stroke-linecap="round"/>
<path d="M297.241 100.311C300.195 90.9813 302.424 82.9472 304.083 76.3126C307.97 60.7627 301.543 44.3316 287.911 35.8828C249.658 12.0915 234.004 45.4201 234.004 45.4201C234.004 45.4201 220.942 26.501 204.771 48.4264C188.599 70.3518 221.875 113.891 221.875 113.891L297.241 100.311Z" fill="black"/>
<path d="M297.241 100.311C300.195 90.9813 302.424 82.9472 304.083 76.3126C307.97 60.7627 301.543 44.3316 287.911 35.8828C249.658 12.0915 234.004 45.4201 234.004 45.4201C234.004 45.4201 220.942 26.501 204.771 48.4264C188.599 70.3518 221.875 113.891 221.875 113.891L297.241 100.311Z" stroke="black" stroke-width="2.59165" stroke-miterlimit="10" stroke-linecap="round"/>
<path d="M155.581 179.149L232.034 164.895L285.785 165.31L349.644 179.253L345.963 347.554H162.682L155.581 179.149Z" fill="#161616"/>
<path d="M186.332 235.507C199.388 222.451 199.388 201.283 186.332 188.227C173.277 175.171 152.109 175.171 139.053 188.227C125.997 201.283 125.997 222.451 139.053 235.507C152.109 248.563 173.277 248.563 186.332 235.507Z" fill="#161616"/>
<path d="M374.612 219.543C378.855 201.574 367.727 183.567 349.758 179.324C331.789 175.081 313.782 186.208 309.539 204.178C305.296 222.147 316.423 240.154 334.392 244.397C352.362 248.64 370.368 237.512 374.612 219.543Z" fill="#161616"/>
<path d="M129.25 211.856L121.786 289.917L188.443 292.457L195.907 215.848L129.25 211.856Z" fill="#161616"/>
<path d="M375.56 211.856L383.024 289.917L316.367 292.457L308.903 215.848L375.56 211.856Z" fill="#161616"/>
<path d="M121.786 289.916L119.661 325.784C117.224 366.318 156.669 396.381 195.078 383.319L261.009 360.979L196.166 321.897L187.095 324.696L188.391 292.456L121.786 289.916Z" fill="white"/>
<path d="M121.786 289.916L119.661 325.784C117.224 366.318 156.669 396.381 195.078 383.319L261.009 360.979L196.166 321.897L187.095 324.696L188.391 292.456L121.786 289.916Z" stroke="black" stroke-width="2.59165" stroke-miterlimit="10" stroke-linecap="round"/>
<path d="M383.024 289.916L385.875 323.4C388.726 356.521 358.559 382.852 326.112 375.596L230.583 354.189C224.363 352.789 218.973 348.798 215.811 343.252L214.204 340.401C211.25 335.166 206.222 331.382 200.365 330.035L185.437 326.562C185.437 326.562 188.391 307.072 232.035 310.39C275.626 313.707 318.388 315.625 318.388 315.625L316.367 292.559L383.024 289.916Z" fill="white"/>
<path d="M383.024 289.916L385.875 323.4C388.726 356.521 358.559 382.852 326.112 375.596L230.583 354.189C224.363 352.789 218.973 348.798 215.811 343.252L214.204 340.401C211.25 335.166 206.222 331.382 200.365 330.035L185.437 326.562C185.437 326.562 188.391 307.072 232.035 310.39C275.626 313.707 318.388 315.625 318.388 315.625L316.367 292.559L383.024 289.916Z" stroke="black" stroke-width="2.59165" stroke-miterlimit="10" stroke-linecap="round"/>
<path d="M264.275 192.055H253.597C241.727 192.055 232.086 182.414 232.086 170.545V111.248H285.837V170.493C285.785 182.415 276.144 192.055 264.275 192.055Z" fill="white"/>
<path d="M264.275 192.055H253.597C241.727 192.055 232.086 182.414 232.086 170.545V111.248H285.837V170.493C285.785 182.415 276.144 192.055 264.275 192.055Z" stroke="black" stroke-width="2.59165" stroke-miterlimit="10" stroke-linecap="round"/>
<path d="M314.604 315.366L335.441 316.403" stroke="black" stroke-width="2.59165" stroke-miterlimit="10" stroke-linecap="round"/>
<path d="M185.437 326.511L171.338 330.813" stroke="black" stroke-width="2.59165" stroke-miterlimit="10" stroke-linecap="round"/>
<path d="M121.786 289.916L123.756 268.976" stroke="black" stroke-width="2.59165" stroke-miterlimit="10" stroke-linecap="round"/>
<path d="M188.443 292.456L190.257 254.669" stroke="black" stroke-width="2.59165" stroke-miterlimit="10" stroke-linecap="round"/>
<path d="M316.367 292.456L312.998 257.832" stroke="black" stroke-width="2.59165" stroke-miterlimit="10" stroke-linecap="round"/>
<path d="M383.024 289.916L381.469 273.588" stroke="black" stroke-width="2.59165" stroke-miterlimit="10" stroke-linecap="round"/>
<path d="M295.841 76.4672C295.841 76.4672 306.83 168.471 267.437 167.952C228.925 167.434 222.912 121.044 222.912 121.044C222.912 121.044 214.878 76.9855 226.696 61.1765C238.566 45.3156 287.185 32.15 295.841 76.4672Z" fill="white"/>
<path d="M295.841 76.4672C295.841 76.4672 306.83 168.471 267.437 167.952C228.925 167.434 222.912 121.044 222.912 121.044C222.912 121.044 214.878 76.9855 226.696 61.1765C238.566 45.3156 287.185 32.15 295.841 76.4672Z" stroke="black" stroke-width="2.59165" stroke-miterlimit="10" stroke-linecap="round"/>
<path d="M221.098 77.5052C221.098 77.5052 241.313 67.5014 237.529 52.4699C237.529 52.4699 231.983 47.5457 228.147 50.0337C224.311 52.5217 217.677 63.8213 217.521 72.3219C217.418 80.8744 221.098 77.5052 221.098 77.5052Z" fill="black"/>
<path d="M221.098 77.5053C221.098 77.5053 241.313 67.5015 237.529 52.47" stroke="black" stroke-width="2.59165" stroke-miterlimit="10" stroke-linecap="round"/>
<path d="M237.529 52.4696C237.529 52.4696 259.351 80.2521 287.392 57.3419C287.392 57.3419 289.31 55.8388 290.087 49.3078C290.865 42.7768 262.979 34.4317 250.072 39.0967C237.114 43.7617 237.529 52.4696 237.529 52.4696Z" fill="black"/>
<path d="M237.529 52.47C237.529 52.47 259.35 80.2525 287.392 57.3423" stroke="black" stroke-width="2.59165" stroke-miterlimit="10" stroke-linecap="round"/>
<path d="M225.296 116.016C225.296 116.016 231.205 132.136 239.187 136.23C240.069 136.645 241.105 136.438 241.727 135.712C248.258 128.507 257.847 124.879 267.488 126.175C267.644 126.175 267.799 126.227 267.955 126.227C273.242 127.004 278.218 129.233 282.364 132.602L283.66 133.691C284.749 134.572 286.304 134.209 286.977 133.017C289.776 127.574 296.359 114.253 297.085 107.567C297.085 107.567 308.799 175.157 266.659 178.63C217.366 182.725 217.78 114.72 217.78 114.72L225.296 116.016Z" fill="black"/>
<path d="M225.296 116.016C225.296 116.016 231.205 132.136 239.187 136.23C240.069 136.645 241.105 136.438 241.727 135.712C248.258 128.507 257.847 124.879 267.488 126.175C267.644 126.175 267.799 126.227 267.955 126.227C273.242 127.004 278.218 129.233 282.364 132.602L283.66 133.691C284.749 134.572 286.304 134.209 286.977 133.017C289.776 127.574 296.359 114.253 297.085 107.567C297.085 107.567 308.799 175.157 266.659 178.63C217.366 182.725 217.78 114.72 217.78 114.72L225.296 116.016Z" stroke="black" stroke-width="2.59165" stroke-miterlimit="10" stroke-linecap="round"/>
<path d="M223.482 95.5949C223.482 95.5949 218.092 88.8048 213.271 89.9451C208.451 91.0854 207.31 113.477 214.982 117.468C222.653 121.46 225.141 117.676 225.141 117.676L223.482 95.5949Z" fill="white"/>
<path d="M223.482 95.5949C223.482 95.5949 218.092 88.8048 213.271 89.9451C208.451 91.0854 207.31 113.477 214.982 117.468C222.653 121.46 227.784 113.063 227.784 113.063" stroke="black" stroke-width="2.59165" stroke-miterlimit="10" stroke-linecap="round"/>
<path d="M294.649 92.5877C294.649 92.5877 299.262 85.2793 301.854 87.7672C305.534 91.2401 306 112.854 301.595 114.565C298.64 115.705 294.131 113.632 294.131 113.632L294.649 92.5877Z" fill="white"/>
<path d="M294.649 92.5877C294.649 92.5877 299.262 85.2793 301.854 87.7672C305.534 91.2401 306 112.854 301.595 114.565C298.64 115.705 294.701 113.736 294.701 113.736" stroke="black" stroke-width="2.59165" stroke-miterlimit="10" stroke-linecap="round"/>
<path d="M253.131 140.171C253.131 140.171 261.994 149.034 275.056 139.912" stroke="white" stroke-width="2.59165" stroke-miterlimit="10" stroke-linecap="round"/>
<path d="M214.826 103.266C214.826 103.266 216.899 107.257 220.631 107.568" stroke="black" stroke-width="2.59165" stroke-miterlimit="10" stroke-linecap="round"/>
<path d="M300.506 100.725C300.506 100.725 299.055 103.265 297.24 103.006" stroke="black" stroke-width="2.59165" stroke-miterlimit="10" stroke-linecap="round"/>
<path d="M278.114 97.772C278.114 100.053 276.87 101.867 275.315 101.867C273.76 101.867 272.516 100.053 272.516 97.772C272.516 95.4913 273.76 93.6772 275.315 93.6772C276.87 93.6772 278.114 95.4913 278.114 97.772Z" fill="black"/>
<path d="M260.906 103.678C262.668 107.099 264.431 110.572 265.208 114.408C265.519 115.911 265.778 117.569 265.519 119.073C265.312 120.161 264.845 121.457 263.757 121.872C263.083 122.131 262.668 122.753 262.876 123.478C263.031 124.1 263.809 124.619 264.482 124.359C268.37 122.856 268.525 118.399 267.955 114.874C267.23 110.468 265.156 106.373 263.187 102.382C262.409 100.879 260.18 102.175 260.906 103.678Z" fill="black"/>
<path d="M241.053 100.467C241.053 100.467 247.636 95.5949 253.545 100.467" stroke="black" stroke-width="2.59165" stroke-miterlimit="10" stroke-linecap="round"/>
<path d="M237.166 91.2403C237.166 91.2403 247.844 83.3617 257.433 91.2403" stroke="black" stroke-width="2.59165" stroke-miterlimit="10" stroke-linecap="round"/>
<path d="M264.119 91.2403C264.119 91.2403 274.797 83.3617 284.386 91.2403" stroke="black" stroke-width="2.59165" stroke-miterlimit="10" stroke-linecap="round"/>
<path d="M201.49 243.988C201.49 242.959 201.713 242.043 202.158 241.241C202.604 240.429 203.222 239.801 204.014 239.355C204.816 238.9 205.722 238.672 206.732 238.672C207.969 238.672 209.029 238.999 209.91 239.652C210.791 240.306 211.38 241.197 211.677 242.325H208.885C208.677 241.89 208.38 241.558 207.994 241.33C207.618 241.102 207.187 240.989 206.702 240.989C205.92 240.989 205.287 241.261 204.802 241.805C204.316 242.35 204.074 243.077 204.074 243.988C204.074 244.899 204.316 245.627 204.802 246.171C205.287 246.716 205.92 246.988 206.702 246.988C207.187 246.988 207.618 246.874 207.994 246.646C208.38 246.419 208.677 246.087 208.885 245.651H211.677C211.38 246.78 210.791 247.671 209.91 248.324C209.029 248.968 207.969 249.29 206.732 249.29C205.722 249.29 204.816 249.067 204.014 248.621C203.222 248.166 202.604 247.537 202.158 246.735C201.713 245.934 201.49 245.018 201.49 243.988ZM216.217 247.255H219.543V249.215H213.677V238.791H216.217V247.255ZM226.13 249.319C225.15 249.319 224.249 249.092 223.427 248.636C222.615 248.181 221.967 247.547 221.482 246.735C221.007 245.914 220.769 244.993 220.769 243.973C220.769 242.954 221.007 242.038 221.482 241.226C221.967 240.414 222.615 239.781 223.427 239.325C224.249 238.87 225.15 238.642 226.13 238.642C227.11 238.642 228.006 238.87 228.818 239.325C229.639 239.781 230.283 240.414 230.748 241.226C231.223 242.038 231.461 242.954 231.461 243.973C231.461 244.993 231.223 245.914 230.748 246.735C230.273 247.547 229.629 248.181 228.818 248.636C228.006 249.092 227.11 249.319 226.13 249.319ZM226.13 247.003C226.961 247.003 227.625 246.726 228.12 246.171C228.625 245.617 228.877 244.884 228.877 243.973C228.877 243.053 228.625 242.32 228.12 241.776C227.625 241.221 226.961 240.944 226.13 240.944C225.288 240.944 224.615 241.216 224.11 241.761C223.615 242.305 223.368 243.043 223.368 243.973C223.368 244.894 223.615 245.632 224.11 246.186C224.615 246.73 225.288 247.003 226.13 247.003ZM235.814 238.791V245.028C235.814 245.651 235.967 246.132 236.274 246.468C236.581 246.805 237.031 246.973 237.625 246.973C238.219 246.973 238.675 246.805 238.992 246.468C239.308 246.132 239.467 245.651 239.467 245.028V238.791H242.006V245.013C242.006 245.943 241.808 246.73 241.412 247.374C241.016 248.017 240.481 248.503 239.808 248.829C239.145 249.156 238.403 249.319 237.581 249.319C236.759 249.319 236.022 249.161 235.368 248.844C234.725 248.517 234.215 248.032 233.839 247.389C233.463 246.735 233.274 245.943 233.274 245.013V238.791H235.814ZM248.14 238.791C249.239 238.791 250.199 239.009 251.021 239.444C251.843 239.88 252.476 240.494 252.922 241.286C253.377 242.068 253.605 242.974 253.605 244.003C253.605 245.023 253.377 245.929 252.922 246.721C252.476 247.513 251.838 248.126 251.006 248.562C250.184 248.998 249.229 249.215 248.14 249.215H244.235V238.791H248.14ZM247.977 247.018C248.937 247.018 249.684 246.755 250.219 246.231C250.754 245.706 251.021 244.963 251.021 244.003C251.021 243.043 250.754 242.295 250.219 241.761C249.684 241.226 248.937 240.959 247.977 240.959H246.774V247.018H247.977ZM262.879 241.969C262.879 242.493 262.756 242.988 262.508 243.454C262.261 243.919 261.865 244.3 261.32 244.597C260.776 244.884 260.078 245.028 259.226 245.028H257.355V249.215H255.662V238.895H259.226C260.018 238.895 260.686 239.033 261.231 239.311C261.785 239.578 262.196 239.944 262.464 240.409C262.741 240.875 262.879 241.395 262.879 241.969ZM259.226 243.647C259.87 243.647 260.35 243.503 260.667 243.216C260.983 242.919 261.142 242.503 261.142 241.969C261.142 240.84 260.503 240.276 259.226 240.276H257.355V243.647H259.226ZM270.3 249.215L267.924 245.087H266.632V249.215H264.939V238.895H268.503C269.295 238.895 269.963 239.033 270.508 239.311C271.062 239.588 271.473 239.959 271.74 240.424C272.018 240.89 272.156 241.409 272.156 241.984C272.156 242.657 271.958 243.271 271.562 243.825C271.176 244.369 270.577 244.741 269.765 244.939L272.32 249.215H270.3ZM266.632 243.736H268.503C269.137 243.736 269.612 243.577 269.929 243.261C270.256 242.944 270.419 242.518 270.419 241.984C270.419 241.449 270.26 241.033 269.944 240.736C269.627 240.429 269.147 240.276 268.503 240.276H266.632V243.736ZM279.475 249.319C278.514 249.319 277.628 249.097 276.817 248.651C276.015 248.196 275.376 247.567 274.901 246.765C274.436 245.953 274.203 245.043 274.203 244.033C274.203 243.023 274.436 242.117 274.901 241.315C275.376 240.513 276.015 239.89 276.817 239.444C277.628 238.989 278.514 238.761 279.475 238.761C280.445 238.761 281.331 238.989 282.133 239.444C282.945 239.89 283.583 240.513 284.048 241.315C284.514 242.117 284.746 243.023 284.746 244.033C284.746 245.043 284.514 245.953 284.048 246.765C283.583 247.567 282.945 248.196 282.133 248.651C281.331 249.097 280.445 249.319 279.475 249.319ZM279.475 247.849C280.158 247.849 280.767 247.696 281.301 247.389C281.836 247.072 282.252 246.627 282.549 246.052C282.855 245.468 283.009 244.795 283.009 244.033C283.009 243.271 282.855 242.602 282.549 242.028C282.252 241.454 281.836 241.013 281.301 240.706C280.767 240.4 280.158 240.246 279.475 240.246C278.792 240.246 278.183 240.4 277.648 240.706C277.114 241.013 276.693 241.454 276.386 242.028C276.089 242.602 275.94 243.271 275.94 244.033C275.94 244.795 276.089 245.468 276.386 246.052C276.693 246.627 277.114 247.072 277.648 247.389C278.183 247.696 278.792 247.849 279.475 247.849ZM287.541 249.319C287.234 249.319 286.976 249.215 286.769 249.007C286.561 248.8 286.457 248.542 286.457 248.235C286.457 247.928 286.561 247.671 286.769 247.463C286.976 247.255 287.234 247.151 287.541 247.151C287.838 247.151 288.09 247.255 288.298 247.463C288.506 247.671 288.61 247.928 288.61 248.235C288.61 248.542 288.506 248.8 288.298 249.007C288.09 249.215 287.838 249.319 287.541 249.319ZM297.107 247.107H292.786L292.043 249.215H290.276L293.974 238.88H295.934L299.631 249.215H297.85L297.107 247.107ZM296.632 245.726L294.954 240.929L293.261 245.726H296.632ZM303.378 238.895V249.215H301.685V238.895H303.378Z" fill="white"/>
</svg>
