<svg width="329" height="248" viewBox="0 0 329 248" fill="none" xmlns="http://www.w3.org/2000/svg">
<g clip-path="url(#clip0_839_24)">
<path d="M20.377 -20.377V107.444C20.377 127.701 3.95518 144.123 -16.3021 144.123H-20.748" stroke="#DFDFDF"/>
<path d="M102.627 -20.377V41.3105C102.627 52.6669 93.4208 61.873 82.0645 61.873V61.873C70.7081 61.873 61.502 71.0792 61.502 82.4355V82.4355C61.502 93.7919 70.7081 102.998 82.0645 102.998H148.568C168.826 102.998 185.247 86.5763 185.247 66.319V-20.377" stroke="#DFDFDF"/>
<path d="M143.752 -20.377V-15.931C143.752 4.32627 127.33 20.748 107.073 20.748H-20.748" stroke="#DFDFDF"/>
<path d="M267.498 -20.377V-15.931C267.498 4.32627 283.92 20.748 304.177 20.748H349.748" stroke="#DFDFDF"/>
<path d="M-20.748 102.998H24.8229C45.0802 102.998 61.502 119.42 61.502 139.677V165.056C61.502 176.412 52.2958 185.619 40.9395 185.619V185.619C29.5831 185.619 20.377 194.825 20.377 206.181V206.181C20.377 217.537 11.1708 226.744 -0.185547 226.744H-20.748" stroke="#DFDFDF"/>
<path d="M-20.748 185.619H-0.370788C11.0879 185.619 20.377 176.329 20.377 164.871V164.871C20.377 153.412 29.666 144.123 41.1247 144.123H107.073C127.33 144.123 143.752 160.545 143.752 180.802V267.869" stroke="#DFDFDF"/>
<path d="M61.502 268.054V263.423C61.502 243.165 77.9237 226.744 98.181 226.744H148.568C168.826 226.744 185.247 210.322 185.247 190.064V123.561C185.247 112.204 194.454 102.998 205.81 102.998V102.998C217.166 102.998 226.372 93.7919 226.372 82.4355V82.4355C226.372 71.0792 235.579 61.873 246.935 61.873H288.06C299.416 61.873 308.622 71.0792 308.622 82.4355V82.4355C308.622 93.7919 299.416 102.998 288.06 102.998V102.998C276.704 102.998 267.497 112.204 267.497 123.561V267.869" stroke="#DFDFDF"/>
<path d="M185.248 268.053V263.422C185.248 243.165 201.67 226.743 221.927 226.743H226.373M226.373 226.743V222.297C226.373 202.04 242.795 185.618 263.052 185.618H288.061C299.417 185.618 308.623 194.824 308.623 206.181V206.181C308.623 217.537 299.417 226.743 288.061 226.743H226.373ZM226.373 226.743V267.868" stroke="#DFDFDF"/>
<path d="M308.623 267.868V263.422C308.623 243.165 325.045 226.743 345.302 226.743H349.748" stroke="#DFDFDF"/>
<path d="M61.502 -20.377V25.194C61.502 45.4513 45.0802 61.873 24.8229 61.873H-20.748" stroke="#DFDFDF"/>
<path d="M226.372 -20.377V-15.931C226.372 4.32627 209.951 20.748 189.693 20.748H180.431C160.174 20.748 143.752 37.1698 143.752 57.4271V107.444C143.752 127.701 160.174 144.123 180.431 144.123H349.747" stroke="#DFDFDF"/>
<path d="M308.623 -20.377V25.194C308.623 45.4513 325.045 61.873 345.302 61.873H349.748" stroke="#DFDFDF"/>
<path d="M-20.748 267.869H-0.185552C11.1708 267.869 20.377 258.662 20.377 247.306V247.306C20.377 235.95 29.5831 226.744 40.9394 226.744V226.744C52.2958 226.744 61.5019 217.537 61.5019 206.181V206.181C61.5019 194.825 70.7081 185.619 82.0644 185.619H189.693C209.951 185.619 226.372 169.197 226.372 148.94V123.561C226.372 112.204 235.579 102.998 246.935 102.998V102.998C258.291 102.998 267.497 93.7919 267.497 82.4356V61.8731V41.3105C267.497 29.9542 258.291 20.748 246.935 20.748V20.748C235.579 20.748 226.372 29.9542 226.372 41.3105V41.3105C226.372 52.6669 217.166 61.8731 205.81 61.8731H139.306C119.049 61.8731 102.627 78.2948 102.627 98.5521V267.869" stroke="#DFDFDF"/>
<path d="M349.748 185.619H345.302C325.045 185.619 308.623 169.197 308.623 148.939V139.677C308.623 119.42 325.045 102.998 345.302 102.998H349.748" stroke="#DFDFDF"/>
</g>
<defs>
<clipPath id="clip0_839_24">
<rect width="329" height="247.491" fill="white"/>
</clipPath>
</defs>
</svg>
