<svg width="54" height="54" viewBox="0 0 54 54" fill="none" xmlns="http://www.w3.org/2000/svg">
<g clip-path="url(#clip0_733_477)">
<mask id="mask0_733_477" style="mask-type:luminance" maskUnits="userSpaceOnUse" x="0" y="0" width="54" height="54">
<path d="M0 0.000160217H53.9998V54H0V0.000160217Z" fill="white"/>
</mask>
<g mask="url(#mask0_733_477)">
<path d="M43.9462 49.0293H10.0557" stroke="#6083F3" stroke-miterlimit="10" stroke-linecap="round" stroke-linejoin="round"/>
<path d="M10.0546 4.97174H4.97105C4.0723 4.97161 3.21029 5.32844 2.57459 5.96378C1.939 6.59955 1.58197 7.46176 1.58203 8.36076V9.20799C1.58209 10.3314 2.02839 11.4087 2.82276 12.2031C3.21606 12.5966 3.68304 12.9088 4.19702 13.1217C4.711 13.3347 5.26191 13.4443 5.81828 13.4443C8.15799 13.4443 10.0546 11.5474 10.0546 9.20799V4.97174Z" stroke="#6083F3" stroke-miterlimit="10" stroke-linecap="round" stroke-linejoin="round"/>
<path d="M27.0009 4.97174H18.5283V9.20799C18.5283 9.76424 18.6379 10.315 18.8508 10.8289C19.0637 11.3428 19.3758 11.8098 19.7692 12.2031C20.1624 12.5966 20.6294 12.9088 21.1434 13.1218C21.6573 13.3347 22.2082 13.4443 22.7646 13.4443C25.1043 13.4443 27.0009 11.5474 27.0009 9.20799V4.97174Z" stroke="#6083F3" stroke-miterlimit="10" stroke-linecap="round" stroke-linejoin="round"/>
<path d="M43.9443 4.97174H35.4717V9.20799C35.4718 10.3314 35.9181 11.4087 36.7125 12.2031C37.1058 12.5966 37.5728 12.9087 38.0867 13.1217C38.6007 13.3347 39.1516 13.4443 39.7079 13.4443C42.0476 13.4443 43.9443 11.5474 43.9443 9.20799V4.97174Z" stroke="#6083F3" stroke-miterlimit="10" stroke-linecap="round" stroke-linejoin="round"/>
<path d="M18.5283 4.97174H10.0557V9.20799C10.0558 10.3314 10.5021 11.4087 11.2965 12.2031C11.6898 12.5966 12.1567 12.9087 12.6707 13.1217C13.1847 13.3347 13.7356 13.4443 14.2919 13.4443C16.6316 13.4443 18.5283 11.5474 18.5283 9.20799V4.97174Z" stroke="#6083F3" stroke-miterlimit="10" stroke-linecap="round" stroke-linejoin="round"/>
<path d="M35.4745 4.97174H27.002V9.20799C27.002 10.3314 27.4483 11.4087 28.2427 12.2031C28.636 12.5966 29.103 12.9088 29.6169 13.1217C30.1309 13.3347 30.6818 13.4443 31.2382 13.4443C33.5779 13.4443 35.4745 11.5474 35.4745 9.20799V4.97174Z" stroke="#6083F3" stroke-miterlimit="10" stroke-linecap="round" stroke-linejoin="round"/>
<path d="M52.4169 8.36076C52.417 7.46174 52.0599 6.59953 51.4243 5.96378C50.7886 5.32847 49.9266 4.97163 49.0279 4.97174H43.9443V9.20799C43.9443 9.76426 44.0539 10.3151 44.2668 10.829C44.4797 11.3429 44.7918 11.8099 45.1852 12.2032C45.5785 12.5967 46.0454 12.9088 46.5594 13.1218C47.0734 13.3347 47.6242 13.4443 48.1806 13.4443C50.5203 13.4443 52.4169 11.5474 52.4169 9.20799V8.36076Z" stroke="#6083F3" stroke-miterlimit="10" stroke-linecap="round" stroke-linejoin="round"/>
<path d="M52.4178 8.36031C52.4179 7.46129 52.0608 6.59908 51.4251 5.96333C50.7895 5.32802 49.9275 4.97118 49.0288 4.97129H4.97105C4.07233 4.97118 3.21037 5.32802 2.5747 5.96333C1.93905 6.59908 1.58198 7.46129 1.58203 8.36031V32.0837C1.58214 32.9825 1.93924 33.8445 2.57478 34.48C3.21033 35.1155 4.07227 35.4726 4.97105 35.4727H49.0288C49.9276 35.4726 50.7895 35.1155 51.4251 34.48C52.0606 33.8445 52.4177 32.9825 52.4178 32.0837V8.36031Z" stroke="#6083F3" stroke-miterlimit="10" stroke-linecap="round" stroke-linejoin="round"/>
<path d="M52.4178 32.0839C52.4176 32.9827 52.0605 33.8446 51.425 34.4801C50.7895 35.1156 49.9276 35.4727 49.0288 35.4729H4.96936C3.09867 35.4729 1.58203 33.9564 1.58203 32.0856V32.0839V38.8621C1.58214 39.7608 1.93924 40.6228 2.57478 41.2583C3.21033 41.8938 4.07227 42.2509 4.97105 42.251H49.0288C49.9276 42.2509 50.7895 41.8938 51.4251 41.2583C52.0606 40.6228 52.4177 39.7608 52.4178 38.8621V32.0839Z" stroke="#6083F3" stroke-miterlimit="10" stroke-linecap="round" stroke-linejoin="round"/>
<path d="M18.5291 49.0293H35.4744V42.2512H18.5291V49.0293ZM32.0853 35.4731H42.2525V20.2224H32.0853V35.4731ZM11.751 28.695H21.9181V20.2224H11.751V28.695Z" stroke="#6083F3" stroke-miterlimit="10" stroke-linecap="round" stroke-linejoin="round"/>
</g>
</g>
<defs>
<clipPath id="clip0_733_477">
<rect width="54" height="54" fill="white"/>
</clipPath>
</defs>
</svg>
