<svg width="54" height="54" viewBox="0 0 54 54" fill="none" xmlns="http://www.w3.org/2000/svg">
<g clip-path="url(#clip0_733_466)">
<mask id="mask0_733_466" style="mask-type:luminance" maskUnits="userSpaceOnUse" x="0" y="0" width="54" height="54">
<path d="M0 0.000156403H53.9998V54H0V0.000156403Z" fill="white"/>
</mask>
<g mask="url(#mask0_733_466)">
<path d="M27 44.5535V52.375" stroke="#6083F3" stroke-miterlimit="22.926" stroke-linecap="round" stroke-linejoin="round"/>
<path d="M14.3438 52.9453H39.6562V46.6172H14.3438V52.9453Z" stroke="#6083F3" stroke-miterlimit="22.926" stroke-linecap="round" stroke-linejoin="round"/>
<path d="M13.0661 35.9778C11.9126 34.1164 10.7392 31.6953 9.80245 29.3279C9.44512 28.4251 9.30527 27.4506 10.07 26.8078C10.8348 26.165 11.9656 26.2473 12.5831 26.9905C13.1749 27.7027 16.6784 32.1065 17.27 32.8186C20.5352 36.7487 26.3586 37.8549 26.9999 44.5537C27.6414 37.8549 33.4647 36.7487 36.7299 32.8186C37.3216 32.1065 40.8249 27.7027 41.4168 26.9905C42.0343 26.2473 43.1652 26.165 43.9298 26.8078C44.6946 27.4506 44.5547 28.4251 44.1975 29.3279C43.2607 31.6953 42.0874 34.1164 40.9339 35.9778M44.3733 27.414L49.3149 19.3263C50.8607 16.8966 53.7581 18.7614 52.7293 20.9548C52.009 22.4493 49.1542 29.5596 47.0101 34.2759C45.4679 37.6683 44.8454 38.5381 42.123 41.0126L37.9846 44.7744V46.0273M9.62653 27.414L4.68491 19.3263C3.13916 16.8966 0.241837 18.7614 1.27068 20.9548C1.99082 22.4493 4.84564 29.5596 6.98981 34.2759C8.53197 37.6683 9.15445 38.5381 11.8768 41.0126L16.0153 44.7744V46.0273" stroke="#6083F3" stroke-miterlimit="22.926" stroke-linecap="round" stroke-linejoin="round"/>
<path d="M27 26.3672C33.9708 26.3672 39.6562 20.6818 39.6562 13.711C39.6562 6.74014 33.9708 1.05476 27 1.05476C20.0291 1.05476 14.3438 6.74014 14.3438 13.711C14.3438 20.6818 20.0291 26.3672 27 26.3672Z" stroke="#6083F3" stroke-miterlimit="22.926" stroke-linecap="round" stroke-linejoin="round"/>
<path d="M24.3633 7.38285H29.6367V11.0742H33.3281V16.3477H29.6367V20.0391H24.3633V16.3477H20.6719V11.0742H24.3633V7.38285Z" stroke="#6083F3" stroke-miterlimit="22.926" stroke-linecap="round" stroke-linejoin="round"/>
</g>
</g>
<defs>
<clipPath id="clip0_733_466">
<rect width="54" height="54" fill="white"/>
</clipPath>
</defs>
</svg>
