<svg width="52" height="52" viewBox="0 0 52 52" fill="none" xmlns="http://www.w3.org/2000/svg">
<path d="M1.72281 16.3277C1.72281 18.3944 2.80465 20.0443 4.24156 20.2693L4.91258 24.7557C4.93059 24.876 4.99119 24.9859 5.08336 25.0653C5.17554 25.1447 5.29315 25.1884 5.41481 25.1884H5.41562L8.08723 35.2329L7.7279 35.761C7.66904 35.8475 7.63833 35.9501 7.63997 36.0547C7.6416 36.1593 7.6755 36.2608 7.73704 36.3454L13.9262 44.8556L13.9342 44.8664C14.7001 45.8668 15.1161 47.0912 15.1182 48.3512V50.3749C15.1182 50.5096 15.1717 50.6388 15.2669 50.734C15.3622 50.8293 15.4913 50.8828 15.626 50.8828H44.9992C45.1036 50.8827 45.2054 50.8505 45.2908 50.7905C45.3762 50.7306 45.4411 50.6457 45.4765 50.5476L45.6295 50.1248C45.7867 50.1587 45.9471 50.1757 46.108 50.1756C46.5449 50.1717 46.9735 50.056 47.353 49.8394C48.1505 49.3945 48.7693 48.5685 49.0509 47.5733C49.4886 46.0273 48.9841 44.482 47.9134 43.8148L50.2471 37.3668C50.272 37.2984 50.2818 37.2254 50.2759 37.1528C50.27 37.0802 50.2486 37.0097 50.2131 36.9461C50.1776 36.8826 50.1288 36.8274 50.0701 36.7843C50.0114 36.7412 49.9441 36.7113 49.8728 36.6965L41.7351 35.0086C41.6147 34.9837 41.4892 35.0032 41.3822 35.0637C41.2751 35.1242 41.1936 35.2215 41.1528 35.3376L40.4575 37.3174C40.2938 36.994 40.0948 36.6897 39.8641 36.4101C39.5212 36.0133 39.1313 35.6597 38.7031 35.3569L39.0697 35.2218C39.2799 35.1471 39.4549 34.9969 39.5606 34.8004C39.6664 34.6039 39.6953 34.3752 39.6419 34.1586L37.3859 25.3267C37.5543 25.334 37.7217 25.3568 37.8859 25.3949C37.9738 25.4158 38.0657 25.4128 38.1521 25.3862C38.2385 25.3597 38.3163 25.3106 38.3774 25.2439C38.4384 25.1773 38.4806 25.0956 38.4996 25.0072C38.5185 24.9188 38.5135 24.827 38.4851 24.7412L38.133 23.6783L43.074 22.1988C43.2518 22.1454 43.407 22.0348 43.5154 21.8841C43.6238 21.7335 43.6793 21.5512 43.6733 21.3656C43.6674 21.1801 43.6002 21.0018 43.4824 20.8584C43.3645 20.7149 43.2025 20.6145 43.0217 20.5727L37.0981 19.2071C36.8645 18.4224 36.5379 17.6685 36.1252 16.9614L39.8062 10.9333C39.811 10.9255 39.8156 10.9175 39.8198 10.9095C39.9078 10.7465 39.9395 10.559 39.91 10.3762C39.8805 10.1934 39.7915 10.0254 39.6567 9.89828C39.522 9.77121 39.3491 9.69215 39.1648 9.67339C38.9806 9.65463 38.7953 9.69721 38.6377 9.79453L32.5 13.56C32.0457 13.3347 31.5741 13.146 31.0898 12.9957C31.018 12.9732 30.9458 12.9534 30.8738 12.9326L29.2207 5.89057C29.2185 5.88078 29.2159 5.87109 29.2129 5.86152C29.1601 5.68396 29.05 5.52884 28.8999 5.42027C28.7498 5.31171 28.568 5.25577 28.3829 5.26117C28.1977 5.26657 28.0195 5.33299 27.8759 5.45012C27.7324 5.56725 27.6316 5.72851 27.5892 5.90885L25.9364 12.7919C25.6886 12.8486 25.4423 12.9148 25.1975 12.9905C24.7067 13.1418 24.229 13.3324 23.7689 13.5604L17.6345 9.79788C17.4772 9.69938 17.2916 9.6557 17.1069 9.67366C16.9221 9.69162 16.7485 9.77021 16.613 9.89716C16.4776 10.0241 16.388 10.1923 16.3581 10.3755C16.3283 10.5588 16.3599 10.7467 16.4481 10.9101C16.4524 10.9182 16.457 10.9261 16.4618 10.934L20.1426 16.9618C19.7298 17.6689 19.4031 18.423 19.1694 19.2077L13.2462 20.5734C13.0653 20.6152 12.9034 20.7156 12.7855 20.859C12.6677 21.0024 12.6006 21.1808 12.5946 21.3663C12.5886 21.5518 12.6442 21.7341 12.7526 21.8848C12.861 22.0354 13.0162 22.1461 13.194 22.1994L18.1259 23.6762L17.7857 24.7026C17.7625 24.7722 17.7547 24.846 17.7629 24.9189C17.771 24.9918 17.7949 25.0621 17.8328 25.1248C17.8708 25.1876 17.9219 25.2414 17.9827 25.2825C18.0435 25.3236 18.1125 25.3509 18.1849 25.3627L16.7765 30.318L13.5309 28.428L10.1145 17.0249L10.5594 12.3818H10.6658C10.8005 12.3818 10.9296 12.3283 11.0249 12.2331C11.1201 12.1379 11.1736 12.0087 11.1736 11.874V9.51229C11.1736 9.37761 11.1201 9.24844 11.0249 9.15321C10.9296 9.05797 10.8005 9.00447 10.6658 9.00447H10.0266C10.3848 8.48929 10.6212 7.89943 10.7179 7.27947C10.8147 6.6595 10.7693 6.02566 10.5852 5.42582C10.5569 5.33107 10.5016 5.24661 10.4261 5.18277C10.3506 5.11892 10.2581 5.07845 10.16 5.0663C10.0618 5.05415 9.96228 5.07085 9.87348 5.11435C9.78468 5.15785 9.71047 5.22627 9.65992 5.31125C9.59123 5.42588 9.48822 5.516 9.36548 5.56886C9.24274 5.62172 9.10648 5.63464 8.976 5.60578C8.84056 5.57987 8.71659 5.51233 8.62138 5.41257C8.52618 5.31282 8.46449 5.18582 8.44493 5.04932C8.19559 3.47632 7.43012 1.52135 7.39762 1.43888C7.36626 1.35941 7.31535 1.28913 7.24961 1.23456C7.18388 1.17998 7.10544 1.14288 7.02155 1.12668C6.93766 1.11047 6.85105 1.1157 6.76972 1.14187C6.68839 1.16803 6.61497 1.2143 6.55627 1.27638C4.30148 3.65985 3.29825 5.77651 3.57501 7.56706C3.65271 8.08324 3.84723 8.57487 4.14376 9.00447H2.85391C2.71923 9.00447 2.59007 9.05797 2.49483 9.15321C2.3996 9.24844 2.3461 9.37761 2.3461 9.51229V11.874C2.3461 12.0087 2.3996 12.1379 2.49483 12.2331C2.59007 12.3283 2.71923 12.3818 2.85391 12.3818H3.0614L3.13687 12.8862C2.28516 13.5655 1.72281 14.8382 1.72281 16.3277ZM5.25587 20.1871C6.519 19.7744 7.43296 18.227 7.43296 16.3277C7.43296 14.2488 6.33822 12.5909 4.88882 12.3818H9.53906L9.09472 17.0196V17.0212L8.40938 24.1727H5.85204L5.25587 20.1871ZM25.4436 49.8671L32.1001 38.5884L33.7322 38.9301C34.0804 39.0028 34.4351 39.0395 34.7908 39.0393C35.4028 39.0389 36.01 38.9316 36.5852 38.7225L33.0484 49.8671H25.4436ZM22.3392 26.8809V24.7609C23.266 24.314 24.335 23.5149 25.6016 22.0966C25.8375 22.0383 26.0666 21.9551 26.285 21.8483C27.26 21.3699 27.9784 20.4435 28.4331 19.084C28.964 20.9553 29.916 21.8248 30.7974 22.2167C32.299 23.8925 33.4264 24.6965 34.415 25.0648V26.8809C34.415 28.4822 33.7788 30.018 32.6465 31.1503C31.5142 32.2827 29.9784 32.9188 28.3771 32.9188C26.7757 32.9188 25.24 32.2827 24.1076 31.1503C22.9753 30.018 22.3392 28.4822 22.3392 26.8809ZM23.9 32.3374L23.4033 34.2935C22.9995 33.9974 22.589 33.7287 22.1876 33.481L22.4599 30.7199C22.8547 31.3293 23.3403 31.8748 23.9 32.3374ZM23.0683 20.8489C23.5164 19.9615 24.181 19.2014 25.0007 18.6388C25.8203 18.0763 26.7686 17.7294 27.7577 17.6304C27.4327 19.3546 26.7906 20.4661 25.8425 20.9342C24.8346 21.4317 23.6742 21.0953 23.0683 20.8489ZM29.1692 17.6546C30.159 17.7872 31.0988 18.1691 31.9006 18.7645C32.7023 19.36 33.3396 20.1493 33.7527 21.0585C33.4206 21.2707 33.0475 21.4103 32.6577 21.468C32.2679 21.5258 31.8703 21.5005 31.491 21.3937C30.2699 21.0223 29.4734 19.7341 29.1688 17.6544L29.1692 17.6546ZM24.7894 32.9616C25.8751 33.607 27.1148 33.9475 28.3779 33.9474C29.641 33.9473 30.8806 33.6064 31.9662 32.9608L33.1898 37.7789L25.3695 36.1413C25.0385 35.7271 24.6718 35.3429 24.2734 34.993L24.7894 32.9616ZM34.0579 37.0708L37.4914 35.8046C37.8291 35.979 38.1464 36.1901 38.4377 36.4343L37.1497 37.3053C36.3104 37.8696 35.2962 38.1137 34.292 37.993L34.0579 37.0708ZM48.0735 47.2973C47.8678 48.0242 47.4133 48.6432 46.8579 48.9528C46.696 49.0501 46.5165 49.1145 46.3296 49.1421C46.1427 49.1697 45.9523 49.16 45.7691 49.1136C44.8551 48.8538 44.4017 47.6158 44.7589 46.354C44.9646 45.6271 45.4191 45.0081 45.9745 44.6985C46.2017 44.567 46.4585 44.4952 46.721 44.49C46.8368 44.4899 46.952 44.5059 47.0634 44.5375C47.9781 44.7974 48.4311 46.0354 48.0739 47.2976L48.0735 47.2973ZM40.724 41.262C40.9839 40.5195 41.0652 39.7262 40.9615 38.9464L41.9633 36.0942L49.0921 37.5729L46.9523 43.4874C46.4401 43.4422 45.9264 43.5554 45.4805 43.8116C44.6831 44.2566 44.0642 45.0826 43.7826 46.0777C43.375 47.5179 43.7849 48.9573 44.7085 49.6872L44.6429 49.8671H37.696L40.724 41.262ZM39.1657 37.1676C39.5695 37.6949 39.8358 38.3144 39.9406 38.9703C40.0455 39.6262 39.9855 40.2979 39.7661 40.9249L36.6191 49.8671H34.1135L37.8648 38.0475L39.1657 37.1676ZM38.6295 34.3022L33.8061 36.0809L32.8551 32.3363C33.6606 31.6737 34.3094 30.8408 34.7546 29.8975C35.1999 28.9542 35.4306 27.924 35.4302 26.8809V25.3133C35.7332 25.3487 36.0384 25.3616 36.3433 25.3518L38.6295 34.3022ZM37.4467 20.8507C37.4255 20.6702 37.3984 20.4903 37.3655 20.3115L42.1525 21.4151L37.8136 22.7144L37.3431 21.2943C37.4282 21.163 37.4649 21.0061 37.4467 20.8507ZM37.2711 24.307C37.0439 24.3032 36.8242 24.3143 36.6078 24.3252C35.5566 24.3776 34.4737 24.4306 32.4808 22.5066C33.365 22.4472 34.1483 22.0873 34.5846 21.6902L36.3803 21.6182L37.2711 24.307ZM38.5517 11.0398L35.5017 16.0347C34.9407 15.2985 34.2634 14.6586 33.4964 14.1404L38.5517 11.0398ZM28.4051 6.86069L29.7715 12.6817C28.8642 12.5282 27.9399 12.5028 27.0255 12.6063L28.4051 6.86069ZM17.7159 11.0398L22.7718 14.1408C22.0046 14.6588 21.3271 15.2985 20.7659 16.0347L17.7159 11.0398ZM25.4983 13.9607C27.2204 13.4237 29.0655 13.4252 30.7868 13.9651C35.1094 15.3159 36.1481 19.1921 36.3856 20.6018L34.6916 20.6697C34.1442 19.4591 33.2612 18.4307 32.1471 17.7066C31.0331 16.9825 29.7348 16.593 28.4062 16.5842C27.0775 16.5755 25.7742 16.9478 24.6508 17.6572C23.5273 18.3665 22.6307 19.3831 22.0674 20.5865H19.8843C20.1266 19.1635 21.1758 15.3014 25.4983 13.9607ZM19.8827 21.6023H22.2702C22.8537 21.8965 23.4826 22.0899 24.1305 22.1744C21.9514 24.3315 20.5698 24.3197 19.3356 24.3084C19.2177 24.3073 19.1015 24.3061 18.9867 24.3068L19.8827 21.6023ZM21.6188 28.9012L21.2235 32.9077L21.1382 32.858L19.8195 32.0901L20.9197 25.2276C21.051 25.2038 21.1856 25.1739 21.3236 25.138V26.881C21.3235 27.5651 21.4229 28.2456 21.6188 28.9011V28.9012ZM14.1155 21.4154L18.9021 20.3119C18.869 20.4904 18.8419 20.6699 18.8209 20.8502C18.8032 21.0017 18.8377 21.1546 18.9185 21.2839L18.4453 22.7122L14.1155 21.4154ZM19.2517 25.3234H19.3258C19.5036 25.3251 19.6867 25.3266 19.8757 25.3234L18.8787 31.5423L17.682 30.8455L19.2517 25.3234ZM20.2384 33.5094L17.1402 38.0187C17.1013 38.0737 17.0736 38.1358 17.0589 38.2015C17.0442 38.2672 17.0427 38.3352 17.0545 38.4014C17.0663 38.4677 17.0911 38.531 17.1276 38.5876C17.1641 38.6442 17.2114 38.693 17.2669 38.7311C17.3224 38.7692 17.3849 38.7959 17.4509 38.8096C17.5168 38.8234 17.5848 38.8239 17.6509 38.8111C17.717 38.7983 17.7799 38.7725 17.8359 38.7352C17.8919 38.6978 17.94 38.6498 17.9773 38.5937L21.1178 34.0226C23.1091 35.1977 25.367 36.7161 25.8541 39.6534C25.8761 39.7863 25.95 39.9049 26.0595 39.9833C26.1691 40.0617 26.3053 40.0934 26.4381 40.0713C26.571 40.0493 26.6897 39.9754 26.7681 39.8658C26.8465 39.7563 26.8781 39.6201 26.8561 39.4872C26.7348 38.7394 26.4961 38.0154 26.1488 37.3421L31.0504 38.3684L24.2643 49.8671H16.9875L22.8706 44.2507C22.9668 44.1575 23.0223 44.0299 23.0249 43.8959C23.0275 43.7619 22.977 43.6323 22.8844 43.5353C22.7919 43.4384 22.6647 43.382 22.5307 43.3784C22.3968 43.3748 22.2668 43.4244 22.1692 43.5162L16.1335 49.2781V48.3507C16.1328 47.776 16.0583 47.2038 15.9119 46.6481L17.7714 44.0353C17.8101 43.981 17.8377 43.9196 17.8526 43.8546C17.8676 43.7896 17.8696 43.7223 17.8585 43.6565C17.8474 43.5907 17.8235 43.5278 17.7881 43.4713C17.7527 43.4147 17.7066 43.3657 17.6522 43.3271C17.5979 43.2884 17.5365 43.2608 17.4715 43.2458C17.4065 43.2309 17.3392 43.2289 17.2734 43.24C17.2077 43.251 17.1447 43.275 17.0882 43.3103C17.0317 43.3457 16.9827 43.3919 16.944 43.4462L15.4916 45.4868C15.2874 45.0495 15.0365 44.6355 14.7432 44.2521L12.1469 40.683L14.6181 37.0526C14.6939 36.9412 14.7223 36.8044 14.6972 36.672C14.6721 36.5397 14.5954 36.4228 14.484 36.347C14.3727 36.2712 14.2358 36.2428 14.1035 36.2679C13.9712 36.2931 13.8543 36.3698 13.7785 36.4811L11.5127 39.8104L8.7683 36.0368L13.2553 29.443L20.2384 33.5094ZM12.546 28.6803L8.84255 34.1223L6.46598 25.1884H8.87088C8.99717 25.1884 9.11893 25.1413 9.21239 25.0564C9.30585 24.9714 9.36431 24.8547 9.37636 24.729L9.85756 19.7062L12.546 28.6803ZM6.73583 2.58978C6.97583 3.2861 7.30255 4.32935 7.4418 5.20837C7.48122 5.46024 7.5772 5.6999 7.72252 5.90935C7.86785 6.11881 8.05874 6.29262 8.28087 6.41772C8.503 6.54282 8.75058 6.61597 9.00503 6.63167C9.25948 6.64737 9.51418 6.60522 9.75001 6.50837C9.8211 7.85976 8.99926 8.72396 8.6836 9.00447H5.53303C5.27401 8.81308 5.05585 8.57184 4.89136 8.29495C4.72687 8.01806 4.61938 7.71108 4.57519 7.39207C4.38507 6.09369 5.13013 4.443 6.73583 2.58978ZM3.36172 10.0201H10.158V11.3662H3.36172V10.0201ZM4.26685 12.3818C4.20835 12.3903 4.15056 12.4016 4.09328 12.4147L4.0883 12.3818H4.26685ZM4.57783 13.3747C5.57498 13.3747 6.41733 14.727 6.41733 16.3277C6.41733 17.9285 5.57498 19.2808 4.57783 19.2808C3.58069 19.2808 2.73844 17.9285 2.73844 16.3277C2.73844 14.727 3.5808 13.3747 4.57783 13.3747Z" fill="#1E1E1E"/>
</svg>
