<svg width="48" height="48" viewBox="0 0 48 48" fill="none" xmlns="http://www.w3.org/2000/svg">
<g clip-path="url(#clip0_18_62)">
<path d="M30.9686 15.594C31.0859 15.594 31.2016 15.5664 31.3063 15.5135C31.4111 15.4606 31.5019 15.3839 31.5716 15.2895L33.603 12.5393C33.7212 12.3793 33.771 12.1789 33.7415 11.9822C33.7119 11.7855 33.6055 11.6086 33.4455 11.4904C33.4388 11.4855 33.4313 11.4829 33.4245 11.4776C33.4208 11.475 33.42 11.4724 33.4159 11.4698L28.125 7.94252V5.34377C28.1248 5.18885 28.0763 5.03784 27.9862 4.91177C27.9847 4.90952 27.9851 4.90765 27.9836 4.90577L24.6086 0.218273C24.4371 0.0773064 24.222 0.000244141 24 0.000244141C23.778 0.000244141 23.5629 0.0773064 23.3914 0.218273L20.0164 4.90577C20.0141 4.9084 20.0134 4.9114 20.0115 4.91402C19.9227 5.03974 19.875 5.18986 19.875 5.34377V7.94252L14.5837 11.4698C14.5796 11.4728 14.5777 11.4758 14.574 11.4788C14.5676 11.4833 14.5605 11.4859 14.5545 11.4904C14.3945 11.6086 14.2881 11.7855 14.2585 11.9822C14.229 12.1789 14.2788 12.3793 14.397 12.5393L16.4284 15.2895C16.4981 15.3839 16.5889 15.4606 16.6937 15.5135C16.7984 15.5664 16.9141 15.594 17.0314 15.594H18.06V16.6181L12.3608 20.0779C12.3549 20.0821 12.3494 20.0867 12.3442 20.0918C12.3311 20.1004 12.3169 20.106 12.3045 20.1154C12.1445 20.2336 12.0381 20.4105 12.0085 20.6072C11.979 20.8039 12.0288 21.0043 12.147 21.1643L14.1784 23.9145C14.2481 24.0089 14.3389 24.0856 14.4437 24.1385C14.5484 24.1914 14.6641 24.219 14.7814 24.219H15.81V25.1187L8.30475 28.665C8.29913 28.6677 8.29763 28.671 8.29275 28.6737C8.17871 28.729 8.08068 28.8125 8.00792 28.9163C7.93516 29.0201 7.89007 29.1407 7.87693 29.2668C7.86379 29.3928 7.88303 29.5202 7.93282 29.6367C7.98262 29.7533 8.06133 29.8552 8.1615 29.9329L11.592 32.6325C11.7242 32.7363 11.8874 32.7927 12.0555 32.7927H13.125V37.5934H11.625C11.2273 37.5938 10.846 37.752 10.5648 38.0332C10.2836 38.3144 10.1254 38.6957 10.125 39.0934V40.5934H9C8.6023 40.5938 8.221 40.752 7.93978 41.0332C7.65856 41.3144 7.5004 41.6957 7.5 42.0934V43.5934H5.625C5.2273 43.5938 4.846 43.752 4.56478 44.0332C4.28356 44.3144 4.1254 44.6957 4.125 45.0934V47.3434C4.12713 47.4371 4.14874 47.5293 4.18843 47.6142C4.22813 47.6991 4.28506 47.7748 4.35559 47.8366C4.42612 47.8983 4.50873 47.9447 4.59815 47.9727C4.68756 48.0008 4.78185 48.01 4.875 47.9997H43.125C43.2182 48.01 43.3124 48.0008 43.4019 47.9727C43.4913 47.9447 43.5739 47.8983 43.6444 47.8366C43.7149 47.7748 43.7719 47.6991 43.8116 47.6142C43.8513 47.5293 43.8729 47.4371 43.875 47.3434V45.0934C43.8746 44.6957 43.7164 44.3144 43.4352 44.0332C43.154 43.752 42.7727 43.5938 42.375 43.5934H40.5V42.0934C40.4996 41.6957 40.3414 41.3144 40.0602 41.0332C39.779 40.752 39.3977 40.5938 39 40.5934H37.875V39.0934C37.8746 38.6957 37.7164 38.3144 37.4352 38.0332C37.154 37.752 36.7727 37.5938 36.375 37.5934H34.875V32.793H35.9445C36.1126 32.7931 36.2758 32.7367 36.408 32.6329L39.8385 29.9333C39.9388 29.8555 40.0175 29.7533 40.0672 29.6366C40.117 29.5198 40.136 29.3923 40.1227 29.2661C40.1093 29.1399 40.0639 29.0192 39.9908 28.9154C39.9177 28.8117 39.8193 28.7283 39.705 28.6733C39.7005 28.6707 39.7001 28.6677 39.6956 28.6658L32.19 25.1183V24.219H33.2186C33.3359 24.219 33.4516 24.1914 33.5563 24.1385C33.6611 24.0856 33.7519 24.0089 33.8216 23.9145L35.853 21.1643C35.9712 21.0043 36.021 20.8039 35.9915 20.6072C35.9619 20.4105 35.8555 20.2336 35.6955 20.1154C35.6831 20.106 35.6693 20.1004 35.6558 20.0918C35.6506 20.0867 35.6451 20.0821 35.6393 20.0779L29.94 16.6181V15.594H30.9686ZM30.5902 14.094H29.94V12.8438H31.5139L30.5902 14.094ZM24 1.93952L25.911 4.5934H22.089L24 1.93952ZM21.375 6.09377H26.625V7.59377H21.375V6.09377ZM17.4097 14.094L16.4865 12.8438H18.06V14.0936L17.4097 14.094ZM15.1597 22.719L14.2365 21.4688H15.81V22.7186L15.1597 22.719ZM12.315 31.293L10.7906 30.0938H13.125V31.293H12.315ZM11.625 39.0938H19.5829L19.0129 40.5938H11.625V39.0938ZM16.125 34.5938H14.625V33.0938H16.125C16.3239 33.0938 16.5147 33.0148 16.6553 32.8741C16.796 32.7335 16.875 32.5427 16.875 32.3438C16.875 32.1449 16.796 31.9541 16.6553 31.8134C16.5147 31.6728 16.3239 31.5938 16.125 31.5938H14.625V30.0938H33.375V31.5938H31.875C31.6761 31.5938 31.4853 31.6728 31.3447 31.8134C31.204 31.9541 31.125 32.1449 31.125 32.3438C31.125 32.5427 31.204 32.7335 31.3447 32.8741C31.4853 33.0148 31.6761 33.0938 31.875 33.0938H33.375V34.5938H31.875C31.6761 34.5938 31.4853 34.6728 31.3447 34.8134C31.204 34.9541 31.125 35.1449 31.125 35.3438C31.125 35.5427 31.204 35.7335 31.3447 35.8741C31.4853 36.0148 31.6761 36.0938 31.875 36.0938H33.375V37.5938H28.125V33.0938C28.125 32.8949 28.046 32.7041 27.9053 32.5634C27.7647 32.4228 27.5739 32.3438 27.375 32.3438H20.625C20.4261 32.3438 20.2353 32.4228 20.0947 32.5634C19.954 32.7041 19.875 32.8949 19.875 33.0938V37.5938H14.625V36.0938H16.125C16.3239 36.0938 16.5147 36.0148 16.6553 35.8741C16.796 35.7335 16.875 35.5427 16.875 35.3438C16.875 35.1449 16.796 34.9541 16.6553 34.8134C16.5147 34.6728 16.3239 34.5938 16.125 34.5938ZM26.625 33.8438V37.5938H21.375V33.8438H26.625ZM16.7329 46.5H5.625V45.0938H17.3029L16.7329 46.5ZM9 43.5938V42.0938H18.4429L17.8729 43.5938H9ZM18.3375 46.5L21.1875 39.0938H26.8125L29.6625 46.5H18.3375ZM42.375 45.0938V46.5H31.2671L30.6971 45.0938H42.375ZM39 42.0938V43.5938H30.1271L29.5571 42.0938H39ZM36.375 39.0938V40.5938H28.9871L28.4171 39.0938H36.375ZM35.685 31.293H34.875V30.0938H37.209L35.685 31.293ZM36.0326 28.5938H11.9674L16.7284 26.3438H31.2716L36.0326 28.5938ZM17.31 24.8438V21.4688H30.69V24.8438H17.31ZM32.8402 22.7186H32.19V21.4688H33.7639L32.8402 22.7186ZM32.5691 19.9688H15.4309L19.1378 17.7188H28.8623L32.5691 19.9688ZM19.5604 16.2188V12.8438H28.44V16.2188H19.5604ZM17.4769 11.3438L20.8519 9.09377H27.1481L30.5231 11.3438H17.4769Z" fill="#1E1E1E"/>
</g>
<defs>
<clipPath id="clip0_18_62">
<rect width="48" height="48" fill="white"/>
</clipPath>
</defs>
</svg>
