<svg width="52" height="37" viewBox="0 0 52 37" fill="none" xmlns="http://www.w3.org/2000/svg">
<path d="M50.7032 30.9375H49.8438V28.4207L51.554 16.4496C51.5714 16.3277 51.5624 16.2035 51.5276 16.0854C51.4928 15.9673 51.4331 15.8581 51.3524 15.765C51.2717 15.672 51.172 15.5974 51.06 15.5463C50.948 15.4952 50.8263 15.4688 50.7032 15.4688H48.9844C46.2752 15.4601 43.6563 16.4425 41.6212 18.2308L43.8143 6.16935C43.8368 6.04551 43.8319 5.91823 43.7998 5.79652C43.7677 5.67481 43.7092 5.56163 43.6286 5.46499C43.5479 5.36835 43.447 5.29061 43.333 5.23726C43.219 5.18391 43.0947 5.15626 42.9688 5.15626H41.25C38.4983 5.15073 35.8018 5.92835 33.4756 7.39826C31.8024 5.10374 29.6103 3.23742 27.0783 1.95166C24.5463 0.665901 21.7461 -0.00284712 18.9063 9.11087e-06H17.1875C17.0644 3.70753e-06 16.9427 0.0264553 16.8307 0.0775726C16.7187 0.12869 16.619 0.203279 16.5383 0.29629C16.4576 0.389302 16.3979 0.498563 16.3631 0.616674C16.3283 0.734786 16.3194 0.85899 16.3368 0.980878L17.2559 7.41545C14.9206 5.94038 12.2153 5.15708 9.45317 5.15626H7.73442C7.60855 5.15626 7.48421 5.18391 7.3702 5.23726C7.25619 5.29061 7.15529 5.36835 7.07464 5.46499C6.99398 5.56163 6.93554 5.67481 6.90345 5.79652C6.87135 5.91823 6.86639 6.04551 6.88891 6.16935L8.07398 12.6878C6.86195 12.2539 5.58428 12.0318 4.29692 12.0313H0.859423C0.726383 12.0313 0.595158 12.0621 0.476083 12.1215C0.357009 12.1808 0.253337 12.267 0.173234 12.3732C0.0931298 12.4794 0.038782 12.6028 0.0144705 12.7336C-0.00984101 12.8644 -0.00345203 12.9991 0.033134 13.127L3.15761 24.0625H2.57817C2.35025 24.0625 2.13167 24.1531 1.9705 24.3142C1.80934 24.4754 1.7188 24.694 1.7188 24.9219V30.9375H0.859423C0.631503 30.9375 0.412917 31.0281 0.251753 31.1892C0.090589 31.3504 4.7994e-05 31.569 4.7994e-05 31.7969V35.2344C4.7994e-05 35.4623 0.090589 35.6809 0.251753 35.8421C0.412917 36.0032 0.631503 36.0938 0.859423 36.0938H50.7032C50.9311 36.0938 51.1497 36.0032 51.3108 35.8421C51.472 35.6809 51.5625 35.4623 51.5625 35.2344V31.7969C51.5625 31.569 51.472 31.3504 51.3108 31.1892C51.1497 31.0281 50.9311 30.9375 50.7032 30.9375ZM36.0938 30.9375V28.3594C36.0938 28.1315 36.0033 27.9129 35.8421 27.7517C35.6809 27.5906 35.4623 27.5 35.2344 27.5H31.7969C31.569 27.5 31.3504 27.5906 31.1893 27.7517C31.0281 27.9129 30.9375 28.1315 30.9375 28.3594V30.9375H27.5V28.3594C27.5 28.1315 27.4095 27.9129 27.2483 27.7517C27.0872 27.5906 26.8686 27.5 26.6407 27.5H23.2032C22.9753 27.5 22.7567 27.5906 22.5955 27.7517C22.4343 27.9129 22.3438 28.1315 22.3438 28.3594V30.9375H13.2467L6.62336 24.3142C6.54355 24.2344 6.44882 24.1711 6.34455 24.1279C6.24028 24.0847 6.12853 24.0625 6.01567 24.0625H5.1563V22.3438H9.45317C9.62283 22.3438 9.78868 22.2935 9.9298 22.1994L12.2915 20.625H17.7291L23.5033 25.5744C23.6591 25.7079 23.8574 25.7813 24.0625 25.7813H44.386L48.125 28.7724V30.9375H36.0938ZM34.375 30.9375H32.6563V29.2188H34.375V30.9375ZM25.7813 30.9375H24.0625V29.2188H25.7813V30.9375ZM35.2344 24.0625H31.7969V18.778L35.2344 23.0749V24.0625ZM30.0782 24.0625H25.8506L30.0782 18.778V24.0625ZM48.9844 17.1875H49.7123L48.3464 26.7481L45.2247 24.2508C45.0722 24.1289 44.8828 24.0625 44.6875 24.0625H39.889C40.4498 22.0826 41.6415 20.3398 43.2832 19.0989C44.9248 17.858 46.9266 17.1869 48.9844 17.1875ZM41.9391 6.87501L39.3841 20.9258C38.8204 21.8673 38.4006 22.8879 38.1387 23.9536L36.9532 22.472V18.0469C36.957 14.8033 36.0829 11.6192 34.4234 8.83224C36.4686 7.54858 38.8354 6.87002 41.25 6.87501H41.9391ZM18.9063 1.71876C21.0507 1.71818 23.1742 2.14013 25.1555 2.96049C27.1368 3.78085 28.937 4.98354 30.4533 6.49987C31.9696 8.01619 33.1723 9.81642 33.9927 11.7977C34.8131 13.779 35.235 15.9025 35.2344 18.0469V20.3236L31.6086 15.791C31.5281 15.6904 31.426 15.6091 31.3098 15.5533C31.1937 15.4975 31.0664 15.4685 30.9375 15.4685C30.8087 15.4685 30.6814 15.4975 30.5653 15.5533C30.4491 15.6091 30.347 15.6904 30.2665 15.791L23.9469 23.6906L20.9498 21.1218L18.1784 1.71876H18.9063ZM9.45317 6.87501C12.4183 6.87543 15.2926 7.89768 17.5921 9.7696L18.9714 19.4262L18.6062 19.1132C18.4504 18.9797 18.2521 18.9063 18.0469 18.9063H12.0313C11.8616 18.9063 11.6957 18.9565 11.5546 19.0506L11.0401 19.3936L8.76417 6.87501H9.45317ZM4.29692 13.75C5.73267 13.7505 7.14957 14.077 8.44072 14.7049L9.48196 20.4324L9.193 20.625H4.29692C4.18853 20.6251 4.08114 20.6458 3.98046 20.6859L1.99809 13.75H4.29692ZM3.43755 25.7813H5.65968L10.8159 30.9375H3.43755V25.7813ZM49.8438 34.375H1.7188V32.6563H49.8438V34.375Z" fill="#1E1E1E"/>
<path d="M19.7657 27.5C20.2403 27.5 20.6251 27.1152 20.6251 26.6406C20.6251 26.166 20.2403 25.7812 19.7657 25.7812C19.2911 25.7812 18.9063 26.166 18.9063 26.6406C18.9063 27.1152 19.2911 27.5 19.7657 27.5Z" fill="#1E1E1E"/>
<path d="M38.6719 29.2188C39.1465 29.2188 39.5313 28.834 39.5313 28.3594C39.5313 27.8848 39.1465 27.5 38.6719 27.5C38.1973 27.5 37.8125 27.8848 37.8125 28.3594C37.8125 28.834 38.1973 29.2188 38.6719 29.2188Z" fill="#1E1E1E"/>
<path d="M42.1094 29.2188C42.584 29.2188 42.9688 28.834 42.9688 28.3594C42.9688 27.8848 42.584 27.5 42.1094 27.5C41.6348 27.5 41.25 27.8848 41.25 28.3594C41.25 28.834 41.6348 29.2188 42.1094 29.2188Z" fill="#1E1E1E"/>
<path d="M16.3282 27.5C16.8028 27.5 17.1876 27.1152 17.1876 26.6406C17.1876 26.166 16.8028 25.7812 16.3282 25.7812C15.8536 25.7812 15.4688 26.166 15.4688 26.6406C15.4688 27.1152 15.8536 27.5 16.3282 27.5Z" fill="#1E1E1E"/>
</svg>
