<svg width="44" height="44" viewBox="0 0 44 44" fill="none" xmlns="http://www.w3.org/2000/svg">
<g clip-path="url(#clip0_18_57)">
<path d="M39.1875 40.5625V35.0625H35.0625V40.5625H39.1875ZM36.4375 36.4375H37.8125V39.1875H36.4375V36.4375ZM30.9375 35.0625H26.8125V40.5625H30.9375V35.0625ZM29.5625 39.1875H28.1875V36.4375H29.5625V39.1875ZM13.0625 40.5625H17.1875V35.0625H13.0625V40.5625ZM14.4375 36.4375H15.8125V39.1875H14.4375V36.4375ZM4.8125 35.0625V40.5625H8.9375V35.0625H4.8125ZM7.5625 39.1875H6.1875V36.4375H7.5625V39.1875ZM22 15.8125C20.8629 15.8125 19.9375 16.7379 19.9375 17.875C19.9375 19.0121 20.8629 19.9375 22 19.9375C23.1371 19.9375 24.0625 19.0121 24.0625 17.875C24.0625 16.7379 23.1371 15.8125 22 15.8125ZM22 18.5625C21.823 18.5546 21.6558 18.4787 21.5334 18.3506C21.4109 18.2226 21.3426 18.0522 21.3426 17.875C21.3426 17.6978 21.4109 17.5274 21.5334 17.3994C21.6558 17.2713 21.823 17.1954 22 17.1875C22.177 17.1954 22.3442 17.2713 22.4666 17.3994C22.5891 17.5274 22.6574 17.6978 22.6574 17.875C22.6574 18.0522 22.5891 18.2226 22.4666 18.3506C22.3442 18.4787 22.177 18.5546 22 18.5625Z" fill="#1E1E1E"/>
<path d="M43.3125 15.8125V14.4375C43.3125 13.6792 42.6958 13.0625 41.9375 13.0625V7.5625C41.9375 5.52269 40.4477 3.82869 38.5 3.49938V0.6875H37.125V3.49938C35.1773 3.828 33.6875 5.522 33.6875 7.5625V13.0625C32.9292 13.0625 32.3125 13.6792 32.3125 14.4375V15.8125C32.3125 16.5708 32.9292 17.1875 33.6875 17.1875V21.3125C32.9292 21.3125 32.3125 21.9292 32.3125 22.6875V24.0625C32.3125 24.8208 32.9292 25.4375 33.6875 25.4375V29.5625H30.9375V21.7326L25.4375 15.7328V10.3125H22.6875V7.5625H24.0625V6.1875H22.6875V4.8125H21.3125V6.1875H19.9375V7.5625H21.3125V10.3125H18.5625V15.7328L13.0625 21.7326V29.5625H10.3125V25.4375C11.0708 25.4375 11.6875 24.8208 11.6875 24.0625V22.6875C11.6875 21.9292 11.0708 21.3125 10.3125 21.3125V17.1875C11.0708 17.1875 11.6875 16.5708 11.6875 15.8125V14.4375C11.6875 13.6792 11.0708 13.0625 10.3125 13.0625V7.5625C10.3125 5.52269 8.82269 3.82869 6.875 3.49938V0.6875H5.5V3.49938C3.55231 3.82869 2.0625 5.52269 2.0625 7.5625V13.0625C1.30419 13.0625 0.6875 13.6792 0.6875 14.4375V15.8125C0.6875 16.5708 1.30419 17.1875 2.0625 17.1875V21.3125C1.30419 21.3125 0.6875 21.9292 0.6875 22.6875V24.0625C0.6875 24.8208 1.30419 25.4375 2.0625 25.4375V29.5625H0.6875V33.6875H2.0625V43.3125H41.9375V33.6875H43.3125V29.5625H41.9375V25.4375C42.6958 25.4375 43.3125 24.8208 43.3125 24.0625V22.6875C43.3125 21.9292 42.6958 21.3125 41.9375 21.3125V17.1875C42.6958 17.1875 43.3125 16.5708 43.3125 15.8125ZM37.8125 4.8125C39.3291 4.8125 40.5625 6.04588 40.5625 7.5625H35.0625C35.0625 6.04588 36.2959 4.8125 37.8125 4.8125ZM35.0625 8.9375H40.5625V13.0625H35.0625V8.9375ZM33.6875 14.4375H41.9375L41.9382 15.8125H33.6875V14.4375ZM37.8125 32.3125V30.9375H39.1875V32.3125H37.8125ZM36.4375 32.3125H35.0625V30.9375H36.4375V32.3125ZM22.6875 36.4375H24.0625V41.9375H22.6875V36.4375ZM21.3125 41.9375H19.9375V36.4375H21.3125V41.9375ZM18.5625 35.0625V41.9375H11.6875V33.6875H32.3125V41.9375H25.4375V35.0625H18.5625ZM6.1875 30.9375V32.3125H4.8125V30.9375H6.1875ZM7.5625 30.9375H8.9375V32.3125H7.5625V30.9375ZM17.1875 22.6875H26.8125V29.5625H24.75V26.8125C24.75 25.2959 23.5166 24.0625 22 24.0625C20.4834 24.0625 19.25 25.2959 19.25 26.8125V29.5625H17.1875V22.6875ZM15.3127 21.3125L21.3544 14.7214C21.6844 14.3605 22.3142 14.3605 22.6449 14.7214L28.6873 21.3125H15.3127ZM30.9375 32.3125H29.5625V30.9375H30.9375V32.3125ZM32.3125 30.9375H33.6875V32.3125H32.3125V30.9375ZM15.8125 32.3125V30.9375H17.1875V32.3125H15.8125ZM18.5625 30.9375H19.9375V32.3125H18.5625V30.9375ZM23.375 29.5625H20.625V26.8125C20.625 26.0542 21.2417 25.4375 22 25.4375C22.7583 25.4375 23.375 26.0542 23.375 26.8125V29.5625ZM21.3125 30.9375H22.6875V32.3125H21.3125V30.9375ZM24.0625 30.9375H25.4375V32.3125H24.0625V30.9375ZM26.8125 30.9375H28.1875V32.3125H26.8125V30.9375ZM14.4375 32.3125H13.0625V30.9375H14.4375V32.3125ZM11.6875 32.3125H10.3125V30.9375H11.6875V32.3125ZM28.1875 29.5625V22.6875H29.5625V29.5625H28.1875ZM19.9375 11.6875H24.0625V14.2326L23.6589 13.7926C23.2334 13.3286 22.6291 13.0625 22 13.0625C21.3709 13.0625 20.7666 13.3286 20.3411 13.7926L19.9375 14.2326V11.6875ZM14.4375 22.6875H15.8139C15.8125 22.8649 15.8125 23.0636 15.8125 23.2891V29.5625H14.4375V22.6875ZM6.1875 4.8125C7.70412 4.8125 8.9375 6.04588 8.9375 7.5625H3.4375C3.4375 6.04588 4.67087 4.8125 6.1875 4.8125ZM3.4375 8.9375H8.9375V13.0625H3.4375V8.9375ZM2.0625 14.4375H10.3125L10.3132 15.8125H2.0625V14.4375ZM3.4375 17.1875H8.9375V21.3125H3.4375V17.1875ZM2.0625 22.6875H10.3125L10.3139 24.0625H2.0625V22.6875ZM3.4375 25.4375H8.9375V29.5625H3.4375V25.4375ZM2.0625 30.9375H3.4375V32.3125H2.0625V30.9375ZM3.4375 33.6875H10.3125V41.9375H3.4375V33.6875ZM40.5625 41.9375H33.6875V33.6875H40.5625V41.9375ZM41.9375 32.3125H40.5625V30.9375H41.9375V32.3125ZM40.5625 29.5625H35.0625V25.4375H40.5625V29.5625ZM41.9389 24.0625H33.6875V22.6875H41.9375L41.9389 24.0625ZM40.5625 21.3125H35.0625V17.1875H40.5625V21.3125Z" fill="#1E1E1E"/>
<path d="M36.4375 26.8125H39.1875V28.1875H36.4375V26.8125ZM36.4375 18.5625H39.1875V19.9375H36.4375V18.5625ZM36.4375 10.3125H39.1875V11.6875H36.4375V10.3125ZM4.8125 26.8125H7.5625V28.1875H4.8125V26.8125ZM4.8125 18.5625H7.5625V19.9375H4.8125V18.5625ZM4.8125 10.3125H7.5625V11.6875H4.8125V10.3125Z" fill="#1E1E1E"/>
</g>
<defs>
<clipPath id="clip0_18_57">
<rect width="44" height="44" fill="white"/>
</clipPath>
</defs>
</svg>
