<svg width="73" height="18" viewBox="0 0 73 18" fill="none" xmlns="http://www.w3.org/2000/svg">
<path fill-rule="evenodd" clip-rule="evenodd" d="M23.7107 17.2778H26.9468V0.0617676H23.7107V17.2778ZM18.4897 17.2778H21.7258V0.0617676H18.4897V17.2778ZM0.895752 17.2778H4.69266L7.97523 11.1511H11.4994L13.0096 8.58176V17.2778H16.2457V0.0617676H10.1187L0.895752 17.2778ZM13.01 8.26021H9.52394L13.01 1.75335V8.26021ZM72.1736 12.7688H68.7924V14.2744C68.7051 15.1412 68.2468 15.3023 67.2692 15.3145C66.2908 15.3023 65.8325 15.1412 65.7453 14.2744V11.2456H72.1736V6.11792C72.347 3.47997 69.3242 2.69972 67.2692 2.77439C65.2126 2.7001 62.1907 3.48036 62.364 6.11792V14.5895C62.1907 17.2275 65.2126 18.0077 67.2692 17.9334C69.3246 18.0073 72.347 17.2271 72.1736 14.5895V12.7688ZM65.7453 6.43338C65.8325 5.56625 66.2908 5.40548 67.2692 5.3929C68.2468 5.40548 68.7055 5.56625 68.7924 6.43338V8.57033H65.7453V6.43338ZM45.5001 2.90964H43.602V0.0617676H40.3659V2.90964H39.6321L38.4175 5.07364C38.1733 3.25824 35.9769 2.65285 33.7805 2.56904C31.6272 2.5397 28.9024 3.30129 28.8365 5.31556V8.26021C28.8216 9.41726 29.1371 10.2886 30.5064 10.8086L34.0297 11.7729C34.7402 11.9485 35.2527 12.5859 35.1723 13.487C34.9742 14.6219 34.5349 15.0951 33.4582 15.0875C32.8212 15.044 32.0745 14.8909 32.0745 13.9685V12.4H28.7893V14.9998C28.8479 17.357 31.1796 17.6949 33.4803 17.7681C35.6337 17.7974 38.3581 17.0358 38.4244 15.0216V11.7504C38.4392 10.5934 38.1245 9.72205 36.7545 9.202L33.2312 8.23773C32.5206 8.06209 32.0082 7.4247 32.0886 6.52367C32.2863 5.38833 32.7256 5.24165 33.8026 5.24889C34.44 5.29233 35.1212 5.44548 35.1212 6.36785V7.51233H38.4392V5.36814H40.3659V17.277H43.602V5.36928H45.5001V2.90964Z" fill="#858585"/>
<path fill-rule="evenodd" clip-rule="evenodd" d="M62.3694 2.90952H60.4705V0.0616455H57.2344V2.90952H56.5014L55.2194 5.192C54.811 3.17583 52.2012 2.55901 50.3634 2.6253C48.3076 2.55101 45.3972 3.33165 45.5706 5.96921V7.53011H48.8402V6.28467C48.9274 5.41755 49.385 5.25677 50.3634 5.2442C51.3417 5.25677 51.8001 5.41755 51.8865 6.28467V8.42162H49.3976C47.4035 8.37209 45.1865 8.99119 45.2357 13.0658C45.3473 14.7254 45.5706 17.2395 47.6511 17.3755H50.5866L51.8865 15.1872V17.4498H55.2678V5.96959C55.2818 5.76933 55.2755 5.56817 55.2491 5.36916H57.2344V17.278H60.4705V5.36916H62.3694V2.90952ZM51.8862 14.8127H50.1031C48.9514 14.7258 48.9141 13.8964 48.8767 12.9919C48.8642 11.543 49.1861 11.023 50.3999 10.9857H51.8858L51.8862 14.8127Z" fill="#858585"/>
</svg>
