<svg width="73" height="28" viewBox="0 0 73 28" fill="none" xmlns="http://www.w3.org/2000/svg">
<g clip-path="url(#clip0_119_3678)">
<path d="M14.8711 27.0206V15.7524H26.8084L28.0892 17.4218L29.4132 15.7524H72.7157V26.2435C72.7157 26.2435 71.586 27.0062 70.2764 27.0206H46.2938L44.8475 25.2433V27.0206H40.1201V23.9841C40.1201 23.9841 39.4725 24.4086 38.0766 24.4086H36.4648V27.0206H29.3053L28.0245 25.3153L26.7293 27.0206H14.8711Z" fill="white"/>
<path d="M0.940674 7.25457L3.63179 0.980103H8.28727L9.81272 4.4915V0.980103H15.5979L16.5045 3.52011L17.3824 0.980103H43.3509V2.25371C43.3509 2.25371 44.7181 0.980103 46.9559 0.980103L55.3818 1.00889L56.8856 4.47712V0.980103H61.7282L63.0594 2.97326V0.980103H67.9451V12.2554H63.0594L61.7858 10.2551V12.2554H54.6766L53.9643 10.4782H52.0503L51.3451 12.2554H46.5241C44.5957 12.2554 43.3581 11.0034 43.3581 11.0034V12.2554H36.0763L34.63 10.4782V12.2554H7.59651L6.88415 10.4782H4.97735L4.26499 12.2554H0.940674V7.25457Z" fill="white"/>
<path d="M4.58185 2.3761L0.955322 10.8164H3.31544L3.98463 9.12547H7.87739L8.54657 10.8164H10.9643L7.33773 2.3761H4.58185ZM5.92741 4.33327L7.11467 7.28343H4.74015L5.92741 4.33327Z" fill="#858585"/>
<path d="M11.2085 10.8092V2.3689L14.5688 2.38329L16.5188 7.82308L18.4256 2.3689H21.7571V10.8092H19.6488V4.59231L17.411 10.8092H15.5618L13.3168 4.59231V10.8092H11.2085Z" fill="#858585"/>
<path d="M23.2036 10.8092V2.3689H30.0897V4.25412H25.3407V5.70041H29.9746V7.4777H25.3335V8.97436H30.0825V10.8092H23.2036Z" fill="#858585"/>
<path d="M31.3059 2.3761V10.8164H33.4142V7.81589H34.2992L36.832 10.8164H39.408L36.6306 7.70796C37.7675 7.61442 38.9475 6.63583 38.9475 5.11758C38.9475 3.3403 37.5516 2.38329 35.9974 2.38329L31.3059 2.3761ZM33.4142 4.26132H35.8247C36.4003 4.26132 36.8249 4.71463 36.8249 5.14636C36.8249 5.70761 36.278 6.03141 35.8535 6.03141H33.4142V4.26132Z" fill="#858585"/>
<path d="M41.9625 10.8092H39.811V2.3689H41.9625V10.8092Z" fill="#858585"/>
<path d="M47.0708 10.8092H46.6031C44.3509 10.8092 42.991 9.03913 42.991 6.62864C42.991 4.16058 44.3437 2.3761 47.1787 2.3761H49.5101V4.37644H47.0996C45.9483 4.37644 45.128 5.27588 45.128 6.65022C45.128 8.2836 46.0634 8.96717 47.4018 8.96717H47.9559L47.0708 10.8092Z" fill="#858585"/>
<path d="M51.6617 2.37609L48.0352 10.8092H50.3953L51.0645 9.11827H54.9572L55.6264 10.8092H58.0369L54.4104 2.3689L51.6617 2.37609ZM53 4.33327L54.1873 7.28342H51.8128L53 4.33327Z" fill="#858585"/>
<path d="M58.2817 10.8092V2.3689H60.9657L64.3907 7.67198V2.3689H66.499V10.8092H63.9014L60.39 5.36942V10.8092H58.2817Z" fill="#858585"/>
<path d="M16.3176 25.5745V17.1342H23.2037V19.0194H18.4547V20.4657H23.0958V22.243H18.4547V23.7396H23.2037V25.5745H16.3176Z" fill="#858585"/>
<path d="M50.043 25.5745V17.1342H56.9291V19.0194H52.18V20.4657H56.7995V22.243H52.18V23.7396H56.9291V25.5745H50.043Z" fill="#858585"/>
<path d="M23.4698 25.5745L26.8229 21.4083L23.3906 17.1342H26.0458L28.0893 19.7749L30.14 17.1342H32.6944L29.3053 21.3507L32.6656 25.5673H30.0105L28.0245 22.9697L26.0889 25.5673L23.4698 25.5745Z" fill="#858585"/>
<path d="M32.9175 17.1414V25.5817H35.0833V22.9193H37.3067C39.1848 22.9193 40.6095 21.9192 40.6095 19.9836C40.6095 18.379 39.4942 17.1486 37.5802 17.1486H32.9175V17.1414ZM35.0833 19.0482H37.4219C38.0263 19.0482 38.4652 19.4223 38.4652 20.0196C38.4652 20.5808 38.0335 20.9909 37.4147 20.9909H35.0833V19.0482Z" fill="#858585"/>
<path d="M41.5161 17.1342V25.5745H43.6244V22.5739H44.5094L47.0423 25.5745H49.6182L46.8408 22.466C47.9777 22.3725 49.1577 21.3939 49.1577 19.8756C49.1577 18.0983 47.7618 17.1413 46.2076 17.1413L41.5161 17.1342ZM43.6316 19.0266H46.0421C46.6177 19.0266 47.0423 19.4799 47.0423 19.9116C47.0423 20.4729 46.4954 20.7967 46.0709 20.7967H43.6316V19.0266Z" fill="#858585"/>
<path d="M57.9076 25.5745V23.7396H62.1313C62.7574 23.7396 63.0236 23.4014 63.0236 23.0345C63.0236 22.6819 62.7574 22.3221 62.1313 22.3221H60.2245C58.5696 22.3221 57.6414 21.3147 57.6414 19.7965C57.6414 18.4437 58.4904 17.1414 60.9513 17.1414H65.0599L64.1749 19.041H60.6203C59.9439 19.041 59.7352 19.4007 59.7352 19.7389C59.7352 20.0915 59.9943 20.4729 60.5124 20.4729H62.5127C64.3619 20.4729 65.1606 21.5234 65.1606 22.8978C65.1606 24.3728 64.2684 25.5817 62.412 25.5817H57.9076V25.5745Z" fill="#858585"/>
<path d="M65.6495 25.5745V23.7396H69.8733C70.4993 23.7396 70.7655 23.4014 70.7655 23.0345C70.7655 22.6819 70.4993 22.3221 69.8733 22.3221H67.9665C66.3115 22.3221 65.3833 21.3147 65.3833 19.7965C65.3833 18.4437 66.2324 17.1414 68.6932 17.1414H72.8019L71.9168 19.041H68.3622C67.6859 19.041 67.4772 19.4007 67.4772 19.7389C67.4772 20.0915 67.7362 20.4729 68.2543 20.4729H70.2547C72.1039 20.4729 72.9026 21.5234 72.9026 22.8978C72.9026 24.3728 72.0104 25.5817 70.1539 25.5817H65.6495V25.5745Z" fill="#858585"/>
</g>
<defs>
<clipPath id="clip0_119_3678">
<rect width="71.9549" height="26.0333" fill="white" transform="translate(0.940674 0.983398)"/>
</clipPath>
</defs>
</svg>
