<svg width="38" height="38" viewBox="0 0 38 38" fill="none" xmlns="http://www.w3.org/2000/svg">
<path d="M26.77 31.6404C25.2739 33.0907 23.6404 32.8617 22.068 32.1747C20.404 31.4725 18.8774 31.4419 17.1217 32.1747C14.9234 33.1212 13.7632 32.8464 12.4503 31.6404C5.00031 23.9615 6.09948 12.2675 14.557 11.84C16.618 11.9469 18.053 12.9697 19.259 13.0613C21.0604 12.6949 22.7855 11.6416 24.7091 11.779C27.0143 11.9622 28.7546 12.8781 29.8996 14.5269C25.1365 17.3817 26.2662 23.6561 30.6324 25.4118C29.7622 27.7017 28.6325 29.9764 26.7548 31.6557L26.77 31.6404ZM19.1064 11.7484C18.8774 8.34404 21.6406 5.53505 24.8159 5.26025C25.2587 9.19896 21.2436 12.1301 19.1064 11.7484Z" fill="#858585"/>
</svg>
