<svg width="169" height="29" viewBox="0 0 169 29" fill="none" xmlns="http://www.w3.org/2000/svg">
<path d="M7.04126 20.8518H2.09584C0.220395 20.8518 -0.195937 19.6593 0.11534 18.6846L0.084212 18.7818C-0.1473 19.6242 0.144522 20.0503 0.405217 20.5503C1.26123 22.1923 3.94794 27.1182 3.94794 27.1182C4.28451 27.7077 4.74753 28.0326 5.51405 28.0326C7.0218 28.0326 9.44392 26.4743 9.44392 26.4743L18.4846 20.8499H7.04126V20.8518Z" fill="#A3AAB3"/>
<path d="M17.9362 0.76263C17.8661 0.597264 17.5646 0.0175097 16.728 0.0019459C16.7378 0.0019459 16.6911 0 16.6911 0H8.85272C8.03173 0 7.72045 0.535009 7.65625 0.665356C7.65625 0.665356 7.93251 0.068093 8.85078 0.068093H8.87023C9.73208 0.068093 10.0434 0.797649 10.127 0.978579C10.1367 0.998033 11.2515 3.64194 12.7826 7.26832C16.1561 15.2623 21.5489 28.0344 21.5489 28.0344H29.4534C29.4515 28.0344 18.0082 0.929941 17.9362 0.76263Z" fill="#A3AAB3"/>
<path d="M7.45152 1.15733L0.38553 18.0071C0.00032489 19.0519 0.2474 20.3437 2.13841 20.3437H7.25308L12.5039 7.92177C10.9728 4.29539 9.86197 1.65926 9.85224 1.63592C9.68882 1.24877 9.42618 0.4375 8.54682 0.4375C7.79003 0.4375 7.53128 0.970563 7.45152 1.15733ZM51.7579 20.8009H48.7444L47.0985 16.8846H39.4255L37.7543 20.8009H34.8361L41.976 4.45687H44.618L51.7579 20.8009ZM43.2503 7.86535L40.4683 14.3594H46.0557L43.2503 7.86535ZM78.0686 20.8009H75.1932V7.21556H70.0454V4.57165H83.4459L82.3409 7.21361H78.0686V20.8009ZM132.661 7.21556H123.972V11.3439H129.538V13.8944H123.972V18.2075H132.665V20.8009H121.099V4.57165H132.661V7.21556ZM153.04 20.8009H150.318V4.57165H153.04V20.8009ZM141.476 6.91401C139.818 6.91401 138.41 7.414 138.402 8.51709C138.394 9.80499 139.201 10.2525 142.254 11.2446C145.627 12.3555 147.419 13.482 147.402 16.227C147.382 19.3184 144.993 21.083 141.501 21.083C139.03 21.083 136.816 20.2814 135.128 18.797L136.178 16.2523C137.709 17.5363 139.569 18.4468 141.577 18.4566C143.33 18.4643 144.581 17.6103 144.581 16.3438C144.581 15.2854 143.97 14.5812 141.009 13.6434C137.612 12.5306 135.561 11.3692 135.577 8.60269C135.598 5.85178 138.178 4.28761 141.423 4.30512C144.668 4.32068 146.495 5.50548 146.771 5.66695L145.754 7.98208C145.089 7.62022 143.635 6.91401 141.476 6.91401ZM156.543 12.4275L163.81 4.57165H160.329L153.04 12.4275L161.049 20.8028H164.576L156.543 12.4275ZM92.2356 4.29344C87.6015 4.29344 83.8428 8.05212 83.8428 12.6863C83.8428 17.3223 87.5995 21.081 92.2356 21.081C96.8717 21.081 100.63 17.3243 100.63 12.6863C100.63 8.05212 96.8697 4.29344 92.2356 4.29344ZM92.2356 18.4624C89.047 18.4624 86.7182 15.8768 86.7182 12.6882C86.7182 9.49955 89.045 6.91401 92.2356 6.91401C95.4242 6.91401 97.7549 9.49955 97.7549 12.6882C97.7549 15.8768 95.4242 18.4624 92.2356 18.4624ZM109.79 4.57165H103.634V20.8009L109.79 20.7989C114.424 20.7989 118.181 17.299 118.181 12.6649C118.181 8.02877 114.424 4.57165 109.79 4.57165ZM109.79 18.2036L106.512 18.2075V7.2175H109.803C112.992 7.2175 115.307 9.47621 115.307 12.6649C115.307 15.8535 112.976 18.2036 109.79 18.2036ZM66.9113 13.6104C66.9113 18.4488 64.0728 21.0577 59.9542 21.0577C55.8376 21.0577 52.9991 18.4488 52.9991 13.6104V4.57165H55.8746V13.9528C55.8746 16.7912 57.5399 18.4566 59.9562 18.4566C62.3705 18.4566 64.0378 16.7893 64.0378 13.9528V4.57165H66.9113V13.6104ZM168.09 19.7153C168.09 19.118 167.604 18.6316 167.006 18.6316C166.413 18.6316 165.927 19.118 165.927 19.7153C165.927 20.3125 166.413 20.797 167.006 20.797C167.604 20.797 168.09 20.3125 168.09 19.7153ZM167.928 19.7153C167.928 20.2581 167.537 20.6472 167.006 20.6472C166.481 20.6472 166.086 20.2581 166.086 19.7153C166.086 19.1744 166.481 18.7834 167.006 18.7834C167.537 18.7834 167.928 19.1744 167.928 19.7153Z" fill="#A3AAB3"/>
<path d="M167.475 20.2681L167.214 19.9004C167.167 19.8342 167.134 19.7914 167.084 19.7525C167.271 19.7292 167.381 19.6261 167.381 19.4626C167.381 19.2953 167.265 19.1475 167.039 19.1475H166.671V20.2681H166.835V19.7661C166.92 19.7661 166.955 19.7934 167.012 19.8751L167.282 20.2681H167.475ZM167.206 19.4626C167.206 19.6222 167.074 19.6397 166.946 19.6397H166.833V19.2856H166.998C167.152 19.2856 167.206 19.3595 167.206 19.4626Z" fill="#A3AAB3"/>
</svg>
