<svg width="169" height="30" viewBox="0 0 169 30" fill="none" xmlns="http://www.w3.org/2000/svg">
<path d="M7.69238 21.8344H2.74696C0.871518 21.8344 0.455186 20.6418 0.766463 19.6671L0.735335 19.7644C0.503823 20.6068 0.795645 21.0328 1.05634 21.5328C1.91235 23.1748 4.59906 28.1008 4.59906 28.1008C4.93563 28.6903 5.39865 29.0152 6.16517 29.0152C7.67292 29.0152 10.095 27.4568 10.095 27.4568L19.1357 21.8324H7.69238V21.8344Z" fill="#858585"/>
<path d="M18.5871 1.74542C18.517 1.58005 18.2155 1.0003 17.3789 0.984734C17.3886 0.984734 17.3419 0.982788 17.3419 0.982788H9.5036C8.68261 0.982788 8.37133 1.5178 8.30713 1.64814C8.30713 1.64814 8.58339 1.05088 9.50165 1.05088H9.52111C10.383 1.05088 10.6942 1.78044 10.7779 1.96137C10.7876 1.98082 11.9024 4.62473 13.4335 8.25111C16.8069 16.2451 22.1998 29.0172 22.1998 29.0172H30.1043C30.1024 29.0172 18.659 1.91273 18.5871 1.74542Z" fill="#858585"/>
<path d="M8.10264 2.14048L1.03665 18.9903C0.651448 20.035 0.898523 21.3268 2.78953 21.3268H7.9042L13.1551 8.90492C11.624 5.27854 10.5131 2.64242 10.5034 2.61907C10.3399 2.23192 10.0773 1.42065 9.19795 1.42065C8.44116 1.42065 8.18241 1.95372 8.10264 2.14048ZM52.409 21.784H49.3955L47.7496 17.8678H40.0766L38.4055 21.784H35.4872L42.6272 5.44002H45.2691L52.409 21.784ZM43.9014 8.8485L41.1194 15.3425H46.7068L43.9014 8.8485ZM78.7197 21.784H75.8443V8.19871H70.6966V5.5548H84.097L82.992 8.19677H78.7197V21.784ZM133.312 8.19871H124.623V12.327H130.189V14.8775H124.623V19.1907H133.316V21.784H121.75V5.5548H133.312V8.19871ZM153.691 21.784H150.969V5.5548H153.691V21.784ZM142.127 7.89716C140.469 7.89716 139.061 8.39715 139.053 9.50024C139.045 10.7881 139.853 11.2356 142.905 12.2278C146.279 13.3387 148.07 14.4651 148.053 17.2102C148.033 20.3016 145.644 22.0661 142.152 22.0661C139.681 22.0661 137.467 21.2646 135.779 19.7802L136.829 17.2355C138.36 18.5195 140.22 19.43 142.228 19.4397C143.981 19.4475 145.232 18.5934 145.232 17.3269C145.232 16.2686 144.621 15.5643 141.66 14.6266C138.263 13.5138 136.213 12.3523 136.228 9.58584C136.25 6.83493 138.829 5.27076 142.074 5.28827C145.319 5.30384 147.146 6.48863 147.422 6.65011L146.405 8.96523C145.74 8.60337 144.286 7.89716 142.127 7.89716ZM157.195 13.4107L164.461 5.5548H160.981L153.691 13.4107L161.7 21.786H165.228L157.195 13.4107ZM92.8867 5.2766C88.2526 5.2766 84.4939 9.03527 84.4939 13.6694C84.4939 18.3055 88.2506 22.0642 92.8867 22.0642C97.5228 22.0642 101.281 18.3074 101.281 13.6694C101.281 9.03527 97.5209 5.2766 92.8867 5.2766ZM92.8867 19.4455C89.6981 19.4455 87.3693 16.86 87.3693 13.6714C87.3693 10.4827 89.6961 7.89716 92.8867 7.89716C96.0754 7.89716 98.406 10.4827 98.406 13.6714C98.406 16.86 96.0754 19.4455 92.8867 19.4455ZM110.441 5.5548H104.285V21.784L110.441 21.7821C115.075 21.7821 118.832 18.2821 118.832 13.648C118.832 9.01192 115.075 5.5548 110.441 5.5548ZM110.441 19.1868L107.163 19.1907V8.20066H110.454C113.643 8.20066 115.958 10.4594 115.958 13.648C115.958 16.8366 113.628 19.1868 110.441 19.1868ZM67.5624 14.5935C67.5624 19.4319 64.7239 22.0408 60.6054 22.0408C56.4887 22.0408 53.6503 19.4319 53.6503 14.5935V5.5548H56.5257V14.9359C56.5257 17.7744 58.191 19.4397 60.6073 19.4397C63.0216 19.4397 64.6889 17.7724 64.6889 14.9359V5.5548H67.5624V14.5935ZM168.741 20.6984C168.741 20.1012 168.255 19.6148 167.657 19.6148C167.064 19.6148 166.578 20.1012 166.578 20.6984C166.578 21.2957 167.064 21.7801 167.657 21.7801C168.255 21.7801 168.741 21.2957 168.741 20.6984ZM168.58 20.6984C168.58 21.2412 168.189 21.6303 167.657 21.6303C167.132 21.6303 166.737 21.2412 166.737 20.6984C166.737 20.1576 167.132 19.7665 167.657 19.7665C168.189 19.7665 168.58 20.1576 168.58 20.6984Z" fill="#858585"/>
<path d="M168.126 21.2507L167.865 20.883C167.819 20.8169 167.786 20.7741 167.735 20.7352C167.922 20.7118 168.033 20.6087 168.033 20.4453C168.033 20.278 167.916 20.1301 167.69 20.1301H167.323V21.2507H167.486V20.7488C167.572 20.7488 167.607 20.776 167.663 20.8577L167.933 21.2507H168.126ZM167.858 20.4453C167.858 20.6048 167.725 20.6223 167.597 20.6223H167.484V20.2683H167.649C167.803 20.2683 167.858 20.3422 167.858 20.4453Z" fill="#858585"/>
</svg>
