<svg width="52" height="32" viewBox="0 0 52 32" fill="none" xmlns="http://www.w3.org/2000/svg">
<g clip-path="url(#clip0_119_3673)">
<path d="M15.1428 11.8733C15.1428 12.494 15.2099 12.9973 15.3273 13.3663C15.4615 13.7354 15.6293 14.138 15.8641 14.5741C15.948 14.7083 15.9816 14.8425 15.9816 14.96C15.9816 15.1277 15.8809 15.2955 15.6628 15.4632L14.606 16.1678C14.455 16.2684 14.3041 16.3187 14.1699 16.3187C14.0021 16.3187 13.8343 16.2349 13.6666 16.0839C13.4317 15.8323 13.2304 15.5639 13.0627 15.2955C12.8949 15.0103 12.7272 14.6916 12.5427 14.3057C11.2342 15.849 9.59025 16.6207 7.61078 16.6207C6.20167 16.6207 5.07774 16.2181 4.25576 15.4129C3.43378 14.6077 3.0144 13.5341 3.0144 12.1921C3.0144 10.7662 3.51766 9.6087 4.54094 8.73639C5.56422 7.86408 6.923 7.42793 8.65084 7.42793C9.22119 7.42793 9.80832 7.47826 10.429 7.56213C11.0497 7.64601 11.6871 7.78021 12.3581 7.93118V6.7066C12.3581 5.43169 12.0897 4.54261 11.5697 4.02258C11.0329 3.50256 10.127 3.25093 8.83537 3.25093C8.24824 3.25093 7.64433 3.31803 7.02366 3.46901C6.40298 3.61998 5.79907 3.80451 5.21194 4.03936C4.94354 4.15679 4.74224 4.22389 4.62481 4.25744C4.50739 4.29099 4.42351 4.30776 4.35641 4.30776C4.12156 4.30776 4.00414 4.14001 4.00414 3.78773V2.96575C4.00414 2.69735 4.03769 2.49605 4.12156 2.37862C4.20544 2.2612 4.35641 2.14377 4.59126 2.02635C5.17839 1.72439 5.88295 1.47277 6.70493 1.27147C7.52691 1.05339 8.39921 0.95274 9.32185 0.95274C11.3181 0.95274 12.7775 1.40567 13.7169 2.31152C14.6396 3.21738 15.1093 4.59294 15.1093 6.4382V11.8733H15.1428ZM8.33211 14.4232C8.88569 14.4232 9.45605 14.3225 10.0599 14.1212C10.6639 13.9199 11.2007 13.5508 11.6536 13.0476C11.922 12.7289 12.1233 12.3766 12.2239 11.974C12.3246 11.5714 12.3917 11.0849 12.3917 10.5146V9.81C11.9052 9.69257 11.3852 9.59192 10.8484 9.52482C10.3116 9.45772 9.79155 9.42417 9.27152 9.42417C8.14759 9.42417 7.32561 9.64225 6.77203 10.0952C6.21845 10.5481 5.95005 11.1856 5.95005 12.0243C5.95005 12.8127 6.15135 13.3999 6.57073 13.8025C6.97333 14.2219 7.56046 14.4232 8.33211 14.4232ZM21.8025 16.2349C21.5006 16.2349 21.2993 16.1845 21.1651 16.0671C21.0309 15.9665 20.9134 15.7316 20.8128 15.4129L16.8706 2.44572C16.77 2.11022 16.7197 1.89215 16.7197 1.77472C16.7197 1.50632 16.8539 1.35534 17.1223 1.35534H18.7662C19.085 1.35534 19.303 1.40567 19.4205 1.52309C19.5547 1.62374 19.6553 1.8586 19.756 2.17732L22.5742 13.2824L25.1911 2.17732C25.275 1.84182 25.3756 1.62374 25.5098 1.52309C25.644 1.42244 25.8789 1.35534 26.1808 1.35534H27.5228C27.8416 1.35534 28.0596 1.40567 28.1938 1.52309C28.328 1.62374 28.4455 1.8586 28.5126 2.17732L31.163 13.4166L34.0651 2.17732C34.1658 1.84182 34.2832 1.62374 34.4006 1.52309C34.5348 1.42244 34.7529 1.35534 35.0549 1.35534H36.6149C36.8833 1.35534 37.0343 1.48954 37.0343 1.77472C37.0343 1.8586 37.0175 1.94247 37.0008 2.04312C36.984 2.14377 36.9504 2.27797 36.8833 2.4625L32.8405 15.4297C32.7399 15.7652 32.6225 15.9832 32.4883 16.0839C32.3541 16.1845 32.136 16.2516 31.8508 16.2516H30.4082C30.0894 16.2516 29.8714 16.2013 29.7372 16.0839C29.6029 15.9665 29.4855 15.7484 29.4184 15.4129L26.8183 4.59294L24.2349 15.3961C24.151 15.7316 24.0504 15.9497 23.9162 16.0671C23.782 16.1845 23.5471 16.2349 23.2452 16.2349H21.8025ZM43.3585 16.6878C42.4862 16.6878 41.6139 16.5871 40.7752 16.3858C39.9364 16.1845 39.2822 15.9665 38.846 15.7148C38.5776 15.5639 38.3931 15.3961 38.326 15.2451C38.2589 15.0942 38.2254 14.9264 38.2254 14.7754V13.9199C38.2254 13.5676 38.3596 13.3999 38.6112 13.3999C38.7118 13.3999 38.8125 13.4166 38.9131 13.4502C39.0138 13.4837 39.1648 13.5508 39.3325 13.6179C39.9029 13.8696 40.5235 14.0709 41.1778 14.2051C41.8488 14.3393 42.503 14.4064 43.174 14.4064C44.2308 14.4064 45.0528 14.2218 45.6232 13.8528C46.1935 13.4837 46.4955 12.9469 46.4955 12.2592C46.4955 11.7895 46.3445 11.4036 46.0426 11.0849C45.7406 10.7662 45.1703 10.481 44.3483 10.2126L41.9159 9.45772C40.6913 9.07189 39.7854 8.50154 39.2319 7.74666C38.6783 7.00855 38.3931 6.18657 38.3931 5.31427C38.3931 4.60971 38.5441 3.98903 38.846 3.45223C39.148 2.91543 39.5506 2.44572 40.0538 2.07667C40.5571 1.69084 41.1275 1.40567 41.7985 1.20437C42.4695 1.00306 43.174 0.919189 43.9121 0.919189C44.2812 0.919189 44.667 0.935965 45.0361 0.98629C45.4219 1.03662 45.7742 1.10372 46.1264 1.17082C46.4619 1.25469 46.7807 1.33857 47.0826 1.43922C47.3846 1.53987 47.6194 1.64052 47.7872 1.74117C48.022 1.87537 48.1898 2.00957 48.2904 2.16055C48.3911 2.29475 48.4414 2.47927 48.4414 2.71413V3.50256C48.4414 3.85483 48.3072 4.03936 48.0556 4.03936C47.9214 4.03936 47.7033 3.97226 47.4181 3.83806C46.4619 3.40191 45.3883 3.18383 44.1973 3.18383C43.2411 3.18383 42.4862 3.3348 41.9662 3.65353C41.4462 3.97226 41.1778 4.45874 41.1778 5.14652C41.1778 5.61622 41.3455 6.01882 41.681 6.33755C42.0165 6.65628 42.6372 6.975 43.5263 7.26018L45.9084 8.01506C47.1162 8.40089 47.9885 8.93769 48.5085 9.62547C49.0285 10.3132 49.2802 11.1017 49.2802 11.974C49.2802 12.6953 49.1292 13.3495 48.844 13.9199C48.542 14.4903 48.1394 14.9935 47.6194 15.3961C47.0994 15.8155 46.4787 16.1174 45.7574 16.3355C45.0025 16.5704 44.2141 16.6878 43.3585 16.6878Z" fill="#858585"/>
<path fill-rule="evenodd" clip-rule="evenodd" d="M46.5286 24.8407C41.0096 28.917 32.9911 31.081 26.0965 31.081C16.434 31.081 7.72776 27.5079 1.15191 21.5695C0.631886 21.0998 1.10159 20.4624 1.72227 20.8314C8.83491 24.9581 17.6083 27.4576 26.6836 27.4576C32.8065 27.4576 39.5334 26.1827 45.7234 23.5658C46.646 23.1464 47.4344 24.1697 46.5286 24.8407Z" fill="#858585"/>
<path fill-rule="evenodd" clip-rule="evenodd" d="M48.8269 22.2237C48.1224 21.3178 44.1634 21.7875 42.3685 22.0056C41.8317 22.0727 41.7478 21.603 42.2343 21.2507C45.388 19.0364 50.5715 19.6739 51.1754 20.412C51.7793 21.1669 51.0077 26.3504 48.0553 28.8331C47.6023 29.2189 47.1662 29.0176 47.3675 28.5144C48.0385 26.8536 49.5315 23.1128 48.8269 22.2237Z" fill="#858585"/>
</g>
<defs>
<clipPath id="clip0_119_3673">
<rect width="51.4704" height="30.1616" fill="white" transform="translate(0.470459 0.919189)"/>
</clipPath>
</defs>
</svg>
