<svg width="42" height="42" viewBox="0 0 42 42" fill="none" xmlns="http://www.w3.org/2000/svg">
<g clip-path="url(#clip0_119_3711)">
<path fill-rule="evenodd" clip-rule="evenodd" d="M0.546387 0.381226H41.7839V41.6187H0.546387V0.381226Z" fill="#858585"/>
<path fill-rule="evenodd" clip-rule="evenodd" d="M25.3791 18.4865C25.1981 18.8245 24.8004 18.9092 24.1252 18.9092H22.7385V15.062C22.7385 14.5926 22.8354 14.5447 23.3895 14.5447L23.7998 14.5325V13.8935H20.3631V14.5325H20.6652C21.1481 14.5325 21.4369 14.5806 21.4369 15.0622L21.4495 18.415C21.4495 18.897 21.2313 18.9454 20.7379 18.9454H20.4123V19.5842H26.283V17.2897C26.283 17.2891 25.7252 17.2897 25.6198 17.2897C25.6198 17.8438 25.5479 18.1852 25.3791 18.4865ZM17.8845 18.9092H16.0515V16.9307H16.4733C17.1855 16.9307 17.2818 17.0638 17.3297 18.0406H17.9931V15.1595H17.3423C17.282 16.0151 17.1857 16.2568 16.4618 16.2568H16.0517V14.5687H17.6436C18.8012 14.5687 19.1142 14.7734 19.1508 16.0996H19.8011V13.8933H11.3427V14.5323H11.7396C12.065 14.5323 12.2222 14.6046 12.2222 14.7854C12.2222 14.8816 12.2222 15.0265 12.1495 15.2197L11.053 18.1005C11.053 18.1005 11.0509 18.0971 10.9844 18.0971C10.4842 16.6562 9.79917 15.0021 9.79917 15.0021C9.76674 14.9259 9.75029 14.8438 9.75082 14.761C9.75082 14.5922 9.8595 14.5321 10.1483 14.5321H10.6312V13.893H7.58044V14.5321H7.96638C8.46036 14.5321 8.61739 14.773 8.66552 15.2432L7.5323 18.0888C7.53294 18.0888 7.50813 18.0896 7.45186 18.0804C6.9275 16.5399 6.26665 14.9783 6.26665 14.9783C6.2305 14.8938 6.24162 14.8333 6.24162 14.7971C6.23028 14.6164 6.37533 14.5319 6.70073 14.5319H6.97714V13.8928H4.08386V14.5319H4.21693C4.63881 14.5319 4.92848 14.8093 5.12081 15.3037L6.82075 19.5833H7.88187L9.12399 16.4246L10.4262 19.5833H11.4501L13.0786 15.231C13.2711 14.7124 13.4277 14.5316 13.898 14.5316H13.9904C14.4842 14.5316 14.7627 14.5798 14.7627 15.05V18.4139C14.7627 18.8842 14.4842 18.9319 13.9904 18.9319L13.653 18.9445V19.5833H19.9111V17.2925H19.2599C19.1709 18.4223 18.9208 18.9092 17.8845 18.9092ZM31.7533 17.2897C31.7533 17.844 31.681 18.1855 31.5122 18.4867C31.3312 18.8247 30.9339 18.9094 30.2592 18.9094H28.8714V15.062C28.8714 14.5926 28.9687 14.5447 29.5228 14.5447L29.9327 14.5325V13.8935H26.4967V14.5325H26.8584C27.3407 14.5325 27.5696 14.5806 27.5696 15.0622L27.5818 18.415C27.5818 18.897 27.3644 18.9454 26.8702 18.9454H26.7838V19.5842H32.4167V17.2897C32.4169 17.2891 31.8474 17.2897 31.7533 17.2897ZM38.2458 17.92C38.2458 19.2222 37.2209 19.6926 35.7015 19.6926C34.7861 19.6926 33.9055 19.1736 33.713 18.9937L33.5196 19.588H32.9413V17.2959H33.6049C33.7851 18.3902 34.5176 18.8628 35.5646 18.9092C36.4612 18.9501 37.1019 18.7105 37.1725 18.089C37.2549 17.3702 36.4627 17.4136 35.7982 17.2938L34.8222 17.1124C33.3636 16.8588 32.8938 16.4376 32.857 15.4852C32.8202 14.448 33.7609 13.773 35.0265 13.7606C35.6416 13.7606 36.4385 13.8569 37.0536 14.3517L37.3424 13.8813H37.8488V15.869H37.2095C37.0688 14.765 35.9794 14.4287 35.0509 14.4529C34.3762 14.4769 33.9303 14.8624 33.9303 15.3211C33.9303 15.7477 34.3528 15.8046 34.8905 15.8987L36.0838 16.1039C37.3013 16.3088 38.2461 16.5574 38.2461 17.9082V17.92H38.2458ZM10.9422 24.6262C10.9422 24.1883 10.8701 23.8026 10.7144 23.4881C10.5206 23.1514 10.1229 23.1028 9.4481 23.1028H8.02542V24.8034H8.47148C9.19459 24.8034 9.30348 24.6701 9.30348 23.7902H9.8319V26.6357L9.29086 26.6231C9.27909 25.6713 9.18282 25.479 8.47127 25.479H8.02521V26.9607C8.02521 27.4316 8.09709 27.4797 8.59171 27.4797H9.2547V28.1181H5.74615V27.4797L6.07176 27.4675C6.56552 27.4675 6.73475 27.4198 6.73475 26.9489V23.5856C6.73475 23.1152 6.56531 23.0666 6.07176 23.0666H5.74615V22.4282H11.5932V24.626L10.9422 24.6262ZM24.098 26.5029H23.5557C23.5799 27.1789 23.5557 27.4318 23.2059 27.4555C23.0375 27.4677 22.9047 27.3109 22.8805 26.9738C22.8805 26.8531 22.8931 26.6958 22.8805 26.6231C22.8204 25.8514 22.688 25.4899 21.675 25.2488C22.7601 25.1037 23.3991 24.5982 23.3991 23.7788C23.3991 22.8617 22.7243 22.4285 21.2651 22.4285H17.3464V23.0668H17.8169C18.3115 23.0668 18.3836 23.1154 18.3836 23.5859V26.9491C18.3836 27.3633 18.1162 27.481 17.7912 27.4797H17.3764C17.0632 27.4754 16.8817 27.3526 16.7162 26.926L14.8949 22.4285H13.4998L11.5941 26.926C11.4264 27.3229 11.2935 27.481 10.8475 27.481H10.5877V28.1185H13.5546V27.481H12.9639C12.661 27.481 12.5052 27.4677 12.5052 27.2876C12.5052 27.2149 12.5294 27.131 12.5778 27.0223L12.8666 26.3103H15.0847L15.3266 26.974C15.3743 27.0822 15.4105 27.1791 15.4105 27.2519C15.4105 27.444 15.2539 27.4812 14.9283 27.4812H14.313V28.1187H20.7587V27.4799H20.2405C19.7459 27.4799 19.674 27.4318 19.674 26.9609V25.4304H20.2523C21.2413 25.4304 21.543 25.623 21.5781 26.5758L21.6031 27.239C21.639 28.0229 22.1446 28.2403 22.9289 28.2403C23.6158 28.2403 24.098 27.8304 24.098 26.7923H24.1107C24.1104 26.6958 24.1104 26.5998 24.098 26.5029ZM13.1445 25.6354L14.0007 23.4534L14.868 25.6354H13.1445ZM20.9159 24.7901L19.6738 24.8034V23.0793H20.8909C21.6989 23.0793 22.0851 23.2718 22.0851 23.9354V23.9472C22.0853 24.5381 21.7109 24.7901 20.9159 24.7901ZM29.1694 24.2514C28.8958 23.3978 28.3228 23.0003 27.3834 23.0003C26.4545 23.0003 25.7197 23.76 25.7321 25.2073C25.7321 26.6772 26.323 27.4737 27.3834 27.4857C28.1551 27.4857 28.8425 27.1 28.8425 26.4481V26.1347C28.8425 25.7494 28.746 25.7494 28.2032 25.7494H27.9191V25.098H30.5632V25.7494H30.3463C29.9359 25.7494 29.8758 25.713 29.8758 26.1952V28.0997H29.409L29.1073 27.6301C28.5888 28.04 27.8413 28.233 27.1789 28.233C26.3951 28.233 25.7319 27.9559 25.2013 27.4254C24.6463 26.8584 24.3209 26.0992 24.3325 25.2071C24.3325 24.3263 24.6222 23.6267 25.1887 23.0602C25.6833 22.578 26.431 22.3001 27.2018 22.3136C27.8411 22.3136 28.5886 22.4819 29.0119 22.9278L29.3003 22.336H29.7554V24.2465L29.1694 24.2514ZM34.371 28.218C32.4811 28.218 31.012 27.0375 31.012 25.2443C31.012 23.4618 32.4811 22.2939 34.3597 22.2939C36.2496 22.2939 37.6828 23.4618 37.6828 25.2561C37.683 27.0377 36.2498 28.218 34.371 28.218ZM36.2781 25.2738C36.2781 23.244 34.9072 22.992 34.3477 22.992C33.2395 22.992 32.3968 23.7745 32.3968 25.2676C32.3968 26.7607 33.2395 27.5552 34.3477 27.5552C34.901 27.5554 36.2781 27.2842 36.2781 25.2738Z" fill="white"/>
</g>
<defs>
<clipPath id="clip0_119_3711">
<rect width="41.2375" height="41.2375" fill="white" transform="translate(0.546631 0.381226)"/>
</clipPath>
</defs>
</svg>
