<svg width="87" height="38" viewBox="0 0 87 38" fill="none" xmlns="http://www.w3.org/2000/svg">
<g clip-path="url(#clip0_119_3710)">
<path d="M37.163 20.2583C37.163 24.3174 33.9875 27.3086 30.0905 27.3086C26.1934 27.3086 23.0179 24.3174 23.0179 20.2583C23.0179 16.1705 26.1934 13.208 30.0905 13.208C33.9875 13.208 37.163 16.1705 37.163 20.2583ZM34.067 20.2583C34.067 17.7217 32.2265 15.9862 30.0905 15.9862C27.9544 15.9862 26.114 17.7217 26.114 20.2583C26.114 22.7694 27.9544 24.5304 30.0905 24.5304C32.2265 24.5304 34.067 22.7663 34.067 20.2583Z" fill="#858585"/>
<path d="M52.4207 20.2583C52.4207 24.3174 49.2452 27.3086 45.3482 27.3086C41.4511 27.3086 38.2756 24.3174 38.2756 20.2583C38.2756 16.1737 41.4511 13.208 45.3482 13.208C49.2452 13.208 52.4207 16.1705 52.4207 20.2583ZM49.3247 20.2583C49.3247 17.7217 47.4842 15.9862 45.3482 15.9862C43.2121 15.9862 41.3717 17.7217 41.3717 20.2583C41.3717 22.7694 43.2121 24.5304 45.3482 24.5304C47.4842 24.5304 49.3247 22.7663 49.3247 20.2583Z" fill="#858585"/>
<path d="M67.0428 13.6339V26.2914C67.0428 31.4981 63.9722 33.6246 60.3422 33.6246C56.9251 33.6246 54.8685 31.3391 54.0929 29.4701L56.7884 28.348C57.2684 29.4955 58.4445 30.8496 60.339 30.8496C62.6626 30.8496 64.1025 29.416 64.1025 26.7173V25.7033H63.9944C63.3015 26.5584 61.9665 27.3054 60.2818 27.3054C56.7566 27.3054 53.5271 24.2348 53.5271 20.2837C53.5271 16.304 56.7566 13.208 60.2818 13.208C61.9633 13.208 63.2983 13.955 63.9944 14.7846H64.1025V13.6371H67.0428V13.6339ZM64.3219 20.2837C64.3219 17.8012 62.6658 15.9862 60.5583 15.9862C58.4222 15.9862 56.6327 17.8012 56.6327 20.2837C56.6327 22.7408 58.4222 24.5304 60.5583 24.5304C62.6658 24.5304 64.3219 22.7408 64.3219 20.2837Z" fill="#858585"/>
<path d="M71.89 6.21497V26.8763H68.8702V6.21497H71.89Z" fill="#858585"/>
<path d="M83.6576 22.5787L86.0607 24.1808C85.2851 25.3283 83.4161 27.3054 80.1865 27.3054C76.1814 27.3054 73.1903 24.2094 73.1903 20.2551C73.1903 16.0625 76.2069 13.2048 79.8401 13.2048C83.4987 13.2048 85.2883 16.1165 85.8732 17.6899L86.1942 18.491L76.7695 22.3944C77.491 23.8089 78.6131 24.5304 80.1865 24.5304C81.7632 24.5304 82.8566 23.7548 83.6576 22.5787ZM76.2609 20.0421L82.561 17.4261C82.2145 16.5456 81.1719 15.9321 79.945 15.9321C78.3715 15.9321 76.1814 17.3212 76.2609 20.0421Z" fill="#858585"/>
<path d="M11.5875 18.4241V15.433H21.667C21.7655 15.9543 21.8164 16.5709 21.8164 17.2385C21.8164 19.4826 21.2029 22.2576 19.2258 24.2347C17.3027 26.2373 14.8456 27.3053 11.5906 27.3053C5.55753 27.3053 0.484375 22.3911 0.484375 16.358C0.484375 10.3249 5.55753 5.41064 11.5906 5.41064C14.9282 5.41064 17.3059 6.72025 19.0923 8.4272L16.9816 10.5378C15.7006 9.3363 13.9651 8.40177 11.5875 8.40177C7.18182 8.40177 3.73615 11.9523 3.73615 16.358C3.73615 20.7636 7.18182 24.3142 11.5875 24.3142C14.4451 24.3142 16.0726 23.1667 17.1152 22.1241C17.9607 21.2785 18.5169 20.0707 18.7363 18.4209L11.5875 18.4241Z" fill="#858585"/>
</g>
<defs>
<clipPath id="clip0_119_3710">
<rect width="86.1665" height="36.6017" fill="white" transform="translate(0.380127 0.699097)"/>
</clipPath>
</defs>
</svg>
