<svg width="52" height="22" viewBox="0 0 52 22" fill="none" xmlns="http://www.w3.org/2000/svg">
<g clip-path="url(#clip0_119_3671)">
<path fill-rule="evenodd" clip-rule="evenodd" d="M40.9646 15.105C43.2071 15.105 45.1061 13.2543 45.1061 10.9416C45.1061 8.62865 43.2071 6.80153 40.9646 6.80153C38.6533 6.80153 36.8012 8.62865 36.8012 10.9415C36.8012 13.2543 38.6533 15.1049 40.9646 15.1049M35.6908 10.9415C35.6908 8.02754 38.0505 5.66937 40.9646 5.66937C43.8802 5.66937 46.2367 8.02748 46.2367 10.9415C46.2367 13.8775 43.8802 16.2387 40.9646 16.2387C38.0505 16.2387 35.6908 13.8775 35.6908 10.9415ZM28.2932 10.9415C28.9617 10.8941 30.0501 10.1326 30.4655 9.67035C30.3031 10.2247 30.3031 11.9816 30.4655 12.5376C30.0033 11.8676 28.9616 11.0572 28.2932 10.9415ZM24.5 5.36954C25.3323 5.36954 26.0023 6.17849 26.0023 7.1045C26.0023 8.02748 25.3323 8.83957 24.5 8.83957H21.6296V5.36948L24.5 5.36954ZM24.5 13.1606C25.3323 13.1606 26.0023 13.9712 26.0023 14.8957C26.0023 15.8685 25.3323 16.676 24.5 16.676H21.6296V13.1606H24.5ZM40.9646 21.603C46.7458 21.603 51.4636 16.793 51.4636 10.9415C51.4636 4.99786 46.7458 0.397217 40.9646 0.397217C35.1146 0.397217 32.1536 4.65115 31.4384 6.38612C31.4384 3.81873 28.8695 0.743881 25.8867 0.743881H16.2435V21.511H25.2152C28.8695 21.511 31.4384 18.3876 31.4384 15.6593C32.2473 17.3476 35.1146 21.603 40.9646 21.603M15.0894 21.5105H9.4455V13.4617H5.78965V21.5105H0.00683594V0.743521H5.78965V8.48936H9.4455V0.743572H15.0894V21.5105Z" fill="#858585"/>
</g>
<defs>
<clipPath id="clip0_119_3671">
<rect width="51.4704" height="21.2058" fill="white" transform="translate(0 0.397095)"/>
</clipPath>
</defs>
</svg>
