<svg width="140" height="30" viewBox="0 0 140 30" fill="none" xmlns="http://www.w3.org/2000/svg">
<path d="M35.5 19.7289H30.7733C28.9385 19.7289 27.4512 18.2415 27.4512 16.4068C27.4512 15.0801 28.2291 13.9355 29.3535 13.4031C29.3753 11.1424 31.2143 9.31635 33.4802 9.31635C34.0875 9.31635 34.6641 9.4476 35.1833 9.68313C36.1619 8.755 37.484 8.18555 38.9392 8.18555C41.9541 8.18555 44.3981 10.6296 44.3981 13.6445C44.3981 13.8876 44.3819 14.1304 44.3498 14.3713C45.3983 14.7649 46.1448 15.7761 46.1448 16.9621C46.1448 18.4902 44.906 19.7289 43.378 19.7289H41V23.3142" stroke="black" stroke-width="2.7" stroke-miterlimit="10"/>
<path d="M54.9708 20.4791C53.9185 20.4791 52.9798 20.2579 52.1547 19.8154C51.3296 19.373 50.6779 18.7691 50.1996 18.0038C49.7332 17.2265 49.5 16.3476 49.5 15.367V6.90078H52.2802V15.1877C52.2802 15.7138 52.3938 16.1922 52.6211 16.6226C52.8602 17.0411 53.1831 17.37 53.5897 17.6091C53.9962 17.8484 54.4567 17.9679 54.9708 17.9679C55.497 17.9679 55.9573 17.8484 56.352 17.6091C56.7585 17.37 57.0754 17.0411 57.3027 16.6226C57.5418 16.1922 57.6614 15.7138 57.6614 15.1877V6.90078H60.4416V15.367C60.4416 16.3476 60.2024 17.2265 59.7241 18.0038C59.2577 18.7691 58.612 19.373 57.787 19.8154C56.9618 20.2579 56.0231 20.4791 54.9708 20.4791ZM62.6413 20.2638V6.90078H66.9999C68.4468 6.90078 69.7024 7.18778 70.7667 7.76176C71.831 8.33573 72.6561 9.12494 73.242 10.1294C73.8279 11.1339 74.1209 12.2819 74.1209 13.5733C74.1209 14.8648 73.8279 16.0187 73.242 17.0352C72.6561 18.0396 71.831 18.8289 70.7667 19.4029C69.7024 19.9769 68.4468 20.2638 66.9999 20.2638H62.6413ZM65.4215 17.8423H67.0717C67.9446 17.8423 68.6979 17.669 69.3317 17.3222C69.9655 16.9635 70.4557 16.4672 70.8026 15.8334C71.1614 15.1877 71.3406 14.4344 71.3406 13.5733C71.3406 12.7004 71.1614 11.9471 70.8026 11.3133C70.4557 10.6795 69.9655 10.1892 69.3317 9.84243C68.6979 9.49562 67.9446 9.32227 67.0717 9.32227H65.4215V17.8423ZM75.9013 20.2638V6.90078H81.0313C81.9521 6.90078 82.7651 7.06222 83.4707 7.38509C84.1881 7.70795 84.7502 8.18625 85.1567 8.82003C85.5634 9.45382 85.7667 10.2371 85.7667 11.1698C85.7667 12.0786 85.5573 12.8499 85.1388 13.4837C84.7323 14.1175 84.1702 14.6018 83.4528 14.9366C82.7472 15.2594 81.9401 15.4209 81.0313 15.4209H78.6815V20.2638H75.9013ZM78.6815 12.9994H81.0492C81.4438 12.9994 81.7846 12.9216 82.0716 12.7662C82.3586 12.6108 82.5798 12.3955 82.7353 12.1204C82.9027 11.8454 82.9864 11.5285 82.9864 11.1698C82.9864 10.7991 82.9027 10.4762 82.7353 10.2012C82.5798 9.92614 82.3586 9.71088 82.0716 9.55545C81.7846 9.40003 81.4438 9.32227 81.0492 9.32227H78.6815V12.9994ZM87.5498 20.2638V6.90078H92.6618C93.5826 6.90078 94.3958 7.06222 95.1013 7.38509C95.8188 7.70795 96.3808 8.18625 96.7874 8.82003C97.1939 9.45382 97.3972 10.2371 97.3972 11.1698C97.3972 12.0786 97.188 12.8558 96.7694 13.5016C96.3509 14.1354 95.7889 14.6137 95.0833 14.9366L98.1326 20.2638H95.0116L91.7112 14.3625L93.5049 15.4209H90.3301V20.2638H87.5498ZM90.3301 12.9994H92.6798C93.0744 12.9994 93.4152 12.9216 93.7022 12.7662C93.9892 12.6108 94.2104 12.3955 94.3659 12.1204C94.5333 11.8454 94.617 11.5285 94.617 11.1698C94.617 10.7991 94.5333 10.4762 94.3659 10.2012C94.2104 9.92614 93.9892 9.71088 93.7022 9.55545C93.4152 9.40003 93.0744 9.32227 92.6798 9.32227H90.3301V12.9994ZM106.204 20.4791C105.199 20.4791 104.267 20.3056 103.406 19.9589C102.545 19.6121 101.792 19.1278 101.146 18.506C100.512 17.8722 100.016 17.1368 99.6571 16.2998C99.2983 15.4627 99.119 14.5539 99.119 13.5733C99.119 12.5928 99.2924 11.684 99.6392 10.8469C99.9979 10.0098 100.494 9.28046 101.128 8.65856C101.774 8.03676 102.527 7.5525 103.388 7.20571C104.249 6.85893 105.187 6.68555 106.204 6.68555C107.22 6.68555 108.159 6.85893 109.02 7.20571C109.881 7.5525 110.629 8.03676 111.263 8.65856C111.908 9.28046 112.404 10.0098 112.751 10.8469C113.11 11.684 113.29 12.5928 113.29 13.5733C113.29 14.5539 113.11 15.4627 112.751 16.2998C112.392 17.1368 111.89 17.8722 111.244 18.506C110.611 19.1278 109.863 19.6121 109.002 19.9589C108.141 20.3056 107.208 20.4791 106.204 20.4791ZM106.204 17.9679C106.814 17.9679 107.376 17.8602 107.89 17.645C108.417 17.4298 108.876 17.1309 109.272 16.7482C109.666 16.3535 109.971 15.8872 110.186 15.3491C110.401 14.811 110.509 14.2191 110.509 13.5733C110.509 12.9277 110.401 12.3417 110.186 11.8155C109.971 11.2774 109.666 10.811 109.272 10.4165C108.876 10.0218 108.417 9.72286 107.89 9.51959C107.376 9.30434 106.814 9.19676 106.204 9.19676C105.595 9.19676 105.026 9.30434 104.5 9.51959C103.986 9.72286 103.531 10.0218 103.137 10.4165C102.743 10.811 102.438 11.2774 102.223 11.8155C102.007 12.3417 101.9 12.9277 101.9 13.5733C101.9 14.2191 102.007 14.811 102.223 15.3491C102.438 15.8872 102.743 16.3535 103.137 16.7482C103.531 17.1309 103.986 17.4298 104.5 17.645C105.026 17.8602 105.595 17.9679 106.204 17.9679ZM116.391 20.2638V17.5733H119.082V20.2638H116.391ZM121.597 20.2638L126.117 6.90078H129.812L134.332 20.2638H131.301L130.403 17.5374H125.507L124.61 20.2638H121.597ZM126.278 15.1159H129.632L127.587 8.8021H128.341L126.278 15.1159ZM135.721 20.2638V6.90078H138.5V20.2638H135.721Z" fill="black"/>
<path d="M8.2443 20.4791C7.28767 20.4791 6.39679 20.3056 5.57169 19.9589C4.75855 19.6121 4.04705 19.1278 3.4372 18.506C2.82733 17.8842 2.34902 17.1547 2.00223 16.3177C1.66741 15.4806 1.5 14.5658 1.5 13.5733C1.5 12.5808 1.66741 11.666 2.00223 10.829C2.33705 9.97993 2.8094 9.25055 3.41926 8.64063C4.02911 8.01883 4.74062 7.54054 5.55376 7.20571C6.37886 6.85893 7.27571 6.68555 8.2443 6.68555C9.2129 6.68555 10.0799 6.84697 10.8451 7.16984C11.6225 7.49271 12.2801 7.92319 12.8182 8.46134C13.3563 8.99943 13.739 9.59736 13.9662 10.255L11.5088 11.4389C11.2816 10.7931 10.881 10.261 10.3071 9.84243C9.74503 9.41192 9.05744 9.19676 8.2443 9.19676C7.45508 9.19676 6.76151 9.3821 6.16361 9.75278C5.56572 10.1235 5.09935 10.6377 4.76453 11.2953C4.44166 11.9411 4.28024 12.7004 4.28024 13.5733C4.28024 14.4462 4.44166 15.2116 4.76453 15.8692C5.09935 16.527 5.56572 17.0411 6.16361 17.4119C6.76151 17.7826 7.45508 17.9679 8.2443 17.9679C9.05744 17.9679 9.74503 17.7586 10.3071 17.3401C10.881 16.9097 11.2816 16.3715 11.5088 15.7258L13.9662 16.9097C13.739 17.5673 13.3563 18.1653 12.8182 18.7033C12.2801 19.2414 11.6225 19.672 10.8451 19.9948C10.0799 20.3176 9.2129 20.4791 8.2443 20.4791ZM15.7502 20.2638V6.90078H18.5305V17.8423H24.1806V20.2638H15.7502Z" fill="black"/>
</svg>
