<svg width="139" height="30" viewBox="0 0 139 30" fill="none" xmlns="http://www.w3.org/2000/svg">
<mask id="path-1-inside-1_958_23" fill="white">
<path fill-rule="evenodd" clip-rule="evenodd" d="M31.7992 22.3021C28.0165 22.1056 25.0098 18.9761 25.0098 15.1445C25.0098 11.186 28.2187 7.97705 32.1772 7.97705C34.1206 7.97705 35.8833 8.7505 37.1744 10.0064C37.8026 9.79683 38.4748 9.68334 39.1735 9.68334C42.6607 9.68334 45.4877 12.5103 45.4877 15.9975C45.4877 19.4278 42.7523 22.2191 39.3439 22.3094V22.3119H31.7992V22.3021Z"/>
</mask>
<path d="M31.7992 22.3021H34.8171V19.437L31.9558 19.2883L31.7992 22.3021ZM37.1744 10.0064L35.0701 12.1696L36.3868 13.4504L38.1292 12.8692L37.1744 10.0064ZM39.3439 22.3094L39.264 19.2926L36.326 19.3704V22.3094H39.3439ZM39.3439 22.3119V25.3298H42.3617V22.3119H39.3439ZM31.7992 22.3119H28.7813V25.3298H31.7992V22.3119ZM31.9558 19.2883C29.7683 19.1746 28.0276 17.3619 28.0276 15.1445H21.9919C21.9919 20.5904 26.2646 25.0365 31.6426 25.3159L31.9558 19.2883ZM28.0276 15.1445C28.0276 12.8527 29.8855 10.9949 32.1772 10.9949V4.95919C26.552 4.95919 21.9919 9.5193 21.9919 15.1445H28.0276ZM32.1772 10.9949C33.3034 10.9949 34.3197 11.4396 35.0701 12.1696L39.2786 7.84314C37.447 6.0614 34.9377 4.95919 32.1772 4.95919V10.9949ZM38.1292 12.8692C38.4535 12.761 38.8035 12.7012 39.1735 12.7012V6.66548C38.1462 6.66548 37.1517 6.83262 36.2195 7.14354L38.1292 12.8692ZM39.1735 12.7012C40.994 12.7012 42.4698 14.177 42.4698 15.9975H48.5055C48.5055 10.8436 44.3274 6.66548 39.1735 6.66548V12.7012ZM42.4698 15.9975C42.4698 17.7878 41.0418 19.2455 39.264 19.2926L39.4238 25.3262C44.4629 25.1928 48.5055 21.0677 48.5055 15.9975H42.4698ZM36.326 22.3094V22.3119H42.3617V22.3094H36.326ZM39.3439 19.2941H31.7992V25.3298H39.3439V19.2941ZM34.8171 22.3119V22.3021H28.7813V22.3119H34.8171Z" fill="#00AFEF" mask="url(#path-1-inside-1_958_23)"/>
<path d="M53.9053 22.6675C52.843 22.6675 51.8954 22.4442 51.0625 21.9975C50.2296 21.5509 49.5717 20.9413 49.0888 20.1687C48.618 19.384 48.3826 18.4968 48.3826 17.5069V8.96034H51.1893V17.3259C51.1893 17.857 51.3039 18.3399 51.5333 18.7744C51.7747 19.1969 52.1007 19.5289 52.5111 19.7703C52.9215 20.0118 53.3863 20.1325 53.9053 20.1325C54.4365 20.1325 54.9012 20.0118 55.2996 19.7703C55.71 19.5289 56.0299 19.1969 56.2593 18.7744C56.5007 18.3399 56.6214 17.857 56.6214 17.3259V8.96034H59.428V17.5069C59.428 18.4968 59.1866 19.384 58.7037 20.1687C58.233 20.9413 57.5811 21.5509 56.7482 21.9975C55.9152 22.4442 54.9676 22.6675 53.9053 22.6675ZM61.6486 22.4502V8.96034H66.0486C67.5093 8.96034 68.7768 9.25006 69.8511 9.82949C70.9255 10.4089 71.7584 11.2056 72.3499 12.2196C72.9414 13.2336 73.2372 14.3925 73.2372 15.6962C73.2372 16.9999 72.9414 18.1648 72.3499 19.1909C71.7584 20.2049 70.9255 21.0016 69.8511 21.5811C68.7768 22.1605 67.5093 22.4502 66.0486 22.4502H61.6486ZM64.4552 20.0057H66.121C67.0023 20.0057 67.7628 19.8307 68.4025 19.4806C69.0423 19.1185 69.5373 18.6175 69.8873 17.9777C70.2495 17.3259 70.4305 16.5654 70.4305 15.6962C70.4305 14.815 70.2495 14.0545 69.8873 13.4147C69.5373 12.7749 69.0423 12.28 68.4025 11.9299C67.7628 11.5798 67.0023 11.4048 66.121 11.4048H64.4552V20.0057ZM75.0344 22.4502V8.96034H80.2131C81.1426 8.96034 81.9635 9.12331 82.6757 9.44924C83.4 9.77517 83.9673 10.258 84.3777 10.8978C84.7882 11.5376 84.9934 12.3283 84.9934 13.2699C84.9934 14.1873 84.7821 14.9659 84.3596 15.6057C83.9492 16.2455 83.3819 16.7344 82.6576 17.0724C81.9453 17.3983 81.1305 17.5613 80.2131 17.5613H77.8411V22.4502H75.0344ZM77.8411 15.1168H80.2312C80.6296 15.1168 80.9736 15.0383 81.2633 14.8814C81.553 14.7245 81.7763 14.5072 81.9333 14.2295C82.1023 13.9519 82.1868 13.632 82.1868 13.2699C82.1868 12.8956 82.1023 12.5697 81.9333 12.2921C81.7763 12.0144 81.553 11.7971 81.2633 11.6402C80.9736 11.4833 80.6296 11.4048 80.2312 11.4048H77.8411V15.1168ZM86.7935 22.4502V8.96034H91.954C92.8835 8.96034 93.7044 9.12331 94.4166 9.44924C95.1409 9.77517 95.7083 10.258 96.1187 10.8978C96.5291 11.5376 96.7343 12.3283 96.7343 13.2699C96.7343 14.1873 96.5231 14.9719 96.1006 15.6238C95.6781 16.2636 95.1107 16.7464 94.3985 17.0724L97.4767 22.4502H94.3261L90.9944 16.4929L92.8051 17.5613H89.6001V22.4502H86.7935ZM89.6001 15.1168H91.9722C92.3705 15.1168 92.7145 15.0383 93.0043 14.8814C93.294 14.7245 93.5173 14.5072 93.6742 14.2295C93.8432 13.9519 93.9277 13.632 93.9277 13.2699C93.9277 12.8956 93.8432 12.5697 93.6742 12.2921C93.5173 12.0144 93.294 11.7971 93.0043 11.6402C92.7145 11.4833 92.3705 11.4048 91.9722 11.4048H89.6001V15.1168ZM105.625 22.6675C104.611 22.6675 103.669 22.4924 102.8 22.1424C101.931 21.7923 101.17 21.3034 100.519 20.6757C99.8788 20.0359 99.3778 19.2935 99.0157 18.4485C98.6536 17.6035 98.4725 16.6861 98.4725 15.6962C98.4725 14.7064 98.6475 13.7889 98.9976 12.9439C99.3597 12.0989 99.8607 11.3626 100.5 10.7348C101.152 10.1071 101.913 9.61824 102.782 9.26816C103.651 8.91809 104.599 8.74306 105.625 8.74306C106.651 8.74306 107.599 8.91809 108.468 9.26816C109.337 9.61824 110.091 10.1071 110.731 10.7348C111.383 11.3626 111.884 12.0989 112.234 12.9439C112.596 13.7889 112.777 14.7064 112.777 15.6962C112.777 16.6861 112.596 17.6035 112.234 18.4485C111.872 19.2935 111.365 20.0359 110.713 20.6757C110.073 21.3034 109.319 21.7923 108.45 22.1424C107.58 22.4924 106.639 22.6675 105.625 22.6675ZM105.625 20.1325C106.24 20.1325 106.808 20.0238 107.327 19.8065C107.858 19.5893 108.323 19.2875 108.721 18.9012C109.12 18.5028 109.427 18.032 109.645 17.4888C109.862 16.9456 109.971 16.3481 109.971 15.6962C109.971 15.0444 109.862 14.4529 109.645 13.9217C109.427 13.3785 109.12 12.9077 108.721 12.5094C108.323 12.111 107.858 11.8092 107.327 11.604C106.808 11.3867 106.24 11.2781 105.625 11.2781C105.009 11.2781 104.436 11.3867 103.905 11.604C103.386 11.8092 102.927 12.111 102.528 12.5094C102.13 12.9077 101.822 13.3785 101.605 13.9217C101.388 14.4529 101.279 15.0444 101.279 15.6962C101.279 16.3481 101.388 16.9456 101.605 17.4888C101.822 18.032 102.13 18.5028 102.528 18.9012C102.927 19.2875 103.386 19.5893 103.905 19.8065C104.436 20.0238 105.009 20.1325 105.625 20.1325ZM115.908 22.4502V19.7341H118.625V22.4502H115.908ZM121.163 22.4502L125.726 8.96034H129.456L134.019 22.4502H130.959L130.054 19.6979H125.111L124.205 22.4502H121.163ZM125.889 17.2534H129.275L127.211 10.8797H127.972L125.889 17.2534ZM135.421 22.4502V8.96034H138.228V22.4502H135.421Z" fill="white"/>
<path d="M7.77259 22.6675C6.80688 22.6675 5.90755 22.4924 5.07462 22.1424C4.25376 21.7923 3.53551 21.3034 2.91987 20.6757C2.30422 20.048 1.82137 19.3116 1.47129 18.4666C1.13329 17.6216 0.964292 16.6981 0.964292 15.6962C0.964292 14.6943 1.13329 13.7708 1.47129 12.9258C1.80929 12.0687 2.28612 11.3324 2.90176 10.7167C3.5174 10.089 4.23566 9.60617 5.05652 9.26816C5.88945 8.91809 6.79481 8.74306 7.77259 8.74306C8.75038 8.74306 9.62556 8.90602 10.3981 9.23195C11.1828 9.55788 11.8467 9.99245 12.3899 10.5357C12.9331 11.0789 13.3194 11.6825 13.5488 12.3464L11.0681 13.5415C10.8387 12.8896 10.4343 12.3524 9.85492 11.9299C9.28756 11.4953 8.59345 11.2781 7.77259 11.2781C6.97588 11.2781 6.27573 11.4652 5.67216 11.8394C5.06859 12.2136 4.5978 12.7327 4.2598 13.3966C3.93387 14.0485 3.77091 14.815 3.77091 15.6962C3.77091 16.5774 3.93387 17.35 4.2598 18.0139C4.5978 18.6779 5.06859 19.1969 5.67216 19.5712C6.27573 19.9454 6.97588 20.1325 7.77259 20.1325C8.59345 20.1325 9.28756 19.9212 9.85492 19.4987C10.4343 19.0642 10.8387 18.5209 11.0681 17.8691L13.5488 19.0642C13.3194 19.7281 12.9331 20.3317 12.3899 20.8749C11.8467 21.4181 11.1828 21.8527 10.3981 22.1786C9.62556 22.5045 8.75038 22.6675 7.77259 22.6675ZM15.3497 22.4502V8.96034H18.1564V20.0057H23.8601V22.4502H15.3497Z" fill="white"/>
</svg>
