<svg width="1077" height="37" viewBox="0 0 1077 37" fill="none" xmlns="http://www.w3.org/2000/svg">
<g clip-path="url(#clip0_1056_1084)">
<path fill-rule="evenodd" clip-rule="evenodd" d="M40.9655 22.7077C43.208 22.7077 45.107 20.8571 45.107 18.5444C45.107 16.2314 43.2081 14.4043 40.9655 14.4043C38.6543 14.4043 36.8022 16.2314 36.8022 18.5443C36.8022 20.8571 38.6543 22.7077 40.9655 22.7077M35.6918 18.5443C35.6918 15.6303 38.0514 13.2722 40.9655 13.2722C43.8811 13.2722 46.2377 15.6303 46.2377 18.5443C46.2377 21.4803 43.8811 23.8415 40.9655 23.8415C38.0514 23.8415 35.6918 21.4803 35.6918 18.5443ZM28.2942 18.5443C28.9626 18.4969 30.0511 17.7354 30.4665 17.2731C30.3041 17.8275 30.3041 19.5844 30.4665 20.1404C30.0042 19.4704 28.9626 18.6599 28.2942 18.5443ZM24.5009 12.9723C25.3333 12.9723 26.0033 13.7813 26.0033 14.7073C26.0033 15.6303 25.3333 16.4424 24.5009 16.4424H21.6306V12.9723L24.5009 12.9723ZM24.5009 20.7634C25.3333 20.7634 26.0033 21.574 26.0033 22.4985C26.0033 23.4713 25.3333 24.2788 24.5009 24.2788H21.6306V20.7634H24.5009ZM40.9655 29.2057C46.7468 29.2057 51.4646 24.3958 51.4646 18.5443C51.4646 12.6006 46.7468 8 40.9655 8C35.1155 8 32.1546 12.2539 31.4394 13.9889C31.4394 11.4215 28.8704 8.34666 25.8877 8.34666H16.2444V29.1137H25.2162C28.8704 29.1137 31.4394 25.9904 31.4394 23.2621C32.2483 24.9504 35.1155 29.2058 40.9655 29.2058M15.0904 29.1133H9.44648V21.0645H5.79063V29.1133H0.0078125V8.3463H5.79063V16.0921H9.44648V8.34636H15.0904V29.1133Z" fill="#A3AAB3"/>
</g>
<g clip-path="url(#clip1_1056_1084)">
<path d="M106.144 13.9541C106.144 14.5748 106.211 15.0781 106.329 15.4471C106.463 15.8162 106.631 16.2188 106.865 16.6549C106.949 16.7891 106.983 16.9233 106.983 17.0408C106.983 17.2085 106.882 17.3763 106.664 17.544L105.607 18.2486C105.456 18.3492 105.305 18.3995 105.171 18.3995C105.003 18.3995 104.836 18.3157 104.668 18.1647C104.433 17.9131 104.232 17.6447 104.064 17.3763C103.896 17.0911 103.728 16.7724 103.544 16.3865C102.235 17.9298 100.591 18.7015 98.612 18.7015C97.2029 18.7015 96.079 18.2989 95.257 17.4937C94.435 16.6885 94.0156 15.6149 94.0156 14.2729C94.0156 12.847 94.5189 11.6895 95.5422 10.8172C96.5654 9.94489 97.9242 9.50874 99.6521 9.50874C100.222 9.50874 100.81 9.55907 101.43 9.64294C102.051 9.72682 102.688 9.86102 103.359 10.012V8.78741C103.359 7.5125 103.091 6.62342 102.571 6.10339C102.034 5.58337 101.128 5.33174 99.8366 5.33174C99.2495 5.33174 98.6456 5.39884 98.0249 5.54982C97.4042 5.70079 96.8003 5.88532 96.2132 6.12017C95.9448 6.2376 95.7435 6.3047 95.626 6.33825C95.5086 6.3718 95.4247 6.38857 95.3576 6.38857C95.1228 6.38857 95.0054 6.22082 95.0054 5.86854V5.04656C95.0054 4.77816 95.0389 4.57686 95.1228 4.45943C95.2067 4.34201 95.3576 4.22458 95.5925 4.10716C96.1796 3.80521 96.8842 3.55358 97.7061 3.35228C98.5281 3.1342 99.4004 3.03355 100.323 3.03355C102.319 3.03355 103.779 3.48648 104.718 4.39233C105.641 5.29819 106.11 6.67375 106.11 8.51901V13.9541H106.144ZM99.3333 16.504C99.8869 16.504 100.457 16.4033 101.061 16.202C101.665 16.0007 102.202 15.6317 102.655 15.1284C102.923 14.8097 103.125 14.4574 103.225 14.0548C103.326 13.6522 103.393 13.1657 103.393 12.5954V11.8908C102.906 11.7734 102.386 11.6727 101.85 11.6056C101.313 11.5385 100.793 11.505 100.273 11.505C99.1488 11.505 98.3268 11.7231 97.7732 12.176C97.2197 12.6289 96.9513 13.2664 96.9513 14.1051C96.9513 14.8936 97.1526 15.4807 97.5719 15.8833C97.9746 16.3027 98.5617 16.504 99.3333 16.504ZM112.804 18.3157C112.502 18.3157 112.3 18.2653 112.166 18.1479C112.032 18.0473 111.915 17.8124 111.814 17.4937L107.872 4.52653C107.771 4.19103 107.721 3.97296 107.721 3.85553C107.721 3.58713 107.855 3.43615 108.123 3.43615H109.767C110.086 3.43615 110.304 3.48648 110.422 3.6039C110.556 3.70455 110.657 3.93941 110.757 4.25813L113.575 15.3633L116.192 4.25813C116.276 3.92263 116.377 3.70455 116.511 3.6039C116.645 3.50325 116.88 3.43615 117.182 3.43615H118.524C118.843 3.43615 119.061 3.48648 119.195 3.6039C119.329 3.70455 119.447 3.93941 119.514 4.25813L122.164 15.4975L125.066 4.25813C125.167 3.92263 125.284 3.70455 125.402 3.6039C125.536 3.50325 125.754 3.43615 126.056 3.43615H127.616C127.885 3.43615 128.036 3.57035 128.036 3.85553C128.036 3.93941 128.019 4.02328 128.002 4.12393C127.985 4.22458 127.952 4.35878 127.885 4.54331L123.842 17.5105C123.741 17.846 123.624 18.064 123.489 18.1647C123.355 18.2653 123.137 18.3324 122.852 18.3324H121.409C121.091 18.3324 120.873 18.2821 120.738 18.1647C120.604 18.0473 120.487 17.8292 120.42 17.4937L117.82 6.67375L115.236 17.4769C115.152 17.8124 115.052 18.0305 114.917 18.1479C114.783 18.2653 114.548 18.3157 114.246 18.3157H112.804ZM134.36 18.7686C133.487 18.7686 132.615 18.668 131.776 18.4666C130.938 18.2653 130.283 18.0473 129.847 17.7956C129.579 17.6447 129.394 17.4769 129.327 17.3259C129.26 17.175 129.227 17.0072 129.227 16.8562V16.0007C129.227 15.6484 129.361 15.4807 129.612 15.4807C129.713 15.4807 129.814 15.4975 129.914 15.531C130.015 15.5646 130.166 15.6317 130.334 15.6988C130.904 15.9504 131.525 16.1517 132.179 16.2859C132.85 16.4201 133.504 16.4872 134.175 16.4872C135.232 16.4872 136.054 16.3027 136.624 15.9336C137.195 15.5646 137.497 15.0278 137.497 14.34C137.497 13.8703 137.346 13.4844 137.044 13.1657C136.742 12.847 136.171 12.5618 135.349 12.2934L132.917 11.5385C131.693 11.1527 130.787 10.5823 130.233 9.82747C129.68 9.08936 129.394 8.26738 129.394 7.39508C129.394 6.69052 129.545 6.06984 129.847 5.53304C130.149 4.99624 130.552 4.52653 131.055 4.15748C131.558 3.77165 132.129 3.48648 132.8 3.28518C133.471 3.08388 134.175 3 134.913 3C135.282 3 135.668 3.01678 136.037 3.0671C136.423 3.11743 136.775 3.18453 137.128 3.25163C137.463 3.3355 137.782 3.41938 138.084 3.52003C138.386 3.62068 138.621 3.72133 138.788 3.82198C139.023 3.95618 139.191 4.09038 139.292 4.24136C139.392 4.37556 139.443 4.56008 139.443 4.79494V5.58337C139.443 5.93564 139.308 6.12017 139.057 6.12017C138.923 6.12017 138.705 6.05307 138.419 5.91887C137.463 5.48272 136.39 5.26464 135.199 5.26464C134.242 5.26464 133.487 5.41562 132.967 5.73434C132.447 6.05307 132.179 6.53955 132.179 7.22733C132.179 7.69703 132.347 8.09963 132.682 8.41836C133.018 8.73709 133.638 9.05581 134.528 9.34099L136.91 10.0959C138.117 10.4817 138.99 11.0185 139.51 11.7063C140.03 12.3941 140.281 13.1825 140.281 14.0548C140.281 14.7761 140.13 15.4304 139.845 16.0007C139.543 16.5711 139.141 17.0743 138.621 17.4769C138.101 17.8963 137.48 18.1982 136.759 18.4163C136.004 18.6512 135.215 18.7686 134.36 18.7686Z" fill="#A3AAB3"/>
<path fill-rule="evenodd" clip-rule="evenodd" d="M137.53 26.9212C132.011 30.9976 123.992 33.1616 117.098 33.1616C107.435 33.1616 98.729 29.5885 92.1531 23.6501C91.6331 23.1804 92.1028 22.5429 92.7235 22.912C99.8361 27.0387 108.61 29.5381 117.685 29.5381C123.808 29.5381 130.535 28.2632 136.725 25.6463C137.647 25.2269 138.436 26.2502 137.53 26.9212Z" fill="#A3AAB3"/>
<path fill-rule="evenodd" clip-rule="evenodd" d="M139.828 24.3045C139.123 23.3986 135.164 23.8684 133.369 24.0864C132.832 24.1535 132.749 23.6838 133.235 23.3315C136.389 21.1172 141.572 21.7547 142.176 22.4928C142.78 23.2477 142.008 28.4312 139.056 30.9139C138.603 31.2997 138.167 31.0984 138.368 30.5952C139.039 28.9344 140.532 25.1936 139.828 24.3045Z" fill="#A3AAB3"/>
</g>
<g clip-path="url(#clip2_1056_1084)">
<path d="M186.582 6.39355L182.955 14.8339H185.315L185.984 13.1429H189.877L190.546 14.8339H192.964L189.337 6.39355H186.582ZM187.927 8.35073L189.114 11.3009H186.74L187.927 8.35073Z" fill="#A3AAB3"/>
<path d="M193.209 14.8261V6.38574L196.569 6.40013L198.519 11.8399L200.426 6.38574H203.758V14.8261H201.649V8.60915L199.412 14.8261H197.562L195.317 8.60915V14.8261H193.209Z" fill="#A3AAB3"/>
<path d="M205.205 14.8261V6.38574H212.091V8.27097H207.342V9.71726H211.976V11.4945H207.335V12.9912H212.084V14.8261H205.205Z" fill="#A3AAB3"/>
<path d="M213.307 6.39355V14.8339H215.415V11.8334H216.3L218.833 14.8339H221.409L218.631 11.7254C219.768 11.6319 220.948 10.6533 220.948 9.13504C220.948 7.35775 219.552 6.40075 217.998 6.40075L213.307 6.39355ZM215.415 8.27877H217.825C218.401 8.27877 218.826 8.73209 218.826 9.16382C218.826 9.72506 218.279 10.0489 217.854 10.0489H215.415V8.27877Z" fill="#A3AAB3"/>
<path d="M223.964 14.8261H221.812V6.38574H223.964V14.8261Z" fill="#A3AAB3"/>
<path d="M229.072 14.8267H228.604C226.352 14.8267 224.992 13.0566 224.992 10.6461C224.992 8.17804 226.345 6.39355 229.18 6.39355H231.511V8.3939H229.101C227.95 8.3939 227.129 9.29334 227.129 10.6677C227.129 12.3011 228.065 12.9846 229.403 12.9846H229.957L229.072 14.8267Z" fill="#A3AAB3"/>
<path d="M233.662 6.39294L230.035 14.8261H232.395L233.064 13.1351H236.957L237.626 14.8261H240.037L236.41 6.38574L233.662 6.39294ZM235 8.35012L236.187 11.3003H233.813L235 8.35012Z" fill="#A3AAB3"/>
<path d="M240.283 14.8261V6.38574H242.967L246.392 11.6888V6.38574H248.5V14.8261H245.903L242.391 9.38627V14.8261H240.283Z" fill="#A3AAB3"/>
<path d="M198.318 29.5917V21.1514H205.204V23.0366H200.455V24.4829H205.097V26.2602H200.455V27.7568H205.204V29.5917H198.318Z" fill="#A3AAB3"/>
<path d="M232.043 29.5917V21.1514H238.929V23.0366H234.18V24.4829H238.8V26.2602H234.18V27.7568H238.929V29.5917H232.043Z" fill="#A3AAB3"/>
<path d="M205.47 29.5917L208.823 25.4255L205.391 21.1514H208.046L210.089 23.7921L212.14 21.1514H214.694L211.305 25.3679L214.666 29.5845H212.01L210.025 26.9869L208.089 29.5845L205.47 29.5917Z" fill="#A3AAB3"/>
<path d="M214.918 21.1582V29.5985H217.084V26.9362H219.307C221.185 26.9362 222.61 25.936 222.61 24.0004C222.61 22.3958 221.495 21.1654 219.581 21.1654H214.918V21.1582ZM217.084 23.065H219.422C220.027 23.065 220.466 23.4392 220.466 24.0364C220.466 24.5976 220.034 25.0078 219.415 25.0078H217.084V23.065Z" fill="#A3AAB3"/>
<path d="M223.518 21.1514V29.5917H225.626V26.5912H226.511L229.044 29.5917H231.62L228.842 26.4832C229.979 26.3897 231.159 25.4111 231.159 23.8928C231.159 22.1156 229.763 21.1586 228.209 21.1586L223.518 21.1514ZM225.633 23.0438H228.044C228.619 23.0438 229.044 23.4971 229.044 23.9288C229.044 24.4901 228.497 24.8139 228.072 24.8139H225.633V23.0438Z" fill="#A3AAB3"/>
<path d="M239.909 29.5913V27.7565H244.133C244.759 27.7565 245.025 27.4183 245.025 27.0513C245.025 26.6987 244.759 26.339 244.133 26.339H242.226C240.571 26.339 239.643 25.3316 239.643 23.8133C239.643 22.4606 240.492 21.1582 242.953 21.1582H247.061L246.176 23.0578H242.622C241.945 23.0578 241.736 23.4176 241.736 23.7558C241.736 24.1084 241.996 24.4897 242.514 24.4897H244.514C246.363 24.4897 247.162 25.5403 247.162 26.9146C247.162 28.3897 246.27 29.5985 244.413 29.5985H239.909V29.5913Z" fill="#A3AAB3"/>
<path d="M247.651 29.5913V27.7565H251.875C252.501 27.7565 252.767 27.4183 252.767 27.0513C252.767 26.6987 252.501 26.339 251.875 26.339H249.968C248.313 26.339 247.385 25.3316 247.385 23.8133C247.385 22.4606 248.234 21.1582 250.695 21.1582H254.803L253.918 23.0578H250.364C249.687 23.0578 249.479 23.4176 249.479 23.7558C249.479 24.1084 249.738 24.4897 250.256 24.4897H252.256C254.105 24.4897 254.904 25.5403 254.904 26.9146C254.904 28.3897 254.012 29.5985 252.155 29.5985H247.651V29.5913Z" fill="#A3AAB3"/>
</g>
<path fill-rule="evenodd" clip-rule="evenodd" d="M317.711 26.216H320.948V9H317.711V26.216ZM312.49 26.216H315.727V9H312.49V26.216ZM294.896 26.216H298.693L301.976 20.0894H305.5L307.01 17.52V26.216H310.246V9H304.119L294.896 26.216ZM307.011 17.1984H303.525L307.011 10.6916V17.1984ZM366.174 21.707H362.793V23.2127C362.706 24.0794 362.248 24.2406 361.27 24.2528C360.292 24.2406 359.833 24.0794 359.746 23.2127V20.1838H366.174V15.0562C366.348 12.4182 363.325 11.6379 361.27 11.7126C359.213 11.6383 356.191 12.4186 356.365 15.0562V23.5278C356.191 26.1657 359.213 26.946 361.27 26.8717C363.325 26.9456 366.348 26.1653 366.174 23.5278V21.707ZM359.746 15.3716C359.833 14.5045 360.292 14.3437 361.27 14.3311C362.248 14.3437 362.706 14.5045 362.793 15.3716V17.5086H359.746V15.3716ZM339.501 11.8479H337.603V9H334.367V11.8479H333.633L332.418 14.0119C332.174 12.1965 329.978 11.5911 327.781 11.5073C325.628 11.4779 322.903 12.2395 322.837 14.2538V17.1984C322.822 18.3555 323.138 19.2268 324.507 19.7468L328.03 20.7111C328.741 20.8868 329.253 21.5242 329.173 22.4252C328.975 23.5601 328.536 24.0333 327.459 24.0257C326.822 23.9823 326.075 23.8291 326.075 22.9067V21.3382H322.79V23.9381C322.849 26.2952 325.18 26.6332 327.481 26.7063C329.634 26.7357 332.359 25.9741 332.425 23.9598V20.6886C332.44 19.5316 332.125 18.6603 330.755 18.1402L327.232 17.176C326.521 17.0003 326.009 16.3629 326.089 15.4619C326.287 14.3266 326.726 14.1799 327.803 14.1871C328.441 14.2306 329.122 14.3837 329.122 15.3061V16.4506H332.44V14.3064H334.367V26.2152H337.603V14.3075H339.501V11.8479Z" fill="#A3AAB3"/>
<path fill-rule="evenodd" clip-rule="evenodd" d="M356.371 11.8479H354.472V9H351.236V11.8479H350.503L349.221 14.1304C348.812 12.1142 346.203 11.4974 344.365 11.5637C342.309 11.4894 339.399 12.27 339.572 14.9076V16.4685H342.842V15.223C342.929 14.3559 343.386 14.1951 344.365 14.1826C345.343 14.1951 345.802 14.3559 345.888 15.223V17.36H343.399C341.405 17.3104 339.188 17.9295 339.237 22.0042C339.349 23.6638 339.572 26.1779 341.653 26.3139H344.588L345.888 24.1255V26.3882H349.269V14.9079C349.283 14.7077 349.277 14.5065 349.251 14.3075H351.236V26.2164H354.472V14.3075H356.371V11.8479ZM345.888 23.751H344.105C342.953 23.6641 342.916 22.8347 342.878 21.9303C342.866 20.4814 343.188 19.9613 344.401 19.924H345.887L345.888 23.751Z" fill="#A3AAB3"/>
<g clip-path="url(#clip3_1056_1084)">
<path d="M417.215 22.4286C417.215 23.8607 417.529 24.96 417.94 25.6252C418.479 26.4965 419.282 26.8663 420.101 26.8663C421.158 26.8663 422.124 26.6041 423.987 24.0281C425.479 21.9636 427.237 19.0656 428.42 17.2487L430.423 14.1707C431.815 12.0331 433.425 9.65681 435.272 8.04608C436.78 6.73133 438.406 6.00098 440.043 6.00098C442.791 6.00098 445.409 7.59348 447.412 10.5802C449.605 13.8512 450.669 17.9714 450.669 22.2231C450.669 24.7508 450.171 26.608 449.323 28.0753C448.504 29.4942 446.907 30.912 444.222 30.912V26.8656C446.521 26.8656 447.095 24.7527 447.095 22.3346C447.095 18.8888 446.292 15.0649 444.522 12.3325C443.266 10.3944 441.638 9.21017 439.847 9.21017C437.911 9.21017 436.352 10.6712 434.6 13.2754C433.669 14.6593 432.713 16.3456 431.64 18.2485L430.458 20.3418C428.085 24.5513 427.483 25.5096 426.296 27.0912C424.216 29.8612 422.44 30.9114 420.101 30.9114C417.327 30.9114 415.573 29.7101 414.487 27.8998C413.6 26.4248 413.164 24.4892 413.164 22.2839L417.215 22.4286Z" fill="#A3AAB3"/>
<path d="M416.359 10.8649C418.217 8.00206 420.897 6 423.971 6C425.751 6 427.521 6.52691 429.369 8.03599C431.391 9.68552 433.545 12.4033 436.233 16.8806L437.197 18.4869C439.524 22.3632 440.848 24.3574 441.622 25.2978C442.619 26.5054 443.317 26.8654 444.223 26.8654C446.523 26.8654 447.096 24.7525 447.096 22.3344L450.67 22.2223C450.67 24.75 450.172 26.6072 449.324 28.0745C448.505 29.4934 446.909 30.9112 444.223 30.9112C442.554 30.9112 441.075 30.5486 439.439 29.0056C438.182 27.8214 436.712 25.7177 435.581 23.8265L432.217 18.2079C430.53 15.3882 428.981 13.2857 428.086 12.3336C427.122 11.3096 425.883 10.0732 423.906 10.0732C422.305 10.0732 420.946 11.1962 419.809 12.9139L416.359 10.8649Z" fill="#A3AAB3"/>
<path d="M423.904 10.0732C422.304 10.0732 420.945 11.1962 419.808 12.9139C418.2 15.341 417.216 18.9563 417.216 22.4282C417.216 23.8603 417.53 24.9597 417.941 25.6248L414.487 27.8995C413.6 26.4245 413.164 24.4889 413.164 22.2835C413.164 18.273 414.265 14.0929 416.358 10.8649C418.215 8.00206 420.896 6 423.97 6L423.904 10.0732Z" fill="#A3AAB3"/>
</g>
<path d="M504.692 24.8518H499.746C497.871 24.8518 497.454 23.6593 497.766 22.6846L497.735 22.7818C497.503 23.6242 497.795 24.0503 498.056 24.5503C498.912 26.1923 501.598 31.1182 501.598 31.1182C501.935 31.7077 502.398 32.0326 503.164 32.0326C504.672 32.0326 507.094 30.4743 507.094 30.4743L516.135 24.8499H504.692V24.8518Z" fill="#A3AAB3"/>
<path d="M515.587 4.76263C515.517 4.59726 515.215 4.01751 514.378 4.00195C514.388 4.00195 514.341 4 514.341 4H506.503C505.682 4 505.371 4.53501 505.307 4.66536C505.307 4.66536 505.583 4.06809 506.501 4.06809H506.521C507.382 4.06809 507.694 4.79765 507.777 4.97858C507.787 4.99803 508.902 7.64194 510.433 11.2683C513.806 19.2623 519.199 32.0344 519.199 32.0344H527.104C527.102 32.0344 515.659 4.92994 515.587 4.76263Z" fill="#A3AAB3"/>
<path d="M505.101 5.15733L498.035 22.0071C497.65 23.0519 497.897 24.3437 499.788 24.3437H504.903L510.154 11.9218C508.623 8.29539 507.512 5.65926 507.502 5.63592C507.339 5.24877 507.076 4.4375 506.197 4.4375C505.44 4.4375 505.181 4.97056 505.101 5.15733ZM549.408 24.8009H546.394L544.748 20.8846H537.075L535.404 24.8009H532.486L539.626 8.45687H542.268L549.408 24.8009ZM540.9 11.8653L538.118 18.3594H543.706L540.9 11.8653ZM575.719 24.8009H572.843V11.2156H567.695V8.57165H581.096L579.991 11.2136H575.719V24.8009ZM630.311 11.2156H621.622V15.3439H627.188V17.8944H621.622V22.2075H630.315V24.8009H618.749V8.57165H630.311V11.2156ZM650.69 24.8009H647.968V8.57165H650.69V24.8009ZM639.126 10.914C637.468 10.914 636.06 11.414 636.052 12.5171C636.044 13.805 636.851 14.2525 639.904 15.2447C643.277 16.3555 645.069 17.482 645.052 20.227C645.032 23.3184 642.643 25.083 639.151 25.083C636.68 25.083 634.466 24.2814 632.778 22.797L633.828 20.2523C635.359 21.5363 637.219 22.4468 639.227 22.4566C640.98 22.4643 642.231 21.6103 642.231 20.3438C642.231 19.2854 641.62 18.5812 638.659 17.6434C635.262 16.5306 633.211 15.3692 633.227 12.6027C633.248 9.85178 635.828 8.28761 639.073 8.30512C642.318 8.32068 644.145 9.50548 644.421 9.66696L643.404 11.9821C642.738 11.6202 641.285 10.914 639.126 10.914ZM654.193 16.4275L661.46 8.57165H657.979L650.69 16.4275L658.699 24.8028H662.226L654.193 16.4275ZM589.885 8.29344C585.251 8.29344 581.493 12.0521 581.493 16.6863C581.493 21.3223 585.249 25.081 589.885 25.081C594.522 25.081 598.28 21.3243 598.28 16.6863C598.28 12.0521 594.52 8.29344 589.885 8.29344ZM589.885 22.4624C586.697 22.4624 584.368 19.8768 584.368 16.6882C584.368 13.4996 586.695 10.914 589.885 10.914C593.074 10.914 595.405 13.4996 595.405 16.6882C595.405 19.8768 593.074 22.4624 589.885 22.4624ZM607.44 8.57165H601.284V24.8009L607.44 24.7989C612.074 24.7989 615.83 21.299 615.83 16.6649C615.83 12.0288 612.074 8.57165 607.44 8.57165ZM607.44 22.2036L604.161 22.2075V11.2175H607.453C610.642 11.2175 612.957 13.4762 612.957 16.6649C612.957 19.8535 610.626 22.2036 607.44 22.2036ZM564.561 17.6104C564.561 22.4488 561.723 25.0577 557.604 25.0577C553.487 25.0577 550.649 22.4488 550.649 17.6104V8.57165H553.524V17.9528C553.524 20.7912 555.19 22.4566 557.606 22.4566C560.02 22.4566 561.688 20.7893 561.688 17.9528V8.57165H564.561V17.6104ZM665.74 23.7153C665.74 23.118 665.253 22.6316 664.656 22.6316C664.063 22.6316 663.576 23.118 663.576 23.7153C663.576 24.3125 664.063 24.797 664.656 24.797C665.253 24.797 665.74 24.3125 665.74 23.7153ZM665.578 23.7153C665.578 24.2581 665.187 24.6472 664.656 24.6472C664.131 24.6472 663.736 24.2581 663.736 23.7153C663.736 23.1744 664.131 22.7834 664.656 22.7834C665.187 22.7834 665.578 23.1744 665.578 23.7153Z" fill="#A3AAB3"/>
<path d="M665.126 24.2681L664.865 23.9004C664.818 23.8342 664.785 23.7914 664.735 23.7525C664.921 23.7292 665.032 23.6261 665.032 23.4626C665.032 23.2953 664.916 23.1475 664.69 23.1475H664.322V24.2681H664.486V23.7661C664.571 23.7661 664.606 23.7934 664.663 23.8751L664.933 24.2681H665.126ZM664.857 23.4626C664.857 23.6222 664.725 23.6397 664.597 23.6397H664.484V23.2856H664.649C664.803 23.2856 664.857 23.3595 664.857 23.4626Z" fill="#A3AAB3"/>
<path d="M731.771 30.9602C730.275 32.4105 728.641 32.1815 727.069 31.4945C725.405 30.7923 723.878 30.7618 722.122 31.4945C719.924 32.441 718.764 32.1663 717.451 30.9602C710.001 23.2813 711.1 11.5873 719.558 11.1598C721.619 11.2667 723.054 12.2896 724.26 12.3811C726.061 12.0148 727.786 10.9614 729.71 11.0988C732.015 11.282 733.755 12.198 734.9 13.8467C730.137 16.7015 731.267 22.976 735.633 24.7316C734.763 27.0215 733.633 29.2962 731.755 30.9755L731.771 30.9602ZM724.107 11.0682C723.878 7.66387 726.641 4.85487 729.817 4.58008C730.259 8.51878 726.244 11.4499 724.107 11.0682Z" fill="#A3AAB3"/>
<g clip-path="url(#clip4_1056_1084)">
<path d="M819.167 19.5591C819.167 23.6182 815.991 26.6093 812.094 26.6093C808.197 26.6093 805.021 23.6182 805.021 19.5591C805.021 15.4713 808.197 12.5088 812.094 12.5088C815.991 12.5088 819.167 15.4713 819.167 19.5591ZM816.071 19.5591C816.071 17.0225 814.23 15.2869 812.094 15.2869C809.958 15.2869 808.118 17.0225 808.118 19.5591C808.118 22.0702 809.958 23.8312 812.094 23.8312C814.23 23.8312 816.071 22.067 816.071 19.5591Z" fill="#A3AAB3"/>
<path d="M834.424 19.5591C834.424 23.6182 831.249 26.6093 827.352 26.6093C823.455 26.6093 820.279 23.6182 820.279 19.5591C820.279 15.4745 823.455 12.5088 827.352 12.5088C831.249 12.5088 834.424 15.4713 834.424 19.5591ZM831.328 19.5591C831.328 17.0225 829.488 15.2869 827.352 15.2869C825.216 15.2869 823.375 17.0225 823.375 19.5591C823.375 22.0702 825.216 23.8312 827.352 23.8312C829.488 23.8312 831.328 22.067 831.328 19.5591Z" fill="#A3AAB3"/>
<path d="M849.045 12.9347V25.5922C849.045 30.7988 845.974 32.9254 842.344 32.9254C838.927 32.9254 836.871 30.6399 836.095 28.7708L838.791 27.6488C839.271 28.7963 840.447 30.1504 842.341 30.1504C844.665 30.1504 846.105 28.7168 846.105 26.0181V25.0041H845.997C845.304 25.8592 843.969 26.6062 842.284 26.6062C838.759 26.6062 835.529 23.5356 835.529 19.5845C835.529 15.6048 838.759 12.5088 842.284 12.5088C843.965 12.5088 845.301 13.2558 845.997 14.0854H846.105V12.9379H849.045V12.9347ZM846.324 19.5845C846.324 17.102 844.668 15.2869 842.561 15.2869C840.424 15.2869 838.635 17.102 838.635 19.5845C838.635 22.0416 840.424 23.8312 842.561 23.8312C844.668 23.8312 846.324 22.0416 846.324 19.5845Z" fill="#A3AAB3"/>
<path d="M853.893 5.51562V26.177H850.873V5.51562H853.893Z" fill="#A3AAB3"/>
<path d="M865.661 21.8797L868.064 23.4818C867.288 24.6293 865.419 26.6064 862.19 26.6064C858.184 26.6064 855.193 23.5104 855.193 19.5561C855.193 15.3635 858.21 12.5059 861.843 12.5059C865.502 12.5059 867.291 15.4175 867.876 16.991L868.197 17.792L858.773 21.6954C859.494 23.1099 860.616 23.8314 862.19 23.8314C863.766 23.8314 864.86 23.0558 865.661 21.8797ZM858.264 19.3432L864.564 16.7271C864.218 15.8466 863.175 15.2332 861.948 15.2332C860.375 15.2332 858.184 16.6222 858.264 19.3432V19.3432Z" fill="#A3AAB3"/>
<path d="M793.589 17.7254V14.7342H803.669C803.767 15.2555 803.818 15.8722 803.818 16.5397C803.818 18.7839 803.205 21.5588 801.228 23.536C799.305 25.5385 796.848 26.6066 793.593 26.6066C787.559 26.6066 782.486 21.6923 782.486 15.6592C782.486 9.62613 787.559 4.71191 793.593 4.71191C796.93 4.71191 799.308 6.02152 801.094 7.72847L798.984 9.8391C797.703 8.63757 795.967 7.70304 793.589 7.70304C789.184 7.70304 785.738 11.2536 785.738 15.6592C785.738 20.0649 789.184 23.6154 793.589 23.6154C796.447 23.6154 798.075 22.4679 799.117 21.4253C799.963 20.5798 800.519 19.3719 800.738 17.7222L793.589 17.7254V17.7254Z" fill="#A3AAB3"/>
</g>
<path fill-rule="evenodd" clip-rule="evenodd" d="M934.532 14.6633C934.238 15.2114 933.593 15.3488 932.498 15.3488H930.25V9.11026C930.25 8.34914 930.407 8.27143 931.305 8.27143L931.971 8.25166V7.21543H926.398V8.25166H926.888C927.671 8.25166 928.139 8.32971 928.139 9.11061L928.159 14.5474C928.159 15.329 927.806 15.4074 927.006 15.4074H926.478V16.4433H935.997V12.7226C935.997 12.7216 935.093 12.7226 934.922 12.7226C934.922 13.6211 934.805 14.1748 934.532 14.6633ZM922.379 15.3488H919.406V12.1405H920.09C921.245 12.1405 921.401 12.3563 921.479 13.9403H922.555V9.26845H921.499C921.402 10.6557 921.246 11.0478 920.072 11.0478H919.407V8.31028H921.988C923.865 8.31028 924.373 8.64228 924.432 10.7928H925.487V7.21508H911.771V8.25131H912.414C912.942 8.25131 913.197 8.36856 913.197 8.6617C913.197 8.81781 913.197 9.05267 913.079 9.36593L911.301 14.0374C911.301 14.0374 911.298 14.0319 911.19 14.0319C910.379 11.6954 909.268 9.01313 909.268 9.01313C909.215 8.88953 909.188 8.75647 909.189 8.62215C909.189 8.34844 909.366 8.25096 909.834 8.25096H910.617V7.21474H905.67V8.25096H906.296C907.097 8.25096 907.351 8.64158 907.429 9.40409L905.592 14.0184C905.593 14.0184 905.553 14.0197 905.461 14.0048C904.611 11.5067 903.54 8.97462 903.54 8.97462C903.481 8.83759 903.499 8.73941 903.499 8.68078C903.481 8.38764 903.716 8.25061 904.243 8.25061H904.692V7.21439H900V8.25061H900.216C900.9 8.25061 901.37 8.70056 901.681 9.50227L904.438 16.4419H906.159L908.173 11.3197L910.285 16.4419H911.945L914.586 9.38432C914.898 8.54341 915.152 8.25027 915.914 8.25027H916.064C916.865 8.25027 917.316 8.32832 917.316 9.09083V14.5457C917.316 15.3082 916.865 15.3855 916.064 15.3855L915.517 15.406V16.4419H925.665V12.7272H924.609C924.465 14.5592 924.059 15.3488 922.379 15.3488ZM944.868 12.7226C944.868 13.6215 944.75 14.1752 944.477 14.6636C944.183 15.2117 943.539 15.3491 942.445 15.3491H940.195V9.11026C940.195 8.34914 940.352 8.27143 941.251 8.27143L941.916 8.25166V7.21543H936.344V8.25166H936.93C937.712 8.25166 938.084 8.32971 938.084 9.11061L938.103 14.5474C938.103 15.329 937.751 15.4074 936.949 15.4074H936.809V16.4433H945.944V12.7226C945.944 12.7216 945.02 12.7226 944.868 12.7226ZM955.396 13.7446C955.396 15.8563 953.734 16.6191 951.27 16.6191C949.786 16.6191 948.358 15.7775 948.045 15.4858L947.732 16.4495H946.794V12.7327H947.87C948.162 14.5072 949.35 15.2735 951.048 15.3488C952.502 15.415 953.541 15.0265 953.655 14.0187C953.789 12.8531 952.504 12.9235 951.427 12.7292L949.844 12.4351C947.479 12.024 946.717 11.3409 946.657 9.79645C946.598 8.11462 948.123 7.02012 950.175 7C951.173 7 952.465 7.15611 953.462 7.95852L953.931 7.19566H954.752V10.4188H953.715C953.487 8.62875 951.721 8.0834 950.215 8.1226C949.121 8.16146 948.398 8.78659 948.398 9.53037C948.398 10.2221 949.083 10.3144 949.955 10.467L951.89 10.7997C953.864 11.1321 955.396 11.5352 955.396 13.7256V13.7446H955.396ZM911.121 24.6193C911.121 23.9091 911.004 23.2837 910.752 22.7737C910.438 22.2277 909.793 22.1489 908.698 22.1489H906.391V24.9065H907.115C908.287 24.9065 908.464 24.6904 908.464 23.2635H909.321V27.8778L908.443 27.8573C908.424 26.3139 908.268 26.0021 907.114 26.0021H906.391V28.4048C906.391 29.1683 906.508 29.2464 907.31 29.2464H908.385V30.2815H902.695V29.2464L903.223 29.2266C904.024 29.2266 904.299 29.1492 904.299 28.3857V22.9319C904.299 22.169 904.024 22.0903 903.223 22.0903H902.695V21.0551H912.177V24.6189L911.121 24.6193ZM932.454 27.6624H931.575C931.614 28.7586 931.575 29.1687 931.008 29.2072C930.735 29.2269 930.519 28.9727 930.48 28.4259C930.48 28.2303 930.5 27.9753 930.48 27.8573C930.382 26.606 930.168 26.0197 928.525 25.6288C930.285 25.3936 931.321 24.5738 931.321 23.2452C931.321 21.7579 930.227 21.0554 927.86 21.0554H921.506V22.0906H922.269C923.071 22.0906 923.188 22.1694 923.188 22.9322V28.386C923.188 29.0576 922.754 29.2484 922.227 29.2464H921.555C921.047 29.2394 920.753 29.0403 920.484 28.3486L917.531 21.0554H915.269L912.178 28.3486C911.906 28.9921 911.691 29.2484 910.968 29.2484H910.546V30.2822H915.357V29.2484H914.4C913.908 29.2484 913.656 29.2269 913.656 28.9348C913.656 28.8169 913.695 28.6809 913.773 28.5047L914.242 27.3501H917.839L918.231 28.4263C918.308 28.6018 918.367 28.759 918.367 28.8769C918.367 29.1884 918.113 29.2488 917.585 29.2488H916.587V30.2826H927.039V29.2467H926.199C925.397 29.2467 925.28 29.1687 925.28 28.4051V25.9233H926.218C927.822 25.9233 928.311 26.2355 928.368 27.7807L928.409 28.8561C928.467 30.1272 929.287 30.4796 930.558 30.4796C931.672 30.4796 932.454 29.815 932.454 28.1317H932.475C932.474 27.9753 932.474 27.8195 932.454 27.6624ZM914.692 26.2556L916.081 22.7175L917.487 26.2556H914.692ZM927.294 24.885L925.28 24.9065V22.1108H927.254C928.564 22.1108 929.19 22.423 929.19 23.4991V23.5182C929.19 24.4763 928.583 24.885 927.294 24.885ZM940.678 24.0115C940.234 22.6273 939.305 21.9827 937.782 21.9827C936.275 21.9827 935.084 23.2146 935.104 25.5615C935.104 27.9451 936.062 29.2367 937.782 29.2561C939.033 29.2561 940.148 28.6306 940.148 27.5736V27.0653C940.148 26.4405 939.991 26.4406 939.111 26.4406H938.65V25.3842H942.938V26.4406H942.586C941.921 26.4406 941.823 26.3816 941.823 27.1635V30.2517H941.066L940.577 29.4902C939.736 30.1549 938.524 30.4678 937.45 30.4678C936.179 30.4678 935.104 30.0186 934.243 29.1583C933.343 28.2389 932.816 27.0077 932.834 25.5611C932.834 24.1329 933.304 22.9985 934.223 22.0799C935.025 21.2979 936.237 20.8473 937.487 20.8692C938.524 20.8692 939.736 21.1422 940.422 21.8651L940.89 20.9056H941.628V24.0035L940.678 24.0115ZM949.113 30.4436C946.048 30.4436 943.666 28.5293 943.666 25.6215C943.666 22.731 946.048 20.8372 949.094 20.8372C952.159 20.8372 954.483 22.731 954.483 25.6406C954.483 28.5296 952.159 30.4436 949.113 30.4436ZM952.205 25.6694C952.205 22.3779 949.982 21.9692 949.075 21.9692C947.278 21.9692 945.911 23.2382 945.911 25.6593C945.911 28.0804 947.278 29.3688 949.075 29.3688C949.972 29.3692 952.205 28.9293 952.205 25.6694Z" fill="#A3AAB3"/>
<path d="M1018.97 13.8055C1018.97 13.4837 1019.1 13.1834 1019.31 12.9474C1019.55 12.7114 1019.85 12.6041 1020.17 12.6041H1025.4C1025.88 12.6041 1026.33 12.7757 1026.69 13.0761C1027.06 13.3764 1027.29 13.7841 1027.38 14.2561C1027.46 14.728 1027.38 15.2 1027.16 15.6077C1026.93 16.0153 1026.56 16.3371 1026.13 16.5087L1022.08 18.0105C1021.54 18.2036 1021.07 18.5254 1020.75 18.9974C1020.4 19.448 1020.21 20.0058 1020.19 20.5636C1020.17 21.1214 1020.32 21.6792 1020.62 22.1726C1020.92 22.6446 1021.35 23.0308 1021.86 23.2668L1029.46 26.7209V24.082L1022.83 21.1428C1022.74 21.0999 1022.66 21.0356 1022.61 20.9497C1022.57 20.8639 1022.53 20.7781 1022.55 20.6708C1022.55 20.5636 1022.59 20.4778 1022.64 20.4134C1022.7 20.3276 1022.76 20.2847 1022.87 20.2418L1027.03 18.8043C1028 18.4396 1028.81 17.7316 1029.31 16.8306C1029.82 15.9295 1029.99 14.8782 1029.8 13.8699C1029.61 12.8615 1029.07 11.939 1028.28 11.2739C1027.48 10.6089 1026.48 10.2441 1025.45 10.2441H1020.19C1019.22 10.2441 1018.3 10.6303 1017.64 11.2954C1016.95 11.9819 1016.59 12.9045 1016.59 13.8484V26.3347H1019.01L1018.97 13.8055Z" fill="#A3AAB3"/>
<path d="M1032.29 10.1797H1034.71V26.2917H1032.29V10.1797Z" fill="#A3AAB3"/>
<path d="M998.95 10.1797L994.616 23.5885C994.595 23.6743 994.53 23.7387 994.466 23.7816C994.402 23.8245 994.316 23.8674 994.23 23.8674C994.144 23.8674 994.058 23.846 993.994 23.7816C993.93 23.7387 993.865 23.6529 993.844 23.5885L989.51 10.1797H987L991.57 24.3394C991.763 24.8972 992.106 25.3907 992.6 25.7554C993.072 26.0986 993.651 26.2917 994.251 26.2917C994.852 26.2917 995.431 26.0986 995.903 25.7554C996.375 25.4121 996.74 24.9187 996.933 24.3394L1001.5 10.1797H998.95Z" fill="#A3AAB3"/>
<path d="M1049.22 26.2917L1053.55 12.8829C1053.57 12.7971 1053.64 12.7327 1053.7 12.6898C1053.77 12.6469 1053.85 12.604 1053.94 12.604C1054.02 12.604 1054.11 12.6255 1054.17 12.6898C1054.24 12.7327 1054.3 12.8185 1054.32 12.8829L1058.66 26.2917H1061.17L1056.6 12.132C1056.4 11.5742 1056.06 11.0808 1055.57 10.716C1055.1 10.3728 1054.52 10.1797 1053.92 10.1797C1053.31 10.1797 1052.74 10.3728 1052.26 10.716C1051.79 11.0593 1051.43 11.5528 1051.23 12.132L1046.66 26.2917H1049.22Z" fill="#A3AAB3"/>
<path d="M1006.44 12.604H1014.1V10.1797H1006.44C1005.36 10.1797 1004.34 10.6088 1003.58 11.3597C1002.83 12.1106 1002.4 13.1404 1002.4 14.2131V22.2584C1002.4 23.3311 1002.83 24.3609 1003.58 25.1117C1004.34 25.8626 1005.36 26.2917 1006.44 26.2917H1014.1V23.8674H1006.44C1006.01 23.8674 1005.6 23.6958 1005.3 23.3954C1005 23.0951 1004.83 22.6874 1004.83 22.2584V19.4264H1012.47V17.045H1004.81V14.2131C1004.81 13.784 1004.98 13.3764 1005.28 13.076C1005.6 12.7756 1006.01 12.604 1006.44 12.604Z" fill="#A3AAB3"/>
<path d="M1048.47 10.1797H1036.71V12.604H1041.39V26.2917H1043.81V12.604H1048.49V10.1797H1048.47Z" fill="#A3AAB3"/>
<path d="M1070.13 26.2917C1071.36 26.2703 1072.52 25.7768 1073.37 24.9187C1074.23 24.0605 1074.7 22.8805 1074.7 21.6576C1074.7 20.4348 1074.23 19.2762 1073.37 18.3966C1072.52 17.5384 1071.36 17.045 1070.13 17.0236H1066.1C1065.52 17.0236 1064.94 16.7876 1064.53 16.3799C1064.13 15.9723 1063.89 15.393 1063.89 14.8138C1063.89 14.2345 1064.13 13.6553 1064.53 13.2476C1064.94 12.84 1065.52 12.604 1066.1 12.604H1073.95V10.1797H1066.1C1064.88 10.2011 1063.72 10.6946 1062.86 11.5528C1062 12.4109 1061.53 13.5909 1061.53 14.8138C1061.53 16.0367 1062 17.1952 1062.86 18.0748C1063.72 18.933 1064.88 19.4264 1066.1 19.4479H1070.13C1070.71 19.4479 1071.29 19.6839 1071.7 20.0915C1072.11 20.4991 1072.34 21.0784 1072.34 21.6576C1072.34 22.2369 1072.11 22.8162 1071.7 23.2238C1071.29 23.6314 1070.71 23.8674 1070.13 23.8674H1062.28V26.2917H1070.13Z" fill="#A3AAB3"/>
<path d="M1075.33 10.18H1075.11V9.19309H1074.77V9H1075.67V9.19309H1075.33V10.18ZM1076.44 9.90107L1076.51 9.68653L1076.76 9H1077V10.18H1076.83V9.60072V9.40763L1076.76 9.57926L1076.53 10.18H1076.36L1076.12 9.57926L1076.06 9.40763V9.60072V10.18H1075.86V9H1076.1L1076.36 9.68653L1076.44 9.90107Z" fill="#A3AAB3"/>
<defs>
<clipPath id="clip0_1056_1084">
<rect width="51.4704" height="21.2058" fill="white" transform="translate(0 8)"/>
</clipPath>
<clipPath id="clip1_1056_1084">
<rect width="51.4704" height="30.1616" fill="white" transform="translate(91.4707 3)"/>
</clipPath>
<clipPath id="clip2_1056_1084">
<rect width="71.9549" height="26.0333" fill="white" transform="translate(182.941 5)"/>
</clipPath>
<clipPath id="clip3_1056_1084">
<rect width="51.4704" height="24.9117" fill="white" transform="translate(406.182 6)"/>
</clipPath>
<clipPath id="clip4_1056_1084">
<rect width="86.1665" height="36.6017" fill="white" transform="translate(782.383)"/>
</clipPath>
</defs>
</svg>
