<svg width="139" height="30" viewBox="0 0 139 30" fill="none" xmlns="http://www.w3.org/2000/svg">
<mask id="mask0_1124_68" style="mask-type:luminance" maskUnits="userSpaceOnUse" x="25" y="7" width="21" height="16">
<path fill-rule="evenodd" clip-rule="evenodd" d="M31.7992 22.3021C28.0165 22.1056 25.0098 18.9761 25.0098 15.1445C25.0098 11.186 28.2187 7.97705 32.1772 7.97705C34.1206 7.97705 35.8833 8.7505 37.1744 10.0064C37.8026 9.79683 38.4748 9.68334 39.1735 9.68334C42.6607 9.68334 45.4877 12.5103 45.4877 15.9975C45.4877 19.4278 42.7523 22.2191 39.3439 22.3094V22.3119H31.7992V22.3021Z" fill="white"/>
</mask>
<g mask="url(#mask0_1124_68)">
<path d="M31.7995 22.3021H34.8174V19.437L31.9561 19.2883L31.7995 22.3021ZM37.1747 10.0064L35.0704 12.1696L36.3871 13.4504L38.1295 12.8692L37.1747 10.0064ZM39.3442 22.3094L39.2643 19.2926L36.3263 19.3704V22.3094H39.3442ZM39.3442 22.3119V25.3298H42.362V22.3119H39.3442ZM31.7995 22.3119H28.7816V25.3298H31.7995V22.3119ZM31.9561 19.2883C29.7686 19.1746 28.0279 17.3619 28.0279 15.1445H21.9922C21.9922 20.5904 26.2649 25.0365 31.6429 25.3159L31.9561 19.2883ZM28.0279 15.1445C28.0279 12.8527 29.8858 10.9949 32.1775 10.9949V4.95923C26.5523 4.95923 21.9922 9.51934 21.9922 15.1445H28.0279ZM32.1775 10.9949C33.3037 10.9949 34.32 11.4396 35.0704 12.1696L39.2789 7.84318C37.4473 6.06144 34.938 4.95923 32.1775 4.95923V10.9949ZM38.1295 12.8692C38.4538 12.761 38.8038 12.7012 39.1738 12.7012V6.66552C38.1465 6.66552 37.152 6.83266 36.2198 7.14358L38.1295 12.8692ZM39.1738 12.7012C40.9943 12.7012 42.4701 14.177 42.4701 15.9975H48.5058C48.5058 10.8436 44.3277 6.66552 39.1738 6.66552V12.7012ZM42.4701 15.9975C42.4701 17.7878 41.0421 19.2455 39.2643 19.2926L39.4241 25.3262C44.4632 25.1928 48.5058 21.0677 48.5058 15.9975H42.4701ZM36.3263 22.3094V22.3119H42.362V22.3094H36.3263ZM39.3442 19.2941H31.7995V25.3298H39.3442V19.2941ZM34.8174 22.3119V22.3021H28.7816V22.3119H34.8174Z" fill="white"/>
</g>
<path d="M53.9055 22.6676C52.8432 22.6676 51.8956 22.4443 51.0627 21.9976C50.2298 21.551 49.5719 20.9414 49.089 20.1688C48.6182 19.3841 48.3828 18.4969 48.3828 17.507V8.96044H51.1894V17.326C51.1894 17.8571 51.3041 18.34 51.5335 18.7745C51.7749 19.197 52.1008 19.529 52.5113 19.7704C52.9217 20.0119 53.3865 20.1326 53.9055 20.1326C54.4367 20.1326 54.9014 20.0119 55.2998 19.7704C55.7102 19.529 56.0301 19.197 56.2595 18.7745C56.5009 18.34 56.6216 17.8571 56.6216 17.326V8.96044H59.4282V17.507C59.4282 18.4969 59.1868 19.3841 58.7039 20.1688C58.2331 20.9414 57.5813 21.551 56.7484 21.9976C55.9154 22.4443 54.9678 22.6676 53.9055 22.6676ZM61.6488 22.4503V8.96044H66.0488C67.5094 8.96044 68.7769 9.25016 69.8513 9.82959C70.9257 10.409 71.7586 11.2057 72.3501 12.2197C72.9416 13.2337 73.2373 14.3926 73.2373 15.6963C73.2373 17 72.9416 18.1649 72.3501 19.191C71.7586 20.205 70.9257 21.0017 69.8513 21.5812C68.7769 22.1606 67.5094 22.4503 66.0488 22.4503H61.6488ZM64.4554 20.0058H66.1212C67.0024 20.0058 67.7629 19.8308 68.4027 19.4807C69.0425 19.1186 69.5374 18.6176 69.8875 17.9778C70.2497 17.326 70.4307 16.5655 70.4307 15.6963C70.4307 14.8151 70.2497 14.0546 69.8875 13.4148C69.5374 12.775 69.0425 12.2801 68.4027 11.93C67.7629 11.5799 67.0024 11.4049 66.1212 11.4049H64.4554V20.0058ZM75.0346 22.4503V8.96044H80.2133C81.1428 8.96044 81.9636 9.12341 82.6759 9.44934C83.4001 9.77527 83.9675 10.2581 84.3779 10.8979C84.7884 11.5377 84.9936 12.3284 84.9936 13.27C84.9936 14.1874 84.7823 14.966 84.3598 15.6058C83.9494 16.2456 83.382 16.7345 82.6578 17.0725C81.9455 17.3984 81.1307 17.5614 80.2133 17.5614H77.8412V22.4503H75.0346ZM77.8412 15.1169H80.2314C80.6297 15.1169 80.9738 15.0384 81.2635 14.8815C81.5532 14.7246 81.7765 14.5073 81.9335 14.2296C82.1025 13.952 82.187 13.6321 82.187 13.27C82.187 12.8957 82.1025 12.5698 81.9335 12.2922C81.7765 12.0145 81.5532 11.7972 81.2635 11.6403C80.9738 11.4834 80.6297 11.4049 80.2314 11.4049H77.8412V15.1169ZM86.7937 22.4503V8.96044H91.9542C92.8837 8.96044 93.7046 9.12341 94.4168 9.44934C95.1411 9.77527 95.7085 10.2581 96.1189 10.8979C96.5293 11.5377 96.7345 12.3284 96.7345 13.27C96.7345 14.1874 96.5233 14.972 96.1008 15.6239C95.6783 16.2637 95.1109 16.7465 94.3987 17.0725L97.4769 22.4503H94.3263L90.9946 16.493L92.8053 17.5614H89.6003V22.4503H86.7937ZM89.6003 15.1169H91.9723C92.3707 15.1169 92.7147 15.0384 93.0044 14.8815C93.2942 14.7246 93.5175 14.5073 93.6744 14.2296C93.8434 13.952 93.9279 13.6321 93.9279 13.27C93.9279 12.8957 93.8434 12.5698 93.6744 12.2922C93.5175 12.0145 93.2942 11.7972 93.0044 11.6403C92.7147 11.4834 92.3707 11.4049 91.9723 11.4049H89.6003V15.1169ZM105.625 22.6676C104.611 22.6676 103.67 22.4925 102.801 22.1425C101.931 21.7924 101.171 21.3035 100.519 20.6758C99.879 20.036 99.378 19.2936 99.0159 18.4486C98.6537 17.6036 98.4727 16.6862 98.4727 15.6963C98.4727 14.7065 98.6477 13.789 98.9978 12.944C99.3599 12.099 99.8609 11.3627 100.501 10.7349C101.153 10.1072 101.913 9.61834 102.782 9.26826C103.652 8.91819 104.599 8.74316 105.625 8.74316C106.651 8.74316 107.599 8.91819 108.468 9.26826C109.337 9.61834 110.092 10.1072 110.732 10.7349C111.383 11.3627 111.884 12.099 112.234 12.944C112.597 13.789 112.778 14.7065 112.778 15.6963C112.778 16.6862 112.597 17.6036 112.234 18.4486C111.872 19.2936 111.365 20.036 110.713 20.6758C110.074 21.3035 109.319 21.7924 108.45 22.1425C107.581 22.4925 106.639 22.6676 105.625 22.6676ZM105.625 20.1326C106.241 20.1326 106.808 20.0239 107.327 19.8066C107.859 19.5894 108.323 19.2876 108.722 18.9013C109.12 18.5029 109.428 18.0321 109.645 17.4889C109.862 16.9457 109.971 16.3482 109.971 15.6963C109.971 15.0445 109.862 14.453 109.645 13.9218C109.428 13.3786 109.12 12.9078 108.722 12.5095C108.323 12.1111 107.859 11.8093 107.327 11.6041C106.808 11.3868 106.241 11.2782 105.625 11.2782C105.01 11.2782 104.436 11.3868 103.905 11.6041C103.386 11.8093 102.927 12.1111 102.529 12.5095C102.131 12.9078 101.823 13.3786 101.606 13.9218C101.388 14.453 101.28 15.0445 101.28 15.6963C101.28 16.3482 101.388 16.9457 101.606 17.4889C101.823 18.0321 102.131 18.5029 102.529 18.9013C102.927 19.2876 103.386 19.5894 103.905 19.8066C104.436 20.0239 105.01 20.1326 105.625 20.1326ZM115.909 22.4503V19.7342H118.625V22.4503H115.909ZM121.164 22.4503L125.727 8.96044H129.457L134.02 22.4503H130.96L130.054 19.698H125.111L124.206 22.4503H121.164ZM125.89 17.2535H129.276L127.211 10.8798H127.972L125.89 17.2535ZM135.422 22.4503V8.96044H138.228V22.4503H135.422Z" fill="white"/>
<path d="M7.77217 22.6676C6.80646 22.6676 5.90712 22.4925 5.07419 22.1425C4.25333 21.7924 3.53509 21.3035 2.91945 20.6758C2.3038 20.0481 1.82095 19.3117 1.47087 18.4667C1.13287 17.6217 0.963867 16.6982 0.963867 15.6963C0.963867 14.6944 1.13287 13.7709 1.47087 12.9259C1.80887 12.0688 2.2857 11.3325 2.90134 10.7168C3.51698 10.0891 4.23524 9.60627 5.0561 9.26826C5.88903 8.91819 6.79439 8.74316 7.77217 8.74316C8.74996 8.74316 9.62514 8.90612 10.3977 9.23205C11.1824 9.55798 11.8463 9.99255 12.3895 10.5358C12.9327 11.079 13.319 11.6826 13.5484 12.3465L11.0677 13.5416C10.8383 12.8897 10.4339 12.3525 9.8545 11.93C9.28714 11.4954 8.59303 11.2782 7.77217 11.2782C6.97546 11.2782 6.27531 11.4653 5.67174 11.8395C5.06817 12.2137 4.59738 12.7328 4.25938 13.3967C3.93345 14.0486 3.77049 14.8151 3.77049 15.6963C3.77049 16.5775 3.93345 17.3501 4.25938 18.014C4.59738 18.678 5.06817 19.197 5.67174 19.5713C6.27531 19.9455 6.97546 20.1326 7.77217 20.1326C8.59303 20.1326 9.28714 19.9213 9.8545 19.4988C10.4339 19.0643 10.8383 18.521 11.0677 17.8692L13.5484 19.0643C13.319 19.7282 12.9327 20.3318 12.3895 20.875C11.8463 21.4182 11.1824 21.8528 10.3977 22.1787C9.62514 22.5046 8.74996 22.6676 7.77217 22.6676ZM15.3493 22.4503V8.96044H18.156V20.0058H23.8597V22.4503H15.3493Z" fill="white"/>
</svg>
