<svg width="120" height="26" viewBox="0 0 120 26" fill="none" xmlns="http://www.w3.org/2000/svg">
<path d="M3.55371 13.1114C3.55371 12.0175 3.80574 11.0362 4.30979 10.1675C4.82456 9.29882 5.51629 8.62318 6.38498 8.14058C7.26438 7.64725 8.22422 7.40059 9.2645 7.40059C10.4549 7.40059 11.5113 7.69551 12.4336 8.28536C13.3666 8.86448 14.0423 9.69027 14.4605 10.7627H12.2566C11.9671 10.1729 11.5649 9.73317 11.0501 9.4436C10.5354 9.15404 9.94014 9.00926 9.2645 9.00926C8.52451 9.00926 7.86495 9.17549 7.28583 9.50795C6.70671 9.84041 6.25092 10.3176 5.91846 10.9397C5.59673 11.5617 5.43586 12.2856 5.43586 13.1114C5.43586 13.9372 5.59673 14.6611 5.91846 15.2831C6.25092 15.9051 6.70671 16.3877 7.28583 16.7309C7.86495 17.0634 8.52451 17.2296 9.2645 17.2296C9.94014 17.2296 10.5354 17.0848 11.0501 16.7952C11.5649 16.5057 11.9671 16.066 12.2566 15.4761H14.4605C14.0423 16.5486 13.3666 17.3744 12.4336 17.9535C11.5113 18.5326 10.4549 18.8222 9.2645 18.8222C8.2135 18.8222 7.25366 18.5809 6.38498 18.0983C5.51629 17.6049 4.82456 16.9239 4.30979 16.0552C3.80574 15.1866 3.55371 14.2053 3.55371 13.1114Z" fill="white"/>
<path d="M18.7627 17.2457H22.5431V18.7256H16.9288V7.54537H18.7627V17.2457Z" fill="white"/>
<path fill-rule="evenodd" clip-rule="evenodd" d="M33.7046 9.73541C34.4813 9.17322 35.416 8.87121 36.3749 8.87262C38.8953 8.87262 40.9414 10.9187 40.9414 13.4392C40.9414 14.4938 40.5833 15.4656 39.9813 16.239L39.9793 16.2416C39.8999 16.3445 39.798 16.4279 39.6813 16.4852C39.5646 16.5426 39.4363 16.5724 39.3063 16.5724H39.3035C37.4477 16.5787 32.7102 16.5787 32.7102 16.5787H27.6062C27.4207 16.5787 27.2401 16.5184 27.0918 16.4069C26.9434 16.2954 26.8353 16.1387 26.7837 15.9605C26.7091 15.6973 26.6712 15.4251 26.671 15.1516C26.671 13.5765 27.9499 12.2975 29.5251 12.2975C30.7115 12.2975 31.7298 13.0233 32.1605 14.0545C32.248 14.2641 32.4152 14.4303 32.6253 14.5166C32.8353 14.6029 33.0711 14.6022 33.2806 14.5147C33.4902 14.4272 33.6564 14.2601 33.7427 14.05C33.829 13.84 33.8283 13.6042 33.7408 13.3946C33.0521 11.7453 31.423 10.5851 29.5251 10.5851C27.0046 10.5851 24.9585 12.6312 24.9585 15.1516C24.9585 15.5943 25.0219 16.0224 25.1363 16.428L25.1375 16.432C25.2915 16.9679 25.6157 17.4391 26.0611 17.7745C26.5065 18.1099 27.049 18.2912 27.6065 18.2911H32.7102C32.7102 18.2911 37.452 18.2911 39.3092 18.2849C39.7005 18.2846 40.0865 18.1946 40.4377 18.0219C40.7888 17.8492 41.0957 17.5983 41.3347 17.2885C42.1913 16.1884 42.6557 14.8335 42.6539 13.4392C42.6539 9.97373 39.8403 7.16016 36.3749 7.16016C35.0558 7.15844 33.7699 7.57403 32.7014 8.34747C32.3184 8.62431 32.2322 9.16003 32.509 9.54305C32.7859 9.92607 33.3216 10.0123 33.7046 9.73541Z" fill="white"/>
<path d="M47.6782 7.54537V14.6718C47.6782 15.519 47.8981 16.1571 48.3378 16.5861C48.7882 17.0151 49.4102 17.2296 50.2038 17.2296C51.0082 17.2296 51.6302 17.0151 52.0699 16.5861C52.5203 16.1571 52.7455 15.519 52.7455 14.6718V7.54537H54.5794V14.6396C54.5794 15.5512 54.381 16.3234 53.9842 16.9561C53.5874 17.5889 53.0565 18.0607 52.3916 18.3717C51.7267 18.6827 50.9921 18.8383 50.1877 18.8383C49.3834 18.8383 48.6488 18.6827 47.9839 18.3717C47.3297 18.0607 46.8095 17.5889 46.4234 16.9561C46.0374 16.3234 45.8443 15.5512 45.8443 14.6396V7.54537H47.6782Z" fill="white"/>
<path d="M60.9406 7.54537C62.131 7.54537 63.1713 7.77595 64.0614 8.2371C64.9623 8.68753 65.654 9.34172 66.1366 10.1997C66.6299 11.0469 66.8766 12.0389 66.8766 13.1757C66.8766 14.3125 66.6299 15.2992 66.1366 16.1357C65.654 16.9722 64.9623 17.6157 64.0614 18.0661C63.1713 18.5058 62.131 18.7256 60.9406 18.7256H57.2889V7.54537H60.9406ZM60.9406 17.2296C62.249 17.2296 63.2517 16.8757 63.9488 16.1679C64.6459 15.46 64.9944 14.4627 64.9944 13.1757C64.9944 11.8781 64.6459 10.8646 63.9488 10.1353C63.2517 9.40607 62.249 9.04144 60.9406 9.04144H59.1228V17.2296H60.9406Z" fill="white"/>
<path d="M76.2871 10.7145C76.2871 11.6797 75.9707 12.4572 75.338 13.047C74.7052 13.6369 73.7561 13.9318 72.4906 13.9318H70.2224V18.7256H69.0963V7.48102H72.4906C73.7454 7.48102 74.6891 7.77595 75.3219 8.36579C75.9653 8.95564 76.2871 9.73853 76.2871 10.7145ZM72.4906 12.9666C74.2494 12.9666 75.1288 12.2159 75.1288 10.7145C75.1288 9.96374 74.9197 9.39534 74.5014 9.00926C74.0832 8.62318 73.4129 8.43014 72.4906 8.43014H70.2224V12.9666H72.4906Z" fill="white"/>
<path d="M84.4825 18.7256L81.6995 14.0283H79.6243V18.7256H78.4982V7.48102H81.8765C83.1312 7.48102 84.0803 7.78131 84.7238 8.38188C85.378 8.98245 85.7051 9.7707 85.7051 10.7466C85.7051 11.5617 85.4692 12.2588 84.9973 12.8379C84.5361 13.4063 83.8498 13.7763 82.9382 13.9479L85.8338 18.7256H84.4825ZM79.6243 13.1114H81.8925C82.7719 13.1114 83.4315 12.8969 83.8712 12.4679C84.3216 12.0389 84.5469 11.4652 84.5469 10.7466C84.5469 10.0066 84.3324 9.43824 83.9034 9.04144C83.4744 8.63391 82.7988 8.43014 81.8765 8.43014H79.6243V13.1114Z" fill="white"/>
<path d="M93.3127 18.8383C92.2725 18.8383 91.3287 18.597 90.4815 18.1144C89.6342 17.621 88.964 16.94 88.4706 16.0713C87.988 15.1919 87.7467 14.1999 87.7467 13.0953C87.7467 11.9907 87.988 11.004 88.4706 10.1353C88.964 9.25593 89.6342 8.57492 90.4815 8.09232C91.3287 7.59899 92.2725 7.35233 93.3127 7.35233C94.3637 7.35233 95.3129 7.59899 96.1601 8.09232C97.0073 8.57492 97.6722 9.25593 98.1548 10.1353C98.6374 11.004 98.8787 11.9907 98.8787 13.0953C98.8787 14.1999 98.6374 15.1919 98.1548 16.0713C97.6722 16.94 97.0073 17.621 96.1601 18.1144C95.3129 18.597 94.3637 18.8383 93.3127 18.8383ZM93.3127 17.857C94.1492 17.857 94.9 17.6639 95.5649 17.2778C96.2298 16.8918 96.7553 16.3394 97.1414 15.6209C97.5275 14.8916 97.7205 14.0498 97.7205 13.0953C97.7205 12.1408 97.5275 11.3043 97.1414 10.5858C96.7553 9.86722 96.2298 9.31491 95.5649 8.92883C94.9 8.54275 94.1492 8.34971 93.3127 8.34971C92.4762 8.34971 91.7255 8.54275 91.0606 8.92883C90.3957 9.31491 89.8702 9.86722 89.4841 10.5858C89.098 11.3043 88.905 12.1408 88.905 13.0953C88.905 14.0498 89.098 14.8916 89.4841 15.6209C89.8702 16.3394 90.3957 16.8918 91.0606 17.2778C91.7255 17.6639 92.4762 17.857 93.3127 17.857Z" fill="white"/>
<path d="M101.454 18.8061C101.218 18.8061 101.02 18.7256 100.859 18.5648C100.709 18.4039 100.634 18.2055 100.634 17.9696C100.634 17.7336 100.709 17.5406 100.859 17.3904C101.02 17.2296 101.218 17.1491 101.454 17.1491C101.679 17.1491 101.867 17.2296 102.017 17.3904C102.178 17.5406 102.258 17.7336 102.258 17.9696C102.258 18.2055 102.178 18.4039 102.017 18.5648C101.867 18.7256 101.679 18.8061 101.454 18.8061Z" fill="white"/>
<path d="M111.02 16.0552H105.904L104.923 18.7256H103.733L107.835 7.6258H109.106L113.192 18.7256H112.001L111.02 16.0552ZM110.682 15.1222L108.462 9.04144L106.242 15.1222H110.682Z" fill="white"/>
<path d="M116.447 7.48102V18.7256H115.321V7.48102H116.447Z" fill="white"/>
</svg>
