<svg width="139" height="30" viewBox="0 0 139 30" fill="none" xmlns="http://www.w3.org/2000/svg">
<mask id="path-1-inside-1_963_1465" fill="white">
<path fill-rule="evenodd" clip-rule="evenodd" d="M31.7992 22.3021C28.0165 22.1056 25.0098 18.9761 25.0098 15.1445C25.0098 11.186 28.2187 7.97705 32.1772 7.97705C34.1206 7.97705 35.8833 8.7505 37.1744 10.0064C37.8026 9.79683 38.4748 9.68334 39.1735 9.68334C42.6607 9.68334 45.4877 12.5103 45.4877 15.9975C45.4877 19.4278 42.7523 22.2191 39.3439 22.3094V22.3119H31.7992V22.3021Z"/>
</mask>
<path d="M31.7992 22.3021H34.8171V19.437L31.9558 19.2883L31.7992 22.3021ZM37.1744 10.0064L35.0701 12.1696L36.3868 13.4504L38.1292 12.8692L37.1744 10.0064ZM39.3439 22.3094L39.264 19.2926L36.326 19.3704V22.3094H39.3439ZM39.3439 22.3119V25.3298H42.3617V22.3119H39.3439ZM31.7992 22.3119H28.7813V25.3298H31.7992V22.3119ZM31.9558 19.2883C29.7683 19.1746 28.0276 17.3619 28.0276 15.1445H21.9919C21.9919 20.5904 26.2646 25.0365 31.6426 25.3159L31.9558 19.2883ZM28.0276 15.1445C28.0276 12.8527 29.8855 10.9949 32.1772 10.9949V4.95919C26.552 4.95919 21.9919 9.5193 21.9919 15.1445H28.0276ZM32.1772 10.9949C33.3034 10.9949 34.3197 11.4396 35.0701 12.1696L39.2786 7.84314C37.447 6.0614 34.9377 4.95919 32.1772 4.95919V10.9949ZM38.1292 12.8692C38.4535 12.761 38.8035 12.7012 39.1735 12.7012V6.66548C38.1462 6.66548 37.1517 6.83262 36.2195 7.14354L38.1292 12.8692ZM39.1735 12.7012C40.994 12.7012 42.4698 14.177 42.4698 15.9975H48.5055C48.5055 10.8436 44.3274 6.66548 39.1735 6.66548V12.7012ZM42.4698 15.9975C42.4698 17.7878 41.0418 19.2455 39.264 19.2926L39.4238 25.3262C44.4629 25.1928 48.5055 21.0677 48.5055 15.9975H42.4698ZM36.326 22.3094V22.3119H42.3617V22.3094H36.326ZM39.3439 19.2941H31.7992V25.3298H39.3439V19.2941ZM34.8171 22.3119V22.3021H28.7813V22.3119H34.8171Z" fill="#5677E1" mask="url(#path-1-inside-1_963_1465)"/>
<path d="M53.9058 22.6675C52.8435 22.6675 51.8959 22.4442 51.063 21.9975C50.2301 21.5509 49.5722 20.9413 49.0893 20.1687C48.6185 19.384 48.3831 18.4968 48.3831 17.5069V8.96034H51.1897V17.3259C51.1897 17.857 51.3044 18.3399 51.5338 18.7744C51.7752 19.1969 52.1011 19.5289 52.5116 19.7703C52.922 20.0118 53.3868 20.1325 53.9058 20.1325C54.437 20.1325 54.9017 20.0118 55.3001 19.7703C55.7105 19.5289 56.0304 19.1969 56.2598 18.7744C56.5012 18.3399 56.6219 17.857 56.6219 17.3259V8.96034H59.4285V17.5069C59.4285 18.4968 59.1871 19.384 58.7042 20.1687C58.2334 20.9413 57.5816 21.5509 56.7487 21.9975C55.9157 22.4442 54.9681 22.6675 53.9058 22.6675ZM61.6491 22.4502V8.96034H66.0491C67.5097 8.96034 68.7772 9.25006 69.8516 9.82949C70.926 10.4089 71.7589 11.2056 72.3504 12.2196C72.9419 13.2336 73.2376 14.3925 73.2376 15.6962C73.2376 16.9999 72.9419 18.1648 72.3504 19.1909C71.7589 20.2049 70.926 21.0016 69.8516 21.5811C68.7772 22.1605 67.5097 22.4502 66.0491 22.4502H61.6491ZM64.4557 20.0057H66.1215C67.0027 20.0057 67.7632 19.8307 68.403 19.4806C69.0428 19.1185 69.5377 18.6175 69.8878 17.9777C70.25 17.3259 70.431 16.5654 70.431 15.6962C70.431 14.815 70.25 14.0545 69.8878 13.4147C69.5377 12.7749 69.0428 12.28 68.403 11.9299C67.7632 11.5798 67.0027 11.4048 66.1215 11.4048H64.4557V20.0057ZM75.0349 22.4502V8.96034H80.2136C81.1431 8.96034 81.9639 9.12331 82.6762 9.44924C83.4004 9.77517 83.9678 10.258 84.3782 10.8978C84.7887 11.5376 84.9939 12.3283 84.9939 13.2699C84.9939 14.1873 84.7826 14.9659 84.3601 15.6057C83.9497 16.2455 83.3823 16.7344 82.6581 17.0724C81.9458 17.3983 81.131 17.5613 80.2136 17.5613H77.8415V22.4502H75.0349ZM77.8415 15.1168H80.2317C80.63 15.1168 80.9741 15.0383 81.2638 14.8814C81.5535 14.7245 81.7768 14.5072 81.9338 14.2295C82.1028 13.9519 82.1873 13.632 82.1873 13.2699C82.1873 12.8956 82.1028 12.5697 81.9338 12.2921C81.7768 12.0144 81.5535 11.7971 81.2638 11.6402C80.9741 11.4833 80.63 11.4048 80.2317 11.4048H77.8415V15.1168ZM86.794 22.4502V8.96034H91.9545C92.884 8.96034 93.7049 9.12331 94.4171 9.44924C95.1414 9.77517 95.7088 10.258 96.1192 10.8978C96.5296 11.5376 96.7348 12.3283 96.7348 13.2699C96.7348 14.1873 96.5236 14.9719 96.1011 15.6238C95.6786 16.2636 95.1112 16.7464 94.399 17.0724L97.4772 22.4502H94.3266L90.9949 16.4929L92.8056 17.5613H89.6006V22.4502H86.794ZM89.6006 15.1168H91.9726C92.371 15.1168 92.715 15.0383 93.0047 14.8814C93.2945 14.7245 93.5178 14.5072 93.6747 14.2295C93.8437 13.9519 93.9282 13.632 93.9282 13.2699C93.9282 12.8956 93.8437 12.5697 93.6747 12.2921C93.5178 12.0144 93.2945 11.7971 93.0047 11.6402C92.715 11.4833 92.371 11.4048 91.9726 11.4048H89.6006V15.1168ZM105.625 22.6675C104.611 22.6675 103.67 22.4924 102.801 22.1424C101.931 21.7923 101.171 21.3034 100.519 20.6757C99.8793 20.0359 99.3783 19.2935 99.0162 18.4485C98.654 17.6035 98.473 16.6861 98.473 15.6962C98.473 14.7064 98.648 13.7889 98.9981 12.9439C99.3602 12.0989 99.8612 11.3626 100.501 10.7348C101.153 10.1071 101.913 9.61824 102.782 9.26816C103.652 8.91809 104.599 8.74306 105.625 8.74306C106.651 8.74306 107.599 8.91809 108.468 9.26816C109.337 9.61824 110.092 10.1071 110.732 10.7348C111.383 11.3626 111.884 12.0989 112.234 12.9439C112.597 13.7889 112.778 14.7064 112.778 15.6962C112.778 16.6861 112.597 17.6035 112.234 18.4485C111.872 19.2935 111.365 20.0359 110.713 20.6757C110.074 21.3034 109.319 21.7923 108.45 22.1424C107.581 22.4924 106.639 22.6675 105.625 22.6675ZM105.625 20.1325C106.241 20.1325 106.808 20.0238 107.327 19.8065C107.859 19.5893 108.323 19.2875 108.722 18.9012C109.12 18.5028 109.428 18.032 109.645 17.4888C109.862 16.9456 109.971 16.3481 109.971 15.6962C109.971 15.0444 109.862 14.4529 109.645 13.9217C109.428 13.3785 109.12 12.9077 108.722 12.5094C108.323 12.111 107.859 11.8092 107.327 11.604C106.808 11.3867 106.241 11.2781 105.625 11.2781C105.01 11.2781 104.436 11.3867 103.905 11.604C103.386 11.8092 102.927 12.111 102.529 12.5094C102.131 12.9077 101.823 13.3785 101.606 13.9217C101.388 14.4529 101.28 15.0444 101.28 15.6962C101.28 16.3481 101.388 16.9456 101.606 17.4888C101.823 18.032 102.131 18.5028 102.529 18.9012C102.927 19.2875 103.386 19.5893 103.905 19.8065C104.436 20.0238 105.01 20.1325 105.625 20.1325ZM115.909 22.4502V19.7341H118.625V22.4502H115.909ZM121.164 22.4502L125.727 8.96034H129.457L134.02 22.4502H130.96L130.054 19.6979H125.111L124.206 22.4502H121.164ZM125.89 17.2534H129.276L127.211 10.8797H127.972L125.89 17.2534ZM135.422 22.4502V8.96034H138.228V22.4502H135.422Z" fill="black"/>
<path d="M7.77259 22.6675C6.80688 22.6675 5.90755 22.4924 5.07462 22.1424C4.25376 21.7923 3.53551 21.3034 2.91987 20.6757C2.30422 20.048 1.82137 19.3116 1.47129 18.4666C1.13329 17.6216 0.964292 16.6981 0.964292 15.6962C0.964292 14.6943 1.13329 13.7708 1.47129 12.9258C1.80929 12.0687 2.28612 11.3324 2.90176 10.7167C3.5174 10.089 4.23566 9.60617 5.05652 9.26816C5.88945 8.91809 6.79481 8.74306 7.77259 8.74306C8.75038 8.74306 9.62556 8.90602 10.3981 9.23195C11.1828 9.55788 11.8467 9.99245 12.3899 10.5357C12.9331 11.0789 13.3194 11.6825 13.5488 12.3464L11.0681 13.5415C10.8387 12.8896 10.4343 12.3524 9.85492 11.9299C9.28756 11.4953 8.59345 11.2781 7.77259 11.2781C6.97588 11.2781 6.27573 11.4652 5.67216 11.8394C5.06859 12.2136 4.5978 12.7327 4.2598 13.3966C3.93387 14.0485 3.77091 14.815 3.77091 15.6962C3.77091 16.5774 3.93387 17.35 4.2598 18.0139C4.5978 18.6779 5.06859 19.1969 5.67216 19.5712C6.27573 19.9454 6.97588 20.1325 7.77259 20.1325C8.59345 20.1325 9.28756 19.9212 9.85492 19.4987C10.4343 19.0642 10.8387 18.5209 11.0681 17.8691L13.5488 19.0642C13.3194 19.7281 12.9331 20.3317 12.3899 20.8749C11.8467 21.4181 11.1828 21.8527 10.3981 22.1786C9.62556 22.5045 8.75038 22.6675 7.77259 22.6675ZM15.3497 22.4502V8.96034H18.1564V20.0057H23.8601V22.4502H15.3497Z" fill="black"/>
</svg>
