<svg width="52" height="26" viewBox="0 0 52 26" fill="none" xmlns="http://www.w3.org/2000/svg">
<g clip-path="url(#clip0_119_3700)">
<path d="M11.2145 16.9724C11.2145 18.4045 11.5287 19.5039 11.9397 20.169C12.4784 21.0403 13.2818 21.4101 14.1009 21.4101C15.1572 21.4101 16.1237 21.1479 17.9861 18.572C19.4785 16.5074 21.2363 13.6094 22.4192 11.7925L24.4225 8.71453C25.8141 6.57689 27.4248 4.20063 29.2717 2.5899C30.7798 1.27515 32.4058 0.5448 34.0426 0.5448C36.7907 0.5448 39.4083 2.1373 41.4116 5.12405C43.604 8.39499 44.6682 12.5152 44.6682 16.7669C44.6682 19.2946 44.1701 21.1518 43.3222 22.6191C42.5032 24.038 40.9068 25.4558 38.2214 25.4558V21.4095C40.5208 21.4095 41.0945 19.2965 41.0945 16.8784C41.0945 13.4327 40.2911 9.60873 38.5213 6.87632C37.2654 4.9382 35.6377 3.754 33.847 3.754C31.9101 3.754 30.3516 5.21501 28.5999 7.81922C27.6686 9.2031 26.7127 10.8894 25.6392 12.7923L24.4576 14.8857C22.0841 19.0951 21.4827 20.0534 20.2959 21.6351C18.2157 24.405 16.4393 25.4552 14.1009 25.4552C11.3267 25.4552 9.57252 24.2539 8.48603 22.4436C7.59921 20.9686 7.16357 19.033 7.16357 16.8277L11.2145 16.9724Z" fill="#858585"/>
<path d="M10.3579 5.40904C12.2151 2.54625 14.8954 0.544189 17.9695 0.544189C19.7497 0.544189 21.5199 1.0711 23.3677 2.58018C25.3892 4.22971 27.5438 6.94751 30.2319 11.4248L31.1957 13.0311C33.5225 16.9074 34.8462 18.9016 35.621 19.842C36.6173 21.0496 37.3151 21.4096 38.2216 21.4096C40.521 21.4096 41.0948 19.2967 41.0948 16.8786L44.6684 16.7664C44.6684 19.2942 44.1703 21.1514 43.3224 22.6187C42.5035 24.0376 40.907 25.4554 38.2216 25.4554C36.5521 25.4554 35.0732 25.0928 33.4377 23.5498C32.1809 22.3656 30.7104 20.2619 29.5796 18.3707L26.216 12.7521C24.5285 9.93237 22.9798 7.82993 22.0843 6.87775C21.1204 5.85379 19.8814 4.61743 17.9041 4.61743C16.3039 4.61743 14.9449 5.74036 13.8076 7.45807L10.3579 5.40904Z" fill="#858585"/>
<path d="M17.9039 4.61743C16.3037 4.61743 14.9446 5.74036 13.8074 7.45807C12.1992 9.88524 11.2153 13.5005 11.2153 16.9724C11.2153 18.4045 11.5295 19.5039 11.9405 20.169L8.48603 22.4437C7.59921 20.9687 7.16357 19.0331 7.16357 16.8277C7.16357 12.8172 8.26436 8.63709 10.3577 5.40904C12.2149 2.54625 14.8952 0.544189 17.9692 0.544189L17.9039 4.61743Z" fill="#858585"/>
</g>
<defs>
<clipPath id="clip0_119_3700">
<rect width="51.4704" height="24.9117" fill="white" transform="translate(0.180664 0.544189)"/>
</clipPath>
</defs>
</svg>
