<svg width="90" height="18" viewBox="0 0 90 18" fill="none" xmlns="http://www.w3.org/2000/svg">
<path d="M31.9664 4.80552C31.9664 4.48371 32.0951 4.18336 32.3096 3.94736C32.5456 3.71136 32.846 3.60409 33.1678 3.60409H38.4026C38.8746 3.60409 39.3251 3.77573 39.6898 4.07608C40.0546 4.37644 40.2906 4.78407 40.3764 5.25606C40.4622 5.72805 40.3764 6.20004 40.1618 6.60767C39.9258 7.0153 39.5611 7.33711 39.132 7.50874L35.0772 9.01053C34.5409 9.20362 34.0689 9.52543 33.7471 9.99742C33.4038 10.448 33.2107 11.0058 33.1893 11.5636C33.1678 12.1214 33.318 12.6792 33.6183 13.1726C33.9187 13.6446 34.3478 14.0308 34.8627 14.2668L42.4574 17.7209V15.082L35.8281 12.1428C35.7423 12.0999 35.6565 12.0356 35.6136 11.9497C35.5707 11.8639 35.5278 11.7781 35.5492 11.6708C35.5492 11.5636 35.5921 11.4778 35.635 11.4134C35.6994 11.3276 35.7637 11.2847 35.871 11.2418L40.0331 9.80433C40.9985 9.43961 41.8138 8.73163 42.3073 7.83055C42.8221 6.92948 42.9938 5.87823 42.8007 4.86988C42.6076 3.86154 42.0713 2.93902 41.2775 2.27394C40.4837 1.60886 39.4753 1.24414 38.4455 1.24414H33.1893C32.2238 1.24414 31.3013 1.63031 30.6362 2.29539C29.9497 2.98192 29.585 3.90445 29.585 4.84843V17.3347H32.0093L31.9664 4.80552Z" fill="#A3AAB3"/>
<path d="M45.2896 1.17969H47.7139V17.2917H45.2896V1.17969Z" fill="#A3AAB3"/>
<path d="M11.9499 1.17969L7.61621 14.5885C7.59476 14.6743 7.53039 14.7387 7.46603 14.7816C7.40167 14.8245 7.31585 14.8674 7.23003 14.8674C7.14422 14.8674 7.0584 14.846 6.99404 14.7816C6.92968 14.7387 6.86531 14.6529 6.84386 14.5885L2.51013 1.17969H0L4.56972 15.3394C4.76281 15.8972 5.10608 16.3907 5.59952 16.7554C6.07151 17.0986 6.65077 17.2917 7.25149 17.2917C7.8522 17.2917 8.43147 17.0986 8.90346 16.7554C9.37545 16.4121 9.74017 15.9187 9.93325 15.3394L14.503 1.17969H11.9499Z" fill="#A3AAB3"/>
<path d="M62.2171 17.2917L66.5508 3.88291C66.5723 3.79709 66.6367 3.73273 66.701 3.68982C66.7654 3.64691 66.8512 3.604 66.937 3.604C67.0228 3.604 67.1086 3.62546 67.173 3.68982C67.2374 3.73273 67.3017 3.81854 67.3232 3.88291L71.6569 17.2917H74.167L69.5973 3.13201C69.4042 2.57421 69.061 2.08076 68.5675 1.71604C68.0955 1.37277 67.5163 1.17969 66.9156 1.17969C66.3148 1.17969 65.7356 1.37277 65.2636 1.71604C64.7916 2.05931 64.4269 2.55275 64.2338 3.13201L59.6641 17.2917H62.2171Z" fill="#A3AAB3"/>
<path d="M19.4377 3.604H27.0968V1.17969H19.4377C18.365 1.17969 17.3352 1.60877 16.5843 2.35966C15.8334 3.11056 15.4043 4.14036 15.4043 5.21306V13.2584C15.4043 14.3311 15.8334 15.3609 16.5843 16.1117C17.3352 16.8626 18.365 17.2917 19.4377 17.2917H27.0968V14.8674H19.4377C19.0086 14.8674 18.601 14.6958 18.3006 14.3954C18.0002 14.0951 17.8286 13.6874 17.8286 13.2584V10.4264H25.4663V8.045H17.8072V5.21306C17.8072 4.78398 17.9788 4.37635 18.2791 4.07599C18.601 3.77564 19.0086 3.604 19.4377 3.604Z" fill="#A3AAB3"/>
<path d="M61.4658 1.17969H49.709V3.604H54.386V17.2917H56.8103V3.604H61.4873V1.17969H61.4658Z" fill="#A3AAB3"/>
<path d="M83.1348 17.2917C84.3577 17.2703 85.5162 16.7768 86.3744 15.9187C87.2326 15.0605 87.7046 13.8805 87.7046 12.6576C87.7046 11.4348 87.2326 10.2762 86.3744 9.39661C85.5162 8.53845 84.3577 8.04501 83.1348 8.02355H79.1015C78.5222 8.02355 77.9429 7.78756 77.5353 7.37993C77.1277 6.9723 76.8917 6.39304 76.8917 5.81378C76.8917 5.23452 77.1277 4.65525 77.5353 4.24763C77.9429 3.84 78.5222 3.604 79.1015 3.604H86.9537V1.17969H79.1015C77.8786 1.20114 76.7201 1.69459 75.8619 2.55275C75.0037 3.41092 74.5317 4.59089 74.5317 5.81378C74.5317 7.03666 75.0037 8.19518 75.8619 9.0748C76.7201 9.93297 77.8786 10.4264 79.1015 10.4479H83.1348C83.7141 10.4479 84.2934 10.6839 84.701 11.0915C85.1086 11.4991 85.3446 12.0784 85.3446 12.6576C85.3446 13.2369 85.1086 13.8162 84.701 14.2238C84.2934 14.6314 83.7141 14.8674 83.1348 14.8674H75.2826V17.2917H83.1348Z" fill="#A3AAB3"/>
<path d="M88.3264 1.17998H88.1118V0.193089H87.7686V0H88.6696V0.193089H88.3264V1.17998ZM89.442 0.901072L89.5063 0.686531L89.7638 0H89.9998V1.17998H89.8282V0.600716V0.40763L89.7638 0.57926L89.5278 1.17998H89.3562L89.1202 0.57926L89.0558 0.40763V0.600716V1.17998H88.8627V0H89.0987L89.3562 0.686531L89.442 0.901072Z" fill="#A3AAB3"/>
</svg>
