<svg width="513" height="388" viewBox="0 0 513 388" fill="none" xmlns="http://www.w3.org/2000/svg">
<path d="M71.3679 177.421V178.421V361.584H103.889V178.473V177.473H104.889H115.359C119.057 177.473 120.995 173.195 118.643 170.416C118.641 170.415 118.64 170.413 118.639 170.412L92.6782 140.409L71.3679 177.421ZM71.3679 177.421H70.3679M71.3679 177.421H70.3679M70.3679 177.421H59.8976C56.2313 177.421 54.2774 173.183 56.6627 170.419L70.3679 177.421ZM82.6305 140.409C82.6304 140.409 82.6302 140.409 82.6301 140.409L56.6633 170.419L82.6305 140.409ZM82.6305 140.409C85.2897 137.344 90.0179 137.344 92.6773 140.408L82.6305 140.409Z" fill="#5677E1" stroke="black" stroke-width="2"/>
<path d="M456.524 169.765L430.556 139.754C427.497 136.229 422.055 136.229 418.997 139.754L393.029 169.765C390.074 173.186 392.51 178.421 397.02 178.421H407.49V362.584H442.063V178.473H452.533C457.042 178.473 459.427 173.186 456.524 169.765Z" fill="#161616"/>
<path d="M442.063 362.637V178.474H452.533C457.042 178.474 459.427 173.187 456.524 169.818L430.556 139.807C427.497 136.282 422.055 136.282 418.997 139.807L393.029 169.818C390.074 173.239 392.51 178.474 397.02 178.474H407.49V362.637" stroke="black" stroke-width="2.59165" stroke-miterlimit="10" stroke-linecap="round"/>
<path d="M201.349 97.148L175.381 67.1366C172.323 63.612 166.88 63.612 163.822 67.1366L137.854 97.148C134.899 100.569 137.335 105.804 141.845 105.804H152.315V362.585H186.836V105.856H197.306C201.867 105.856 204.252 100.569 201.349 97.148Z" fill="#161616"/>
<path d="M201.349 97.148L175.381 67.1366C172.323 63.612 166.88 63.612 163.822 67.1366L137.854 97.148C134.899 100.569 137.335 105.804 141.845 105.804H152.315V362.585H186.836V105.856H197.306C201.867 105.856 204.252 100.569 201.349 97.148Z" stroke="black" stroke-width="2.59165" stroke-miterlimit="10" stroke-linecap="round"/>
<path d="M363.986 361.637V50.291V49.291H364.986H377.737C382.365 49.291 384.824 43.8775 381.801 40.3713L363.986 361.637ZM363.986 361.637H323.95V50.291V49.291H322.95H310.199C305.614 49.291 303.117 43.8703 306.135 40.3702L337.7 3.88188L363.986 361.637ZM350.235 3.88084L381.8 40.3702L337.701 3.88084C341.037 0.0361361 346.953 0.0447044 350.231 3.87665L350.235 3.88084Z" fill="#5677E1" stroke="black" stroke-width="2"/>
<path d="M114.911 135.307L122.754 143.15L130.597 135.307L122.754 127.464L114.911 135.307Z" fill="#161616"/>
<path d="M439.236 62.4725L450.085 73.3213L460.934 62.4726L450.085 51.6238L439.236 62.4725Z" fill="#161616"/>
<path d="M182.415 27.3344L190.259 35.1777L198.102 27.3344L190.259 19.4911L182.415 27.3344Z" fill="#161616"/>
<path d="M61.6094 64.5089L74.6572 77.5566L87.705 64.5088L74.6572 51.4611L61.6094 64.5089Z" fill="#161616"/>
<path d="M381.907 125.454L388.064 131.611L394.222 125.454L388.064 119.297L381.907 125.454Z" fill="#161616"/>
<path d="M2 362.637H511" stroke="black" stroke-width="2.59165" stroke-miterlimit="10" stroke-linecap="round"/>
<path d="M297.241 100.311C300.196 90.9808 302.424 82.9467 304.083 76.3121C307.97 60.7622 301.543 44.3311 287.911 35.8823C249.658 12.091 234.005 45.4196 234.005 45.4196C234.005 45.4196 220.943 26.5006 204.771 48.4259C188.599 70.3513 221.876 113.891 221.876 113.891L297.241 100.311Z" fill="black"/>
<path d="M297.241 100.311C300.196 90.9808 302.424 82.9467 304.083 76.3121C307.97 60.7622 301.543 44.3311 287.911 35.8823C249.658 12.091 234.005 45.4196 234.005 45.4196C234.005 45.4196 220.943 26.5006 204.771 48.4259C188.599 70.3513 221.876 113.891 221.876 113.891L297.241 100.311Z" stroke="black" stroke-width="2.59165" stroke-miterlimit="10" stroke-linecap="round"/>
<path d="M155.581 179.149L232.035 164.895L285.786 165.309L349.644 179.252L345.964 347.554H162.682L155.581 179.149Z" fill="#161616"/>
<path d="M186.333 235.506C199.389 222.45 199.389 201.282 186.333 188.226C173.277 175.17 152.109 175.17 139.053 188.226C125.997 201.282 125.997 222.45 139.053 235.506C152.109 248.562 173.277 248.562 186.333 235.506Z" fill="#161616"/>
<path d="M374.612 219.543C378.855 201.574 367.728 183.567 349.758 179.324C331.789 175.081 313.782 186.208 309.539 204.178C305.296 222.147 316.423 240.154 334.393 244.397C352.362 248.64 370.369 237.512 374.612 219.543Z" fill="#161616"/>
<path d="M129.25 211.855L121.786 289.916L188.443 292.456L195.907 215.847L129.25 211.855Z" fill="#161616"/>
<path d="M375.561 211.855L383.024 289.916L316.367 292.456L308.903 215.847L375.561 211.855Z" fill="#161616"/>
<path d="M121.786 289.915L119.661 325.783C117.225 366.317 156.67 396.38 195.078 383.318L261.01 360.978L196.167 321.896L187.096 324.695L188.392 292.455L121.786 289.915Z" fill="white"/>
<path d="M121.786 289.915L119.661 325.783C117.225 366.317 156.67 396.38 195.078 383.318L261.01 360.978L196.167 321.896L187.096 324.695L188.392 292.455L121.786 289.915Z" stroke="black" stroke-width="2.59165" stroke-miterlimit="10" stroke-linecap="round"/>
<path d="M383.025 289.915L385.876 323.399C388.726 356.52 358.56 382.852 326.112 375.595L230.584 354.188C224.364 352.788 218.973 348.797 215.812 343.251L214.205 340.4C211.25 335.165 206.223 331.381 200.365 330.034L185.438 326.561C185.438 326.561 188.392 307.072 232.035 310.389C275.627 313.706 318.389 315.624 318.389 315.624L316.368 292.559L383.025 289.915Z" fill="white"/>
<path d="M383.025 289.915L385.876 323.399C388.726 356.52 358.56 382.852 326.112 375.595L230.584 354.188C224.364 352.788 218.973 348.797 215.812 343.251L214.205 340.4C211.25 335.165 206.223 331.381 200.365 330.034L185.438 326.561C185.438 326.561 188.392 307.072 232.035 310.389C275.627 313.706 318.389 315.624 318.389 315.624L316.368 292.559L383.025 289.915Z" stroke="black" stroke-width="2.59165" stroke-miterlimit="10" stroke-linecap="round"/>
<path d="M264.275 192.055H253.598C241.728 192.055 232.087 182.414 232.087 170.544V111.247H285.838V170.492C285.786 182.414 276.145 192.055 264.275 192.055Z" fill="white"/>
<path d="M264.275 192.055H253.598C241.728 192.055 232.087 182.414 232.087 170.544V111.247H285.838V170.492C285.786 182.414 276.145 192.055 264.275 192.055Z" stroke="black" stroke-width="2.59165" stroke-miterlimit="10" stroke-linecap="round"/>
<path d="M314.605 315.366L335.442 316.403" stroke="black" stroke-width="2.59165" stroke-miterlimit="10" stroke-linecap="round"/>
<path d="M185.437 326.51L171.339 330.812" stroke="black" stroke-width="2.59165" stroke-miterlimit="10" stroke-linecap="round"/>
<path d="M121.786 289.916L123.756 268.976" stroke="black" stroke-width="2.59165" stroke-miterlimit="10" stroke-linecap="round"/>
<path d="M188.443 292.455L190.258 254.669" stroke="black" stroke-width="2.59165" stroke-miterlimit="10" stroke-linecap="round"/>
<path d="M316.367 292.455L312.998 257.831" stroke="black" stroke-width="2.59165" stroke-miterlimit="10" stroke-linecap="round"/>
<path d="M383.025 289.915L381.47 273.588" stroke="black" stroke-width="2.59165" stroke-miterlimit="10" stroke-linecap="round"/>
<path d="M295.842 76.4663C295.842 76.4663 306.83 168.47 267.437 167.952C228.925 167.433 222.913 121.043 222.913 121.043C222.913 121.043 214.878 76.9846 226.696 61.1756C238.566 45.3147 287.185 32.1491 295.842 76.4663Z" fill="white"/>
<path d="M295.842 76.4663C295.842 76.4663 306.83 168.47 267.437 167.952C228.925 167.433 222.913 121.043 222.913 121.043C222.913 121.043 214.878 76.9846 226.696 61.1756C238.566 45.3147 287.185 32.1491 295.842 76.4663Z" stroke="black" stroke-width="2.59165" stroke-miterlimit="10" stroke-linecap="round"/>
<path d="M221.098 77.5046C221.098 77.5046 241.313 67.5008 237.529 52.4693C237.529 52.4693 231.983 47.5451 228.147 50.0331C224.312 52.5211 217.677 63.8207 217.522 72.3213C217.418 80.8737 221.098 77.5046 221.098 77.5046Z" fill="black"/>
<path d="M221.099 77.5051C221.099 77.5051 241.313 67.5013 237.53 52.4697" stroke="black" stroke-width="2.59165" stroke-miterlimit="10" stroke-linecap="round"/>
<path d="M237.53 52.4688C237.53 52.4688 259.351 80.2512 287.393 57.3411C287.393 57.3411 289.311 55.8379 290.088 49.3069C290.866 42.776 262.98 34.4309 250.073 39.0958C237.115 43.7608 237.53 52.4688 237.53 52.4688Z" fill="black"/>
<path d="M237.529 52.4697C237.529 52.4697 259.351 80.2522 287.393 57.342" stroke="black" stroke-width="2.59165" stroke-miterlimit="10" stroke-linecap="round"/>
<path d="M225.297 116.015C225.297 116.015 231.206 132.135 239.188 136.23C240.07 136.645 241.106 136.437 241.728 135.712C248.259 128.507 257.848 124.879 267.489 126.174C267.645 126.174 267.8 126.226 267.956 126.226C273.243 127.004 278.219 129.233 282.365 132.602L283.661 133.69C284.75 134.571 286.305 134.209 286.978 133.016C289.777 127.574 296.36 114.253 297.086 107.566C297.086 107.566 308.8 175.157 266.66 178.629C217.367 182.724 217.781 114.719 217.781 114.719L225.297 116.015Z" fill="black"/>
<path d="M225.297 116.015C225.297 116.015 231.206 132.135 239.188 136.23C240.07 136.645 241.106 136.437 241.728 135.712C248.259 128.507 257.848 124.879 267.489 126.174C267.645 126.174 267.8 126.226 267.956 126.226C273.243 127.004 278.219 129.233 282.365 132.602L283.661 133.69C284.75 134.571 286.305 134.209 286.978 133.016C289.777 127.574 296.36 114.253 297.086 107.566C297.086 107.566 308.8 175.157 266.66 178.629C217.367 182.724 217.781 114.719 217.781 114.719L225.297 116.015Z" stroke="black" stroke-width="2.59165" stroke-miterlimit="10" stroke-linecap="round"/>
<path d="M223.483 95.5943C223.483 95.5943 218.093 88.8042 213.272 89.9445C208.452 91.0848 207.311 113.477 214.983 117.468C222.654 121.459 225.142 117.675 225.142 117.675L223.483 95.5943Z" fill="white"/>
<path d="M223.483 95.5943C223.483 95.5943 218.093 88.8042 213.272 89.9445C208.452 91.0848 207.311 113.477 214.983 117.468C222.654 121.459 227.785 113.062 227.785 113.062" stroke="black" stroke-width="2.59165" stroke-miterlimit="10" stroke-linecap="round"/>
<path d="M294.649 92.587C294.649 92.587 299.262 85.2785 301.854 87.7665C305.534 91.2393 306.001 112.854 301.595 114.564C298.64 115.704 294.131 113.631 294.131 113.631L294.649 92.587Z" fill="white"/>
<path d="M294.649 92.587C294.649 92.587 299.263 85.2785 301.854 87.7665C305.534 91.2393 306.001 112.854 301.595 114.564C298.641 115.704 294.701 113.735 294.701 113.735" stroke="black" stroke-width="2.59165" stroke-miterlimit="10" stroke-linecap="round"/>
<path d="M253.131 140.17C253.131 140.17 261.994 149.034 275.056 139.911" stroke="white" stroke-width="2.59165" stroke-miterlimit="10" stroke-linecap="round"/>
<path d="M214.826 103.266C214.826 103.266 216.899 107.257 220.631 107.568" stroke="black" stroke-width="2.59165" stroke-miterlimit="10" stroke-linecap="round"/>
<path d="M300.507 100.725C300.507 100.725 299.055 103.264 297.241 103.005" stroke="black" stroke-width="2.59165" stroke-miterlimit="10" stroke-linecap="round"/>
<path d="M278.115 97.7716C278.115 100.052 276.871 101.866 275.316 101.866C273.761 101.866 272.517 100.052 272.517 97.7716C272.517 95.4909 273.761 93.6768 275.316 93.6768C276.871 93.6768 278.115 95.4909 278.115 97.7716Z" fill="black"/>
<path d="M260.906 103.678C262.668 107.099 264.431 110.572 265.208 114.407C265.519 115.911 265.778 117.569 265.519 119.072C265.312 120.161 264.845 121.457 263.757 121.871C263.083 122.131 262.668 122.753 262.876 123.478C263.031 124.1 263.809 124.619 264.482 124.359C268.37 122.856 268.525 118.399 267.955 114.874C267.23 110.468 265.156 106.373 263.187 102.382C262.409 100.879 260.18 102.175 260.906 103.678Z" fill="black"/>
<path d="M241.054 100.466C241.054 100.466 247.636 95.5939 253.545 100.466" stroke="black" stroke-width="2.59165" stroke-miterlimit="10" stroke-linecap="round"/>
<path d="M237.167 91.2399C237.167 91.2399 247.845 83.3613 257.434 91.2399" stroke="black" stroke-width="2.59165" stroke-miterlimit="10" stroke-linecap="round"/>
<path d="M264.12 91.2399C264.12 91.2399 274.798 83.3613 284.387 91.2399" stroke="black" stroke-width="2.59165" stroke-miterlimit="10" stroke-linecap="round"/>
<path d="M201.49 243.988C201.49 242.958 201.713 242.042 202.158 241.241C202.604 240.429 203.222 239.8 204.014 239.355C204.816 238.899 205.722 238.672 206.732 238.672C207.969 238.672 209.029 238.998 209.91 239.652C210.791 240.305 211.38 241.196 211.677 242.325H208.885C208.677 241.889 208.38 241.557 207.994 241.33C207.618 241.102 207.187 240.988 206.702 240.988C205.92 240.988 205.287 241.26 204.802 241.805C204.316 242.349 204.074 243.077 204.074 243.988C204.074 244.899 204.316 245.626 204.802 246.171C205.287 246.715 205.92 246.987 206.702 246.987C207.187 246.987 207.618 246.874 207.994 246.646C208.38 246.418 208.677 246.087 208.885 245.651H211.677C211.38 246.78 210.791 247.67 209.91 248.324C209.029 248.967 207.969 249.289 206.732 249.289C205.722 249.289 204.816 249.066 204.014 248.621C203.222 248.165 202.604 247.537 202.158 246.735C201.713 245.933 201.49 245.017 201.49 243.988ZM216.217 247.255H219.543V249.215H213.677V238.79H216.217V247.255ZM226.13 249.319C225.15 249.319 224.249 249.091 223.427 248.636C222.615 248.18 221.967 247.547 221.482 246.735C221.007 245.913 220.769 244.993 220.769 243.973C220.769 242.953 221.007 242.038 221.482 241.226C221.967 240.414 222.615 239.78 223.427 239.325C224.249 238.87 225.15 238.642 226.13 238.642C227.11 238.642 228.006 238.87 228.818 239.325C229.639 239.78 230.283 240.414 230.748 241.226C231.223 242.038 231.461 242.953 231.461 243.973C231.461 244.993 231.223 245.913 230.748 246.735C230.273 247.547 229.629 248.18 228.818 248.636C228.006 249.091 227.11 249.319 226.13 249.319ZM226.13 247.002C226.961 247.002 227.625 246.725 228.12 246.171C228.625 245.616 228.877 244.884 228.877 243.973C228.877 243.052 228.625 242.32 228.12 241.775C227.625 241.221 226.961 240.944 226.13 240.944C225.288 240.944 224.615 241.216 224.11 241.76C223.615 242.305 223.368 243.042 223.368 243.973C223.368 244.894 223.615 245.631 224.11 246.186C224.615 246.73 225.288 247.002 226.13 247.002ZM235.814 238.79V245.027C235.814 245.651 235.967 246.131 236.274 246.468C236.581 246.804 237.031 246.973 237.625 246.973C238.219 246.973 238.675 246.804 238.992 246.468C239.308 246.131 239.467 245.651 239.467 245.027V238.79H242.006V245.012C242.006 245.943 241.808 246.73 241.412 247.373C241.016 248.017 240.481 248.502 239.808 248.829C239.145 249.155 238.403 249.319 237.581 249.319C236.759 249.319 236.022 249.16 235.368 248.844C234.725 248.517 234.215 248.032 233.839 247.388C233.463 246.735 233.274 245.943 233.274 245.012V238.79H235.814ZM248.14 238.79C249.239 238.79 250.199 239.008 251.021 239.444C251.843 239.879 252.476 240.493 252.922 241.285C253.377 242.067 253.605 242.973 253.605 244.003C253.605 245.022 253.377 245.928 252.922 246.72C252.476 247.512 251.838 248.126 251.006 248.561C250.184 248.997 249.229 249.215 248.14 249.215H244.235V238.79H248.14ZM247.977 247.017C248.937 247.017 249.684 246.755 250.219 246.23C250.754 245.705 251.021 244.963 251.021 244.003C251.021 243.042 250.754 242.295 250.219 241.76C249.684 241.226 248.937 240.958 247.977 240.958H246.774V247.017H247.977ZM262.879 241.968C262.879 242.493 262.756 242.988 262.508 243.453C262.261 243.918 261.865 244.3 261.32 244.597C260.776 244.884 260.078 245.027 259.226 245.027H257.355V249.215H255.662V238.894H259.226C260.018 238.894 260.686 239.033 261.231 239.31C261.785 239.577 262.196 239.944 262.464 240.409C262.741 240.874 262.879 241.394 262.879 241.968ZM259.226 243.646C259.87 243.646 260.35 243.503 260.667 243.216C260.983 242.919 261.142 242.503 261.142 241.968C261.142 240.84 260.503 240.275 259.226 240.275H257.355V243.646H259.226ZM270.3 249.215L267.924 245.087H266.632V249.215H264.939V238.894H268.503C269.295 238.894 269.963 239.033 270.508 239.31C271.062 239.587 271.473 239.959 271.74 240.424C272.018 240.889 272.156 241.409 272.156 241.983C272.156 242.656 271.958 243.27 271.562 243.824C271.176 244.369 270.577 244.74 269.765 244.938L272.32 249.215H270.3ZM266.632 243.735H268.503C269.137 243.735 269.612 243.577 269.929 243.26C270.256 242.943 270.419 242.518 270.419 241.983C270.419 241.448 270.26 241.033 269.944 240.736C269.627 240.429 269.147 240.275 268.503 240.275H266.632V243.735ZM279.475 249.319C278.514 249.319 277.628 249.096 276.817 248.651C276.015 248.195 275.376 247.567 274.901 246.765C274.436 245.953 274.203 245.042 274.203 244.032C274.203 243.023 274.436 242.117 274.901 241.315C275.376 240.513 276.015 239.889 276.817 239.444C277.628 238.988 278.514 238.761 279.475 238.761C280.445 238.761 281.331 238.988 282.133 239.444C282.945 239.889 283.583 240.513 284.048 241.315C284.514 242.117 284.746 243.023 284.746 244.032C284.746 245.042 284.514 245.953 284.048 246.765C283.583 247.567 282.945 248.195 282.133 248.651C281.331 249.096 280.445 249.319 279.475 249.319ZM279.475 247.849C280.158 247.849 280.767 247.695 281.301 247.388C281.836 247.072 282.252 246.626 282.549 246.052C282.855 245.468 283.009 244.795 283.009 244.032C283.009 243.27 282.855 242.602 282.549 242.028C282.252 241.453 281.836 241.013 281.301 240.706C280.767 240.399 280.158 240.246 279.475 240.246C278.792 240.246 278.183 240.399 277.648 240.706C277.114 241.013 276.693 241.453 276.386 242.028C276.089 242.602 275.94 243.27 275.94 244.032C275.94 244.795 276.089 245.468 276.386 246.052C276.693 246.626 277.114 247.072 277.648 247.388C278.183 247.695 278.792 247.849 279.475 247.849ZM287.541 249.319C287.234 249.319 286.976 249.215 286.769 249.007C286.561 248.799 286.457 248.542 286.457 248.235C286.457 247.928 286.561 247.67 286.769 247.463C286.976 247.255 287.234 247.151 287.541 247.151C287.838 247.151 288.09 247.255 288.298 247.463C288.506 247.67 288.61 247.928 288.61 248.235C288.61 248.542 288.506 248.799 288.298 249.007C288.09 249.215 287.838 249.319 287.541 249.319ZM297.107 247.106H292.786L292.043 249.215H290.276L293.974 238.879H295.934L299.631 249.215H297.85L297.107 247.106ZM296.632 245.725L294.954 240.929L293.261 245.725H296.632ZM303.378 238.894V249.215H301.685V238.894H303.378Z" fill="white"/>
</svg>
