<svg width="100" height="100" viewBox="0 0 100 100" fill="none" xmlns="http://www.w3.org/2000/svg">
<path d="M4.80518 35.1611L4.82061 35.2291C8.03799 49.4891 22.2062 58.4406 36.4661 55.2232L24.7993 3.51562C10.5396 6.73301 1.5878 20.9012 4.80518 35.1611Z" stroke="#5677E1" stroke-width="2" stroke-miterlimit="10"/>
<path d="M64.5999 34.7656V55.4688M64.5999 34.7656H54.7989C49.1015 34.7656 44.4827 30.1469 44.4827 24.4494V20.5078H54.2837C59.9812 20.5078 64.5999 25.1266 64.5999 30.824M64.5999 34.7656V30.824M64.5999 34.7656H74.4009C80.0983 34.7656 84.7171 30.1469 84.7171 24.4494V20.5078H74.9161C69.2187 20.5078 64.5999 25.1266 64.5999 30.824M50.6036 2.92969H56.463M81.7874 8.78906H87.6468M91.9437 41.4062H97.803M89.4731 55.2227H36.4653C36.4653 58.6367 37.1938 61.9688 38.5591 65.0176C39.9388 68.0989 41.9542 70.8537 44.4731 73.1016V97.0703H71.8032V88.0078H81.1645C84.8286 88.0078 87.7974 85.0371 87.7974 81.375V71.3145H94.1032C94.5665 71.3145 95.0108 71.1304 95.3384 70.8028C95.6661 70.4752 95.8501 70.0309 95.8501 69.5676C95.8501 69.3172 95.7962 69.0698 95.6923 68.842L89.4731 55.2227Z" stroke="#5677E1" stroke-width="2" stroke-miterlimit="10"/>
</svg>
