<svg width="100" height="100" viewBox="0 0 100 100" fill="none" xmlns="http://www.w3.org/2000/svg">
<g clip-path="url(#clip0_1602_918)">
<mask id="mask0_1602_918" style="mask-type:luminance" maskUnits="userSpaceOnUse" x="0" y="0" width="100" height="100">
<path d="M0 0.000289917H99.9997V100H0V0.000289917Z" fill="white"/>
</mask>
<g mask="url(#mask0_1602_918)">
<path d="M49.9999 67.5782C40.3068 67.5782 32.4219 59.6933 32.4219 50.0002C32.4219 40.307 40.3068 32.4221 49.9999 32.4221C59.6931 32.4221 67.578 40.307 67.578 50.0002C67.578 59.6933 59.6931 67.5782 49.9999 67.5782Z" stroke="#5677E1" stroke-width="2" stroke-miterlimit="10" stroke-linecap="round" stroke-linejoin="round"/>
<path d="M16.7969 91.432V83.1457C25.2847 91.6336 37.0767 97.0703 49.9999 97.0703C75.8463 97.0703 97.0701 75.8465 97.0701 50.0001C97.0701 44.2113 95.8199 38.664 93.8922 33.5406" stroke="#5677E1" stroke-width="2" stroke-miterlimit="10" stroke-linecap="round" stroke-linejoin="round"/>
<path d="M84.9799 44.1407C77.2902 44.1407 73.568 34.7183 78.8775 29.4088L79.0025 29.2841L70.7158 20.9977L70.591 21.1221C65.1536 26.5603 55.8593 22.5281 55.8593 15.0203V14.844H44.1405V15.0203C44.1405 22.7099 34.7177 26.4318 29.4089 21.1221L29.2841 20.9977L20.9974 29.2841L21.1224 29.4088C26.5718 34.8582 22.5142 44.1407 15.0201 44.1407H14.8438V55.8595H15.0201C22.7125 55.8595 26.4304 65.2831 21.1224 70.5913L20.9974 70.7161L29.2841 79.0026L29.4089 78.8778C34.8462 73.4395 44.1405 77.4715 44.1405 84.9799V85.1562H55.8593V84.9799C55.8593 77.2899 65.2821 73.568 70.591 78.8778L70.7158 79.0026L79.0025 70.7161L78.8775 70.5913C76.4268 68.1403 75.7012 64.4463 77.043 61.2507C78.4152 57.9401 81.5295 55.8595 84.9799 55.8595H85.156V44.1407H84.9799Z" stroke="#5677E1" stroke-width="2" stroke-miterlimit="10" stroke-linecap="round" stroke-linejoin="round"/>
<path d="M6.10761 66.4596C4.18007 61.3362 2.92969 55.7889 2.92969 50.0001C2.92969 24.1537 24.1537 2.9299 49.9999 2.9299C62.9231 2.9299 74.6992 8.38223 83.1873 16.8701L83.2029 8.56797" stroke="#5677E1" stroke-width="2" stroke-miterlimit="10" stroke-linecap="round" stroke-linejoin="round"/>
</g>
</g>
<defs>
<clipPath id="clip0_1602_918">
<rect width="100" height="100" fill="white"/>
</clipPath>
</defs>
</svg>
