<svg width="391" height="288" viewBox="0 0 391 288" fill="none" xmlns="http://www.w3.org/2000/svg">
<rect x="146.5" y="82.5" width="112" height="112" rx="8.5" stroke="white"/>
<circle cx="155" cy="92" r="2" fill="white" fill-opacity="0.26"/>
<circle cx="155" cy="100" r="2" fill="white" fill-opacity="0.26"/>
<circle cx="155" cy="108" r="2" fill="white" fill-opacity="0.26"/>
<circle cx="155" cy="116" r="2" fill="white" fill-opacity="0.26"/>
<circle cx="155" cy="124" r="2" fill="white" fill-opacity="0.26"/>
<circle cx="155" cy="132" r="2" fill="white" fill-opacity="0.26"/>
<circle cx="155" cy="140" r="2" fill="white" fill-opacity="0.26"/>
<circle cx="155" cy="148" r="2" fill="white" fill-opacity="0.26"/>
<circle cx="155" cy="156" r="2" fill="white" fill-opacity="0.26"/>
<circle cx="155" cy="164" r="2" fill="white" fill-opacity="0.26"/>
<circle cx="155" cy="172" r="2" fill="white" fill-opacity="0.26"/>
<circle cx="155" cy="180" r="2" fill="white" fill-opacity="0.26"/>
<circle cx="155" cy="188" r="2" fill="white" fill-opacity="0.26"/>
<circle cx="167" cy="92" r="2" fill="white" fill-opacity="0.26"/>
<circle cx="167" cy="100" r="2" fill="white" fill-opacity="0.26"/>
<circle cx="167" cy="108" r="2" fill="white" fill-opacity="0.26"/>
<circle cx="167" cy="116" r="2" fill="white" fill-opacity="0.26"/>
<circle cx="167" cy="124" r="2" fill="white" fill-opacity="0.26"/>
<circle cx="167" cy="132" r="2" fill="white" fill-opacity="0.26"/>
<circle cx="167" cy="140" r="2" fill="white" fill-opacity="0.26"/>
<circle cx="167" cy="148" r="2" fill="white" fill-opacity="0.26"/>
<circle cx="167" cy="156" r="2" fill="white" fill-opacity="0.26"/>
<circle cx="167" cy="164" r="2" fill="white" fill-opacity="0.26"/>
<circle cx="167" cy="172" r="2" fill="white" fill-opacity="0.26"/>
<circle cx="167" cy="180" r="2" fill="white" fill-opacity="0.26"/>
<circle cx="167" cy="188" r="2" fill="white" fill-opacity="0.26"/>
<circle cx="179" cy="92" r="2" fill="white" fill-opacity="0.26"/>
<circle cx="179" cy="100" r="2" fill="white" fill-opacity="0.26"/>
<circle cx="179" cy="108" r="2" fill="white" fill-opacity="0.26"/>
<circle cx="179" cy="116" r="2" fill="white" fill-opacity="0.26"/>
<circle cx="179" cy="124" r="2" fill="white" fill-opacity="0.26"/>
<circle cx="179" cy="132" r="2" fill="white" fill-opacity="0.26"/>
<circle cx="179" cy="140" r="2" fill="white" fill-opacity="0.26"/>
<circle cx="179" cy="148" r="2" fill="white" fill-opacity="0.26"/>
<circle cx="179" cy="156" r="2" fill="white" fill-opacity="0.26"/>
<circle cx="179" cy="164" r="2" fill="white" fill-opacity="0.26"/>
<circle cx="179" cy="172" r="2" fill="white" fill-opacity="0.26"/>
<circle cx="179" cy="180" r="2" fill="white" fill-opacity="0.26"/>
<circle cx="179" cy="188" r="2" fill="white" fill-opacity="0.26"/>
<circle cx="191" cy="92" r="2" fill="white" fill-opacity="0.26"/>
<circle cx="191" cy="100" r="2" fill="white" fill-opacity="0.26"/>
<circle cx="191" cy="108" r="2" fill="white" fill-opacity="0.26"/>
<circle cx="191" cy="116" r="2" fill="white" fill-opacity="0.26"/>
<circle cx="191" cy="124" r="2" fill="white" fill-opacity="0.26"/>
<circle cx="191" cy="132" r="2" fill="white" fill-opacity="0.26"/>
<circle cx="191" cy="140" r="2" fill="white" fill-opacity="0.26"/>
<circle cx="191" cy="148" r="2" fill="white" fill-opacity="0.26"/>
<circle cx="191" cy="156" r="2" fill="white" fill-opacity="0.26"/>
<circle cx="191" cy="164" r="2" fill="white" fill-opacity="0.26"/>
<circle cx="191" cy="172" r="2" fill="white" fill-opacity="0.26"/>
<circle cx="191" cy="180" r="2" fill="white" fill-opacity="0.26"/>
<circle cx="191" cy="188" r="2" fill="white" fill-opacity="0.26"/>
<circle cx="203" cy="92" r="2" fill="white" fill-opacity="0.26"/>
<circle cx="203" cy="100" r="2" fill="white" fill-opacity="0.26"/>
<circle cx="203" cy="108" r="2" fill="white" fill-opacity="0.26"/>
<circle cx="203" cy="116" r="2" fill="white" fill-opacity="0.26"/>
<circle cx="203" cy="124" r="2" fill="white" fill-opacity="0.26"/>
<circle cx="203" cy="132" r="2" fill="white" fill-opacity="0.26"/>
<circle cx="203" cy="140" r="2" fill="white" fill-opacity="0.26"/>
<circle cx="203" cy="148" r="2" fill="white" fill-opacity="0.26"/>
<circle cx="203" cy="156" r="2" fill="white" fill-opacity="0.26"/>
<circle cx="203" cy="164" r="2" fill="white" fill-opacity="0.26"/>
<circle cx="203" cy="172" r="2" fill="white" fill-opacity="0.26"/>
<circle cx="203" cy="180" r="2" fill="white" fill-opacity="0.26"/>
<circle cx="203" cy="188" r="2" fill="white" fill-opacity="0.26"/>
<circle cx="215" cy="92" r="2" fill="white" fill-opacity="0.26"/>
<circle cx="215" cy="100" r="2" fill="white" fill-opacity="0.26"/>
<circle cx="215" cy="108" r="2" fill="white" fill-opacity="0.26"/>
<circle cx="215" cy="116" r="2" fill="white" fill-opacity="0.26"/>
<circle cx="215" cy="124" r="2" fill="white" fill-opacity="0.26"/>
<circle cx="215" cy="132" r="2" fill="white" fill-opacity="0.26"/>
<circle cx="215" cy="140" r="2" fill="white" fill-opacity="0.26"/>
<circle cx="215" cy="148" r="2" fill="white" fill-opacity="0.26"/>
<circle cx="215" cy="156" r="2" fill="white" fill-opacity="0.26"/>
<circle cx="215" cy="164" r="2" fill="white" fill-opacity="0.26"/>
<circle cx="215" cy="172" r="2" fill="white" fill-opacity="0.26"/>
<circle cx="215" cy="180" r="2" fill="white" fill-opacity="0.26"/>
<circle cx="215" cy="188" r="2" fill="white" fill-opacity="0.26"/>
<circle cx="227" cy="92" r="2" fill="white" fill-opacity="0.26"/>
<circle cx="227" cy="100" r="2" fill="white" fill-opacity="0.26"/>
<circle cx="227" cy="108" r="2" fill="white" fill-opacity="0.26"/>
<circle cx="227" cy="116" r="2" fill="white" fill-opacity="0.26"/>
<circle cx="227" cy="124" r="2" fill="white" fill-opacity="0.26"/>
<circle cx="227" cy="132" r="2" fill="white" fill-opacity="0.26"/>
<circle cx="227" cy="140" r="2" fill="white" fill-opacity="0.26"/>
<circle cx="227" cy="148" r="2" fill="white" fill-opacity="0.26"/>
<circle cx="227" cy="156" r="2" fill="white" fill-opacity="0.26"/>
<circle cx="227" cy="164" r="2" fill="white" fill-opacity="0.26"/>
<circle cx="227" cy="172" r="2" fill="white" fill-opacity="0.26"/>
<circle cx="227" cy="180" r="2" fill="white" fill-opacity="0.26"/>
<circle cx="227" cy="188" r="2" fill="white" fill-opacity="0.26"/>
<circle cx="239" cy="92" r="2" fill="white" fill-opacity="0.26"/>
<circle cx="239" cy="100" r="2" fill="white" fill-opacity="0.26"/>
<circle cx="239" cy="108" r="2" fill="white" fill-opacity="0.26"/>
<circle cx="239" cy="116" r="2" fill="white" fill-opacity="0.26"/>
<circle cx="239" cy="124" r="2" fill="white" fill-opacity="0.26"/>
<circle cx="239" cy="132" r="2" fill="white" fill-opacity="0.26"/>
<circle cx="239" cy="140" r="2" fill="white" fill-opacity="0.26"/>
<circle cx="239" cy="148" r="2" fill="white" fill-opacity="0.26"/>
<circle cx="239" cy="156" r="2" fill="white" fill-opacity="0.26"/>
<circle cx="239" cy="164" r="2" fill="white" fill-opacity="0.26"/>
<circle cx="239" cy="172" r="2" fill="white" fill-opacity="0.26"/>
<circle cx="239" cy="180" r="2" fill="white" fill-opacity="0.26"/>
<circle cx="239" cy="188" r="2" fill="white" fill-opacity="0.26"/>
<circle cx="251" cy="92" r="2" fill="white" fill-opacity="0.26"/>
<circle cx="251" cy="100" r="2" fill="white" fill-opacity="0.26"/>
<circle cx="251" cy="108" r="2" fill="white" fill-opacity="0.26"/>
<circle cx="251" cy="116" r="2" fill="white" fill-opacity="0.26"/>
<circle cx="251" cy="124" r="2" fill="white" fill-opacity="0.26"/>
<circle cx="251" cy="132" r="2" fill="white" fill-opacity="0.26"/>
<circle cx="251" cy="140" r="2" fill="white" fill-opacity="0.26"/>
<circle cx="251" cy="148" r="2" fill="white" fill-opacity="0.26"/>
<circle cx="251" cy="156" r="2" fill="white" fill-opacity="0.26"/>
<circle cx="251" cy="164" r="2" fill="white" fill-opacity="0.26"/>
<circle cx="251" cy="172" r="2" fill="white" fill-opacity="0.26"/>
<circle cx="251" cy="180" r="2" fill="white" fill-opacity="0.26"/>
<circle cx="251" cy="188" r="2" fill="white" fill-opacity="0.26"/>
<g filter="url(#filter0_d_67_2)">
<rect x="165" y="102" width="76" height="76" rx="7.33333" fill="#0C1224"/>
</g>
<path d="M189.228 141.792H187.412C186.707 141.792 186.136 141.221 186.136 140.516C186.136 140.007 186.435 139.567 186.867 139.363C186.875 138.494 187.582 137.793 188.452 137.793C188.685 137.793 188.907 137.843 189.106 137.934C189.482 137.577 189.99 137.359 190.549 137.359C191.707 137.359 192.645 138.297 192.645 139.455C192.645 139.549 192.639 139.642 192.627 139.734C193.029 139.886 193.316 140.274 193.316 140.73C193.316 141.316 192.84 141.792 192.253 141.792H191.34V143.169" stroke="white" stroke-width="1.00376" stroke-miterlimit="10"/>
<path d="M196.965 142.369C196.543 142.369 196.166 142.28 195.835 142.103C195.503 141.925 195.242 141.683 195.05 141.375C194.862 141.063 194.769 140.71 194.769 140.317V136.917H195.885V140.245C195.885 140.456 195.931 140.648 196.022 140.821C196.118 140.989 196.248 141.121 196.411 141.217C196.574 141.313 196.759 141.361 196.965 141.361C197.177 141.361 197.361 141.313 197.52 141.217C197.683 141.121 197.81 140.989 197.902 140.821C197.998 140.648 198.046 140.456 198.046 140.245V136.917H199.162V140.317C199.162 140.71 199.066 141.063 198.874 141.375C198.687 141.683 198.427 141.925 198.096 142.103C197.765 142.28 197.388 142.369 196.965 142.369ZM200.045 142.283V136.917H201.795C202.376 136.917 202.88 137.033 203.308 137.263C203.735 137.493 204.066 137.81 204.301 138.214C204.537 138.617 204.654 139.078 204.654 139.596C204.654 140.115 204.537 140.578 204.301 140.986C204.066 141.39 203.735 141.707 203.308 141.937C202.88 142.167 202.376 142.283 201.795 142.283H200.045ZM201.161 141.31H201.824C202.174 141.31 202.477 141.241 202.731 141.102C202.986 140.958 203.183 140.758 203.322 140.504C203.466 140.245 203.538 139.942 203.538 139.596C203.538 139.246 203.466 138.943 203.322 138.689C203.183 138.434 202.986 138.238 202.731 138.098C202.477 137.959 202.174 137.89 201.824 137.89H201.161V141.31ZM205.369 142.283V136.917H207.429C207.799 136.917 208.125 136.982 208.408 137.112C208.696 137.241 208.922 137.433 209.085 137.688C209.249 137.942 209.33 138.257 209.33 138.631C209.33 138.996 209.246 139.306 209.078 139.56C208.915 139.815 208.689 140.009 208.401 140.144C208.118 140.273 207.794 140.338 207.429 140.338H206.485V142.283H205.369ZM206.485 139.366H207.436C207.595 139.366 207.731 139.335 207.847 139.272C207.962 139.21 208.051 139.123 208.113 139.013C208.18 138.903 208.214 138.775 208.214 138.631C208.214 138.482 208.18 138.353 208.113 138.242C208.051 138.132 207.962 138.046 207.847 137.983C207.731 137.921 207.595 137.89 207.436 137.89H206.485V139.366ZM210.046 142.283V136.917H212.099C212.468 136.917 212.795 136.982 213.078 137.112C213.366 137.241 213.592 137.433 213.755 137.688C213.918 137.942 214 138.257 214 138.631C214 138.996 213.916 139.308 213.748 139.568C213.58 139.822 213.354 140.014 213.071 140.144L214.295 142.283H213.042L211.717 139.913L212.437 140.338H211.162V142.283H210.046ZM211.162 139.366H212.106C212.264 139.366 212.401 139.335 212.516 139.272C212.632 139.21 212.72 139.123 212.783 139.013C212.85 138.903 212.884 138.775 212.884 138.631C212.884 138.482 212.85 138.353 212.783 138.242C212.72 138.132 212.632 138.046 212.516 137.983C212.401 137.921 212.264 137.89 212.106 137.89H211.162V139.366ZM217.536 142.369C217.133 142.369 216.758 142.299 216.413 142.16C216.067 142.021 215.764 141.827 215.505 141.577C215.251 141.322 215.051 141.027 214.907 140.691C214.763 140.355 214.691 139.99 214.691 139.596C214.691 139.203 214.761 138.838 214.9 138.502C215.044 138.166 215.243 137.873 215.498 137.623C215.757 137.373 216.06 137.179 216.405 137.04C216.751 136.9 217.128 136.831 217.536 136.831C217.944 136.831 218.321 136.9 218.667 137.04C219.012 137.179 219.313 137.373 219.567 137.623C219.826 137.873 220.025 138.166 220.165 138.502C220.309 138.838 220.381 139.203 220.381 139.596C220.381 139.99 220.309 140.355 220.165 140.691C220.021 141.027 219.819 141.322 219.56 141.577C219.305 141.827 219.005 142.021 218.66 142.16C218.314 142.299 217.939 142.369 217.536 142.369ZM217.536 141.361C217.781 141.361 218.006 141.318 218.213 141.231C218.424 141.145 218.609 141.025 218.768 140.871C218.926 140.713 219.049 140.525 219.135 140.309C219.221 140.093 219.264 139.856 219.264 139.596C219.264 139.337 219.221 139.102 219.135 138.891C219.049 138.675 218.926 138.487 218.768 138.329C218.609 138.17 218.424 138.05 218.213 137.969C218.006 137.882 217.781 137.839 217.536 137.839C217.291 137.839 217.063 137.882 216.852 137.969C216.645 138.05 216.463 138.17 216.305 138.329C216.146 138.487 216.024 138.675 215.937 138.891C215.851 139.102 215.808 139.337 215.808 139.596C215.808 139.856 215.851 140.093 215.937 140.309C216.024 140.525 216.146 140.713 216.305 140.871C216.463 141.025 216.645 141.145 216.852 141.231C217.063 141.318 217.291 141.361 217.536 141.361ZM221.626 142.283V141.202H222.706V142.283H221.626ZM223.716 142.283L225.531 136.917H227.015L228.83 142.283H227.613L227.252 141.188H225.286L224.926 142.283H223.716ZM225.596 140.216H226.943L226.121 137.681H226.424L225.596 140.216ZM229.387 142.283V136.917H230.503V142.283H229.387Z" fill="white"/>
<path d="M178.204 142.369C177.82 142.369 177.463 142.3 177.131 142.161C176.805 142.021 176.519 141.827 176.274 141.577C176.03 141.328 175.837 141.035 175.698 140.699C175.564 140.362 175.497 139.995 175.497 139.597C175.497 139.198 175.564 138.831 175.698 138.495C175.833 138.154 176.022 137.861 176.267 137.616C176.512 137.367 176.798 137.174 177.124 137.04C177.455 136.901 177.816 136.831 178.204 136.831C178.593 136.831 178.941 136.896 179.249 137.026C179.561 137.155 179.825 137.328 180.041 137.544C180.257 137.76 180.411 138 180.502 138.264L179.515 138.74C179.424 138.48 179.263 138.267 179.033 138.099C178.807 137.926 178.531 137.839 178.204 137.839C177.888 137.839 177.609 137.914 177.369 138.063C177.129 138.212 176.942 138.418 176.807 138.682C176.678 138.941 176.613 139.246 176.613 139.597C176.613 139.947 176.678 140.254 176.807 140.519C176.942 140.783 177.129 140.989 177.369 141.138C177.609 141.287 177.888 141.361 178.204 141.361C178.531 141.361 178.807 141.277 179.033 141.109C179.263 140.936 179.424 140.72 179.515 140.461L180.502 140.936C180.411 141.2 180.257 141.44 180.041 141.656C179.825 141.872 179.561 142.045 179.249 142.175C178.941 142.305 178.593 142.369 178.204 142.369ZM181.218 142.283V136.918H182.334V141.311H184.603V142.283H181.218Z" fill="white"/>
<path d="M145.5 139.5H107.5C103.634 139.5 100.5 142.634 100.5 146.5V251C100.5 254.866 97.366 258 93.5 258H28.5" stroke="white" stroke-opacity="0.3"/>
<path d="M259 139H303.5C307.366 139 310.5 142.134 310.5 146V193C310.5 196.866 313.634 200 317.5 200H376" stroke="white" stroke-opacity="0.3"/>
<path d="M29 52H73.5C77.366 52 80.5 55.134 80.5 59V106C80.5 109.866 83.634 113 87.5 113H146" stroke="white" stroke-opacity="0.3"/>
<path d="M259 120H291.5C295.366 120 298.5 116.866 298.5 113V35C298.5 31.134 301.634 28 305.5 28H358" stroke="white" stroke-opacity="0.3"/>
<circle cx="357.5" cy="28.5" r="28.5" fill="white"/>
<circle cx="28.5" cy="259.5" r="28.5" fill="white"/>
<circle cx="28.5" cy="52.5" r="28.5" fill="white"/>
<g clip-path="url(#clip0_67_2)">
<mask id="mask0_67_2" style="mask-type:luminance" maskUnits="userSpaceOnUse" x="13" y="243" width="32" height="32">
<path d="M43.9999 274V244H14V274H43.9999Z" fill="white" stroke="white" stroke-width="2"/>
</mask>
<g mask="url(#mask0_67_2)">
<path d="M20.561 243.938H15.8735V248.625" stroke="#4762BB" stroke-width="2" stroke-miterlimit="10"/>
<path d="M15.8738 269.375V274.062H20.5613" stroke="#4762BB" stroke-width="2" stroke-miterlimit="10"/>
</g>
<path d="M30.8738 247.75V253.375H36.4988" stroke="#4762BB" stroke-width="2" stroke-miterlimit="10"/>
<mask id="mask1_67_2" style="mask-type:luminance" maskUnits="userSpaceOnUse" x="13" y="243" width="32" height="32">
<path d="M43.9999 274V244H14V274H43.9999Z" fill="white" stroke="white" stroke-width="2"/>
</mask>
<g mask="url(#mask1_67_2)">
<path d="M37.436 243.938H42.1235V248.625" stroke="#4762BB" stroke-width="2" stroke-miterlimit="10"/>
<path d="M42.1238 269.375V274.062H37.4363" stroke="#4762BB" stroke-width="2" stroke-miterlimit="10"/>
</g>
<path d="M36.4995 253.375V270.25H21.4995V247.75H30.8745L36.4995 253.375Z" stroke="#4762BB" stroke-width="2" stroke-miterlimit="10"/>
<path d="M24.3113 255.25H28.0613" stroke="#4762BB" stroke-width="2" stroke-miterlimit="10"/>
<path d="M24.3113 259H33.6863" stroke="#4762BB" stroke-width="2" stroke-miterlimit="10"/>
<mask id="mask2_67_2" style="mask-type:luminance" maskUnits="userSpaceOnUse" x="13" y="243" width="32" height="32">
<path d="M43.9999 274V244H14V274H43.9999Z" fill="white" stroke="white" stroke-width="2"/>
</mask>
<g mask="url(#mask2_67_2)">
<path d="M14.9363 262.75H43.0612" stroke="#4762BB" stroke-width="2" stroke-miterlimit="10"/>
</g>
<path d="M24.3113 266.5H33.6863" stroke="#4762BB" stroke-width="2" stroke-miterlimit="10"/>
</g>
<g clip-path="url(#clip1_67_2)">
<mask id="mask3_67_2" style="mask-type:luminance" maskUnits="userSpaceOnUse" x="13" y="36" width="32" height="32">
<path d="M13 36.0001H44.9999V68H13V36.0001Z" fill="white"/>
</mask>
<g mask="url(#mask3_67_2)">
<path d="M42.4154 54.2099C43.4768 55.2707 44.0624 56.6836 44.0624 58.1869C44.0624 59.6902 43.4768 61.1032 42.4136 62.1652" stroke="#4762BB" stroke-width="2" stroke-miterlimit="10" stroke-linecap="round" stroke-linejoin="round"/>
<path d="M39.7634 56.8611C40.4957 57.5933 40.4957 58.7804 39.7634 59.5127" stroke="#4762BB" stroke-width="2" stroke-miterlimit="10" stroke-linecap="round" stroke-linejoin="round"/>
<path d="M35.1874 49.4376V48.1876C35.1874 42.3195 30.4305 37.5626 24.5625 37.5626C18.6944 37.5626 13.9375 42.3195 13.9375 48.1876V49.6861C13.9375 51.3491 14.3345 52.988 15.0954 54.4667C15.8564 55.9453 16.9593 57.2209 18.3125 58.1875V66.4375H29.5625V62.5625H33.3124C34.3479 62.5625 35.1874 61.723 35.1874 60.6875V59.4375L32.6874 57.875L35.1874 56.3125V53.8125L37.6874 53.1875L35.1874 49.4376Z" stroke="#4762BB" stroke-width="2" stroke-miterlimit="10" stroke-linecap="round" stroke-linejoin="round"/>
<path d="M23.4372 54.2598C22.7283 55.308 21.4753 55.4378 20.3677 54.4643C19.0455 53.3025 18.431 51.009 18.995 49.3418C19.4676 47.9448 20.6175 47.4307 21.7557 47.9842" stroke="#4762BB" stroke-width="2" stroke-miterlimit="10" stroke-linecap="round" stroke-linejoin="round"/>
</g>
</g>
<path d="M367.933 23.8224V36.1276C367.933 37.0271 367.204 37.7562 366.305 37.7562H361.406L358 41.7875L354.594 37.7563H349.695C348.796 37.7563 348.067 37.0271 348.067 36.1277V23.8224C348.067 22.9229 348.796 22.1938 349.695 22.1938H366.304C367.204 22.1938 367.933 22.923 367.933 23.8224ZM371.683 33.3451H367.933V25.7534H371.683C372.445 25.7534 373.062 26.371 373.062 27.1328V31.9657C373.062 32.7275 372.445 33.3451 371.683 33.3451ZM344.317 33.3451H348.067V25.7534H344.317C343.555 25.7534 342.938 26.371 342.938 27.1328V31.9657C342.938 32.7275 343.555 33.3451 344.317 33.3451Z" stroke="#4762BB" stroke-width="1.875" stroke-miterlimit="10" stroke-linecap="round" stroke-linejoin="round"/>
<path d="M344.317 25.7534C344.317 19.3795 349.484 14.2125 355.858 14.2125H360.142C366.516 14.2125 371.683 19.3795 371.683 25.7534M362.051 31.5625C359.527 33.8006 356.472 33.8006 353.949 31.5625" stroke="#4762BB" stroke-width="1.875" stroke-miterlimit="10" stroke-linecap="round" stroke-linejoin="round"/>
<circle cx="362.5" cy="191.5" r="28.5" fill="white"/>
<g clip-path="url(#clip2_67_2)">
<path d="M371.033 204.054C371.033 205.163 370.134 206.062 369.025 206.062C368.003 206.062 367.159 205.298 367.033 204.31C366.961 204.318 366.889 204.322 366.816 204.322C365.707 204.322 364.808 203.422 364.808 202.313C364.808 201.779 365.017 201.293 365.358 200.933C364.571 200.661 364.004 199.913 364.004 199.033C364.004 198.154 364.571 197.406 365.358 197.134C365.017 196.774 364.808 196.288 364.808 195.753C364.808 194.645 365.707 193.745 366.816 193.745C366.889 193.745 366.961 193.749 367.033 193.757C367.159 192.769 368.003 192.004 369.025 192.004C370.134 192.004 371.033 192.904 371.033 194.013M371.033 204.054V194.013M371.033 204.054C371.033 205.163 371.933 206.062 373.042 206.062C374.063 206.062 374.908 205.298 375.034 204.31C375.105 204.318 375.177 204.322 375.251 204.322C376.359 204.322 377.259 203.422 377.259 202.313C377.259 201.779 377.05 201.293 376.708 200.933C377.496 200.661 378.062 199.913 378.062 199.033C378.062 198.154 377.496 197.406 376.708 197.134C377.05 196.774 377.259 196.288 377.259 195.753C377.259 194.645 376.359 193.745 375.251 193.745C375.177 193.745 375.105 193.749 375.034 193.757C374.908 192.769 374.063 192.004 373.042 192.004C371.933 192.004 371.033 192.904 371.033 194.013M359.988 175.938V195.017M364.004 180.53V190.424M351.954 180.53V190.424M372.038 184.975V185.979M347.938 184.975V185.979M368.021 182.883V188.071M355.971 182.883V188.071" stroke="#4762BB" stroke-width="1.875" stroke-miterlimit="10" stroke-linecap="round" stroke-linejoin="round"/>
</g>
<defs>
<filter id="filter0_d_67_2" x="160.81" y="102" width="84.381" height="84.381" filterUnits="userSpaceOnUse" color-interpolation-filters="sRGB">
<feFlood flood-opacity="0" result="BackgroundImageFix"/>
<feColorMatrix in="SourceAlpha" type="matrix" values="0 0 0 0 0 0 0 0 0 0 0 0 0 0 0 0 0 0 127 0" result="hardAlpha"/>
<feOffset dy="4.19048"/>
<feGaussianBlur stdDeviation="2.09524"/>
<feComposite in2="hardAlpha" operator="out"/>
<feColorMatrix type="matrix" values="0 0 0 0 0 0 0 0 0 0 0 0 0 0 0 0 0 0 0.15 0"/>
<feBlend mode="normal" in2="BackgroundImageFix" result="effect1_dropShadow_67_2"/>
<feBlend mode="normal" in="SourceGraphic" in2="effect1_dropShadow_67_2" result="shape"/>
</filter>
<clipPath id="clip0_67_2">
<rect width="32" height="32" fill="white" transform="translate(13 243)"/>
</clipPath>
<clipPath id="clip1_67_2">
<rect width="32" height="32" fill="white" transform="translate(13 36)"/>
</clipPath>
<clipPath id="clip2_67_2">
<rect width="32" height="32" fill="white" transform="translate(347 175)"/>
</clipPath>
</defs>
</svg>
