<svg width="100" height="100" viewBox="0 0 100 100" fill="none" xmlns="http://www.w3.org/2000/svg">
<circle cx="50" cy="50" r="48" fill="#060A19"/>
<path d="M26.9551 77.8667L40.1774 45.729H47.8446L60.9292 77.8667H53.7212L50.4615 69.419H37.1932L33.8876 77.8667H26.9551ZM39.2592 64.0934H48.4414L43.8503 52.2484L39.2592 64.0934Z" fill="white"/>
<path d="M64.1164 77.8667V45.729H70.7735V77.8667H64.1164Z" fill="white"/>
<path fill-rule="evenodd" clip-rule="evenodd" d="M44.0438 26.7917C47.8927 23.7911 52.7387 22 57.9978 22C70.5417 22 80.7104 32.1687 80.7104 44.7126V44.7131C80.7104 44.8913 80.7082 45.0695 80.7041 45.2477C84.4093 47.5839 86.8769 51.7125 86.8769 56.4254C86.8769 63.7199 80.9634 69.6333 73.669 69.6333H71.0161V77.9279H64.1362V66.1933V62.7534H67.5761H73.669C77.1638 62.7534 79.997 59.9202 79.997 56.4254C79.997 53.7193 78.2957 51.4017 75.8912 50.4992L73.3285 49.5374L73.6902 46.8241C73.7835 46.1241 73.8304 45.4188 73.8305 44.7126L50.5773 30.7225L50.5774 30.7224L73.8305 44.7121C73.8302 35.9681 66.7418 28.8799 57.9978 28.8799C55.3149 28.8799 52.7905 29.5455 50.5774 30.7224L44.0438 26.7917ZM50.6871 69.6333H29.1685C20.7911 69.6333 14 62.842 14 54.4648C14 49.154 16.7299 44.4879 20.8512 41.7806C21.9465 32.8822 29.5302 25.9923 38.7252 25.9923C40.5731 25.9923 42.3601 26.2718 44.0438 26.7917L50.5773 30.7225C49.3079 31.3975 48.1409 32.2407 47.1053 33.223L45.4254 34.8162L43.317 33.8598C41.921 33.2266 40.369 32.8722 38.7252 32.8722C32.6147 32.8722 27.6545 37.7965 27.5958 43.8933L27.5751 46.0474L25.6282 46.9692C22.814 48.3018 20.8799 51.1609 20.8799 54.4648C20.8799 59.0424 24.5908 62.7534 29.1685 62.7534H48.0409L50.6871 69.6333Z" fill="#6083F3"/>
</svg>
