<svg width="20" height="20" viewBox="0 0 20 20" fill="none" xmlns="http://www.w3.org/2000/svg">
<g clip-path="url(#clip0_1402_144)">
<path d="M18.7973 6.34008C19.1956 4.37298 17.7997 2.52334 15.8526 2.3141C14.835 -0.0882864 11.5502 -0.491606 10.0006 1.67123C8.45171 -0.490779 5.16683 -0.0894291 4.1487 2.3141C2.2004 2.5235 0.805978 4.37432 1.20402 6.34008C-0.247263 7.55623 -0.397282 9.72363 0.822883 11.129C-1.19864 13.8514 0.722752 17.8193 4.21018 17.8193C5.32379 20.1424 8.50317 20.4179 10.0006 18.3279C11.4992 20.4197 14.6785 20.1402 15.791 17.8193C19.2697 17.827 21.2004 13.8521 19.1783 11.129C20.4001 9.72186 20.2467 7.55473 18.7973 6.34008ZM7.17618 18.4612C5.4143 18.4612 4.39767 16.3911 5.54572 15.0018C5.76758 14.7334 5.72979 14.336 5.46135 14.1142C5.19292 13.8924 4.79555 13.9302 4.57373 14.1986C4.04365 14.84 3.7615 15.6706 3.80607 16.5215C1.41539 16.2675 0.350564 13.4091 1.93094 11.6469C1.94824 11.6665 2.54098 10.8191 3.80567 10.6844C3.78465 11.0982 3.84004 11.5123 3.96909 11.906C4.05602 12.172 4.3029 12.3408 4.56826 12.3408C4.99546 12.3408 5.30117 11.9226 5.16766 11.5142C4.80552 10.4063 5.41217 9.21029 6.52007 8.84815C6.85104 8.73994 7.03164 8.38395 6.92343 8.05294C6.81522 7.72193 6.45935 7.54121 6.12822 7.64958C5.98527 7.69655 5.84557 7.75291 5.71004 7.81827C5.45883 7.17501 5.63214 6.41515 6.19225 5.95103C6.46037 5.72882 6.49761 5.33137 6.27544 5.06325C6.05327 4.79513 5.65578 4.75793 5.38766 4.98006C4.29569 5.88494 4.04302 7.40601 4.67785 8.5885C4.25258 9.05834 4.15383 9.40665 4.11828 9.40665C3.19287 9.40665 2.33658 9.70791 1.64201 10.2173C0.868239 9.24855 1.08864 7.7886 2.18065 7.10759C2.30275 7.03144 2.39513 6.91582 2.44245 6.77993C2.48976 6.64403 2.48917 6.49604 2.44077 6.36053C1.97759 5.06349 2.85122 3.53792 4.52357 3.53792C4.66264 3.53788 4.79779 3.49186 4.90799 3.40702C5.01819 3.32219 5.09725 3.20331 5.13287 3.06888C5.37785 2.14386 6.21806 1.49784 7.17614 1.49784C8.34173 1.49784 9.29003 2.4461 9.29003 3.61173V16.3473C9.29003 17.5129 8.34177 18.4612 7.17618 18.4612ZM18.199 10.2173C17.447 9.66586 16.535 9.39191 15.7105 9.40728C15.5676 9.10779 15.3912 8.8405 15.1632 8.5885C15.7975 7.40696 15.5463 5.88573 14.4533 4.98006C14.1851 4.75789 13.7877 4.79513 13.5656 5.06325C13.3434 5.33141 13.3807 5.72885 13.6488 5.95103C14.2089 6.41511 14.3822 7.17501 14.131 7.81827C13.9954 7.75291 13.8557 7.69656 13.7128 7.64958C13.3818 7.54129 13.0258 7.72197 12.9176 8.05294C12.8094 8.38391 12.99 8.73994 13.3209 8.84815C14.4288 9.21029 15.0355 10.4063 14.6734 11.5142C14.5651 11.8452 14.7457 12.2012 15.0767 12.3094C15.4059 12.417 15.7632 12.2387 15.8719 11.906C16.001 11.5123 16.0564 11.0982 16.0353 10.6844C17.5168 10.8422 18.658 12.102 18.658 13.6029C18.658 15.116 17.5072 16.3651 16.0349 16.5215C16.0795 15.6738 15.7995 14.8423 15.2673 14.1985C15.0455 13.93 14.6481 13.8923 14.3797 14.1141C14.1113 14.3359 14.0735 14.7333 14.2953 15.0017C15.4413 16.3885 14.4276 18.4611 12.6649 18.4611C11.4993 18.4611 10.551 17.5128 10.551 16.3472V3.61173C10.551 2.44614 11.4992 1.49784 12.6649 1.49784C13.6229 1.49784 14.4632 2.1439 14.7081 3.06888C14.7834 3.35283 15.0437 3.54789 15.3383 3.53761C16.8151 3.48331 17.9037 4.95086 17.4002 6.36057C17.3518 6.49608 17.3512 6.64407 17.3986 6.77997C17.4459 6.91586 17.5383 7.03148 17.6604 7.10763C18.7535 7.78931 18.9719 9.24973 18.199 10.2173Z" fill="white"/>
</g>
<defs>
<clipPath id="clip0_1402_144">
<rect width="20" height="20" fill="white"/>
</clipPath>
</defs>
</svg>
