<svg width="20" height="20" viewBox="0 0 20 20" fill="none" xmlns="http://www.w3.org/2000/svg">
<path d="M18.3337 13.8915L17.967 13.6832C17.9892 13.4504 17.9892 13.216 17.967 12.9832L18.3337 12.7748C18.5791 12.6347 18.7671 12.4123 18.8647 12.1471C18.9623 11.8818 18.9631 11.5906 18.867 11.3248C18.657 10.767 18.3587 10.2465 17.9837 9.78317C17.7998 9.56858 17.5465 9.42523 17.2679 9.37803C16.9893 9.33083 16.7029 9.38278 16.4587 9.52484L16.092 9.73317C15.9264 9.62212 15.7538 9.52191 15.5753 9.43317C15.5835 9.34447 15.5835 9.25521 15.5753 9.1665V4.1665C15.5753 2.1165 11.9087 1.0415 8.28366 1.0415C4.65866 1.0415 1.04199 2.1165 1.04199 4.1665V14.1665C1.04199 16.2165 4.70866 17.2915 8.33366 17.2915C8.83366 17.2915 9.33366 17.2915 9.80033 17.2248C9.96114 17.2794 10.1315 17.3001 10.3007 17.2858C10.4699 17.2715 10.6343 17.2223 10.7837 17.1415L11.142 16.9332C11.3352 17.0658 11.5386 17.1828 11.7503 17.2832V17.6998C11.7513 17.9915 11.857 18.2731 12.0482 18.4934C12.2394 18.7136 12.5034 18.8579 12.792 18.8998C13.0684 18.9356 13.3466 18.955 13.6253 18.9582C13.904 18.9553 14.1823 18.9359 14.4587 18.8998C14.748 18.8595 15.013 18.7158 15.2045 18.4952C15.396 18.2745 15.5011 17.992 15.5003 17.6998V17.2832C15.713 17.1847 15.9166 17.0675 16.1087 16.9332L16.4753 17.1415C16.7201 17.2843 17.0075 17.3358 17.2866 17.287C17.5657 17.2382 17.8185 17.0922 18.0003 16.8748C18.377 16.4157 18.6754 15.8976 18.8837 15.3415C18.9784 15.0738 18.9751 14.7812 18.8744 14.5157C18.7737 14.2502 18.5821 14.0291 18.3337 13.8915ZM9.25866 9.78317C8.95398 10.1645 8.70173 10.5849 8.50866 11.0332H8.33366C4.64199 11.0332 2.29199 9.92484 2.29199 9.15817V5.97484C4.15978 6.92421 6.24021 7.3776 8.33366 7.2915C10.4267 7.37351 12.5062 6.92034 14.3753 5.97484V7.7665C13.8502 7.69152 13.3171 7.69152 12.792 7.7665C12.5034 7.80845 12.2394 7.9527 12.0482 8.17296C11.857 8.39322 11.7513 8.67484 11.7503 8.9665V9.38317C11.5386 9.48352 11.3352 9.60055 11.142 9.73317L10.7837 9.52484C10.5394 9.38278 10.253 9.33083 9.97441 9.37803C9.69579 9.42523 9.44253 9.56858 9.25866 9.78317ZM8.33366 2.2915C11.967 2.2915 14.3753 3.4165 14.3753 4.1665C14.3753 4.9165 11.967 6.0415 8.33366 6.0415C4.70033 6.0415 2.29199 4.9165 2.29199 4.1665C2.29199 3.4165 4.70033 2.2915 8.33366 2.2915ZM2.29199 14.1665V10.9832C4.16241 11.9244 6.24142 12.3746 8.33366 12.2915H8.45033C8.55517 12.4921 8.71389 12.6595 8.90866 12.7748L9.26699 12.9832V13.6832L8.90866 13.8832C8.65695 14.018 8.4611 14.2375 8.35585 14.503C8.25059 14.7684 8.24273 15.0625 8.33366 15.3332C8.42846 15.5698 8.53697 15.8008 8.65866 16.0248H8.30033C4.64199 16.0415 2.29199 14.9332 2.29199 14.1665ZM16.667 12.7582C16.6995 12.9481 16.7162 13.1405 16.717 13.3332C16.7162 13.5231 16.6995 13.7127 16.667 13.8998C16.6426 14.0271 16.6583 14.1589 16.7121 14.2768C16.7658 14.3948 16.8549 14.4931 16.967 14.5582L17.6837 14.8998C17.5205 15.3071 17.3137 15.6954 17.067 16.0582L16.342 15.6415C16.229 15.5767 16.0987 15.5483 15.969 15.5602C15.8392 15.5722 15.7163 15.6238 15.617 15.7082C15.3257 15.9543 14.9927 16.1462 14.6337 16.2748C14.5114 16.3181 14.4056 16.3982 14.331 16.5042C14.2563 16.6102 14.2165 16.7368 14.217 16.8665V17.6998C13.8175 17.7287 13.4165 17.7287 13.017 17.6998H13.0003V16.8665C12.9996 16.7371 12.9593 16.6111 12.8848 16.5053C12.8103 16.3995 12.7052 16.3191 12.5837 16.2748C12.2247 16.1462 11.8916 15.9543 11.6003 15.7082C11.5016 15.6227 11.3786 15.5703 11.2485 15.5584C11.1185 15.5464 10.988 15.5755 10.8753 15.6415L10.2253 16.0832C9.95266 15.7507 9.72047 15.3871 9.53366 14.9998L10.2503 14.5832C10.3624 14.5198 10.4522 14.4233 10.5074 14.307C10.5626 14.1906 10.5805 14.0601 10.5587 13.9332C10.5171 13.7359 10.4975 13.5347 10.5003 13.3332C10.4995 13.1427 10.5191 12.9528 10.5587 12.7665C10.5811 12.6384 10.5635 12.5065 10.5084 12.3887C10.4532 12.2709 10.3631 12.173 10.2503 12.1082L9.54199 11.7665C9.69821 11.3561 9.90539 10.9669 10.1587 10.6082L10.8837 11.0248C10.9958 11.0878 11.1244 11.1151 11.2524 11.1032C11.3804 11.0913 11.5018 11.0407 11.6003 10.9582C11.8887 10.7079 12.2226 10.5155 12.5837 10.3915C12.7052 10.3472 12.8103 10.2668 12.8848 10.161C12.9593 10.0553 12.9996 9.92921 13.0003 9.79984V9.00817C13.2154 8.97495 13.4327 8.95824 13.6503 8.95817H14.2753V9.7915C14.276 9.92088 14.3163 10.0469 14.3908 10.1527C14.4653 10.2585 14.5704 10.3389 14.692 10.3832C15.054 10.5053 15.3882 10.6978 15.6753 10.9498C15.7762 11.031 15.8988 11.0807 16.0278 11.0925C16.1567 11.1044 16.2863 11.0779 16.4003 11.0165L17.0503 10.5665C17.3153 10.9071 17.5417 11.276 17.7253 11.6665L17.0003 12.0832C16.8771 12.1419 16.7772 12.2405 16.7167 12.3629C16.6562 12.4854 16.6387 12.6246 16.667 12.7582Z" fill="white"/>
</svg>
