<svg width="219" height="186" viewBox="0 0 219 186" fill="none" xmlns="http://www.w3.org/2000/svg">
<path d="M159.115 165.328C159.397 165.491 159.494 165.73 159.369 165.946L152.756 177.528C152.576 177.846 151.985 178.016 151.437 177.91C151.295 177.884 151.157 177.835 151.031 177.764C150.758 177.607 150.647 177.371 150.776 177.146L157.185 165.919L83.2488 123.228C82.8397 122.994 82.8397 122.61 83.2443 122.375C83.4726 122.259 83.7254 122.198 83.9817 122.198C84.2381 122.198 84.4909 122.259 84.7192 122.375L159.115 165.328ZM207.844 144.789C207.947 144.845 208.034 144.926 208.097 145.025C208.283 145.344 207.987 145.685 207.442 145.789L187.469 149.657C187.107 149.732 186.73 149.681 186.401 149.512L112.001 106.557C111.592 106.323 111.592 105.941 111.999 105.705C112.227 105.589 112.479 105.528 112.735 105.528C112.991 105.528 113.243 105.589 113.472 105.705L187.412 148.394L206.776 144.644C207.138 144.569 207.515 144.62 207.844 144.789ZM198.108 172.173C198.517 172.41 198.517 172.791 198.112 173.028C197.884 173.144 197.631 173.205 197.375 173.205C197.119 173.205 196.866 173.144 196.637 173.028L96.7874 115.38C96.3783 115.144 96.3783 114.762 96.7829 114.525C97.0116 114.409 97.2647 114.348 97.5215 114.348C97.7783 114.348 98.0314 114.409 98.2602 114.525L198.108 172.173Z" fill="#3D4449"/>
<path d="M149.045 179.082C150.34 179.828 152.429 179.828 153.722 179.082C155.006 178.335 154.995 177.123 153.699 176.375C152.404 175.63 150.317 175.63 149.033 176.375C147.751 177.123 147.751 178.337 149.045 179.082Z" fill="#BBCFEF"/>
<path d="M194.597 173.619C195.892 174.367 197.979 174.367 199.274 173.619C200.558 172.873 200.547 171.66 199.252 170.914C197.956 170.167 195.867 170.167 194.586 170.914C193.302 171.66 193.302 172.873 194.597 173.619Z" fill="#BBCFEF"/>
<path d="M205.452 146.423C206.747 147.169 208.833 147.169 210.129 146.423C211.413 145.675 211.402 144.462 210.106 143.716C208.811 142.971 206.722 142.971 205.44 143.716C204.156 144.462 204.156 145.678 205.452 146.423Z" fill="#BBCFEF"/>
<path d="M207.923 95.0645L207.873 110.596C207.873 112.376 206.696 114.18 204.339 115.56L87.9072 183.217C83.1686 185.951 75.4709 185.976 70.68 183.192L11.9027 149.262C9.49361 147.883 8.28906 146.053 8.28906 144.224L8.31634 128.692C8.31634 130.524 9.52088 132.353 11.9277 133.733L70.705 167.687C75.4959 170.444 83.2186 170.444 87.9572 167.687L204.364 100.028C206.721 98.6508 207.923 96.869 207.923 95.0645Z" fill="#3D4449"/>
<path d="M207.923 98.9102L207.873 106.728C207.873 108.51 206.696 110.317 204.339 111.694L87.9072 179.353C83.1686 182.085 75.4709 182.11 70.68 179.326L11.9027 145.399C9.49361 144.019 8.28906 142.187 8.28906 140.358L8.31634 132.537C8.31634 134.367 9.52088 136.197 11.9277 137.578L70.705 171.533C75.4959 174.29 83.2186 174.29 87.9572 171.533L204.364 103.874C206.721 102.497 207.923 100.715 207.923 98.9102Z" fill="#7190F6"/>
<path d="M204.369 100.03L87.9666 167.687C85.1257 169.339 81.2143 169.983 77.5029 169.651V185.171C81.1961 185.494 85.0847 184.851 87.9166 183.217L204.348 115.56C206.705 114.18 207.882 112.376 207.882 110.596L207.932 95.0645C207.932 96.8713 206.728 98.6508 204.373 100.03H204.369Z" fill="#2A3134"/>
<path d="M204.365 103.874L87.9607 171.533C85.1198 173.185 81.2084 173.826 77.4971 173.497V181.306C81.1903 181.631 85.0789 180.987 87.9107 179.351L204.342 111.697C206.699 110.317 207.877 108.51 207.877 106.731L207.927 98.9102C207.927 100.715 206.72 102.497 204.365 103.874Z" fill="#5272D7"/>
<path d="M204.367 100.03L138.48 138.326V153.83L204.344 115.56C206.701 114.18 207.878 112.376 207.878 110.596L207.928 95.0645C207.928 96.8713 206.721 98.6508 204.367 100.03Z" fill="#181E1E"/>
<path d="M204.367 103.874L138.48 142.169V149.965L204.344 111.697C206.701 110.317 207.878 108.51 207.878 106.731L207.928 98.9102C207.928 100.715 206.721 102.497 204.367 103.874Z" fill="#3C6AFF"/>
<path d="M204.322 90.0384C209.108 92.802 209.124 97.2679 204.376 100.027L87.956 167.686C83.2196 170.436 75.5083 170.443 70.7196 167.679L11.9287 133.736C7.16282 130.984 7.12646 126.504 11.8605 123.752L128.286 56.0952C133.031 53.3361 140.763 53.3452 145.531 56.0952L204.322 90.0384Z" fill="#4F575F"/>
<path d="M160.273 9.42801C136.507 1.8962 108.866 -0.0765322 83.1367 3.55983V31.4826C108.873 27.8576 136.512 29.8416 160.273 37.3871V9.42801Z" fill="#5677E1" fill-opacity="0.5"/>
<path d="M160.273 9.42784V8.21874C136.432 0.830108 108.866 -1.10398 83.1367 2.46875V3.55965C108.866 -0.0767086 136.507 1.89602 160.273 9.42784Z" fill="#5677E1"/>
<path d="M171.329 33.5505L182.42 39.996C180.154 38.6778 177.409 38.1846 174.347 38.6073L163.259 32.1619C166.32 31.7414 169.063 32.2346 171.329 33.5505Z" fill="#EBF2FF"/>
<path d="M146.411 12.51L167.736 25.0668C163.599 22.6645 157.874 23.0054 151.554 26.6554C148.638 28.3373 145.849 30.5713 143.299 33.2009L121.977 20.6418C124.522 18.0145 127.315 15.7782 130.227 14.0963C136.549 10.4486 142.277 10.1077 146.411 12.51Z" fill="#CBDBF4"/>
<path d="M151.573 26.6535C148.65 28.3194 145.845 30.5535 143.289 33.1944L121.993 20.649C124.509 18.0104 127.311 15.7763 130.236 14.1104L151.573 26.6535Z" fill="#DBE6FA"/>
<path d="M120.665 16.0092C115.465 12.9865 108.258 13.4115 100.308 18.0001C80.0856 29.6751 66.9993 60.2865 73.4311 77.3137L89.6652 86.8728C83.1516 69.6274 96.5834 39.0842 116.542 27.5615C124.492 22.9705 131.702 22.5455 136.899 25.5683L120.665 16.0092Z" fill="#E9E8E6"/>
<path d="M111.966 30.6594L90.6406 18.1025C82.4201 24.373 75.3997 33.9571 71.127 44.1935L92.4497 56.7503C96.7224 46.5139 103.745 36.9298 111.966 30.6594Z" fill="#DBE6FA"/>
<path d="M116.537 27.5621C124.487 22.9712 131.696 22.5462 136.894 25.5689L115.571 13.0121C110.369 9.98939 103.162 10.4144 95.2124 15.003C93.6533 15.9053 92.1328 16.9644 90.6396 18.103L111.965 30.6598C113.456 29.5235 114.976 28.4621 116.537 27.5621Z" fill="#CBDBF4"/>
<path d="M71.1289 44.1914C67.3334 53.2823 64.9016 65.2141 68.3403 74.3164L89.663 86.8732C86.2198 77.755 88.6675 65.8187 92.4516 56.7505L71.1289 44.1914Z" fill="#DBE6FA"/>
<path d="M189.036 54.5909C189.081 69.0455 178.922 86.6136 166.354 93.8864L83.2859 141.841C70.7404 149.091 60.5131 143.25 60.4904 128.818C60.4336 110.62 75.729 90.0773 89.6495 86.8636C83.1722 69.6864 96.4836 39.1227 116.536 27.5682C128.718 20.5227 139.149 23.2727 143.309 33.2046C145.854 30.5682 148.627 28.3409 151.559 26.6591C163.809 19.5682 173.831 24.9318 174.331 38.6136C182.922 37.4318 189.013 43.4091 189.036 54.5909Z" fill="#EBF2FF"/>
<path d="M73.1056 138.819C67.2761 138.819 66.6375 131.819 66.6329 128.81C66.5966 116.55 75.5647 101.007 86.2238 94.8618C87.9648 93.8572 89.5875 93.18 91.0375 92.8413L97.8716 91.2618L95.3966 84.6982C94.6011 82.5913 94.1738 79.9027 94.1579 76.9186C94.1147 61.0322 105.769 40.8572 119.606 32.8845C126.774 28.7413 134.437 27.8936 137.656 35.5754L141.256 44.1732L147.731 37.4686C151.158 33.9141 156.865 29.6641 161.778 29.6641C167.078 29.6641 168.081 35.4141 168.206 38.8368L168.453 45.6163C175.044 44.7345 175.39 44.6027 176.435 44.6027C182.049 44.6027 182.899 50.8686 182.906 54.6027C182.944 66.8459 173.96 82.3982 163.287 88.5754L80.2261 136.525C77.6284 138.025 75.167 138.819 73.1056 138.819Z" fill="white"/>
<path d="M83.1518 89.5456C85.4018 88.2479 87.5927 87.3525 89.6632 86.8729L68.3427 74.3184C66.27 74.7956 64.0791 75.6911 61.8291 76.9911C53.8609 81.5911 46.87 90.3502 42.8291 99.8275L64.1541 112.387C68.195 102.909 75.1836 94.1502 83.1541 89.5479L83.1518 89.5456Z" fill="#CBDBF4"/>
<path d="M60.4794 128.809C60.4635 123.53 61.8203 117.839 64.1476 112.384L42.8226 99.8252C40.4953 105.28 39.1408 110.973 39.1544 116.252C39.1771 123.434 41.7089 128.484 45.7953 130.859L67.1203 143.416C63.0339 141.041 60.4999 135.991 60.4794 128.809Z" fill="#DBE6FA"/>
<path d="M192.446 25.0166V53.0098C208.228 64.3825 216.124 78.2371 216.083 92.078L216.162 64.1461C216.203 50.2802 208.283 36.4007 192.446 25.0166Z" fill="#5677E1" fill-opacity="0.5"/>
<path d="M192.449 104.645V132.526C209.385 120.885 217.894 106.499 217.935 92.0855L218.014 64.1514C217.974 78.5877 209.439 92.9923 192.449 104.645Z" fill="#5677E1" fill-opacity="0.5"/>
<path d="M192.446 23.3408V25.0158C224.035 47.7249 224.083 80.3749 192.446 102.986V104.643C226.519 81.2795 226.48 46.8022 192.446 23.3408Z" fill="#5677E1"/>
<path d="M41.8249 15.3568C38.8138 16.7486 35.8675 18.2767 32.9953 19.9363C12.3021 31.9613 1.94531 47.734 1.89986 63.5318L1.82031 91.4659C1.86577 75.6704 12.2226 59.8977 32.9158 47.8704C35.8134 46.1971 38.7862 44.6576 41.8249 43.2568V15.3568Z" fill="#5677E1" fill-opacity="0.313726"/>
<path d="M41.8365 111.884C38.5525 110.398 35.3413 108.756 32.2138 106.964C10.7524 94.5727 0.031962 78.275 0.0774165 62L0.000143965 89.9364C-0.0453106 106.209 10.6729 122.505 32.1342 134.898C35.287 136.704 38.5249 138.359 41.8365 139.855V111.884Z" fill="#5677E1" fill-opacity="0.5"/>
<path d="M41.8227 112.076C-11.4046 87.1189 -11.4001 40.1098 41.8227 15.3575V14.0166C-13.6637 39.1189 -14.0251 87.928 41.8227 113.41V112.076Z" fill="#5677E1"/>
<path d="M160.271 119.651C136.444 126.947 108.876 128.785 83.1348 125.11V153.058C108.882 156.722 136.448 154.87 160.271 147.563V119.651Z" fill="#5677E1" fill-opacity="0.5"/>
<path d="M160.271 118.438C136.517 125.874 108.88 127.749 83.1348 124.012V125.11C108.876 128.785 136.444 126.944 160.271 119.651V118.438Z" fill="#5677E1"/>
</svg>
