<svg width="250" height="250" viewBox="0 0 250 250" fill="none" xmlns="http://www.w3.org/2000/svg">
<path d="M175.114 221.599C175.396 221.763 175.494 222.001 175.369 222.217L168.755 233.799C168.576 234.117 167.985 234.288 167.437 234.181C167.294 234.155 167.157 234.106 167.03 234.036C166.757 233.879 166.646 233.642 166.776 233.417L173.185 222.19L99.2483 179.499C98.8392 179.265 98.8392 178.881 99.2438 178.647C99.4721 178.53 99.7249 178.47 99.9813 178.47C100.238 178.47 100.49 178.53 100.719 178.647L175.114 221.599ZM223.844 201.061C223.947 201.116 224.034 201.198 224.096 201.297C224.282 201.615 223.987 201.956 223.441 202.061L203.469 205.929C203.107 206.004 202.73 205.952 202.401 205.783L128.001 162.829C127.591 162.595 127.591 162.213 127.998 161.977C128.226 161.86 128.479 161.8 128.735 161.8C128.991 161.8 129.243 161.86 129.471 161.977L203.412 204.665L222.776 200.915C223.138 200.84 223.515 200.892 223.844 201.061ZM214.107 228.445C214.516 228.681 214.516 229.063 214.112 229.299C213.884 229.416 213.631 229.476 213.374 229.476C213.118 229.476 212.865 229.416 212.637 229.299L112.787 171.652C112.378 171.415 112.378 171.033 112.782 170.797C113.011 170.68 113.264 170.619 113.521 170.619C113.778 170.619 114.031 170.68 114.26 170.797L214.107 228.445Z" fill="#3D4449"/>
<path d="M165.045 235.354C166.341 236.099 168.429 236.099 169.722 235.354C171.006 234.606 170.995 233.395 169.7 232.647C168.404 231.902 166.318 231.902 165.034 232.647C163.752 233.395 163.752 234.608 165.045 235.354Z" fill="#BBCFEF"/>
<path d="M210.597 229.89C211.892 230.638 213.979 230.638 215.274 229.89C216.558 229.145 216.547 227.931 215.252 227.186C213.956 226.438 211.867 226.438 210.586 227.186C209.302 227.931 209.302 229.145 210.597 229.89Z" fill="#BBCFEF"/>
<path d="M221.452 202.695C222.747 203.44 224.833 203.44 226.129 202.695C227.413 201.947 227.402 200.733 226.106 199.988C224.811 199.242 222.722 199.242 221.44 199.988C220.156 200.733 220.156 201.949 221.452 202.695Z" fill="#BBCFEF"/>
<path d="M223.923 151.336L223.873 166.868C223.873 168.647 222.696 170.452 220.339 171.831L103.907 239.488C99.1686 242.222 91.4709 242.247 86.68 239.463L27.9027 205.534C25.4936 204.154 24.2891 202.325 24.2891 200.495L24.3163 184.963C24.3163 186.795 25.5209 188.625 27.9277 190.004L86.705 223.959C91.4959 226.715 99.2186 226.715 103.957 223.959L220.364 156.3C222.721 154.922 223.923 153.14 223.923 151.336Z" fill="#3D4449"/>
<path d="M223.923 155.182L223.873 163C223.873 164.782 222.696 166.588 220.339 167.966L103.907 235.625C99.1686 238.357 91.4709 238.382 86.68 235.598L27.9027 201.67C25.4936 200.291 24.2891 198.459 24.2891 196.629L24.3163 188.809C24.3163 190.638 25.5209 192.468 27.9277 193.85L86.705 227.804C91.4959 230.561 99.2186 230.561 103.957 227.804L220.364 160.145C222.721 158.768 223.923 156.986 223.923 155.182Z" fill="#7190F6"/>
<path d="M220.369 156.302L103.967 223.959C101.126 225.611 97.2143 226.254 93.5029 225.922V241.443C97.1961 241.765 101.085 241.122 103.917 239.488L220.348 171.831C222.705 170.452 223.882 168.647 223.882 166.868L223.932 151.336C223.932 153.143 222.728 154.922 220.373 156.302H220.369Z" fill="#2A3134"/>
<path d="M220.365 160.145L103.96 227.804C101.119 229.457 97.2079 230.098 93.4966 229.768V237.577C97.1898 237.902 101.078 237.259 103.91 235.623L220.342 167.968C222.699 166.588 223.876 164.782 223.876 163.002L223.926 155.182C223.926 156.986 222.719 158.768 220.365 160.145Z" fill="#5272D7"/>
<path d="M220.367 156.302L154.481 194.597V210.102L220.345 171.831C222.701 170.452 223.879 168.647 223.879 166.868L223.929 151.336C223.929 153.143 222.722 154.922 220.367 156.302Z" fill="#181E1E"/>
<path d="M220.367 160.145L154.481 198.441V206.236L220.345 167.968C222.701 166.588 223.879 164.782 223.879 163.002L223.929 155.182C223.929 156.986 222.722 158.768 220.367 160.145Z" fill="#3C6AFF"/>
<path d="M220.321 146.31C225.108 149.074 225.124 153.539 220.376 156.299L103.956 223.958C99.2191 226.708 91.5078 226.714 86.7191 223.951L27.9282 190.008C23.1623 187.255 23.126 182.776 27.8601 180.024L144.285 112.367C149.031 109.608 156.762 109.617 161.531 112.367L220.321 146.31Z" fill="#4F575F"/>
<path d="M176.273 65.6995C152.507 58.1677 124.866 56.195 99.1362 59.8313V87.754C124.873 84.129 152.511 86.1131 176.273 93.6586V65.6995Z" fill="#5677E1" fill-opacity="0.5"/>
<path d="M176.273 65.6993V64.4902C152.432 57.1016 124.866 55.1675 99.1362 58.7402V59.8311C124.866 56.1948 152.507 58.1675 176.273 65.6993Z" fill="#5677E1"/>
<path d="M187.33 89.822L198.421 96.2674C196.155 94.9493 193.409 94.4561 190.348 94.8788L179.259 88.4334C182.321 88.0129 185.064 88.5061 187.33 89.822Z" fill="#EBF2FF"/>
<path d="M162.411 68.7815L183.736 81.3383C179.6 78.936 173.875 79.2769 167.554 82.9269C164.638 84.6087 161.85 86.8428 159.3 89.4724L137.977 76.9133C140.523 74.286 143.316 72.0496 146.227 70.3678C152.55 66.7201 158.277 66.3792 162.411 68.7815Z" fill="#CBDBF4"/>
<path d="M167.573 82.925C164.65 84.5909 161.845 86.825 159.289 89.4659L137.993 76.9205C140.509 74.2818 143.311 72.0477 146.236 70.3818L167.573 82.925Z" fill="#DBE6FA"/>
<path d="M136.666 72.2807C131.466 69.2579 124.259 69.6829 116.309 74.2716C96.0861 85.9466 82.9998 116.558 89.4316 133.585L105.666 143.144C99.152 125.899 112.584 95.3557 132.543 83.8329C140.493 79.242 147.702 78.817 152.9 81.8398L136.666 72.2807Z" fill="#E9E8E6"/>
<path d="M127.965 86.9308L106.64 74.374C98.4197 80.6445 91.3992 90.2286 87.1265 100.465L108.449 113.022C112.722 102.785 119.745 93.2013 127.965 86.9308Z" fill="#DBE6FA"/>
<path d="M132.537 83.8336C140.487 79.2427 147.696 78.8177 152.894 81.8404L131.571 69.2836C126.369 66.2609 119.162 66.6859 111.212 71.2745C109.653 72.1768 108.133 73.2359 106.64 74.3745L127.965 86.9313C129.456 85.795 130.976 84.7336 132.537 83.8336Z" fill="#CBDBF4"/>
<path d="M87.1289 100.463C83.3334 109.554 80.9016 121.486 84.3403 130.588L105.663 143.145C102.22 134.027 104.668 122.09 108.452 113.022L87.1289 100.463Z" fill="#DBE6FA"/>
<path d="M205.036 110.862C205.081 125.317 194.922 142.885 182.354 150.158L99.2859 198.112C86.7404 205.362 76.5131 199.521 76.4904 185.09C76.4336 166.892 91.729 146.349 105.649 143.135C99.1722 125.958 112.484 95.3942 132.536 83.8397C144.718 76.7942 155.149 79.5442 159.309 89.476C161.854 86.8397 164.627 84.6124 167.559 82.9306C179.809 75.8397 189.831 81.2033 190.331 94.8851C198.922 93.7033 205.013 99.6806 205.036 110.862Z" fill="#EBF2FF"/>
<path d="M89.1052 195.09C83.2756 195.09 82.637 188.09 82.6324 185.081C82.5961 172.822 91.5643 157.279 102.223 151.133C103.964 150.129 105.587 149.451 107.037 149.113L113.871 147.533L111.396 140.97C110.601 138.863 110.173 136.174 110.157 133.19C110.114 117.304 121.769 97.1287 135.605 89.156C142.773 85.0128 150.437 84.1651 153.655 91.8469L157.255 100.445L163.73 93.7401C167.157 90.1855 172.864 85.9355 177.778 85.9355C183.078 85.9355 184.08 91.6855 184.205 95.1083L184.453 101.888C191.044 101.006 191.389 100.874 192.435 100.874C198.048 100.874 198.898 107.14 198.905 110.874C198.944 123.117 189.96 138.67 179.287 144.847L96.2256 192.797C93.6279 194.297 91.1665 195.09 89.1052 195.09Z" fill="white"/>
<path d="M99.1513 145.817C101.401 144.519 103.592 143.624 105.663 143.144L84.3422 130.59C82.2695 131.067 80.0786 131.963 77.8286 133.263C69.8604 137.863 62.8695 146.622 58.8286 156.099L80.1536 168.658C84.1945 159.181 91.1831 150.422 99.1536 145.819L99.1513 145.817Z" fill="#CBDBF4"/>
<path d="M76.4794 185.081C76.4635 179.801 77.8203 174.11 80.1476 168.656L58.8226 156.097C56.4953 161.551 55.1408 167.244 55.1544 172.524C55.1771 179.706 57.7089 184.756 61.7953 187.131L83.1203 199.688C79.0339 197.313 76.4999 192.263 76.4794 185.081Z" fill="#DBE6FA"/>
<path d="M208.446 81.2881V109.281C224.228 120.654 232.124 134.509 232.083 148.349L232.162 120.418C232.203 106.552 224.283 92.6722 208.446 81.2881Z" fill="#5677E1" fill-opacity="0.5"/>
<path d="M208.449 160.916V188.798C225.385 177.157 233.894 162.771 233.935 148.357L234.014 120.423C233.974 134.859 225.439 149.264 208.449 160.916Z" fill="#5677E1" fill-opacity="0.5"/>
<path d="M208.446 79.6123V81.2873C240.035 103.996 240.083 136.646 208.446 159.258V160.915C242.519 137.551 242.48 103.074 208.446 79.6123Z" fill="#5677E1"/>
<path d="M57.8244 71.6282C54.8133 73.0201 51.867 74.5482 48.9948 76.2078C28.3016 88.2328 17.9448 104.006 17.8994 119.803L17.8198 147.737C17.8653 131.942 28.2221 116.169 48.9153 104.142C51.8129 102.469 54.7857 100.929 57.8244 99.5282V71.6282Z" fill="#5677E1" fill-opacity="0.313726"/>
<path d="M57.8365 168.156C54.5525 166.669 51.3413 165.027 48.2138 163.235C26.7524 150.844 16.032 134.546 16.0774 118.271L16.0001 146.208C15.9547 162.481 26.6729 178.776 48.1342 191.169C51.287 192.976 54.5249 194.63 57.8365 196.126V168.156Z" fill="#5677E1" fill-opacity="0.5"/>
<path d="M57.8227 168.347C4.59539 143.39 4.59993 96.3813 57.8227 71.629V70.2881C2.3363 95.3904 1.97493 144.199 57.8227 169.681V168.347Z" fill="#5677E1"/>
<path d="M176.271 175.923C152.444 183.218 124.876 185.057 99.1348 181.382V209.33C124.882 212.993 152.448 211.141 176.271 203.834V175.923Z" fill="#5677E1" fill-opacity="0.5"/>
<path d="M176.271 174.709C152.517 182.145 124.88 184.02 99.1348 180.284V181.382C124.876 185.057 152.444 183.216 176.271 175.923V174.709Z" fill="#5677E1"/>
</svg>
