<svg width="250" height="250" viewBox="0 0 250 250" fill="none" xmlns="http://www.w3.org/2000/svg">
<path d="M211.902 155.309L211.857 182.1C211.857 183.129 211.191 184.143 209.843 184.918L129.525 231.591C126.834 233.175 122.43 233.175 119.721 231.591L38.898 184.932C37.5207 184.141 36.8389 183.095 36.8389 182.066L36.8843 155.307C36.8843 156.32 37.582 157.366 38.9298 158.143L119.753 204.795C122.48 206.363 126.866 206.363 129.575 204.795L209.875 158.127C211.223 157.35 211.887 156.336 211.902 155.309Z" fill="#457AEF"/>
<path d="M211.902 163.582L211.857 179.643C211.857 180.673 211.191 181.689 209.843 182.462L129.525 224.705C126.834 226.291 122.43 226.291 119.721 224.705L38.898 178.05C37.5207 177.257 36.8389 176.212 36.8389 175.182L36.8843 163.582C36.8843 164.596 37.582 165.641 38.9298 166.418L119.753 213.068C122.48 214.637 126.866 214.637 129.575 213.068L209.875 166.4C211.223 165.623 211.887 164.609 211.902 163.582Z" fill="#DBDFE6"/>
<path d="M209.875 158.129L129.575 204.795C128.448 205.448 127.016 205.763 125.55 205.873V232.668C127 232.554 128.418 232.236 129.527 231.586L209.845 184.916C211.191 184.141 211.857 183.127 211.857 182.098L211.902 155.307C211.886 156.336 211.22 157.352 209.875 158.125V158.129Z" fill="#3A63DF"/>
<path d="M209.875 166.402L129.575 213.071C128.448 213.723 127.016 214.039 125.55 214.148V225.787C127 225.673 128.418 225.355 129.527 224.705L209.845 178.034C211.191 177.257 211.857 176.243 211.857 175.216L211.902 163.582C211.886 164.612 211.22 165.627 209.875 166.402Z" fill="#B8BBC0"/>
<path d="M209.848 152.445C212.569 154.013 212.582 156.561 209.88 158.131L129.571 204.802C126.869 206.372 122.473 206.372 119.753 204.802L38.9302 158.138C36.2098 156.57 36.1938 154.022 38.8984 152.452L119.203 105.781C121.907 104.211 126.303 104.211 129.021 105.781L209.848 152.445Z" fill="#4F91FF"/>
<path d="M195.21 134.568L195.173 149.09C195.173 149.925 194.635 150.745 193.544 151.372L128.562 189.131C126.38 190.413 122.819 190.413 120.628 189.131L55.2323 151.386C54.1187 150.745 53.5664 149.9 53.5664 149.065L53.605 134.565C53.605 135.386 54.1687 136.234 55.2596 136.861L120.653 174.609C122.857 175.877 126.407 175.877 128.598 174.609L193.571 136.847C194.66 136.22 195.198 135.402 195.21 134.568Z" fill="#DBE6FA"/>
<path d="M193.57 136.847L128.598 174.606C126.407 175.877 122.857 175.877 120.652 174.606L102.793 164.3V178.838L120.627 189.134C122.818 190.413 126.382 190.413 128.559 189.134L193.543 151.37C194.634 150.743 195.173 149.922 195.173 149.088L195.209 134.565C195.198 135.397 194.659 136.22 193.57 136.847Z" fill="#CBDBF4"/>
<path d="M193.571 136.847L160.657 155.976V170.481L193.544 151.372C194.635 150.745 195.173 149.924 195.173 149.09L195.209 134.567C195.198 135.399 194.659 136.22 193.571 136.847Z" fill="#BBCFEF"/>
<path d="M193.548 132.25C195.748 133.52 195.759 135.579 193.573 136.852L128.595 174.611C126.409 175.884 122.852 175.884 120.652 174.611L55.2567 136.857C53.0567 135.584 53.0454 133.525 55.234 132.254L120.209 94.4929C122.395 93.2224 125.952 93.2224 128.152 94.4929L193.548 132.25Z" fill="#EBF2FF"/>
<path d="M120.32 105.788C120.329 106.054 120.538 106.304 120.926 106.529L120.911 112.056C120.522 111.829 120.313 111.579 120.304 111.315L120.32 105.788Z" fill="#457AEF"/>
<path d="M167.859 128.127L167.843 133.681C167.827 133.941 167.614 134.195 167.2 134.436L167.216 128.909C167.627 128.668 167.843 128.413 167.859 128.154C167.86 128.145 167.86 128.136 167.859 128.127Z" fill="#3A63DF"/>
<path d="M167.216 128.909L167.2 134.436L164.766 135.85L164.782 130.323L167.216 128.909Z" fill="#3A63DF"/>
<path d="M162.166 130.338L162.15 135.866L120.911 112.057L120.927 106.529L162.166 130.338Z" fill="#457AEF"/>
<path d="M164.782 130.322L164.766 135.85C163.889 136.361 163.016 136.365 162.152 135.865L162.166 130.338C163.032 130.838 163.907 130.834 164.782 130.322Z" fill="#3A63DF"/>
<path d="M167.241 127.388C168.112 127.888 168.026 128.438 167.216 128.908L164.782 130.322C163.905 130.833 163.032 130.838 162.169 130.338L120.926 106.529C120.153 106.083 120.071 105.522 120.944 105.015L123.378 103.599C123.777 103.372 124.227 103.251 124.687 103.247C125.146 103.244 125.598 103.358 126.001 103.579L167.241 127.388Z" fill="#71D8F8"/>
<path d="M131.458 132.756L131.442 138.284L101.308 130.772L101.324 125.245L131.458 132.756ZM156.383 134.811L156.367 140.338C156.367 140.384 156.358 140.429 156.344 140.475L156.36 134.947C156.374 134.902 156.383 134.856 156.383 134.811Z" fill="#3A63DF"/>
<path d="M156.358 134.947L156.342 140.475C156.249 140.709 156.008 140.938 155.622 141.163L155.635 135.636C156.022 135.411 156.265 135.181 156.358 134.947ZM155.635 135.636L155.622 141.163L153.099 142.629L153.117 137.102L155.635 135.636ZM150.399 137.377L150.383 142.904L138.52 139.988L138.533 134.461L150.399 137.377Z" fill="#3A63DF"/>
<path d="M153.119 137.102L153.103 142.629C152.294 143.097 151.298 143.124 150.385 142.902L150.401 137.377C151.314 137.597 152.31 137.57 153.119 137.102Z" fill="#3A63DF"/>
<path d="M138.533 134.461L138.517 139.988L117.194 152.381L117.21 146.854L138.533 134.461Z" fill="#457AEF"/>
<path d="M122.584 154.322L122.568 159.85C122.568 160.197 122.332 160.509 121.859 160.784L121.875 155.256C122.348 154.984 122.584 154.668 122.584 154.322Z" fill="#3A63DF"/>
<path d="M92.1377 127.618L92.1536 122.091C92.1536 122.214 92.2945 122.573 92.4945 122.818C92.7059 123.073 102.945 137.511 116.531 156.377L116.515 161.904C98.2741 136.575 92.9104 128.886 92.465 128.348C92.2945 128.137 92.1817 127.886 92.1377 127.618ZM116.651 156.545L116.635 162.075L116.515 161.904L116.531 156.377L116.651 156.545Z" fill="#457AEF"/>
<path d="M121.874 155.257L121.858 160.784L119.338 162.25L119.354 156.723L121.874 155.257Z" fill="#3A63DF"/>
<path d="M138.533 134.461L117.21 146.854L122.315 153.636C122.783 154.265 122.64 154.809 121.874 155.254L119.354 156.72C118.367 157.293 117.508 157.311 116.651 156.545L108.581 145.318C91.0014 120.772 92.29 122.636 92.165 122.177C92.0969 121.927 92.3264 121.643 92.8514 121.338C94.2832 120.586 94.965 119.884 95.9764 119.963C97.3218 120.084 93.4673 119.297 155.067 134.02C155.083 134.029 155.213 134.065 155.465 134.129C156.585 134.409 156.717 135.006 155.635 135.634C153.322 136.895 152.956 137.409 151.817 137.493C150.515 137.577 150.824 137.4 138.533 134.461ZM114.306 142.727L131.456 132.759L101.322 125.247L114.306 142.727Z" fill="#71D8F8"/>
<path d="M119.355 156.723L119.339 162.25C118.353 162.823 117.494 162.841 116.637 162.075L116.653 156.548C117.509 157.316 118.369 157.296 119.357 156.723H119.355Z" fill="#3A63DF"/>
<path d="M159.949 232.877C158.433 233.138 156.988 232.777 156.267 232.331C154.14 231.088 155.374 229.1 157.785 228.754C158.96 228.552 160.495 228.67 161.524 229.279C163.545 230.456 162.615 232.415 159.949 232.877Z" fill="#BBCFEF"/>
<path d="M148.124 210.904C147.581 212.068 146.597 213.349 145.492 213.995C143.708 215.018 142.249 214.19 142.249 212.145C142.249 210.095 143.654 207.631 145.469 206.554C148.083 205.054 149.629 207.543 148.124 210.904Z" fill="white"/>
<path d="M159.99 218.384L159.951 232.877C159.242 233 158.474 233 157.769 232.856C157.769 232.184 157.787 228.52 157.787 228.754L157.808 218.99L142.626 210.236C142.849 209.55 143.194 208.902 143.617 208.315C161.124 218.384 152.356 213.35 159.444 217.434C159.769 217.636 159.99 218 159.99 218.384Z" fill="#3D4449"/>
<path d="M179.191 222.127C177.728 222.991 175.264 222.95 173.937 222.127C171.807 220.884 173.041 218.893 175.453 218.55C176.628 218.348 178.162 218.466 179.191 219.073C180.646 219.925 180.646 221.277 179.191 222.127Z" fill="#BBCFEF"/>
<path d="M165.794 200.699C165.251 201.863 164.267 203.145 163.162 203.79C161.378 204.813 159.919 203.986 159.919 201.94C159.919 199.89 161.323 197.427 163.139 196.349C164.923 195.327 167.298 197.338 165.794 200.699Z" fill="white"/>
<path d="M177.656 208.179L177.615 222.672C176.91 222.794 176.14 222.794 175.433 222.651L175.453 218.549L175.474 208.785L160.292 200.031C160.515 199.344 160.858 198.697 161.283 198.11C178.79 208.179 170.022 203.144 177.11 207.229C177.433 207.431 177.656 207.794 177.656 208.179Z" fill="#3D4449"/>
<path d="M196.861 211.922C195.414 212.777 192.95 212.754 191.607 211.922C189.475 210.679 190.711 208.688 193.123 208.345C194.298 208.143 195.832 208.261 196.861 208.868C198.316 209.718 198.316 211.072 196.861 211.922Z" fill="#BBCFEF"/>
<path d="M184.046 187.993C184.046 189.488 183.301 191.197 182.265 192.322C180.408 194.668 177.585 194.677 177.585 191.736C177.585 189.652 179.035 187.195 180.805 186.145C182.59 185.122 184.046 185.947 184.046 187.993Z" fill="white"/>
<path d="M195.324 197.974L195.283 212.468C194.578 212.588 193.808 212.588 193.101 212.447L193.121 208.345L193.142 198.581L177.96 189.827C178.183 189.14 178.526 188.493 178.951 187.906C196.458 197.974 187.69 192.94 194.778 197.024C195.101 197.227 195.324 197.59 195.324 197.974Z" fill="#3D4449"/>
<path d="M214.53 201.718C213.082 202.572 210.619 202.55 209.273 201.718C207.144 200.475 208.38 198.484 210.791 198.138C211.964 197.938 213.5 198.057 214.53 198.666C215.985 199.513 215.985 200.87 214.53 201.718Z" fill="#BBCFEF"/>
<path d="M201.716 177.789C201.716 179.284 200.971 180.993 199.932 182.118C198.078 184.464 195.255 184.473 195.255 181.532C195.255 179.448 196.705 176.991 198.475 175.941C200.259 174.918 201.716 175.743 201.716 177.789Z" fill="white"/>
<path d="M212.991 187.77L212.95 202.264C212.243 202.384 211.473 202.384 210.768 202.243L210.789 198.139L210.807 188.375L195.625 179.625C195.848 178.936 196.193 178.289 196.618 177.702C214.125 187.77 205.357 182.736 212.445 186.82C212.768 187.023 212.991 187.386 212.991 187.77Z" fill="#3D4449"/>
<path d="M90.928 233.993C92.4416 234.252 93.8871 233.891 94.6052 233.447C96.7348 232.204 95.5007 230.213 93.0893 229.868C91.9143 229.668 90.3802 229.786 89.3507 230.395C87.8962 231.243 88.2598 233.531 90.928 233.993Z" fill="#BBCFEF"/>
<path d="M102.752 212.022C103.295 213.184 104.279 214.466 105.384 215.111C107.168 216.134 108.627 215.306 108.627 213.261C108.627 211.209 107.222 208.747 105.406 207.67C102.793 206.17 101.247 208.661 102.752 212.022Z" fill="white"/>
<path d="M90.8887 219.5L90.9296 233.993C91.6341 234.113 92.4046 234.113 93.1114 233.973L93.0705 220.104L103.948 213.838L108.252 211.352C108.025 210.664 107.69 210.016 107.261 209.432L91.4341 218.55C91.2712 218.65 91.136 218.79 91.0407 218.956C90.9455 219.121 90.8932 219.309 90.8887 219.5Z" fill="#3D4449"/>
<path d="M73.262 223.788C74.7756 224.047 76.2233 223.685 76.9392 223.242C79.0688 221.999 77.8347 220.008 75.4233 219.663C74.2483 219.463 72.7142 219.581 71.6847 220.19C70.2301 221.038 70.5938 223.326 73.262 223.788Z" fill="#BBCFEF"/>
<path d="M85.0828 201.817C85.3874 202.467 85.7783 203.099 86.2783 203.642C88.1351 205.988 90.9578 205.997 90.9578 203.056C90.9578 200.97 89.5078 198.515 87.7374 197.465C85.1238 195.965 83.5783 198.456 85.0828 201.817Z" fill="white"/>
<path d="M73.2207 209.295L73.2616 223.788C73.9662 223.908 74.7366 223.908 75.4434 223.767L75.4025 209.899L86.2798 203.633L90.5843 201.147C90.3566 200.459 90.0222 199.811 89.5934 199.227L73.7662 208.342C73.603 208.443 73.4675 208.583 73.3722 208.749C73.277 208.916 73.2249 209.103 73.2207 209.295Z" fill="#3D4449"/>
<path d="M55.592 213.584C57.1057 213.843 58.5534 213.481 59.2693 213.038C61.4011 211.795 60.1648 209.804 57.7534 209.459C56.5807 209.259 55.0443 209.377 54.0148 209.986C52.5602 210.834 52.9238 213.122 55.592 213.584Z" fill="#BBCFEF"/>
<path d="M67.4149 191.611C67.7194 192.263 68.1103 192.895 68.6126 193.438C70.4671 195.781 73.2899 195.793 73.2899 192.852C73.2899 190.8 71.8853 188.338 70.0694 187.261C67.4558 185.761 65.9103 188.25 67.4149 191.611Z" fill="white"/>
<path d="M55.5527 199.091L55.5936 213.584C56.2982 213.704 57.0686 213.704 57.7755 213.561L57.7368 199.697C57.9641 199.561 69.3323 193.013 68.6118 193.429L72.9164 190.943C72.6886 190.255 72.3543 189.607 71.9255 189.022L56.0982 198.138C55.9353 198.239 55.8001 198.378 55.7048 198.544C55.6095 198.71 55.5573 198.899 55.5527 199.091Z" fill="#3D4449"/>
<path d="M37.9245 203.379C39.4381 203.638 40.8858 203.277 41.604 202.834C43.0586 201.984 43.0586 200.629 41.6222 199.779C40.204 198.941 37.7108 198.975 36.3495 199.779C34.3268 200.959 35.2586 202.918 37.9245 203.379Z" fill="#BBCFEF"/>
<path d="M49.7469 181.407C50.2924 182.57 51.2742 183.852 52.381 184.498C54.1651 185.52 55.6219 184.691 55.6219 182.648C55.6219 180.595 54.2174 178.134 52.4015 177.057C49.7878 175.557 48.2424 178.045 49.7469 181.407Z" fill="white"/>
<path d="M37.8848 188.887L37.9257 203.38C38.6325 203.5 39.4029 203.5 40.1075 203.357L40.0689 189.493L55.2507 180.739C55.0222 180.051 54.6871 179.403 54.2575 178.818L38.4302 187.932C38.2673 188.032 38.1321 188.172 38.0368 188.338C37.9416 188.504 37.8893 188.691 37.8848 188.882V188.887Z" fill="#3D4449"/>
<g opacity="0.7">
<path d="M189.092 53.3997L189.056 134.052C189.056 134.813 188.565 135.563 187.57 136.136L128.199 170.636C126.208 171.807 122.954 171.807 120.949 170.636L61.2083 136.145C60.1878 135.561 59.6855 134.788 59.6855 134.027L59.7196 53.3975C59.7196 54.1475 60.2355 54.9202 61.231 55.4929L120.974 89.9815C122.988 91.1406 126.231 91.1406 128.233 89.9815L187.592 55.4838C188.588 54.9111 189.081 54.1611 189.092 53.3997Z" fill="url(#paint0_linear_733_263)"/>
<path d="M187.573 51.2814C189.584 52.4428 189.595 54.3269 187.595 55.486L128.232 89.986C126.234 91.1451 122.986 91.1451 120.975 89.986L61.2295 55.4928C59.2182 54.3314 59.2068 52.4474 61.2068 51.2883L120.57 16.7883C122.568 15.6292 125.816 15.6292 127.827 16.7883L187.573 51.2814Z" fill="url(#paint1_linear_733_263)"/>
</g>
<defs>
<linearGradient id="paint0_linear_733_263" x1="124.388" y1="195.663" x2="124.388" y2="38.1566" gradientUnits="userSpaceOnUse">
<stop offset="0.313" stop-color="#5677E1" stop-opacity="0.7"/>
<stop offset="0.474" stop-color="#5677E1" stop-opacity="0.535"/>
<stop offset="0.723" stop-color="#5677E1" stop-opacity="0.283"/>
<stop offset="1" stop-color="#5677E1"/>
</linearGradient>
<linearGradient id="paint1_linear_733_263" x1="124.402" y1="195.663" x2="124.402" y2="38.1564" gradientUnits="userSpaceOnUse">
<stop offset="0.313" stop-color="#5677E1" stop-opacity="0.7"/>
<stop offset="0.474" stop-color="#5677E1" stop-opacity="0.535"/>
<stop offset="0.723" stop-color="#5077F4" stop-opacity="0.31"/>
<stop offset="1" stop-color="#5677E1" stop-opacity="0"/>
</linearGradient>
</defs>
</svg>
