<svg width="250" height="250" viewBox="0 0 250 250" fill="none" xmlns="http://www.w3.org/2000/svg">
<path d="M161.203 93.7005L182.083 81.5664L203.099 93.7028M234.089 103.994L217.489 113.637L200.78 103.991L217.38 94.3437L234.089 103.994Z" stroke="#CCD0D9" stroke-width="1.13636" stroke-miterlimit="1" stroke-linecap="round" stroke-linejoin="round"/>
<path d="M218.195 151.578L217.809 151.794L131.261 202.08C127.984 203.985 122.636 203.985 119.359 202.08L31.8705 151.578C28.5455 149.673 28.5205 146.566 31.8228 144.662L118.732 94.1618C122.009 92.2573 127.359 92.2573 130.659 94.1618L218.148 144.685C221.425 146.566 221.473 149.673 218.195 151.578Z" fill="#3A63DF"/>
<path d="M217.817 151.796C217.587 151.928 200.135 162.053 201.249 161.409L131.272 202.091C127.976 203.978 122.635 203.978 119.362 202.091L32.1807 151.75L118.726 101.455C122.022 99.5684 127.362 99.5684 130.658 101.455L217.817 151.796Z" fill="#4F91FF"/>
<path d="M114.632 212.363L22.968 159.454C13.5407 154.027 13.5543 142.211 22.9111 136.792L113.984 83.8857C120.223 80.2834 129.336 80.3402 135.379 83.8925L227.025 136.817C236.395 142.145 236.513 154.004 227.116 159.454L136.036 212.358C129.736 215.961 120.829 215.902 114.632 212.363Z" stroke="#CCD0D9" stroke-width="1.13636" stroke-miterlimit="1" stroke-linecap="round" stroke-linejoin="round"/>
<path d="M203.098 150.995L203.076 160.397L131.421 202.056C128.046 203.988 122.578 203.988 119.226 202.056L46.9189 160.306L46.9417 150.995C46.9417 151.881 47.5712 152.836 48.7576 153.509L120.878 195.145C123.298 196.541 127.233 196.541 129.628 195.145L201.283 153.509C202.494 152.811 203.073 151.904 203.098 150.995Z" fill="#DBDFE6"/>
<path d="M201.281 153.51L129.626 195.146C127.231 196.541 123.297 196.541 120.876 195.146L48.7557 153.51C46.3352 152.114 46.3352 149.832 48.733 148.437L120.388 106.8C122.808 105.405 126.717 105.405 129.138 106.8L201.258 148.437C203.678 149.832 203.701 152.114 201.281 153.51Z" fill="white"/>
<path d="M144.272 79.3711L144.21 101.214L122.708 113.712L122.769 91.8666L144.272 79.3711Z" fill="#CBDBF4"/>
<path d="M122.769 91.8666L122.708 113.712L101.064 101.217L101.126 79.3711L122.769 91.8666Z" fill="#DBE6FA"/>
<path d="M144.269 79.3705L122.769 91.8659L101.124 79.3705L122.626 66.875L144.269 79.3705Z" fill="white"/>
<path d="M150.629 107.952L150.568 129.798L128.925 117.3L128.986 95.457L150.629 107.952Z" fill="#DBE6FA"/>
<path d="M172.132 95.4541L150.632 107.952L128.986 95.4564L150.489 82.9609L172.132 95.4541Z" fill="white"/>
<path d="M150.629 81.0814L150.568 102.925L128.925 90.4291L128.986 68.5859L150.629 81.0814Z" fill="#DBE6FA"/>
<path d="M117.671 94.8275L117.607 116.673L96.1074 129.168L96.1665 107.325L117.671 94.8275ZM117.671 67.957L117.607 89.8025L96.1074 102.298L96.1665 80.4548L117.671 67.957ZM145.532 110.914L145.469 132.759L123.969 145.255L124.03 123.409L145.532 110.914Z" fill="#CBDBF4"/>
<path d="M124.031 123.41L123.967 145.255L102.324 132.76L102.388 110.914L124.031 123.41Z" fill="#DBE6FA"/>
<path d="M145.533 110.913L124.031 123.409L102.388 110.913L123.888 98.418L145.533 110.913Z" fill="white"/>
<path d="M145.536 84.0459L145.473 105.887L123.973 118.385L124.034 96.5391L145.536 84.0459Z" fill="#CBDBF4"/>
<path d="M124.031 96.5384L123.967 118.384L102.324 105.888L102.388 84.043L124.031 96.5384Z" fill="#DBE6FA"/>
<path d="M145.533 84.0456L124.031 96.5388L102.388 84.0433L123.888 71.5479L145.533 84.0456Z" fill="white"/>
<path d="M145.536 57.1729L145.473 79.0183L123.973 91.5138L124.034 69.6683L145.536 57.1729Z" fill="#CBDBF4"/>
<path d="M124.031 69.6683L123.967 91.5138L102.324 79.0183L102.388 57.1729L124.031 69.6683Z" fill="#DBE6FA"/>
<path d="M145.533 57.1722L124.031 69.6677L102.388 57.1722L123.888 44.6768L145.533 57.1722Z" fill="#EBF2FF"/>
<path d="M173.397 127L173.335 148.845L151.833 161.341L151.894 139.495L173.397 127Z" fill="#CBDBF4"/>
<path d="M151.893 139.495L151.832 161.341L130.187 148.845L130.25 127L151.893 139.495Z" fill="#DBE6FA"/>
<path d="M173.393 127L151.891 139.496L130.248 127L151.748 114.505L173.393 127Z" fill="white"/>
<path d="M173.397 100.129L173.335 121.974L151.833 134.47L151.894 112.624L173.397 100.129Z" fill="#5677E1"/>
<path d="M151.893 112.624L151.832 134.47L130.187 121.974L130.25 100.129L151.893 112.624Z" fill="#3851A2"/>
<path d="M173.393 100.13L151.891 112.626L130.248 100.13L151.748 87.6348L173.393 100.13Z" fill="#5F85FF"/>
<path d="M173.397 73.2598L173.335 95.1052L151.833 107.601L151.894 85.7552L173.397 73.2598Z" fill="#CBDBF4"/>
<path d="M151.893 85.7552L151.832 107.601L130.187 95.1052L130.25 73.2598L151.893 85.7552Z" fill="#DBE6FA"/>
<path d="M173.393 73.2591L151.891 85.7546L130.248 73.2591L151.748 60.7637L173.393 73.2591Z" fill="#EBF2FF"/>
<path d="M118.933 126.373L118.871 148.216L97.3691 160.712L97.4305 138.869L118.933 126.373Z" fill="#CBDBF4"/>
<path d="M97.4321 138.869L97.3707 160.712L75.7275 148.216L75.7889 126.373L97.4321 138.869Z" fill="#DBE6FA"/>
<path d="M118.933 126.372L97.4303 138.868L75.7871 126.372L97.2871 113.877L118.933 126.372Z" fill="white"/>
<path d="M118.933 99.5L118.871 121.345L97.3691 133.841L97.4305 111.998L118.933 99.5Z" fill="#CBDBF4"/>
<path d="M97.4321 111.997L97.3707 133.841L75.7275 121.345L75.7889 99.502L97.4321 111.997Z" fill="#DBE6FA"/>
<path d="M118.933 99.5L97.4303 111.998L75.7871 99.5023L97.2871 87.0068L118.933 99.5Z" fill="white"/>
<path d="M118.933 72.6318L118.871 94.475L97.3691 106.97L97.4305 85.1273L118.933 72.6318Z" fill="#3A63DF"/>
<path d="M97.4321 85.1273L97.3707 106.97L75.7275 94.475L75.7889 72.6318L97.4321 85.1273Z" fill="#457AEF"/>
<path d="M118.933 72.6312L97.4303 85.1267L75.7871 72.6312L97.2871 60.1357L118.933 72.6312Z" fill="#4F91FF"/>
<path d="M146.798 142.459L146.735 164.302L125.232 176.798L125.294 154.954L146.798 142.459Z" fill="#5677E1"/>
<path d="M125.292 154.954L125.231 176.798L103.588 164.302L103.649 142.459L125.292 154.954Z" fill="#3851A2"/>
<path d="M146.8 142.459L125.296 154.954L103.652 142.459L125.155 129.961L146.8 142.459Z" fill="#5F85FF"/>
<path d="M146.798 115.589L146.735 137.432L125.232 149.928L125.294 128.084L146.798 115.589Z" fill="#CBDBF4"/>
<path d="M125.292 128.084L125.231 149.928L103.588 137.432L103.649 115.589L125.292 128.084Z" fill="#DBE6FA"/>
<path d="M146.8 115.589L125.296 128.084L103.652 115.589L125.155 103.091L146.8 115.589Z" fill="white"/>
<path d="M146.798 88.7178L146.735 110.561L125.232 123.056L125.294 101.213L146.798 88.7178Z" fill="#CBDBF4"/>
<path d="M125.292 101.213L125.231 123.056L103.588 110.561L103.649 88.7178L125.292 101.213Z" fill="#DBE6FA"/>
<path d="M146.8 88.7184L125.296 101.214L103.652 88.7184L125.155 76.2207L146.8 88.7184Z" fill="#EBF2FF"/>
<g opacity="0.3">
<path d="M125.291 104.055L125.132 187.442L192.655 148.192L192.814 64.8281L125.291 104.055ZM185.836 144.283L131.973 175.578L132.109 107.987L185.973 76.6918L185.836 144.283Z" fill="#5677E1"/>
<path d="M57.3378 64.8281L57.1787 148.192L125.133 187.442L125.292 104.055L57.3378 64.8281ZM118.338 175.646L63.9969 144.26L64.1333 76.6236L118.474 107.987L118.338 175.646Z" fill="#5677E1"/>
<path d="M124.838 25.5771L57.3379 64.8271L125.292 104.054L192.815 64.8271L124.838 25.5771ZM70.9288 64.8044L124.861 33.4635L179.202 64.8499L125.292 96.1681L70.9288 64.8044Z" fill="#5677E1"/>
</g>
<path d="M234.088 82.9541L234.038 99.8177L217.44 109.465L217.486 92.6018L234.088 82.9541Z" fill="#5677E1"/>
<path d="M217.49 92.6025L217.442 109.466L200.733 99.8207L200.781 82.957L217.49 92.6025Z" fill="#3851A2"/>
<path d="M234.088 82.955L217.488 92.6027L200.779 82.9573L217.379 73.3096L234.088 82.955Z" fill="#5F85FF"/>
<path d="M49.2619 206.709L32.6619 216.355L15.9551 206.709L32.5528 197.062L49.2619 206.709Z" stroke="#CCD0D9" stroke-width="1.13636" stroke-miterlimit="1" stroke-linecap="round" stroke-linejoin="round"/>
<path d="M92.8778 199.809L55.621 221.459L39.6982 212.265" stroke="#CCD0D9" stroke-width="1.13636" stroke-miterlimit="1" stroke-linecap="round" stroke-linejoin="round"/>
<path d="M49.26 185.673L49.2123 202.536L32.6123 212.182L32.66 195.318L49.26 185.673Z" fill="#5677E1"/>
<path d="M32.6608 195.318L32.6153 212.182L15.9062 202.536L15.9517 185.673L32.6608 195.318Z" fill="#3851A2"/>
<path d="M49.2619 185.673L32.6619 195.321L15.9551 185.673L32.5528 176.025L49.2619 185.673Z" fill="#5F85FF"/>
<path d="M198.587 209.318L215.587 219.196L232.698 209.316L215.698 199.437L198.587 209.318Z" stroke="#CCD0D9" stroke-width="1.13636" stroke-miterlimit="1" stroke-linecap="round" stroke-linejoin="round"/>
<path d="M153.92 202.25L192.074 224.423L208.381 215.007" stroke="#CCD0D9" stroke-width="1.13636" stroke-miterlimit="1" stroke-linecap="round" stroke-linejoin="round"/>
<path d="M198.587 187.772L198.637 205.043L215.637 214.922L215.587 197.652L198.587 187.772Z" fill="#3851A2"/>
<path d="M215.585 197.652L215.635 214.922L232.746 205.043L232.696 187.772L215.585 197.652Z" fill="#5677E1"/>
<path d="M198.587 187.773L215.587 197.653L232.698 187.773L215.698 177.894L198.587 187.773Z" fill="#5F85FF"/>
<path d="M132.112 107.982L185.969 76.682L185.846 144.273L131.987 175.575L132.112 107.982ZM64.0098 144.266L64.1348 76.6139L118.476 107.987L118.351 175.639L64.0098 144.266ZM70.9416 64.798L124.862 33.4639L179.207 64.8411L125.289 96.1752L70.9416 64.798Z" fill="white" fill-opacity="0.25098"/>
</svg>
