<svg width="250" height="250" viewBox="0 0 250 250" fill="none" xmlns="http://www.w3.org/2000/svg">
<path d="M104.652 229.386L32.2086 187.143C26.72 183.963 24.0791 179.743 24.0382 175.682L24.0109 170.925C23.9882 175.1 26.6927 161.138 32.1813 164.316L104.625 206.561L104.652 229.386ZM144.434 229.384L144.402 206.559L217.379 164.45C222.902 161.368 225.654 175.2 225.679 171.025L225.77 175.668C225.747 179.843 222.995 184.082 217.406 187.279L144.434 229.384Z" fill="#4F91FF"/>
<path d="M144.386 206.557L144.434 229.313C133.354 235.693 115.564 235.673 104.654 229.313L104.604 206.559C115.514 212.918 133.304 212.938 144.384 206.559L144.386 206.557Z" fill="#457AEF"/>
<path d="M217.557 159.582L145.126 117.368C134.13 110.959 116.341 110.941 105.344 117.275L32.3279 159.323C21.2483 165.705 21.1779 176.009 32.1688 182.416L104.605 224.63C115.514 230.989 133.305 231.009 144.385 224.63L217.398 182.58C228.398 176.246 228.466 165.939 217.557 159.58V159.582Z" fill="#3C6AFF"/>
<path d="M170.079 141.405C195.261 155.943 195.395 179.471 170.434 193.975C145.415 208.514 104.797 208.514 79.6154 193.975C54.4904 179.471 54.3585 155.943 79.379 141.405C104.338 126.9 144.954 126.898 170.079 141.405Z" fill="white"/>
<path d="M165.176 143.737C187.626 156.698 187.745 177.673 165.495 190.605C143.188 203.566 106.979 203.566 84.5263 190.605C62.1286 177.673 62.0127 156.701 84.3172 143.737C106.567 130.805 142.779 130.805 165.176 143.737Z" fill="#457AEF"/>
<path d="M84.3167 150.087C106.567 137.155 142.778 137.155 165.176 150.087C175.053 155.791 180.599 163.041 181.826 170.48C183.405 160.939 177.858 151.06 165.176 143.737C142.778 130.805 106.569 130.805 84.3167 143.737C71.8122 151.005 66.3622 160.789 67.9281 170.264C69.144 162.903 74.5985 155.735 84.3167 150.087Z" fill="#3A63DF"/>
<path d="M160.168 168.363C159.854 168.363 159.554 168.239 159.332 168.017C159.11 167.796 158.986 167.495 158.986 167.181C158.986 156.563 143.677 147.927 124.856 147.927C124.697 147.934 124.538 147.909 124.388 147.852C124.239 147.796 124.103 147.71 123.987 147.6C123.872 147.49 123.78 147.357 123.718 147.21C123.655 147.064 123.623 146.906 123.623 146.746C123.623 146.587 123.655 146.429 123.718 146.282C123.78 146.135 123.872 146.003 123.987 145.892C124.103 145.782 124.239 145.696 124.388 145.64C124.538 145.584 124.697 145.559 124.856 145.566C144.977 145.566 161.347 155.263 161.347 167.179C161.347 167.493 161.223 167.793 161.001 168.015C160.779 168.237 160.479 168.361 160.165 168.361L160.168 168.363ZM124.856 188.795C104.736 188.795 88.3654 179.1 88.3654 167.181C88.3584 167.022 88.3838 166.863 88.4399 166.714C88.4961 166.564 88.582 166.428 88.6923 166.313C88.8026 166.197 88.9351 166.106 89.0819 166.043C89.2286 165.98 89.3865 165.948 89.5461 165.948C89.7056 165.948 89.8635 165.98 90.0103 166.043C90.157 166.106 90.2895 166.197 90.3999 166.313C90.5102 166.428 90.596 166.564 90.6522 166.714C90.7084 166.863 90.7337 167.022 90.7268 167.181C90.7268 177.797 106.036 186.436 124.856 186.436C125.016 186.429 125.175 186.454 125.324 186.511C125.474 186.567 125.61 186.653 125.725 186.763C125.841 186.873 125.932 187.006 125.995 187.153C126.058 187.299 126.09 187.457 126.09 187.617C126.09 187.776 126.058 187.934 125.995 188.081C125.932 188.228 125.841 188.36 125.725 188.471C125.61 188.581 125.474 188.667 125.324 188.723C125.175 188.779 125.016 188.802 124.856 188.795Z" fill="white"/>
<path d="M19.5986 27.4092C19.5986 27.4092 69.1759 174.65 69.1759 174.693C71.5395 180.541 76.7168 186.093 84.585 190.627C106.996 203.559 143.124 203.559 165.385 190.627C172.469 186.543 177.344 181.641 179.894 176.432C180.605 175.268 181.201 174.027 181.801 172.752L230.403 27.4092H19.5986Z" fill="url(#paint0_linear_733_430)"/>
<path d="M167.63 98.2885L151.848 29.9316L74.8369 74.6816L90.6187 143.041C91.1824 145.116 92.6505 147.136 94.2687 148.075C95.3665 148.702 96.3437 148.757 97.0574 148.341L174.069 103.588C171.739 104.943 168.453 101.318 167.63 98.2885Z" fill="#4F91FF"/>
<path d="M151.844 29.9319L148.308 29.416L70.6484 73.3933L74.8371 74.6842L151.844 29.9319Z" fill="#5887D5"/>
<path d="M166.019 68.7319L103.449 105.091C103.226 105.2 102.949 105.2 102.614 105.007L99.0327 102.925C98.3667 102.561 97.8667 101.648 97.8667 100.925L98.0054 61.366C98.0054 59.2523 96.6122 56.5114 94.3417 55.2296C87.344 51.5932 79.8758 52.316 79.5713 52.3432L142.142 15.9841C142.449 15.9569 149.917 15.2341 156.914 18.8705C159.233 20.216 160.578 22.9228 160.578 25.0069L160.41 64.5682C160.41 65.2887 160.937 66.2046 161.576 66.5682L165.185 68.6478C165.489 68.8432 165.799 68.8432 166.019 68.7319Z" fill="#EBF2FF"/>
<path d="M165.187 68.648L161.578 66.5662C160.94 66.2048 160.412 65.2889 160.412 64.5662L160.501 36.1025C159.062 36.7412 166.778 32.4321 100.128 71.148C99.1055 71.9139 98.3828 73.0071 97.9373 74.2889L97.8691 100.925C97.8691 101.648 98.3691 102.562 99.0328 102.925L102.615 105.007C102.949 105.2 103.226 105.2 103.449 105.091L108.471 102.171L108.524 84.323L112.137 86.4184L112.115 100.055L166.019 68.7321C165.796 68.8434 165.492 68.8434 165.187 68.648Z" fill="#DBE6FA"/>
<path d="M161.61 45.127C161.414 45.2383 161.276 45.4883 161.276 45.877L161.192 73.6951C161.192 74.7792 160.805 75.5565 160.164 75.9179L105.114 107.922C105.723 107.559 106.114 106.784 106.114 105.7L106.196 77.8815C106.196 77.4929 106.335 77.2429 106.53 77.1315L161.61 45.127Z" fill="#EBF2FF"/>
<path d="M109.884 75.9661L107.379 74.5207C105.448 73.407 103.875 74.3025 103.868 76.5207L103.789 104.343C103.789 105.08 103.261 105.38 102.62 105.009L99.0226 102.932C98.3817 102.562 97.859 101.657 97.8612 100.921L98.0112 61.3593C98.0181 59.2684 96.6203 56.5207 94.3521 55.2184C87.3521 51.582 79.8908 52.3116 79.5771 52.3479L80.759 55.3389C80.8271 55.3298 88.0408 54.6252 94.5158 57.9934C95.1408 58.3548 95.6794 59.2434 95.6771 60.0139L95.5271 99.5729C95.5203 101.784 97.0885 104.496 99.0135 105.609L102.614 107.687C104.545 108.8 106.118 107.905 106.125 105.691L106.202 77.8707C106.204 77.1343 106.725 76.832 107.373 77.2048L109.884 78.6525V75.9661Z" fill="#BBCFEF"/>
<path d="M107.378 74.5231C105.446 73.4072 103.873 74.3026 103.866 76.5231L103.789 104.344C103.784 105.08 103.259 105.38 102.619 105.009L101.9 104.594V107.275L102.612 107.687C104.544 108.8 106.116 107.905 106.123 105.691L106.2 77.8708C106.203 77.1345 106.723 76.8322 107.371 77.2049L109.882 78.6526V75.9663L107.378 74.5231Z" fill="#BBCFEF"/>
<path d="M179.1 44.2363L178.984 103.259C178.973 105.684 178.112 107.386 176.739 108.186L99.7275 152.936C101.114 152.141 101.964 150.436 101.973 148.009L102.103 88.9886L179.1 44.2363Z" fill="#4F91FF"/>
<path d="M98.3252 86.8135L175.334 42.0635L179.105 44.2385L102.098 88.9885L98.3252 86.8135Z" fill="#3968B6"/>
<path d="M74.8374 74.6822L90.6215 143.037C91.1874 145.116 92.651 147.134 94.2738 148.071C96.4351 149.321 98.1942 148.309 98.201 145.834L98.326 86.8117L102.099 88.9913L101.971 148.012C101.958 152.884 98.5033 154.853 94.2624 152.405C91.076 150.564 88.1874 146.591 87.0829 142.519L70.6465 73.3936L74.8374 74.6822Z" fill="#3968B6"/>
<path d="M172.602 52.402L172.466 106.795L117.384 138.8L117.522 84.4043C117.55 82.1838 115.968 79.4906 114.052 78.3815L107.391 74.5224C106.418 73.9656 105.527 73.9111 104.891 74.2724L159.97 42.2679C160.582 41.9065 161.47 41.9611 162.441 42.5179L169.104 46.377C171.047 47.4861 172.604 50.1793 172.604 52.3997L172.602 52.402Z" fill="#EBF2FF"/>
<path d="M114.047 78.3707L108.797 75.3389L107.372 77.2025L114.04 81.0548C114.679 81.423 115.202 82.3275 115.199 83.0639L115.049 137.446L117.383 138.791L117.536 84.4116C117.54 82.1934 115.972 79.4821 114.047 78.3707Z" fill="#BBCFEF"/>
<defs>
<linearGradient id="paint0_linear_733_430" x1="125.001" y1="202.25" x2="125.001" y2="36.7478" gradientUnits="userSpaceOnUse">
<stop stop-color="#5677E1"/>
<stop offset="0.236" stop-color="#5677E1" stop-opacity="0.764"/>
<stop offset="0.487" stop-color="#5677E1" stop-opacity="0.513"/>
<stop offset="0.74" stop-color="#5677E1" stop-opacity="0.26"/>
<stop offset="1" stop-color="#5677E1" stop-opacity="0"/>
</linearGradient>
</defs>
</svg>
