<svg width="250" height="250" viewBox="0 0 250 250" fill="none" xmlns="http://www.w3.org/2000/svg">
<path d="M128.806 165.604L128.783 174.667C128.783 175.185 128.447 175.699 127.767 176.09L87.217 199.651C85.8579 200.451 83.6352 200.451 82.267 199.651L41.4625 176.099C40.767 175.699 40.4238 175.169 40.4238 174.651L40.4466 165.604C40.4466 166.115 40.7988 166.642 41.4784 167.035L82.2829 190.588C83.6579 191.381 85.8738 191.381 87.242 190.588L127.783 167.026C128.462 166.635 128.799 166.124 128.806 165.604Z" fill="#DBDFE6"/>
<path d="M127.783 167.026L87.2425 190.59C85.8743 191.383 83.6584 191.383 82.2834 190.59L72.6016 184.999V194.074L82.2675 199.654C83.6356 200.454 85.8584 200.454 87.2175 199.654L127.767 176.09C128.447 175.699 128.783 175.185 128.783 174.667L128.806 165.604C128.799 166.124 128.463 166.635 127.783 167.026Z" fill="#CCD0D9"/>
<path d="M127.783 167.026L110.47 177.09V186.142L127.765 176.09C128.447 175.699 128.783 175.185 128.783 174.667L128.806 165.604C128.799 166.124 128.463 166.635 127.783 167.026Z" fill="#BCC1CB"/>
<path d="M127.77 164.159C129.143 164.952 129.15 166.236 127.786 167.029L87.2408 190.591C85.8771 191.386 83.6567 191.386 82.284 190.591L41.4794 167.034C40.1067 166.238 40.0999 164.954 41.4635 164.161L82.009 140.6C83.3726 139.807 85.5908 139.807 86.9635 140.6L127.77 164.159Z" fill="#EBEEF4"/>
<path d="M111.728 166.491C76.8464 186.782 88.8782 179.786 86.2736 181.298C85.4123 181.793 84.0123 181.793 83.1486 181.298L57.5236 166.491C56.66 165.995 56.66 165.198 57.5009 164.702L82.9782 149.898C83.8396 149.4 85.2395 149.4 86.1032 149.898L111.728 164.702C112.592 165.198 112.592 165.998 111.728 166.491Z" fill="#3A63E7"/>
<path d="M109.551 167.763L86.2735 181.295C85.4122 181.791 84.0122 181.791 83.1485 181.295L59.6826 167.741L82.9781 154.207C83.8417 153.711 85.2417 153.711 86.1053 154.207L109.551 167.763Z" fill="#5677E1"/>
<path d="M146.104 168.891C148.061 170.022 148.072 171.854 146.126 172.982L88.3538 206.559C86.4083 207.688 83.2469 207.688 81.2878 206.559L23.1447 172.988C21.1878 171.859 21.1765 170.027 23.1219 168.897L80.8947 135.322C82.8401 134.191 86.0015 134.191 87.9583 135.322L146.104 168.891Z" stroke="#4F575F" stroke-width="1.13636" stroke-miterlimit="1" stroke-linecap="round" stroke-linejoin="round"/>
<path d="M93.8983 172.765C88.5187 175.902 79.7892 175.867 74.3755 172.731C68.9642 169.595 68.9301 164.581 74.3096 161.461C79.6892 158.324 88.3687 158.324 93.7824 161.461C99.1937 164.581 99.296 169.629 93.8983 172.765Z" fill="#39C988" fill-opacity="0.25098"/>
<path d="M90.0902 170.567C86.7993 172.483 81.4629 172.463 78.1538 170.545C74.8447 168.629 74.8243 165.561 78.1129 163.654C81.4016 161.738 86.7084 161.738 90.0197 163.654C93.3288 165.563 93.3879 168.649 90.0879 170.565L90.0902 170.567Z" fill="#28AF6E" fill-opacity="0.25098"/>
<path d="M122.663 42.8127C122.652 46.4491 121.368 49.0082 119.3 50.2105L113.748 53.4377C115.816 52.2332 117.098 49.6764 117.111 46.0377C117.132 38.7286 111.991 29.8105 105.62 26.1332C102.418 24.2877 99.5157 24.115 97.418 25.3332L102.975 22.1059C105.068 20.8877 107.973 21.0605 111.173 22.9082C117.543 26.5855 122.684 35.5014 122.663 42.8127Z" fill="#CBDBF4"/>
<path d="M122.662 42.8173C122.662 46.4537 121.366 48.9991 119.298 50.2037L113.753 53.4309C115.821 52.2264 117.093 49.6809 117.116 46.0446C117.139 38.7264 112.003 29.8173 105.616 26.1355L111.184 22.9082C117.548 26.59 122.684 35.4991 122.662 42.8173Z" fill="#BBCFEF"/>
<path d="M122.66 42.8174C122.66 46.4537 121.365 48.9992 119.296 50.2037L113.751 53.431C115.819 52.2265 117.092 49.681 117.115 46.0447L122.66 42.8174Z" fill="#CBDBF4"/>
<path d="M105.621 26.1355C111.989 29.8127 117.132 38.7264 117.112 46.04C117.089 53.3582 111.914 56.3082 105.543 52.6309C99.1797 48.9559 94.0343 40.0491 94.0547 32.7286C94.0775 25.4173 99.2547 22.4605 105.621 26.1377V26.1355Z" fill="#F04343"/>
<path d="M138.365 93.8176C138.365 102.386 131.41 109.34 122.842 109.34C120.805 109.339 118.788 108.937 116.906 108.157C115.024 107.376 113.315 106.232 111.876 104.791C110.436 103.349 109.295 101.638 108.517 99.7552C107.739 97.8724 107.34 95.8548 107.342 93.8176C107.342 85.0767 114.494 78.2949 122.842 78.2949C131.41 78.2949 138.365 85.2495 138.365 93.8176Z" fill="#CBDBF4"/>
<path d="M132.637 94.6589C132.637 101.432 128.274 107.204 122.205 109.295C113.933 109 107.342 102.182 107.342 93.818C107.342 87.0453 111.683 81.2725 117.751 79.1816C126.024 79.4771 132.637 86.2953 132.637 94.6589Z" fill="#DBE6FA"/>
<path d="M122.842 114.522C122.842 136.454 112.342 169.272 84.615 168.363C72.0922 167.954 62.7059 160.386 56.3877 150.158C49.6831 139.408 46.3877 125.772 46.3877 114.522C46.3877 92.5901 63.5013 74.8174 84.615 74.8174C106.001 74.8174 122.842 92.9083 122.842 114.522Z" fill="#CBDBF4"/>
<path d="M112.888 103.102C112.888 125.034 102.388 157.852 74.6604 156.943C67.5695 156.716 61.4786 154.193 56.3877 150.17C49.6831 139.42 46.3877 125.784 46.3877 114.534C46.3877 106.057 48.9559 98.1929 53.3422 91.7383C65.7854 73.2565 90.4104 69.4383 107.433 82.6929C110.956 88.6633 112.888 95.7565 112.888 103.102Z" fill="#DBE6FA"/>
<path d="M101.41 76.2811C111.465 82.0857 111.622 91.4584 101.633 97.263C91.6446 103.068 75.465 103.008 65.4105 97.2039C55.356 91.3993 55.306 82.0857 65.2923 76.2811C75.281 70.4766 91.3559 70.4766 101.41 76.2811Z" fill="#4F575F"/>
<path d="M43.2051 57.3973C43.2051 35.67 60.8187 18.0791 82.5233 18.0791C104.471 18.0791 121.864 35.9018 121.864 57.3973C121.864 79.1246 104.251 96.7155 82.5233 96.7155C60.9733 96.7155 43.2051 79.2382 43.2051 57.3973Z" fill="#DBE6FA"/>
<path d="M55.2979 65.7378C55.2979 44.0333 72.8888 26.4424 94.5933 26.4424C100.298 26.4424 105.707 27.6469 110.593 29.8515C117.571 36.9651 121.866 46.6697 121.866 57.3969C121.866 79.1242 104.252 96.7151 82.5252 96.7151C76.8433 96.7151 71.457 95.5106 66.5933 93.3287C59.3442 85.9765 55.2857 76.0629 55.2979 65.7378Z" fill="#EBF2FF"/>
<path d="M56.2056 111.977C56.2056 120.545 49.2511 127.499 40.6829 127.499C32.0488 127.499 25.1602 120.438 25.1602 111.977C25.1602 103.408 32.1147 96.4766 40.6829 96.4766C49.1829 96.4766 56.2056 103.358 56.2056 111.977Z" fill="#BBCFEF"/>
<path d="M49.6602 107.829C49.6602 118.466 39.1943 125.856 29.3647 122.579C26.6594 119.717 25.1546 115.927 25.1602 111.988C25.1602 103.42 32.1147 96.4883 40.6829 96.4883C42.342 96.4883 43.9556 96.7383 45.4556 97.261C48.1675 100.11 49.6739 103.896 49.6602 107.829Z" fill="#CBDBF4"/>
<path d="M36.9779 126.363C35.4938 126.688 33.4733 126.017 32.462 124.867C31.4552 123.729 31.8165 122.542 33.3029 122.213C35.5756 121.72 38.7665 123.567 38.3552 125.27C38.2324 125.786 37.7597 126.192 36.9779 126.365V126.363Z" fill="#4F575F"/>
<path d="M37.217 125.543L28.5238 148.529C28.3627 148.961 28.0743 149.333 27.6968 149.597C27.3194 149.861 26.8707 150.003 26.4102 150.007C24.8193 150.007 23.7261 148.416 24.2738 146.916L32.967 123.929C33.5715 122.341 37.8215 123.954 37.217 125.543Z" fill="#5677E1"/>
<path d="M132.027 100.29C130.695 101.058 129.623 100.44 129.611 98.9153C129.605 96.5675 132.073 93.788 133.648 94.5448C135.268 95.3175 134.202 99.0403 132.027 100.29Z" fill="#4F575F"/>
<path d="M158.479 109.443C158.304 109.851 158.012 110.198 157.64 110.441C157.268 110.684 156.832 110.811 156.388 110.806C155.454 110.806 156.506 110.986 131.365 100.056C129.76 99.3564 131.579 95.1746 133.183 95.8746L157.32 106.443C158.456 106.965 158.979 108.306 158.479 109.443Z" fill="#5677E1"/>
<path d="M70.4583 72.9542C70.447 76.5906 69.1629 79.1474 67.0947 80.3497L61.5424 83.577C63.6106 82.3724 64.8924 79.8156 64.9061 76.1792C64.9265 68.8679 59.7856 59.952 53.4152 56.2747C50.2129 54.4292 47.3106 54.2542 45.2129 55.4747L50.7697 52.2474C52.8629 51.0292 55.7674 51.1997 58.9674 53.0474C65.3379 56.727 70.4788 65.6451 70.4583 72.9542Z" fill="#CBDBF4"/>
<path d="M70.4556 72.954C70.4556 76.5904 69.1602 79.1586 67.092 80.3404L61.5465 83.5676C63.6147 82.3631 64.8874 79.8176 64.9102 76.1813C64.9329 68.8631 59.7738 59.954 53.4102 56.2722L58.9783 53.0449C65.342 56.7267 70.4783 65.6358 70.4556 72.954Z" fill="#BBCFEF"/>
<path d="M70.455 72.9541C70.455 76.5905 69.1595 79.1586 67.0914 80.3405L61.5459 83.5677C63.6141 82.3632 64.8868 79.8177 64.9095 76.1814L70.455 72.9541Z" fill="#CBDBF4"/>
<path d="M70.455 72.9541C70.455 76.5905 69.1595 79.1586 67.0914 80.3405L61.5459 83.5677C63.6141 82.3632 64.8868 79.8177 64.9095 76.1814L70.455 72.9541Z" fill="#CBDBF4"/>
<path d="M64.9101 76.1815C64.8873 83.4997 59.7055 86.4542 53.3419 82.7724C46.9782 79.0906 41.8191 70.1815 41.8419 62.8633C41.8646 55.5678 47.0464 52.6133 53.4101 56.2724C59.7737 59.9542 64.9328 68.8633 64.9101 76.1815Z" fill="#DBE6FA"/>
<path d="M62.8651 76.1814C62.8651 79.3246 61.656 82.3177 58.5241 82.3177C52.2969 82.3177 43.856 71.8109 43.8878 62.8632C43.9241 57.2041 47.3469 55.1768 52.3878 58.045C58.0923 61.3405 62.8878 69.6359 62.8651 76.1814Z" fill="#BBCFEF"/>
<path d="M62.8664 76.1818C62.8664 78.0682 62.48 79.5682 61.7528 80.6136C61.6391 80.6364 61.5028 80.6364 61.3891 80.6364C55.1437 80.6364 46.7437 70.1023 46.7755 61.2045C46.7755 59.3409 47.1618 57.8182 47.8891 56.7727C48.0028 56.75 48.1391 56.75 48.2528 56.75C54.48 56.75 62.8982 67.2432 62.8664 76.1818Z" fill="white"/>
<path d="M118.659 61.1132C118.682 69.045 113.114 78.6814 106.228 82.6359C99.3367 86.6178 93.7844 83.4178 93.7276 75.5223C93.7049 67.6132 99.2731 57.9541 106.159 53.9769C112.921 50.0996 118.614 53.0564 118.659 61.1132Z" fill="#7B9AFD"/>
<path d="M117.114 60.0447C117.137 67.9766 111.569 77.6129 104.682 81.5675C101.409 83.4538 98.4322 83.7266 96.2276 82.6356C94.6594 81.1584 93.7503 78.7266 93.7276 75.522C93.7049 67.6129 99.2731 57.9538 106.159 53.9766C109.409 52.1129 112.387 51.8402 114.614 52.9084C116.182 54.3856 117.091 56.8175 117.114 60.0447Z" fill="#3D4449"/>
<path d="M111.161 65.4651C111.161 68.6015 108.957 72.4424 106.207 74.0333C103.457 75.6015 101.252 74.3288 101.229 71.1924C101.229 68.0333 103.434 64.1924 106.184 62.6015C108.934 61.0333 111.139 62.306 111.161 65.4651Z" fill="white"/>
<path d="M186.364 127.477C184.16 130.817 176.274 129.84 169.455 127.772C169.433 127.795 169.41 127.795 169.387 127.772C165.478 126.567 161.91 125.045 160.001 123.772C154.728 120.295 153.296 113.204 156.751 107.931C160.26 102.608 167.414 101.286 172.614 104.681C177.887 108.158 189.842 122.204 186.364 127.477Z" fill="#CBDBF4"/>
<path d="M179.592 125.931C178.114 128.181 174.046 128.477 169.455 127.772C169.433 127.795 169.41 127.795 169.387 127.772C165.478 126.568 161.91 125.045 160.001 123.772C154.728 120.295 153.296 113.204 156.751 107.931C157.704 106.479 158.979 105.267 160.477 104.388C161.974 103.509 163.655 102.987 165.387 102.863C165.546 102.931 165.683 103.045 165.842 103.136C171.114 106.613 183.069 120.659 179.592 125.931Z" fill="#DBE6FA"/>
<path d="M36.4102 156.545C36.4102 162.204 31.8192 178.09 26.1602 178.09C20.5011 178.09 15.9102 162.188 15.9102 156.545C15.9102 150.886 20.5011 146.295 26.1602 146.295C31.9215 146.295 36.4102 151.006 36.4102 156.545Z" fill="#CBDBF4"/>
<path d="M34.592 152.249C34.592 157.931 29.9783 173.818 24.3192 173.818C22.1374 173.818 20.1147 171.454 18.4556 168.204C16.8647 163.84 15.9102 159.136 15.9102 156.545C15.9102 150.886 20.5011 146.295 26.1602 146.295C29.5692 146.295 32.592 147.954 34.4329 150.522C34.5465 151.09 34.592 151.659 34.592 152.249Z" fill="#DBE6FA"/>
<path d="M230.593 71.6201L230.548 87.6428C229.343 90.3928 227.798 93.0974 225.957 95.7338L226.071 53.6201C229.139 59.5519 230.593 65.5974 230.593 71.6201Z" fill="#5677E1" fill-opacity="0.313726"/>
<path d="M234.091 71.627L233.819 167.809C233.691 213.002 158.421 240.788 91.2959 229.345L91.5686 133.163C130.773 139.847 172.987 133.625 201.737 116.916C222.728 104.72 234.046 88.386 234.091 71.627Z" fill="#5677E1" fill-opacity="0.313726"/>
<path d="M229.437 53.0449C241.096 75.7336 230.489 100.206 201.737 116.915C172.987 133.624 130.771 139.847 91.5684 133.165L92.5456 131.222C130.514 137.69 171.398 131.661 199.246 115.477C227.087 99.2995 237.368 75.5904 226.077 53.6222L229.437 53.0449Z" fill="#5076F1"/>
<path d="M158.774 145.204V208.759C147.365 211.19 135.183 212.486 122.865 212.486H122.729V148.365C122.865 148.365 123.001 148.388 123.138 148.388C135.388 148.388 147.365 147.295 158.774 145.204Z" fill="#5677E1" fill-opacity="0.25098"/>
<path d="M168.55 142.631V204.154C183.891 201.786 197.895 196.231 209.063 187.922C222.866 177.65 230.484 164.536 230.516 150.988L230.593 110.711C215.404 128.943 191.998 139.397 168.55 142.631Z" fill="black" fill-opacity="0.313726"/>
<path opacity="0.4" d="M203.916 144.379C205.93 144.195 209.232 144.218 212.443 145.674C213.825 146.302 214.462 148.365 213.825 150.059C212.243 154.268 209.043 161.954 205.343 166.243C203.871 167.952 201.48 166.89 201.184 164.374C200.607 159.388 200.746 153.604 201.639 146.99C201.832 145.552 202.78 144.484 203.916 144.379ZM223.796 160.581C213.75 172.149 204.432 179.399 196.318 183.899C196.273 183.445 196.182 183.013 196.068 182.627C204.046 178.172 213.205 171.036 223.137 159.627L223.796 160.581Z" fill="white"/>
<path opacity="0.4" d="M194.616 188.695C193.434 188.877 192.275 187.059 192.025 184.627C191.798 182.172 192.57 180.059 193.752 179.877C194.934 179.672 196.07 181.491 196.32 183.945C196.548 186.377 195.798 188.491 194.616 188.695Z" fill="white"/>
<path opacity="0.5" d="M177.28 189.249L177.38 190.515C181.492 189.97 186.514 188.674 192.285 185.977C192.174 185.564 192.095 185.144 192.048 184.72C186.321 187.408 181.344 188.706 177.28 189.249Z" fill="#4F575F"/>
<path opacity="0.5" d="M126.344 198.045V202.35C136.029 202.158 145.681 201.161 155.201 199.368V195.5C145.656 197.047 136.013 197.898 126.344 198.045ZM126.344 188.561V192.863C136.029 192.672 145.681 191.675 155.201 189.882V186.016C145.656 187.563 136.013 188.414 126.344 188.561ZM126.344 179.075V183.377C136.029 183.186 145.681 182.19 155.201 180.398V176.529C145.656 178.077 136.013 178.927 126.344 179.075ZM126.344 169.588V173.891C136.029 173.7 145.681 172.703 155.201 170.911V167.043C145.656 168.59 136.013 169.441 126.344 169.588ZM126.344 160.102V164.404C136.029 164.214 145.681 163.217 155.201 161.425V157.557C145.656 159.104 136.013 159.955 126.344 160.102Z" fill="white"/>
</svg>
