<svg width="250" height="250" viewBox="0 0 250 250" fill="none" xmlns="http://www.w3.org/2000/svg">
<path d="M41.4043 171.446H53.3452L69.0657 180.633H78.1498M43.6452 212.571L58.8361 203.481L66.6657 208.931L82.4225 199.058M99.8702 210.185L87.5975 217.887L101.313 225.901L89.8884 232.671M137.322 209.687L164.557 225.24V232.567M170.084 200.083L180.811 200.696L196.093 210.067H209.947M176.972 181.274H188.034L206.172 168.758" fill="black"/>
<path d="M41.4043 171.446H53.3452L69.0657 180.633H78.1498M43.6452 212.571L58.8361 203.481L66.6657 208.931L82.4225 199.058M99.8702 210.185L87.5975 217.887L101.313 225.901L89.8884 232.671M137.322 209.687L164.557 225.24V232.567M170.084 200.083L180.811 200.696L196.093 210.067H209.947M176.972 181.274H188.034L206.172 168.758" stroke="#2A2A2A" stroke-width="1.59091" stroke-miterlimit="10" stroke-linecap="round" stroke-linejoin="round"/>
<path d="M41.4193 172.553C40.3647 173.155 38.667 173.155 37.6124 172.553C36.5602 171.953 36.5602 170.942 37.6124 170.339C38.6874 169.737 40.3852 169.737 41.4397 170.339C42.4715 170.942 42.4738 171.953 41.4193 172.553Z" fill="#BBCFEF"/>
<path d="M208.781 169.048C207.724 169.657 206.022 169.657 204.962 169.048C203.917 168.439 203.926 167.451 204.985 166.842C206.04 166.232 207.744 166.232 208.79 166.842C209.837 167.451 209.837 168.439 208.781 169.048Z" fill="#BBCFEF"/>
<path d="M45.182 213.676C44.1274 214.285 42.4229 214.285 41.3661 213.676C40.3206 213.067 40.3297 212.078 41.3865 211.467C42.4411 210.86 44.1456 210.86 45.1933 211.467C46.2388 212.078 46.2388 213.067 45.1842 213.676H45.182Z" fill="#BBCFEF"/>
<path d="M91.61 233.773C90.5532 234.382 88.8487 234.382 87.7918 233.773C86.7464 233.164 86.7555 232.175 87.8123 231.566C88.8668 230.957 90.5714 230.957 91.6191 231.566C92.6646 232.175 92.6646 233.164 91.61 233.773Z" fill="#BBCFEF"/>
<path d="M166.455 233.51C165.399 234.119 163.696 234.119 162.637 233.51C161.592 232.901 161.601 231.91 162.66 231.301C163.715 230.691 165.419 230.691 166.465 231.301C167.512 231.91 167.512 232.901 166.455 233.51Z" fill="#BBCFEF"/>
<path d="M212.384 211.172C211.327 211.781 209.625 211.781 208.566 211.172C207.521 210.563 207.53 209.572 208.589 208.963C209.643 208.354 211.348 208.354 212.393 208.963C213.441 209.572 213.441 210.563 212.384 211.172Z" fill="#BBCFEF"/>
<path d="M194.091 168.713L194.028 178.481C194.005 188.842 187.191 199.204 173.584 207.094C146.175 223.022 101.612 223.022 74.0298 207.094C60.1661 199.094 53.2207 188.583 53.2639 178.072L53.3093 168.347C53.3093 178.838 60.2298 189.349 74.073 197.324C101.655 213.256 146.239 213.256 173.625 197.324C187.234 189.438 194.048 179.074 194.091 168.713Z" fill="#DBE6FA"/>
<path d="M173.622 197.326C153.668 208.93 124.606 212.039 99.6221 206.735V216.507C124.59 221.803 153.622 218.689 173.581 207.091C187.188 199.203 194.002 188.841 194.024 178.478L194.088 168.712C194.045 179.076 187.231 189.435 173.622 197.326Z" fill="#BBCFEF"/>
<path d="M173.301 139.67C200.881 155.592 201.028 181.415 173.635 197.333C146.233 213.258 101.662 213.252 74.0807 197.329C46.5125 181.411 46.3648 155.599 73.767 139.674C101.158 123.756 145.731 123.752 173.301 139.67Z" fill="#EBF2FF"/>
<path d="M191.124 168.616C191.147 178.366 184.443 187.666 172.265 194.825C145.963 210.273 102.511 210.6 75.4539 194.825C63.0903 187.596 56.2698 178.223 56.2471 168.405C56.2471 158.655 62.9516 149.332 75.1289 142.175C101.327 126.789 144.883 126.398 171.94 142.175C184.304 149.402 191.124 158.775 191.124 168.616Z" fill="white"/>
<path d="M178.305 145.626L178.261 165.549C178.239 173.589 172.957 181.617 162.405 187.753C141.155 200.101 106.586 200.096 85.1931 187.746C74.4341 181.535 69.0613 173.383 69.0841 165.237L69.125 145.314C69.1022 153.458 74.4772 161.612 85.2363 167.824C106.627 180.174 141.195 180.178 162.445 167.828C172.998 161.696 178.282 153.669 178.305 145.626Z" fill="#457AEF"/>
<path d="M162.448 167.828C152.152 173.81 138.734 176.867 125.202 177.053V196.974C138.72 196.783 152.123 193.726 162.407 187.751C172.959 181.619 178.241 173.592 178.264 165.549L178.307 145.626C178.284 153.667 173 161.692 162.448 167.828Z" fill="#4F91FF"/>
<path d="M179.888 150.438L179.844 160.067C179.822 168.338 174.39 176.594 163.533 182.904C141.676 195.606 106.119 195.601 84.1194 182.899C73.0512 176.51 67.5239 168.122 67.5489 159.747L67.5921 150.117C67.5694 158.492 73.0944 166.881 84.1603 173.269C106.163 185.974 141.719 185.976 163.576 173.274C174.431 166.967 179.865 158.708 179.888 150.438Z" fill="#CBDBF4"/>
<path d="M163.31 127.273C185.31 139.975 185.428 160.575 163.576 173.273C141.719 185.977 106.162 185.971 84.1624 173.268C62.167 160.571 62.0511 139.98 83.9124 127.277C105.762 114.58 141.317 114.573 163.31 127.273Z" fill="#EBF2FF"/>
<path d="M160.576 127.346C181.058 139.051 181.167 158.028 160.826 169.73C140.476 181.435 107.374 181.428 86.8924 169.726C66.4151 158.026 66.3083 139.055 86.6583 127.351C106.999 115.653 140.101 115.646 160.576 127.346Z" fill="#1E3272"/>
<path d="M86.1819 169.551C67.0455 158.505 66.9455 142.03 85.941 130.989C106.482 119.051 140.361 119.053 161.034 130.989C180.168 142.035 180.298 158.519 161.293 169.562C140.755 181.498 106.875 181.498 86.1819 169.551Z" fill="#5677E1"/>
<path d="M70.5873 116.055C66.0192 101.387 88.1555 81.4347 120.117 71.4688" stroke="#4F575F" stroke-width="2.27273" stroke-miterlimit="10" stroke-linecap="round" stroke-linejoin="round"/>
<path d="M120.111 71.4693C152.02 61.5329 181.589 65.3602 186.157 80.0306" stroke="#4F575F" stroke-width="2.27273" stroke-miterlimit="10" stroke-linecap="round" stroke-linejoin="round"/>
<path d="M165.322 136.417L165.395 135.367C166.081 138.679 164.5 142.608 161.863 144.131L162.722 142.867C164.663 141.749 165.827 138.851 165.322 136.417Z" fill="#CBDBF4"/>
<path d="M162.727 142.864L161.865 144.13L116.143 170.53L117.002 169.264L162.727 142.864Z" fill="#CBDBF4"/>
<path d="M113.146 171.012L104.605 168.693C103.166 168.302 102.007 166.973 101.589 164.957L110.13 167.275C110.548 169.291 111.707 170.621 113.146 171.012Z" fill="#BBCFEF"/>
<path d="M117.005 169.265L116.145 170.531C113.511 172.051 110.818 170.59 110.132 167.276L112.58 166.872C113.08 169.306 115.068 170.385 117.005 169.265ZM141.889 23.0012L141.961 21.9512L165.4 135.367L165.327 136.417L141.889 23.0012Z" fill="#CBDBF4"/>
<path d="M130.399 15.8894L138.94 18.2076C138.013 17.9576 136.972 18.0939 135.94 18.6917L127.399 16.3735C128.431 15.7758 129.474 15.6394 130.399 15.8894Z" fill="#DBE6FA"/>
<path d="M137.452 20.6009L135.938 18.6918C138.575 17.1691 141.27 18.6304 141.957 21.9509L141.884 23.0009C141.379 20.5577 139.391 19.4782 137.452 20.6009Z" fill="#CBDBF4"/>
<path d="M90.2138 45.0915L81.6729 42.7734L127.396 16.3711L135.936 18.6893L90.2138 45.0915Z" fill="#DBE6FA"/>
<path d="M91.7265 47.0008L90.2129 45.0917L135.936 18.6895L137.452 20.5985L91.7265 47.0008Z" fill="#CBDBF4"/>
<path d="M110.131 167.272L101.593 164.954L78.1494 51.543L86.6903 53.8611L110.131 167.272Z" fill="#BBCFEF"/>
<path d="M112.573 166.871L110.125 167.276L86.6846 53.8596L89.1323 53.4551L112.573 166.871Z" fill="#CBDBF4"/>
<path d="M137.456 20.5999C139.395 19.4795 141.384 20.5545 141.888 22.9999L165.327 136.416C165.831 138.848 164.668 141.748 162.727 142.866L117.004 169.264C115.068 170.384 113.081 169.304 112.579 166.87L89.1383 53.4545C88.6337 51.0113 89.7973 48.1136 91.7337 46.9999L137.456 20.5999Z" fill="#EBF2FF"/>
<path d="M89.1334 53.4548L86.6857 53.8593C85.9993 50.5411 87.5811 46.6093 90.2152 45.0889L91.7288 46.998C89.7925 48.1139 88.6288 51.0116 89.1334 53.4525V53.4548Z" fill="#CBDBF4"/>
<path d="M86.6875 53.8601L78.1466 51.5419C77.4602 48.2238 79.042 44.2919 81.6761 42.7715L90.217 45.0897C87.5807 46.6124 86.0011 50.5374 86.6875 53.8601Z" fill="#BBCFEF"/>
<path d="M88.2544 69.1054C88.2544 69.91 87.9703 70.4759 87.5112 70.7418L86.2839 71.4554C86.7407 71.1895 87.0248 70.6236 87.0271 69.819C87.0339 67.2668 84.2998 64.2963 82.6748 65.2418L83.9021 64.5281C84.3657 64.26 85.0066 64.2963 85.7157 64.7054C87.1248 65.519 88.2612 67.4895 88.2544 69.1054Z" fill="#4F575F"/>
<path d="M87.0229 69.8187C87.0183 71.4369 85.8706 72.0914 84.4638 71.2778C83.057 70.4619 81.9183 68.4937 81.9229 66.8755C81.9274 65.2619 83.0729 64.6096 84.4797 65.4187C85.8888 66.2323 87.0251 68.2028 87.0229 69.8187Z" fill="white"/>
<path d="M90.6958 79.3847C90.6958 80.187 90.4094 80.7529 89.9526 81.0211L88.7253 81.7324C89.1821 81.4665 89.4662 80.9006 89.4685 80.0961C89.473 78.4824 88.3367 76.5097 86.9276 75.6961C86.223 75.287 85.5798 75.2506 85.1162 75.5188L86.3435 74.8074C86.8071 74.537 87.448 74.5756 88.1571 74.9847C89.5662 75.7961 90.7026 77.7688 90.6958 79.3847Z" fill="#4F575F"/>
<path d="M89.4643 80.0995C89.4575 81.7176 88.312 82.3699 86.9052 81.554C85.4984 80.7381 84.3597 78.7722 84.3643 77.154C84.3688 75.5404 85.5143 74.8881 86.9211 75.6995C88.3302 76.5108 89.4665 78.4813 89.4643 80.0995Z" fill="white"/>
<path d="M184.985 98.7599L178.96 111.719C178.81 112.043 178.579 112.323 178.29 112.532C178.001 112.742 177.663 112.874 177.309 112.916C176.954 112.958 176.595 112.908 176.265 112.772C175.935 112.636 175.645 112.417 175.424 112.137L167.481 102.128C167.259 101.849 167.113 101.518 167.055 101.167C166.997 100.815 167.03 100.455 167.151 100.12C167.272 99.7847 167.476 99.486 167.744 99.252C168.013 99.0179 168.337 98.8564 168.685 98.7826L182.656 95.8326C183.036 95.752 183.43 95.7789 183.796 95.9102C184.162 96.0415 184.483 96.2721 184.725 96.576C184.967 96.88 185.12 97.2453 185.165 97.631C185.211 98.0168 185.149 98.4076 184.985 98.7599Z" fill="#4F575F"/>
<path d="M183.686 182.092C183.42 182.248 183.095 182.355 182.742 182.417C182.309 182.492 181.865 182.488 181.433 182.405C181.118 182.355 180.815 182.248 180.538 182.089C179.665 181.58 179.665 180.771 180.526 180.262C180.792 180.103 181.106 179.994 181.447 179.946C181.87 179.873 182.331 179.873 182.754 179.946C183.095 179.994 183.42 180.105 183.686 180.262C184.558 180.769 184.558 181.583 183.686 182.092Z" fill="#BBCFEF"/>
<path d="M176.014 167.756C176.014 168.238 175.884 168.758 175.662 169.256C175.48 169.654 175.239 170.023 174.946 170.349C174.696 170.663 174.398 170.924 174.084 171.106C173.016 171.719 172.144 171.222 172.144 169.997C172.144 169.633 172.207 169.228 172.364 168.851C172.494 168.447 172.705 168.056 172.964 167.703C173.264 167.26 173.655 166.894 174.071 166.647C175.139 166.033 176.014 166.531 176.014 167.756Z" fill="white"/>
<path d="M182.764 173.735L182.752 179.946L182.741 182.392V182.417C182.307 182.492 181.864 182.488 181.432 182.405V182.383L181.445 179.946L181.457 174.099L177.07 171.567L174.941 170.344L172.361 168.853C172.495 168.444 172.702 168.055 172.955 167.703L175.657 169.253L178.368 170.814L182.436 173.164C182.632 173.285 182.764 173.508 182.764 173.735Z" fill="#3D4449"/>
<path d="M63.6936 182.091C63.9595 182.248 64.2845 182.355 64.6368 182.416C65.0618 182.489 65.5232 182.489 65.9459 182.405C66.2732 182.344 66.5868 182.246 66.8413 182.089C67.7141 181.58 67.7141 180.771 66.8527 180.262C66.5694 180.098 66.2567 179.99 65.9322 179.946C65.4997 179.873 65.058 179.873 64.6254 179.946C64.2845 179.994 63.9595 180.105 63.6936 180.262C62.8209 180.769 62.8209 181.582 63.6936 182.091Z" fill="#BBCFEF"/>
<path d="M71.3682 167.755C71.3682 168.237 71.4977 168.757 71.7204 169.255C71.9023 169.644 72.1363 170.023 72.4363 170.348C72.6863 170.662 72.9841 170.923 73.2977 171.105C74.3659 171.719 75.2386 171.221 75.2386 169.996C75.2386 169.176 74.8636 168.305 74.4204 167.701C73.2841 166.026 71.3682 165.86 71.3682 167.755Z" fill="white"/>
<path d="M64.6152 173.735L64.6266 179.946L64.638 182.392V182.417C65.063 182.489 65.5243 182.489 65.9471 182.405V182.383L65.9334 179.946L65.922 174.099L70.3061 171.567L72.438 170.344L75.0175 168.853C74.8812 168.441 74.681 168.053 74.4243 167.703L71.722 169.253L69.0107 170.814L64.9425 173.164C64.8449 173.224 64.7638 173.308 64.7066 173.407C64.6495 173.506 64.6181 173.62 64.6152 173.735Z" fill="#3D4449"/>
<path d="M85.8789 197.526C86.788 197.682 87.6517 197.464 88.0835 197.198C89.3585 196.455 88.6198 195.262 87.1744 195.055C86.4698 194.935 85.5517 195.005 84.9335 195.371C84.063 195.878 84.2812 197.251 85.8789 197.526Z" fill="#BBCFEF"/>
<path d="M92.6104 182.865C92.6104 183.347 92.7399 183.867 92.9626 184.365C93.1444 184.754 93.3785 185.133 93.6785 185.458C93.9263 185.772 94.2263 186.033 94.5399 186.215C95.6081 186.829 96.4808 186.331 96.4808 185.106C96.4808 184.742 96.4172 184.338 96.2603 183.961C96.1237 183.548 95.921 183.16 95.6603 182.813C95.372 182.384 94.9935 182.023 94.5513 181.756C93.4831 181.142 92.6104 181.64 92.6104 182.865Z" fill="white"/>
<path d="M85.8555 188.841L85.8691 195.055L85.8805 197.502V197.525C86.3032 197.598 86.7646 197.598 87.1873 197.514L87.1646 189.207L91.5486 186.675L93.6805 185.452L96.26 183.962C96.123 183.549 95.922 183.161 95.6646 182.812L92.9646 184.362L90.2532 185.925L86.185 188.273C86.087 188.332 86.0054 188.416 85.9479 188.515C85.8903 188.614 85.8585 188.726 85.8555 188.841Z" fill="#3D4449"/>
<path d="M161.893 197.199C161.627 197.358 161.302 197.467 160.949 197.526C160.516 197.601 160.072 197.597 159.64 197.515C159.325 197.465 159.022 197.358 158.745 197.199C157.872 196.692 157.872 195.881 158.733 195.371C158.999 195.212 159.315 195.103 159.654 195.056C160.077 194.983 160.538 194.983 160.961 195.056C161.302 195.103 161.627 195.215 161.893 195.371C162.765 195.878 162.765 196.69 161.893 197.199Z" fill="#BBCFEF"/>
<path d="M154.221 182.865C154.221 183.347 154.092 183.867 153.869 184.365C153.687 184.764 153.446 185.133 153.153 185.458C152.903 185.772 152.605 186.033 152.292 186.215C151.223 186.829 150.351 186.331 150.351 185.106C150.351 184.742 150.414 184.338 150.571 183.961C150.703 183.556 150.912 183.165 151.171 182.813C151.471 182.37 151.862 182.004 152.28 181.756C153.348 181.142 154.221 181.64 154.221 182.865Z" fill="white"/>
<path d="M160.976 188.841L160.965 195.055L160.954 197.502V197.525C160.52 197.6 160.077 197.596 159.645 197.514V197.491L159.658 195.055L159.67 189.207L155.286 186.675L153.154 185.452L150.574 183.962C150.708 183.552 150.915 183.164 151.167 182.812L153.87 184.362L156.581 185.925L160.649 188.273C160.845 188.396 160.976 188.614 160.976 188.841Z" fill="#3D4449"/>
<path d="M126.166 22.0235C126.166 22.094 126.166 22.1872 126.121 22.2554C125.957 23.1576 124.641 23.9417 123.071 24.1054C122.123 24.219 121.268 24.0599 120.714 23.6895C120.275 23.4349 120.021 23.0872 120.021 22.6485C120.021 21.6781 121.407 20.7304 123.071 20.569C124.78 20.4099 126.166 21.0554 126.166 22.0235Z" fill="#EBF2FF"/>
<path d="M126.118 22.2554C125.954 23.1577 124.638 23.9418 123.068 24.1054C122.12 24.219 121.265 24.0599 120.711 23.6895C121.006 22.0849 124.461 21.2213 126.118 22.2577V22.2554Z" fill="#4F575F"/>
<path d="M149.87 123.37C150.747 122.865 151.645 123.36 151.874 124.465C152.088 125.497 151.631 126.845 150.699 127.383L111.499 150.013C110.622 150.52 109.727 150.035 109.499 148.931C109.277 147.865 109.77 146.522 110.67 146.001L149.87 123.37ZM136.445 140.676C137.822 139.881 139.018 141.54 138.272 143.451C138.068 143.963 137.715 144.422 137.272 144.679L113.263 158.54C112.386 159.047 111.49 158.563 111.261 157.456C111.043 156.401 111.513 155.07 112.436 154.54L136.445 140.676Z" fill="#CBDBF4"/>
<path d="M208.771 21.055L174.949 154.637C173.517 160.319 168.78 165.703 161.249 170.069C140.803 181.982 106.926 182.023 86.1418 170.069C78.5623 165.68 73.7577 160.319 72.2555 154.637H72.21L39.4736 21.0527L208.771 21.055Z" fill="url(#paint0_linear_733_316)"/>
<defs>
<linearGradient id="paint0_linear_733_316" x1="124.121" y1="237.521" x2="124.121" y2="50.1005" gradientUnits="userSpaceOnUse">
<stop offset="0.313" stop-color="#5677E1" stop-opacity="0.7"/>
<stop offset="0.474" stop-color="#5677E1" stop-opacity="0.535"/>
<stop offset="0.723" stop-color="#5677E1" stop-opacity="0.283"/>
<stop offset="1" stop-color="#5677E1" stop-opacity="0"/>
</linearGradient>
</defs>
</svg>
