<svg width="17" height="19" viewBox="0 0 17 19" fill="none" xmlns="http://www.w3.org/2000/svg">
<path d="M0 9.23828V14.7449C0 15.8712 0.946515 16.8798 2.66522 17.5849C4.20187 18.2153 6.23107 18.5625 8.37891 18.5625L9.66797 15.6406L8.37891 9.23828H0Z" fill="#606074"/>
<path d="M8.37891 18.5625C10.5267 18.5625 12.5559 18.2153 14.0926 17.5849C15.8113 16.8798 16.7578 15.8712 16.7578 14.7449V9.23828H8.37891V18.5625Z" fill="#525264"/>
<path d="M0.644531 3.17343C0.288578 3.17343 0 3.46201 0 3.81796V9.23864C0 10.3649 0.946515 11.3735 2.66522 12.0787C4.20187 12.7091 6.23098 13.0562 8.37891 13.0562L9.66797 8.11484L8.37891 3.17343H0.644531Z" fill="#525264"/>
<path d="M16.1133 3.17343H8.37891V13.0562C10.5268 13.0562 12.5559 12.7091 14.0926 12.0787C15.8113 11.3735 16.7578 10.3649 16.7578 9.23864V3.81796C16.7578 3.46201 16.4692 3.17343 16.1133 3.17343Z" fill="#454553"/>
<path d="M2.66522 0.977625C0.946515 1.6827 0 2.6913 0 3.8176C0 4.9439 0.946515 5.9525 2.66522 6.65762C4.20187 7.28806 6.23103 7.63525 8.37891 7.63525L9.66797 3.81764L8.37891 0C6.23107 0 4.20187 0.347188 2.66522 0.977625Z" fill="#606074"/>
<path d="M16.7578 3.8176C16.7578 2.6913 15.8113 1.6827 14.0926 0.977625C12.5559 0.347188 10.5267 0 8.37891 0V7.6352C10.5267 7.6352 12.5559 7.28802 14.0926 6.65758C15.8113 5.95246 16.7578 4.9439 16.7578 3.8176Z" fill="#525264"/>
</svg>
