<svg width="21" height="21" viewBox="0 0 21 21" fill="none" xmlns="http://www.w3.org/2000/svg">
<path d="M20.1602 5.2688V19.8515C20.1602 20.2502 19.837 20.5734 19.4379 20.5734H16.4651L10.5002 18.936L4.53531 20.5734H1.5625C1.16341 20.5734 0.84021 20.2502 0.84021 19.8515V5.2688L10.5002 0.257507L20.1602 5.2688Z" fill="url(#paint0_linear_480_3578)"/>
<path d="M12.8197 8.04037H8.18047C8.10551 8.04037 8.03362 8.0106 7.98061 7.95759C7.92761 7.90459 7.89783 7.8327 7.89783 7.75774C7.89783 7.68278 7.92761 7.61089 7.98061 7.55788C8.03362 7.50488 8.10551 7.4751 8.18047 7.4751H12.8197C12.8568 7.4751 12.8936 7.48241 12.9279 7.49662C12.9622 7.51083 12.9933 7.53165 13.0196 7.55789C13.0458 7.58414 13.0666 7.6153 13.0808 7.64959C13.095 7.68389 13.1023 7.72064 13.1023 7.75776C13.1023 7.79487 13.095 7.83163 13.0808 7.86592C13.0666 7.90021 13.0458 7.93136 13.0195 7.95761C12.9933 7.98385 12.9621 8.00467 12.9278 8.01887C12.8935 8.03307 12.8568 8.04038 12.8197 8.04037Z" fill="url(#paint1_linear_480_3578)"/>
<path d="M12.8197 7.0845H8.18047C8.10551 7.0845 8.03362 7.05473 7.98061 7.00172C7.92761 6.94872 7.89783 6.87683 7.89783 6.80186C7.89783 6.7269 7.92761 6.65501 7.98061 6.60201C8.03362 6.549 8.10551 6.51923 8.18047 6.51923H12.8197C12.8568 6.51923 12.8936 6.52654 12.9279 6.54075C12.9622 6.55495 12.9933 6.57578 13.0196 6.60202C13.0458 6.62827 13.0666 6.65943 13.0808 6.69372C13.095 6.72802 13.1023 6.76477 13.1023 6.80189C13.1023 6.839 13.095 6.87575 13.0808 6.91004C13.0666 6.94434 13.0458 6.97549 13.0195 7.00173C12.9933 7.02798 12.9621 7.0488 12.9278 7.063C12.8935 7.0772 12.8568 7.08451 12.8197 7.0845Z" fill="url(#paint2_linear_480_3578)"/>
<path d="M12.8197 6.12973H8.18047C8.10551 6.12973 8.03362 6.09995 7.98061 6.04695C7.92761 5.99394 7.89783 5.92205 7.89783 5.84709C7.89783 5.77213 7.92761 5.70024 7.98061 5.64724C8.03362 5.59423 8.10551 5.56445 8.18047 5.56445H12.8197C12.8568 5.56446 12.8936 5.57177 12.9279 5.58598C12.9622 5.60018 12.9933 5.621 13.0196 5.64725C13.0458 5.6735 13.0666 5.70466 13.0808 5.73895C13.095 5.77324 13.1023 5.81 13.1023 5.84711C13.1023 5.88423 13.095 5.92098 13.0808 5.95527C13.0666 5.98956 13.0458 6.02072 13.0195 6.04696C12.9933 6.07321 12.9621 6.09402 12.9278 6.10822C12.8935 6.12243 12.8568 6.12973 12.8197 6.12973Z" fill="url(#paint3_linear_480_3578)"/>
<path d="M12.8197 5.17496H8.18047C8.10551 5.17496 8.03362 5.14518 7.98061 5.09217C7.92761 5.03917 7.89783 4.96728 7.89783 4.89232C7.89783 4.81736 7.92761 4.74547 7.98061 4.69246C8.03362 4.63946 8.10551 4.60968 8.18047 4.60968H12.8197C12.8568 4.60968 12.8936 4.617 12.9279 4.6312C12.9622 4.64541 12.9933 4.66623 13.0196 4.69248C13.0458 4.71872 13.0666 4.74988 13.0808 4.78418C13.095 4.81847 13.1023 4.85522 13.1023 4.89234C13.1023 4.92946 13.095 4.96621 13.0808 5.0005C13.0666 5.03479 13.0458 5.06595 13.0195 5.09219C12.9933 5.11843 12.9621 5.13925 12.9278 5.15345C12.8935 5.16765 12.8568 5.17496 12.8197 5.17496Z" fill="url(#paint4_linear_480_3578)"/>
<path d="M0.84021 5.26867V12.3999H20.1601V5.26867L10.5002 0.257507L0.84021 5.26867Z" fill="url(#paint5_linear_480_3578)"/>
<path d="M20.1601 5.26867V12.3999H0.84021V5.26867L10.5002 0.257507L20.1601 5.26867Z" fill="url(#paint6_linear_480_3578)"/>
<path d="M20.16 5.2688V19.8515C20.16 20.2502 19.8368 20.5734 19.4377 20.5734H16.4649L10.5 18.936V0.257507L20.16 5.2688Z" fill="url(#paint7_linear_480_3578)"/>
<path d="M20.1602 14.7986V19.8522C20.1602 20.2509 19.837 20.5741 19.4379 20.5741H16.4651L10.5002 18.9367L4.53531 20.5741H1.5625C1.16341 20.5741 0.84021 20.2509 0.84021 19.8522V14.7986H20.1602Z" fill="url(#paint8_linear_480_3578)"/>
<path d="M10.3152 0.0450653L0.21648 5.28387C0.151232 5.31771 0.096535 5.36883 0.058359 5.43164C0.020183 5.49445 -4.47632e-06 5.56654 7.44509e-10 5.64005V6.99943C7.44509e-10 7.30036 0.318938 7.4942 0.586031 7.35561L10.3152 2.30855C10.3723 2.27894 10.4357 2.26349 10.5 2.26349C10.5643 2.26349 10.6277 2.27894 10.6848 2.30855L20.414 7.35565C20.6811 7.4942 21 7.30036 21 6.99947V5.64009C21 5.56659 20.9798 5.49449 20.9416 5.43168C20.9035 5.36887 20.8488 5.31775 20.7835 5.28391L10.6848 0.0450653C10.6277 0.0154557 10.5643 0 10.5 0C10.4357 0 10.3723 0.0154557 10.3152 0.0450653Z" fill="url(#paint9_linear_480_3578)"/>
<path d="M10.3152 0.0450653L0.21648 5.28387C0.151232 5.31771 0.096535 5.36883 0.058359 5.43164C0.020183 5.49445 -4.47632e-06 5.56654 7.44509e-10 5.64005V6.99943C7.44509e-10 7.30036 0.318938 7.4942 0.586031 7.35561L10.3152 2.30855C10.3723 2.27894 10.4357 2.26349 10.5 2.26349C10.5643 2.26349 10.6277 2.27894 10.6848 2.30855L20.414 7.35565C20.6811 7.4942 21 7.30036 21 6.99947V5.64009C21 5.56659 20.9798 5.49449 20.9416 5.43168C20.9035 5.36887 20.8488 5.31775 20.7835 5.28391L10.6848 0.0450653C10.6277 0.0154557 10.5643 0 10.5 0C10.4357 0 10.3723 0.0154557 10.3152 0.0450653Z" fill="url(#paint10_linear_480_3578)"/>
<path d="M10.3152 1.05453L0 6.40563V6.99917C0 7.3001 0.318938 7.49394 0.586031 7.35535L10.3152 2.30825C10.3723 2.27864 10.4357 2.26319 10.5 2.26319C10.5643 2.26319 10.6277 2.27864 10.6848 2.30825L20.414 7.35535C20.6811 7.4939 21 7.30006 21 6.99917V6.40563L10.6848 1.05453C10.6277 1.02492 10.5643 1.00946 10.5 1.00946C10.4357 1.00946 10.3723 1.02492 10.3152 1.05453Z" fill="url(#paint11_linear_480_3578)"/>
<path d="M18.4388 4.06797L11.056 0.238098L13.2908 3.66089L18.2439 6.23032L18.4388 4.06797Z" fill="url(#paint12_linear_480_3578)"/>
<path d="M20.7835 5.28415L15.9232 2.76288V5.02637L20.4139 7.35597C20.681 7.49452 20.9999 7.30068 20.9999 6.99979V5.64041C21 5.5669 20.9798 5.49479 20.9416 5.43196C20.9034 5.36913 20.8487 5.318 20.7835 5.28415Z" fill="url(#paint13_linear_480_3578)"/>
<path d="M20.4137 7.35622C20.6808 7.49477 20.9997 7.30093 20.9997 7.00004V5.64066C20.9997 5.56716 20.9795 5.49506 20.9413 5.43225C20.9032 5.36944 20.8485 5.31832 20.7832 5.28448L18.2789 3.98535H13.9156L20.4137 7.35622Z" fill="url(#paint14_linear_480_3578)"/>
<path d="M0.586031 7.35626L7.08401 3.98535H2.72077L0.21648 5.28448C0.151229 5.31833 0.0965302 5.36946 0.0583543 5.43227C0.0201784 5.49509 -7.42174e-06 5.56719 2.04696e-09 5.6407V7.00008C2.04696e-09 7.30097 0.318938 7.49481 0.586031 7.35626Z" fill="url(#paint15_linear_480_3578)"/>
<path d="M16.4648 10.5725V20.5738H15.2594L13.9391 20.2522L12.3735 20.5738H11.9429L10.6792 20.2305L9.05701 20.5738H8.62634L7.33845 20.3035L5.74007 20.5738H4.53503V10.5725C4.53503 10.1533 4.87464 9.81415 5.29341 9.81415H15.7065C16.1252 9.81415 16.4648 10.1533 16.4648 10.5725Z" fill="url(#paint16_linear_480_3578)"/>
<path d="M10.7961 9.81415V20.2621L10.6792 20.2305L9.05701 20.5738H8.62634L7.33845 20.3035L5.74007 20.5738H4.53503V10.5725C4.53503 10.1533 4.87464 9.81415 5.29341 9.81415H10.7961Z" fill="url(#paint17_linear_480_3578)"/>
<path d="M15.7061 9.81415H5.29341C4.87456 9.81415 4.53503 10.1537 4.53503 10.5725V14.6678H16.4645V10.5725C16.4645 10.1537 16.1249 9.81415 15.7061 9.81415Z" fill="url(#paint18_linear_480_3578)"/>
<path d="M11.9427 20.5739H12.3734L13.939 20.2523L15.2593 20.5739H16.4647V13.2559L14.4881 11.2793H12.3208L11.9396 14.6677V20.573L11.9427 20.5739Z" fill="url(#paint19_linear_480_3578)"/>
<path d="M15.3911 20.5732H16.4646V18.3696L15.3911 17.304V20.5732Z" fill="url(#paint20_linear_480_3578)"/>
<path d="M15.4748 17.4725V20.3587C15.4748 20.3869 15.4692 20.4149 15.4584 20.441C15.4476 20.4671 15.4317 20.4909 15.4118 20.5109C15.3918 20.5308 15.3681 20.5467 15.3419 20.5575C15.3158 20.5683 15.2879 20.5739 15.2596 20.5739H12.3734C12.3452 20.5739 12.3172 20.5683 12.2911 20.5575C12.265 20.5467 12.2413 20.5308 12.2213 20.5109C12.2013 20.4909 12.1854 20.4671 12.1746 20.441C12.1638 20.4149 12.1582 20.3869 12.1582 20.3587L11.6929 18.9351L12.1582 17.4725C12.1582 17.4155 12.1809 17.3607 12.2213 17.3204C12.2616 17.28 12.3164 17.2573 12.3734 17.2573H13.2876L13.8165 17.3935L14.3455 17.2573H15.2596C15.3167 17.2573 15.3714 17.28 15.4118 17.3204C15.4521 17.3607 15.4748 17.4155 15.4748 17.4725Z" fill="url(#paint21_linear_480_3578)"/>
<path d="M12.1583 18.9788V20.3586C12.1583 20.3869 12.1639 20.4149 12.1747 20.441C12.1855 20.4671 12.2014 20.4908 12.2214 20.5108C12.2413 20.5308 12.2651 20.5466 12.2912 20.5575C12.3173 20.5683 12.3453 20.5738 12.3735 20.5738H15.2597C15.2879 20.5738 15.3159 20.5683 15.342 20.5575C15.3681 20.5466 15.3919 20.5308 15.4119 20.5108C15.4318 20.4908 15.4477 20.4671 15.4585 20.441C15.4693 20.4149 15.4749 20.3869 15.4749 20.3586V18.9788H12.1583Z" fill="url(#paint22_linear_480_3578)"/>
<path d="M15.4751 17.4725V20.3587C15.4751 20.3869 15.4695 20.4149 15.4587 20.441C15.4479 20.4671 15.432 20.4909 15.4121 20.5109C15.3921 20.5308 15.3683 20.5467 15.3422 20.5575C15.3161 20.5683 15.2881 20.5739 15.2599 20.5739H13.7789V17.3837L13.8168 17.3935L14.3458 17.2573H15.2599C15.317 17.2573 15.3717 17.28 15.4121 17.3204C15.4524 17.3607 15.4751 17.4155 15.4751 17.4725Z" fill="url(#paint23_linear_480_3578)"/>
<path d="M13.313 18.0883L15.4746 20.2499V17.4725C15.4746 17.4155 15.4519 17.3607 15.4116 17.3204C15.3712 17.28 15.3165 17.2573 15.2594 17.2573H14.3452L14.3451 17.2574L13.313 18.0883Z" fill="url(#paint24_linear_480_3578)"/>
<path d="M14.2683 18.1139H13.3653C13.3552 18.1139 13.3451 18.1119 13.3357 18.108C13.3263 18.1041 13.3178 18.0984 13.3106 18.0912C13.3034 18.0841 13.2977 18.0755 13.2938 18.0661C13.29 18.0568 13.288 18.0467 13.288 18.0365V17.2573H14.3457V18.0365C14.3457 18.0467 14.3437 18.0568 14.3398 18.0661C14.3359 18.0755 14.3302 18.0841 14.323 18.0912C14.3158 18.0984 14.3073 18.1041 14.2979 18.108C14.2885 18.1119 14.2785 18.1139 14.2683 18.1139Z" fill="url(#paint25_linear_480_3578)"/>
<path d="M14.2683 18.1138H13.3653C13.3552 18.1138 13.3451 18.1118 13.3357 18.108C13.3263 18.1041 13.3178 18.0984 13.3106 18.0912C13.3034 18.084 13.2977 18.0755 13.2938 18.0661C13.29 18.0567 13.288 18.0466 13.288 18.0365V17.6424H14.3457V18.0365C14.3457 18.0466 14.3437 18.0567 14.3398 18.0661C14.3359 18.0755 14.3302 18.084 14.323 18.0912C14.3158 18.0984 14.3073 18.1041 14.2979 18.1079C14.2885 18.1118 14.2785 18.1138 14.2683 18.1138Z" fill="url(#paint26_linear_480_3578)"/>
<path d="M13.8097 18.1139H14.268C14.2782 18.1139 14.2882 18.1119 14.2976 18.108C14.307 18.1041 14.3155 18.0984 14.3227 18.0912C14.3299 18.0841 14.3356 18.0755 14.3395 18.0661C14.3434 18.0568 14.3454 18.0467 14.3454 18.0365V17.2573H13.8097V18.1139Z" fill="url(#paint27_linear_480_3578)"/>
<path d="M13.6858 20.1615H12.5838C12.571 20.1615 12.5587 20.1564 12.5496 20.1474C12.5405 20.1383 12.5354 20.126 12.5354 20.1131V19.442C12.5354 19.4152 12.5571 19.3936 12.5838 19.3936H13.6858C13.7125 19.3936 13.7342 19.4152 13.7342 19.442V20.1131C13.7342 20.126 13.7291 20.1383 13.72 20.1474C13.711 20.1564 13.6986 20.1615 13.6858 20.1615Z" fill="url(#paint28_linear_480_3578)"/>
<path d="M13.6854 19.3936H12.8499V20.1615H13.6854C13.6982 20.1615 13.7105 20.1564 13.7196 20.1473C13.7287 20.1382 13.7338 20.1259 13.7338 20.1131V19.4419C13.7338 19.4291 13.7287 19.4168 13.7196 19.4077C13.7105 19.3986 13.6982 19.3936 13.6854 19.3936Z" fill="url(#paint29_linear_480_3578)"/>
<path d="M12.5354 19.6795V20.1134C12.5354 20.1401 12.5571 20.1618 12.5838 20.1618H13.6858C13.6986 20.1618 13.711 20.1567 13.72 20.1476C13.7291 20.1385 13.7342 20.1262 13.7342 20.1134V19.6795H12.5354Z" fill="url(#paint30_linear_480_3578)"/>
<path d="M12.1582 14.1559V17.0421C12.1582 17.0992 12.1355 17.1539 12.0952 17.1943C12.0548 17.2346 12.0001 17.2573 11.943 17.2573L10.462 17.8315L9.05683 17.2573C8.99976 17.2573 8.94502 17.2346 8.90466 17.1943C8.8643 17.1539 8.84162 17.0992 8.84162 17.0421L8.4635 15.5932L8.84162 14.1559C8.84162 14.0989 8.8643 14.0441 8.90466 14.0038C8.94502 13.9634 8.99976 13.9407 9.05683 13.9407H9.97099L10.4999 14.0769L11.0288 13.9407H11.943C12.0001 13.9407 12.0548 13.9634 12.0951 14.0038C12.1355 14.0441 12.1582 14.0989 12.1582 14.1559Z" fill="url(#paint31_linear_480_3578)"/>
<path d="M8.84167 15.6623V17.0421C8.84167 17.0992 8.86435 17.1539 8.90471 17.1943C8.94507 17.2346 8.99981 17.2573 9.05688 17.2573H11.943C11.9713 17.2573 11.9993 17.2517 12.0254 17.2409C12.0515 17.2301 12.0752 17.2143 12.0952 17.1943C12.1152 17.1743 12.131 17.1506 12.1419 17.1245C12.1527 17.0983 12.1582 17.0704 12.1582 17.0421V15.6623H8.84167Z" fill="url(#paint32_linear_480_3578)"/>
<path d="M12.1586 14.1559V17.0421C12.1586 17.0992 12.1359 17.1539 12.0955 17.1943C12.0552 17.2346 12.0004 17.2573 11.9434 17.2573H10.4624V14.0671L10.5003 14.0769L11.0292 13.9407H11.9434C12.0005 13.9408 12.0552 13.9634 12.0955 14.0038C12.1359 14.0442 12.1586 14.0989 12.1586 14.1559Z" fill="url(#paint33_linear_480_3578)"/>
<path d="M9.99646 14.7718L12.1581 16.9334V14.1559C12.1581 14.1277 12.1525 14.0997 12.1417 14.0736C12.1309 14.0475 12.115 14.0238 12.095 14.0038C12.075 13.9838 12.0513 13.9679 12.0252 13.9571C11.9991 13.9463 11.9711 13.9407 11.9429 13.9407H11.0287L11.0286 13.9408L9.99646 14.7718Z" fill="url(#paint34_linear_480_3578)"/>
<path d="M10.9517 14.7973H10.0487C10.0385 14.7973 10.0284 14.7953 10.0191 14.7914C10.0097 14.7875 10.0011 14.7818 9.99396 14.7747C9.98677 14.7675 9.98108 14.7589 9.97719 14.7496C9.97331 14.7402 9.97131 14.7301 9.97131 14.7199V13.9407H11.029V14.7199C11.029 14.7301 11.027 14.7402 11.0231 14.7496C11.0192 14.7589 11.0136 14.7675 11.0064 14.7746C10.9992 14.7818 10.9907 14.7875 10.9813 14.7914C10.9719 14.7953 10.9618 14.7973 10.9517 14.7973Z" fill="url(#paint35_linear_480_3578)"/>
<path d="M10.9517 14.7973H10.0487C10.0385 14.7973 10.0284 14.7953 10.0191 14.7914C10.0097 14.7875 10.0011 14.7818 9.99396 14.7747C9.98677 14.7675 9.98108 14.7589 9.97719 14.7496C9.97331 14.7402 9.97131 14.7301 9.97131 14.7199V14.3259H11.029V14.7199C11.029 14.7301 11.027 14.7402 11.0231 14.7495C11.0192 14.7589 11.0136 14.7675 11.0064 14.7746C10.9992 14.7818 10.9907 14.7875 10.9813 14.7914C10.9719 14.7953 10.9618 14.7973 10.9517 14.7973Z" fill="url(#paint36_linear_480_3578)"/>
<path d="M10.4932 14.7973H10.9515C10.9616 14.7973 10.9717 14.7953 10.9811 14.7914C10.9905 14.7875 10.999 14.7818 11.0062 14.7747C11.0134 14.7675 11.0191 14.7589 11.023 14.7496C11.0268 14.7402 11.0288 14.7301 11.0288 14.7199V13.9407H10.4932V14.7973Z" fill="url(#paint37_linear_480_3578)"/>
<path d="M10.3693 16.8449H9.26727C9.26092 16.8449 9.25462 16.8437 9.24875 16.8413C9.24288 16.8388 9.23754 16.8353 9.23305 16.8308C9.22855 16.8263 9.22499 16.8209 9.22256 16.8151C9.22012 16.8092 9.21887 16.8029 9.21887 16.7965V16.1254C9.21887 16.0986 9.24053 16.077 9.26727 16.077H10.3693C10.396 16.077 10.4177 16.0986 10.4177 16.1254V16.7965C10.4177 16.8094 10.4126 16.8217 10.4035 16.8308C10.3944 16.8398 10.3821 16.8449 10.3693 16.8449Z" fill="url(#paint38_linear_480_3578)"/>
<path d="M10.3689 16.077H9.53333V16.8449H10.3689C10.3817 16.8449 10.394 16.8398 10.4031 16.8308C10.4122 16.8217 10.4173 16.8094 10.4173 16.7965V16.1254C10.4173 16.1125 10.4122 16.1002 10.4031 16.0911C10.394 16.0821 10.3817 16.077 10.3689 16.077Z" fill="url(#paint39_linear_480_3578)"/>
<path d="M9.21887 16.363V16.7968C9.21887 16.8236 9.24053 16.8452 9.26727 16.8452H10.3693C10.3821 16.8452 10.3944 16.8401 10.4035 16.8311C10.4126 16.822 10.4177 16.8097 10.4177 16.7968V16.363H9.21887Z" fill="url(#paint40_linear_480_3578)"/>
<path d="M8.84171 14.1559V17.0421C8.84171 17.0992 8.81904 17.1539 8.77868 17.1943C8.73832 17.2346 8.68358 17.2573 8.6265 17.2573L7.10207 17.5398L5.74036 17.2573C5.68328 17.2573 5.62854 17.2346 5.58818 17.1943C5.54782 17.1539 5.52515 17.0992 5.52515 17.0421V14.1559C5.52515 14.0989 5.54782 14.0441 5.58818 14.0038C5.62854 13.9634 5.68328 13.9407 5.74036 13.9407H6.65451L7.18345 14.0769L7.71239 13.9407H8.62654C8.68361 13.9407 8.73834 13.9634 8.77869 14.0038C8.81904 14.0441 8.84171 14.0989 8.84171 14.1559Z" fill="url(#paint41_linear_480_3578)"/>
<path d="M5.52515 15.6623V17.0421C5.52515 17.0992 5.54782 17.1539 5.58818 17.1943C5.62854 17.2346 5.68328 17.2573 5.74036 17.2573L7.10207 17.5398L8.6265 17.2573C8.68358 17.2573 8.73832 17.2346 8.77868 17.1943C8.81904 17.1539 8.84171 17.0992 8.84171 17.0421V15.6623H5.52515Z" fill="url(#paint42_linear_480_3578)"/>
<path d="M8.84142 14.1559V17.0421C8.84142 17.0992 8.81875 17.1539 8.77839 17.1943C8.73803 17.2346 8.68329 17.2573 8.62622 17.2573H7.14526V14.0671L7.18316 14.0769L7.7121 13.9407H8.62626C8.68333 13.9407 8.73805 13.9634 8.77841 14.0038C8.81876 14.0441 8.84142 14.0989 8.84142 14.1559Z" fill="url(#paint43_linear_480_3578)"/>
<path d="M6.68042 14.7718L8.84203 16.9334V14.1559C8.84203 14.0989 8.81935 14.0441 8.77899 14.0038C8.73863 13.9634 8.68389 13.9407 8.62682 13.9407H7.71266L7.71258 13.9408L6.68042 14.7718Z" fill="url(#paint44_linear_480_3578)"/>
<path d="M7.63514 14.7973H6.73214C6.72198 14.7973 6.71192 14.7953 6.70253 14.7914C6.69314 14.7875 6.68461 14.7818 6.67743 14.7747C6.67025 14.7675 6.66455 14.7589 6.66066 14.7496C6.65678 14.7402 6.65478 14.7301 6.65479 14.7199V13.9407H7.7125V14.7199C7.7125 14.7301 7.7105 14.7402 7.70662 14.7496C7.70273 14.7589 7.69704 14.7675 7.68985 14.7747C7.68267 14.7818 7.67414 14.7875 7.66475 14.7914C7.65536 14.7953 7.6453 14.7973 7.63514 14.7973Z" fill="url(#paint45_linear_480_3578)"/>
<path d="M7.63514 14.7973H6.73214C6.72198 14.7973 6.71192 14.7953 6.70253 14.7914C6.69314 14.7875 6.68461 14.7818 6.67743 14.7747C6.67025 14.7675 6.66455 14.7589 6.66066 14.7496C6.65678 14.7402 6.65478 14.7301 6.65479 14.7199V14.3259H7.7125V14.7199C7.7125 14.7301 7.7105 14.7402 7.70662 14.7496C7.70273 14.7589 7.69704 14.7675 7.68985 14.7747C7.68267 14.7818 7.67414 14.7875 7.66475 14.7914C7.65536 14.7953 7.6453 14.7973 7.63514 14.7973Z" fill="url(#paint46_linear_480_3578)"/>
<path d="M7.17664 14.7973H7.63494C7.6451 14.7973 7.65517 14.7953 7.66455 14.7914C7.67394 14.7875 7.68247 14.7818 7.68965 14.7747C7.69684 14.7675 7.70254 14.7589 7.70642 14.7496C7.71031 14.7402 7.71231 14.7301 7.7123 14.7199V13.9407H7.17664V14.7973Z" fill="url(#paint47_linear_480_3578)"/>
<path d="M7.05263 16.8449H5.95062C5.93778 16.8449 5.92547 16.8398 5.9164 16.8308C5.90732 16.8217 5.90222 16.8094 5.90222 16.7965V16.1254C5.90222 16.0986 5.92388 16.077 5.95062 16.077H7.05263C7.07937 16.077 7.10103 16.0986 7.10103 16.1254V16.7965C7.10103 16.8094 7.09593 16.8217 7.08685 16.8308C7.07777 16.8398 7.06546 16.8449 7.05263 16.8449Z" fill="url(#paint48_linear_480_3578)"/>
<path d="M7.0522 16.077H6.21667V16.8449H7.0522C7.06504 16.8449 7.07735 16.8398 7.08643 16.8308C7.0955 16.8217 7.1006 16.8094 7.1006 16.7965V16.1254C7.1006 16.1125 7.0955 16.1002 7.08643 16.0911C7.07735 16.0821 7.06504 16.077 7.0522 16.077Z" fill="url(#paint49_linear_480_3578)"/>
<path d="M5.90222 16.363V16.7968C5.90222 16.8236 5.92388 16.8452 5.95062 16.8452H7.05263C7.06546 16.8452 7.07777 16.8401 7.08685 16.8311C7.09593 16.822 7.10103 16.8097 7.10103 16.7968V16.363H5.90222Z" fill="url(#paint50_linear_480_3578)"/>
<path d="M12.1585 17.4725V20.3587C12.1585 20.3869 12.153 20.4149 12.1422 20.441C12.1313 20.4671 12.1155 20.4909 12.0955 20.5109C12.0755 20.5308 12.0518 20.5467 12.0257 20.5575C11.9996 20.5683 11.9716 20.5739 11.9433 20.5739H9.05718C9.02892 20.5739 9.00094 20.5683 8.97483 20.5575C8.94872 20.5467 8.92499 20.5308 8.90501 20.5109C8.88503 20.4909 8.86917 20.4671 8.85836 20.441C8.84754 20.4149 8.84198 20.3869 8.84198 20.3587L8.5426 18.9688L8.84198 17.4725C8.84198 17.4155 8.86465 17.3607 8.90501 17.3204C8.94537 17.28 9.00011 17.2573 9.05718 17.2573H9.97134L10.5002 17.3935L11.0292 17.2573H11.9433C11.9716 17.2573 11.9996 17.2629 12.0257 17.2737C12.0518 17.2845 12.0755 17.3004 12.0955 17.3204C12.1155 17.3403 12.1313 17.3641 12.1422 17.3902C12.153 17.4163 12.1585 17.4443 12.1585 17.4725Z" fill="url(#paint51_linear_480_3578)"/>
<path d="M8.84167 18.9788V20.3586C8.84167 20.3869 8.84724 20.4149 8.85806 20.441C8.86887 20.4671 8.88472 20.4908 8.90471 20.5108C8.92469 20.5308 8.94842 20.5466 8.97453 20.5575C9.00064 20.5683 9.02862 20.5738 9.05688 20.5738H11.943C11.9713 20.5738 11.9993 20.5683 12.0254 20.5575C12.0515 20.5466 12.0752 20.5308 12.0952 20.5108C12.1152 20.4908 12.131 20.4671 12.1419 20.441C12.1527 20.4149 12.1582 20.3869 12.1582 20.3586V18.9788H8.84167Z" fill="url(#paint52_linear_480_3578)"/>
<path d="M12.1586 17.4725V20.3587C12.1586 20.3869 12.153 20.4149 12.1422 20.441C12.1314 20.4671 12.1155 20.4909 12.0955 20.5109C12.0755 20.5308 12.0518 20.5467 12.0257 20.5575C11.9996 20.5683 11.9716 20.5739 11.9434 20.5739H10.4624V17.3837L10.5003 17.3935L11.0292 17.2573H11.9434C12.0005 17.2573 12.0552 17.28 12.0955 17.3204C12.1359 17.3607 12.1586 17.4155 12.1586 17.4725Z" fill="url(#paint53_linear_480_3578)"/>
<path d="M9.99646 18.0883L12.1581 20.2499V17.4725C12.1581 17.4443 12.1525 17.4163 12.1417 17.3902C12.1309 17.3641 12.115 17.3403 12.095 17.3204C12.075 17.3004 12.0513 17.2845 12.0252 17.2737C11.9991 17.2629 11.9711 17.2573 11.9429 17.2573H11.0287L11.0286 17.2574L9.99646 18.0883Z" fill="url(#paint54_linear_480_3578)"/>
<path d="M10.9517 18.1139H10.0487C10.0385 18.1139 10.0284 18.1119 10.0191 18.108C10.0097 18.1041 10.0011 18.0984 9.99396 18.0912C9.98677 18.0841 9.98108 18.0755 9.97719 18.0661C9.97331 18.0568 9.97131 18.0467 9.97131 18.0365V17.2573H11.029V18.0365C11.029 18.0571 11.0209 18.0767 11.0064 18.0912C10.9919 18.1057 10.9722 18.1139 10.9517 18.1139Z" fill="url(#paint55_linear_480_3578)"/>
<path d="M10.9517 18.1138H10.0487C10.0385 18.1138 10.0284 18.1118 10.0191 18.108C10.0097 18.1041 10.0011 18.0984 9.99396 18.0912C9.98677 18.084 9.98108 18.0755 9.97719 18.0661C9.97331 18.0567 9.97131 18.0466 9.97131 18.0365V17.6424H11.029V18.0365C11.029 18.057 11.0209 18.0767 11.0064 18.0912C10.9919 18.1057 10.9722 18.1138 10.9517 18.1138Z" fill="url(#paint56_linear_480_3578)"/>
<path d="M10.4932 18.1139H10.9515C10.9616 18.1139 10.9717 18.1119 10.9811 18.108C10.9905 18.1041 10.999 18.0984 11.0062 18.0912C11.0134 18.0841 11.0191 18.0755 11.023 18.0661C11.0268 18.0568 11.0288 18.0467 11.0288 18.0365V17.2573H10.4932V18.1139Z" fill="url(#paint57_linear_480_3578)"/>
<path d="M10.3693 20.1615H9.26727C9.26092 20.1615 9.25462 20.1603 9.24875 20.1578C9.24288 20.1554 9.23754 20.1518 9.23305 20.1474C9.22855 20.1429 9.22499 20.1375 9.22256 20.1317C9.22012 20.1258 9.21887 20.1195 9.21887 20.1131V19.442C9.21887 19.4152 9.24053 19.3936 9.26727 19.3936H10.3693C10.396 19.3936 10.4177 19.4152 10.4177 19.442V20.1131C10.4177 20.126 10.4126 20.1383 10.4035 20.1474C10.3944 20.1564 10.3821 20.1615 10.3693 20.1615Z" fill="url(#paint58_linear_480_3578)"/>
<path d="M10.3689 19.3936H9.53333V20.1615H10.3689C10.3817 20.1615 10.394 20.1564 10.4031 20.1473C10.4122 20.1382 10.4173 20.1259 10.4173 20.1131V19.4419C10.4172 19.4291 10.4121 19.4168 10.4031 19.4077C10.394 19.3986 10.3817 19.3936 10.3689 19.3936Z" fill="url(#paint59_linear_480_3578)"/>
<path d="M9.21887 19.6795V20.1134C9.21887 20.1401 9.24053 20.1618 9.26727 20.1618H10.3693C10.3821 20.1618 10.3944 20.1567 10.4035 20.1476C10.4126 20.1385 10.4177 20.1262 10.4177 20.1134V19.6795H9.21887Z" fill="url(#paint60_linear_480_3578)"/>
<path d="M8.84171 17.4725V20.3587C8.84171 20.3869 8.83614 20.4149 8.82533 20.441C8.81451 20.4671 8.79866 20.4909 8.77868 20.5109C8.75869 20.5308 8.73497 20.5467 8.70886 20.5575C8.68275 20.5683 8.65476 20.5739 8.6265 20.5739H5.74036C5.71209 20.5739 5.68411 20.5683 5.658 20.5575C5.63189 20.5467 5.60816 20.5308 5.58818 20.5109C5.5682 20.4909 5.55234 20.4671 5.54153 20.441C5.53071 20.4149 5.52515 20.3869 5.52515 20.3587V17.4725C5.52515 17.4155 5.54782 17.3607 5.58818 17.3204C5.62854 17.28 5.68328 17.2573 5.74036 17.2573H6.65451L7.18345 17.3935L7.71239 17.2573H8.62654C8.68361 17.2573 8.73834 17.28 8.77869 17.3204C8.81904 17.3607 8.84171 17.4155 8.84171 17.4725Z" fill="url(#paint61_linear_480_3578)"/>
<path d="M5.52515 18.9788V20.3586C5.52515 20.3869 5.53071 20.4149 5.54153 20.441C5.55234 20.4671 5.5682 20.4908 5.58818 20.5108C5.60816 20.5308 5.63189 20.5466 5.658 20.5575C5.68411 20.5683 5.71209 20.5738 5.74036 20.5738H8.6265C8.65476 20.5738 8.68275 20.5683 8.70886 20.5575C8.73497 20.5466 8.75869 20.5308 8.77868 20.5108C8.79866 20.4908 8.81451 20.4671 8.82533 20.441C8.83614 20.4149 8.84171 20.3869 8.84171 20.3586V18.9788H5.52515Z" fill="url(#paint62_linear_480_3578)"/>
<path d="M8.84142 17.4725V20.3587C8.84142 20.3869 8.83586 20.4149 8.82504 20.441C8.81423 20.4671 8.79838 20.4909 8.77839 20.5109C8.75841 20.5308 8.73468 20.5467 8.70857 20.5575C8.68246 20.5683 8.65448 20.5739 8.62622 20.5739H7.14526V17.3837L7.18316 17.3935L7.7121 17.2573H8.62626C8.68333 17.2573 8.73805 17.28 8.77841 17.3204C8.81876 17.3607 8.84142 17.4155 8.84142 17.4725Z" fill="url(#paint63_linear_480_3578)"/>
<path d="M6.68042 18.0883L8.84203 20.2499V17.4725C8.84203 17.4155 8.81935 17.3607 8.77899 17.3204C8.73863 17.28 8.68389 17.2573 8.62682 17.2573H7.71266L7.71258 17.2574L6.68042 18.0883Z" fill="url(#paint64_linear_480_3578)"/>
<path d="M7.63514 18.1139H6.73214C6.72198 18.1139 6.71192 18.1119 6.70253 18.108C6.69314 18.1041 6.68461 18.0984 6.67743 18.0912C6.67025 18.0841 6.66455 18.0755 6.66066 18.0661C6.65678 18.0568 6.65478 18.0467 6.65479 18.0365V17.2573H7.7125V18.0365C7.7125 18.0467 7.7105 18.0568 7.70662 18.0661C7.70273 18.0755 7.69704 18.0841 7.68985 18.0912C7.68267 18.0984 7.67414 18.1041 7.66475 18.108C7.65536 18.1119 7.6453 18.1139 7.63514 18.1139Z" fill="url(#paint65_linear_480_3578)"/>
<path d="M7.63514 18.1138H6.73214C6.72198 18.1138 6.71192 18.1118 6.70253 18.108C6.69314 18.1041 6.68461 18.0984 6.67743 18.0912C6.67025 18.084 6.66455 18.0755 6.66066 18.0661C6.65678 18.0567 6.65478 18.0466 6.65479 18.0365V17.6424H7.7125V18.0365C7.7125 18.0466 7.7105 18.0567 7.70662 18.0661C7.70273 18.0755 7.69704 18.084 7.68985 18.0912C7.68267 18.0984 7.67414 18.1041 7.66475 18.108C7.65536 18.1118 7.6453 18.1138 7.63514 18.1138Z" fill="url(#paint66_linear_480_3578)"/>
<path d="M7.17664 18.1139H7.63494C7.6451 18.1139 7.65517 18.1119 7.66455 18.108C7.67394 18.1041 7.68247 18.0984 7.68965 18.0912C7.69684 18.0841 7.70254 18.0755 7.70642 18.0661C7.71031 18.0568 7.71231 18.0467 7.7123 18.0365V17.2573H7.17664V18.1139Z" fill="url(#paint67_linear_480_3578)"/>
<path d="M7.05263 20.1615H5.95062C5.93778 20.1615 5.92547 20.1564 5.9164 20.1474C5.90732 20.1383 5.90222 20.126 5.90222 20.1131V19.442C5.90222 19.4152 5.92388 19.3936 5.95062 19.3936H7.05263C7.07937 19.3936 7.10103 19.4152 7.10103 19.442V20.1131C7.10103 20.126 7.09593 20.1383 7.08685 20.1474C7.07777 20.1564 7.06546 20.1615 7.05263 20.1615Z" fill="url(#paint68_linear_480_3578)"/>
<path d="M7.0522 19.3936H6.21667V20.1615H7.0522C7.06504 20.1615 7.07735 20.1564 7.08643 20.1473C7.0955 20.1382 7.1006 20.1259 7.1006 20.1131V19.4419C7.10059 19.4291 7.09549 19.4168 7.08641 19.4077C7.07734 19.3986 7.06503 19.3936 7.0522 19.3936Z" fill="url(#paint69_linear_480_3578)"/>
<path d="M5.90222 19.6795V20.1134C5.90222 20.1401 5.92388 20.1618 5.95062 20.1618H7.05263C7.06546 20.1618 7.07777 20.1567 7.08685 20.1476C7.09593 20.1385 7.10103 20.1262 7.10103 20.1134V19.6795H5.90222Z" fill="url(#paint70_linear_480_3578)"/>
<path d="M14.5103 11.4439L13.7633 14.2317C13.756 14.259 13.7433 14.2846 13.7261 14.307C13.7089 14.3294 13.6875 14.3482 13.663 14.3624C13.6385 14.3765 13.6115 14.3857 13.5835 14.3893C13.5554 14.393 13.527 14.3912 13.4997 14.3838L10.7119 13.6369C10.6846 13.6295 10.659 13.6169 10.6366 13.5997C10.6141 13.5825 10.5953 13.5611 10.5812 13.5366C10.5671 13.5121 10.5579 13.4851 10.5542 13.4571C10.5505 13.429 10.5524 13.4006 10.5597 13.3733L11.3067 10.5855C11.3215 10.5303 11.3575 10.4833 11.407 10.4548C11.4564 10.4263 11.5151 10.4185 11.5703 10.4333L12.4532 10.6699L12.9289 10.9383L13.475 10.9437L14.358 11.1803C14.3853 11.1876 14.4109 11.2002 14.4333 11.2174C14.4558 11.2346 14.4746 11.2561 14.4887 11.2805C14.5029 11.305 14.5121 11.332 14.5157 11.3601C14.5194 11.3881 14.5176 11.4166 14.5103 11.4439Z" fill="url(#paint71_linear_480_3578)"/>
<path d="M10.9168 12.0403L10.5597 13.3731C10.5449 13.4282 10.5527 13.487 10.5812 13.5364C10.6097 13.5858 10.6567 13.6219 10.7119 13.6367L13.4997 14.3836C13.5548 14.3984 13.6136 14.3907 13.663 14.3621C13.7124 14.3336 13.7485 14.2866 13.7633 14.2315L14.1204 12.8987L10.9168 12.0403Z" fill="url(#paint72_linear_480_3578)"/>
<path d="M14.5105 11.444L13.7636 14.2318C13.7563 14.2591 13.7436 14.2847 13.7264 14.3072C13.7092 14.3296 13.6878 14.3484 13.6633 14.3625C13.6388 14.3767 13.6118 14.3858 13.5838 14.3895C13.5557 14.3932 13.5273 14.3913 13.5 14.384L12.0695 14.0007L12.8951 10.9193L12.9292 10.9384L13.4753 10.9439L14.3583 11.1804C14.3856 11.1877 14.4112 11.2004 14.4337 11.2176C14.4561 11.2348 14.4749 11.2562 14.489 11.2807C14.5032 11.3052 14.5124 11.3322 14.516 11.3602C14.5197 11.3883 14.5179 11.4167 14.5105 11.444Z" fill="url(#paint73_linear_480_3578)"/>
<path d="M12.2631 11.4787L13.7915 14.1261L14.5104 11.4434C14.5252 11.3882 14.5174 11.3295 14.4889 11.28C14.4604 11.2306 14.4134 11.1945 14.3582 11.1798L13.4752 10.9432H13.4752L12.2631 11.4787Z" fill="url(#paint74_linear_480_3578)"/>
<path d="M13.1789 11.7509L12.3067 11.5172C12.2869 11.5118 12.27 11.4989 12.2598 11.4811C12.2495 11.4633 12.2467 11.4422 12.252 11.4224L12.4537 10.6697L13.4753 10.9435L13.2737 11.6962C13.2684 11.716 13.2554 11.7329 13.2376 11.7431C13.2199 11.7534 13.1987 11.7562 13.1789 11.7509Z" fill="url(#paint75_linear_480_3578)"/>
<path d="M13.1789 11.7503L12.3067 11.5166C12.2869 11.5113 12.27 11.4983 12.2598 11.4805C12.2495 11.4628 12.2467 11.4416 12.252 11.4218L12.354 11.0412L13.3757 11.3149L13.2737 11.6956C13.2684 11.7154 13.2554 11.7323 13.2376 11.7425C13.2199 11.7528 13.1987 11.7556 13.1789 11.7503Z" fill="url(#paint76_linear_480_3578)"/>
<path d="M12.736 11.6316L13.1786 11.7502C13.1885 11.7529 13.1987 11.7535 13.2088 11.7522C13.2188 11.7509 13.2286 11.7476 13.2374 11.7425C13.2461 11.7374 13.2539 11.7306 13.26 11.7226C13.2662 11.7145 13.2708 11.7053 13.2734 11.6955L13.4751 10.9428L12.9577 10.8042L12.736 11.6316Z" fill="url(#paint77_linear_480_3578)"/>
<path d="M12.0863 13.5783L11.0218 13.293C11.0094 13.2897 10.9989 13.2816 10.9924 13.2705C10.986 13.2594 10.9843 13.2462 10.9876 13.2338L11.1613 12.5855C11.1646 12.5731 11.1727 12.5625 11.1839 12.5561C11.195 12.5497 11.2082 12.5479 11.2206 12.5513L12.2851 12.8365C12.2975 12.8398 12.308 12.8479 12.3144 12.859C12.3208 12.8702 12.3226 12.8834 12.3193 12.8958L12.1456 13.5441C12.1422 13.5564 12.1341 13.567 12.123 13.5734C12.1119 13.5798 12.0987 13.5816 12.0863 13.5783Z" fill="url(#paint78_linear_480_3578)"/>
<path d="M12.2851 12.8365L11.4781 12.6203L11.2793 13.3621L12.0864 13.5783C12.0988 13.5817 12.112 13.5799 12.1231 13.5735C12.1342 13.5671 12.1423 13.5565 12.1456 13.5441L12.3193 12.8958C12.321 12.8897 12.3214 12.8833 12.3206 12.877C12.3198 12.8707 12.3177 12.8646 12.3145 12.8591C12.3113 12.8536 12.3071 12.8488 12.3021 12.8449C12.297 12.841 12.2913 12.8382 12.2851 12.8365Z" fill="url(#paint79_linear_480_3578)"/>
<path d="M11.0999 12.814L10.9876 13.2331C10.9843 13.2455 10.986 13.2587 10.9924 13.2698C10.9989 13.2809 11.0094 13.289 11.0218 13.2923L12.0863 13.5776C12.0987 13.5809 12.1119 13.5791 12.123 13.5727C12.1341 13.5663 12.1422 13.5557 12.1456 13.5433L12.2579 13.1242L11.0999 12.814Z" fill="url(#paint80_linear_480_3578)"/>
<defs>
<linearGradient id="paint0_linear_480_3578" x1="5.33499" y1="8.06504" x2="17.8038" y2="19.3038" gradientUnits="userSpaceOnUse">
<stop stop-color="#60B7FF"/>
<stop offset="1" stop-color="#0268B4"/>
</linearGradient>
<linearGradient id="paint1_linear_480_3578" x1="10.5001" y1="8.09886" x2="10.5001" y2="7.39471" gradientUnits="userSpaceOnUse">
<stop stop-color="#60B7FF"/>
<stop offset="1" stop-color="#0268B4"/>
</linearGradient>
<linearGradient id="paint2_linear_480_3578" x1="10.5001" y1="7.14299" x2="10.5001" y2="6.43879" gradientUnits="userSpaceOnUse">
<stop stop-color="#60B7FF"/>
<stop offset="1" stop-color="#0268B4"/>
</linearGradient>
<linearGradient id="paint3_linear_480_3578" x1="10.5001" y1="6.18822" x2="10.5001" y2="5.48402" gradientUnits="userSpaceOnUse">
<stop stop-color="#60B7FF"/>
<stop offset="1" stop-color="#0268B4"/>
</linearGradient>
<linearGradient id="paint4_linear_480_3578" x1="10.5001" y1="5.2334" x2="10.5001" y2="4.52925" gradientUnits="userSpaceOnUse">
<stop stop-color="#60B7FF"/>
<stop offset="1" stop-color="#0268B4"/>
</linearGradient>
<linearGradient id="paint5_linear_480_3578" x1="8.91036" y1="5.52748" x2="7.85856" y2="3.33971" gradientUnits="userSpaceOnUse">
<stop stop-color="#024C67" stop-opacity="0"/>
<stop offset="0.266" stop-color="#034664" stop-opacity="0.266"/>
<stop offset="0.609" stop-color="#06365B" stop-opacity="0.609"/>
<stop offset="0.994" stop-color="#0B1B4C" stop-opacity="0.994"/>
<stop offset="1" stop-color="#0B1B4C"/>
</linearGradient>
<linearGradient id="paint6_linear_480_3578" x1="12.09" y1="5.52748" x2="13.1418" y2="3.33971" gradientUnits="userSpaceOnUse">
<stop stop-color="#024C67" stop-opacity="0"/>
<stop offset="0.266" stop-color="#034664" stop-opacity="0.266"/>
<stop offset="0.609" stop-color="#06365B" stop-opacity="0.609"/>
<stop offset="0.994" stop-color="#0B1B4C" stop-opacity="0.994"/>
<stop offset="1" stop-color="#0B1B4C"/>
</linearGradient>
<linearGradient id="paint7_linear_480_3578" x1="17.9888" y1="10.4154" x2="20.6724" y2="10.4154" gradientUnits="userSpaceOnUse">
<stop stop-color="#024C67" stop-opacity="0"/>
<stop offset="0.266" stop-color="#034664" stop-opacity="0.266"/>
<stop offset="0.609" stop-color="#06365B" stop-opacity="0.609"/>
<stop offset="0.994" stop-color="#0B1B4C" stop-opacity="0.994"/>
<stop offset="1" stop-color="#0B1B4C"/>
</linearGradient>
<linearGradient id="paint8_linear_480_3578" x1="10.5002" y1="18.2349" x2="10.5002" y2="21.0806" gradientUnits="userSpaceOnUse">
<stop stop-color="#024C67" stop-opacity="0"/>
<stop offset="0.266" stop-color="#034664" stop-opacity="0.266"/>
<stop offset="0.609" stop-color="#06365B" stop-opacity="0.609"/>
<stop offset="0.994" stop-color="#0B1B4C" stop-opacity="0.994"/>
<stop offset="1" stop-color="#0B1B4C"/>
</linearGradient>
<linearGradient id="paint9_linear_480_3578" x1="10.5" y1="0.450669" x2="10.5" y2="7.43473" gradientUnits="userSpaceOnUse">
<stop stop-color="#F5FBFF"/>
<stop offset="1" stop-color="#DBD5EF"/>
</linearGradient>
<linearGradient id="paint10_linear_480_3578" x1="10.2921" y1="0.473268" x2="10.5165" y2="6.78414" gradientUnits="userSpaceOnUse">
<stop stop-color="#F5FBFF"/>
<stop offset="1" stop-color="#DBD5EF"/>
</linearGradient>
<linearGradient id="paint11_linear_480_3578" x1="10.5" y1="4.96614" x2="10.5" y2="-0.132918" gradientUnits="userSpaceOnUse">
<stop stop-color="#DBD5EF" stop-opacity="0"/>
<stop offset="0.285" stop-color="#D9D2EE" stop-opacity="0.285"/>
<stop offset="0.474" stop-color="#D4C9E9" stop-opacity="0.474"/>
<stop offset="0.635" stop-color="#CBBAE2" stop-opacity="0.635"/>
<stop offset="0.779" stop-color="#BFA5D7" stop-opacity="0.78"/>
<stop offset="0.913" stop-color="#AF8ACA" stop-opacity="0.913"/>
<stop offset="1" stop-color="#A274BF"/>
</linearGradient>
<linearGradient id="paint12_linear_480_3578" x1="15.0442" y1="2.94632" x2="13.8162" y2="3.84296" gradientUnits="userSpaceOnUse">
<stop stop-color="#DBD5EF" stop-opacity="0"/>
<stop offset="0.285" stop-color="#D9D2EE" stop-opacity="0.285"/>
<stop offset="0.474" stop-color="#D4C9E9" stop-opacity="0.474"/>
<stop offset="0.635" stop-color="#CBBAE2" stop-opacity="0.635"/>
<stop offset="0.779" stop-color="#BFA5D7" stop-opacity="0.78"/>
<stop offset="0.913" stop-color="#AF8ACA" stop-opacity="0.913"/>
<stop offset="1" stop-color="#A274BF"/>
</linearGradient>
<linearGradient id="paint13_linear_480_3578" x1="19.9341" y1="5.08219" x2="21.1061" y2="5.08219" gradientUnits="userSpaceOnUse">
<stop stop-color="#DBD5EF" stop-opacity="0"/>
<stop offset="0.285" stop-color="#D9D2EE" stop-opacity="0.285"/>
<stop offset="0.474" stop-color="#D4C9E9" stop-opacity="0.474"/>
<stop offset="0.635" stop-color="#CBBAE2" stop-opacity="0.635"/>
<stop offset="0.779" stop-color="#BFA5D7" stop-opacity="0.78"/>
<stop offset="0.913" stop-color="#AF8ACA" stop-opacity="0.913"/>
<stop offset="1" stop-color="#A274BF"/>
</linearGradient>
<linearGradient id="paint14_linear_480_3578" x1="17.4577" y1="5.24753" x2="17.4577" y2="7.63427" gradientUnits="userSpaceOnUse">
<stop stop-color="#DBD5EF" stop-opacity="0"/>
<stop offset="0.285" stop-color="#D9D2EE" stop-opacity="0.285"/>
<stop offset="0.474" stop-color="#D4C9E9" stop-opacity="0.474"/>
<stop offset="0.635" stop-color="#CBBAE2" stop-opacity="0.635"/>
<stop offset="0.779" stop-color="#BFA5D7" stop-opacity="0.78"/>
<stop offset="0.913" stop-color="#AF8ACA" stop-opacity="0.913"/>
<stop offset="1" stop-color="#A274BF"/>
</linearGradient>
<linearGradient id="paint15_linear_480_3578" x1="3.54203" y1="5.24757" x2="3.54203" y2="7.63431" gradientUnits="userSpaceOnUse">
<stop stop-color="#DBD5EF" stop-opacity="0"/>
<stop offset="0.285" stop-color="#D9D2EE" stop-opacity="0.285"/>
<stop offset="0.474" stop-color="#D4C9E9" stop-opacity="0.474"/>
<stop offset="0.635" stop-color="#CBBAE2" stop-opacity="0.635"/>
<stop offset="0.779" stop-color="#BFA5D7" stop-opacity="0.78"/>
<stop offset="0.913" stop-color="#AF8ACA" stop-opacity="0.913"/>
<stop offset="1" stop-color="#A274BF"/>
</linearGradient>
<linearGradient id="paint16_linear_480_3578" x1="8.5019" y1="11.4873" x2="12.069" y2="18.6216" gradientUnits="userSpaceOnUse">
<stop stop-color="#5A5A5A"/>
<stop offset="1" stop-color="#444444"/>
</linearGradient>
<linearGradient id="paint17_linear_480_3578" x1="7.75509" y1="15.194" x2="4.59664" y2="15.194" gradientUnits="userSpaceOnUse">
<stop stop-color="#433F43" stop-opacity="0"/>
<stop offset="0.344" stop-color="#403C40" stop-opacity="0.344"/>
<stop offset="0.622" stop-color="#363336" stop-opacity="0.622"/>
<stop offset="0.876" stop-color="#252425" stop-opacity="0.876"/>
<stop offset="1" stop-color="#1A1A1A"/>
</linearGradient>
<linearGradient id="paint18_linear_480_3578" x1="10.4998" y1="12.6796" x2="10.4998" y2="9.98896" gradientUnits="userSpaceOnUse">
<stop stop-color="#433F43" stop-opacity="0"/>
<stop offset="0.344" stop-color="#403C40" stop-opacity="0.344"/>
<stop offset="0.622" stop-color="#363336" stop-opacity="0.622"/>
<stop offset="0.876" stop-color="#252425" stop-opacity="0.876"/>
<stop offset="1" stop-color="#1A1A1A"/>
</linearGradient>
<linearGradient id="paint19_linear_480_3578" x1="16.2964" y1="17.2348" x2="11.6475" y2="15.2612" gradientUnits="userSpaceOnUse">
<stop stop-color="#433F43" stop-opacity="0"/>
<stop offset="0.344" stop-color="#403C40" stop-opacity="0.344"/>
<stop offset="0.622" stop-color="#363336" stop-opacity="0.622"/>
<stop offset="0.876" stop-color="#252425" stop-opacity="0.876"/>
<stop offset="1" stop-color="#1A1A1A"/>
</linearGradient>
<linearGradient id="paint20_linear_480_3578" x1="16.1392" y1="19.0206" x2="15.4436" y2="18.9444" gradientUnits="userSpaceOnUse">
<stop stop-color="#433F43" stop-opacity="0"/>
<stop offset="0.344" stop-color="#403C40" stop-opacity="0.344"/>
<stop offset="0.622" stop-color="#363336" stop-opacity="0.622"/>
<stop offset="0.876" stop-color="#252425" stop-opacity="0.876"/>
<stop offset="1" stop-color="#1A1A1A"/>
</linearGradient>
<linearGradient id="paint21_linear_480_3578" x1="12.5633" y1="17.6624" x2="15.4933" y2="20.5924" gradientUnits="userSpaceOnUse">
<stop stop-color="#FEA613"/>
<stop offset="1" stop-color="#C4573A"/>
</linearGradient>
<linearGradient id="paint22_linear_480_3578" x1="13.8166" y1="19.8903" x2="13.8166" y2="20.6249" gradientUnits="userSpaceOnUse">
<stop stop-color="#C4573A" stop-opacity="0"/>
<stop offset="0.235" stop-color="#BE5539" stop-opacity="0.235"/>
<stop offset="0.539" stop-color="#AE4E35" stop-opacity="0.539"/>
<stop offset="0.879" stop-color="#934330" stop-opacity="0.879"/>
<stop offset="1" stop-color="#883F2E"/>
</linearGradient>
<linearGradient id="paint23_linear_480_3578" x1="14.8928" y1="18.9156" x2="15.5806" y2="18.9156" gradientUnits="userSpaceOnUse">
<stop stop-color="#C4573A" stop-opacity="0"/>
<stop offset="0.235" stop-color="#BE5539" stop-opacity="0.235"/>
<stop offset="0.539" stop-color="#AE4E35" stop-opacity="0.539"/>
<stop offset="0.879" stop-color="#934330" stop-opacity="0.879"/>
<stop offset="1" stop-color="#883F2E"/>
</linearGradient>
<linearGradient id="paint24_linear_480_3578" x1="14.9057" y1="18.4437" x2="13.9099" y2="17.085" gradientUnits="userSpaceOnUse">
<stop stop-color="#C4573A" stop-opacity="0"/>
<stop offset="0.235" stop-color="#BE5539" stop-opacity="0.235"/>
<stop offset="0.539" stop-color="#AE4E35" stop-opacity="0.539"/>
<stop offset="0.879" stop-color="#934330" stop-opacity="0.879"/>
<stop offset="1" stop-color="#883F2E"/>
</linearGradient>
<linearGradient id="paint25_linear_480_3578" x1="13.4449" y1="17.4432" x2="14.3985" y2="18.0213" gradientUnits="userSpaceOnUse">
<stop stop-color="#FEF0AE"/>
<stop offset="1" stop-color="#FAC600"/>
</linearGradient>
<linearGradient id="paint26_linear_480_3578" x1="13.8168" y1="17.8956" x2="13.8168" y2="18.1319" gradientUnits="userSpaceOnUse">
<stop stop-color="#FE9738" stop-opacity="0"/>
<stop offset="1" stop-color="#FE9738"/>
</linearGradient>
<linearGradient id="paint27_linear_480_3578" x1="14.1515" y1="17.6856" x2="14.3337" y2="17.6856" gradientUnits="userSpaceOnUse">
<stop stop-color="#FE9738" stop-opacity="0"/>
<stop offset="1" stop-color="#FE9738"/>
</linearGradient>
<linearGradient id="paint28_linear_480_3578" x1="12.6023" y1="19.6001" x2="13.4655" y2="19.8878" gradientUnits="userSpaceOnUse">
<stop stop-color="#F5FBFF"/>
<stop offset="1" stop-color="#DBD5EF"/>
</linearGradient>
<linearGradient id="paint29_linear_480_3578" x1="13.1738" y1="19.7775" x2="13.7768" y2="19.7775" gradientUnits="userSpaceOnUse">
<stop stop-color="#DBD5EF" stop-opacity="0"/>
<stop offset="0.285" stop-color="#D9D2EE" stop-opacity="0.285"/>
<stop offset="0.474" stop-color="#D4C9E9" stop-opacity="0.474"/>
<stop offset="0.635" stop-color="#CBBAE2" stop-opacity="0.635"/>
<stop offset="0.779" stop-color="#BFA5D7" stop-opacity="0.78"/>
<stop offset="0.913" stop-color="#AF8ACA" stop-opacity="0.913"/>
<stop offset="1" stop-color="#A274BF"/>
</linearGradient>
<linearGradient id="paint30_linear_480_3578" x1="13.1348" y1="19.776" x2="13.1348" y2="20.1821" gradientUnits="userSpaceOnUse">
<stop stop-color="#DBD5EF" stop-opacity="0"/>
<stop offset="0.285" stop-color="#D9D2EE" stop-opacity="0.285"/>
<stop offset="0.474" stop-color="#D4C9E9" stop-opacity="0.474"/>
<stop offset="0.635" stop-color="#CBBAE2" stop-opacity="0.635"/>
<stop offset="0.779" stop-color="#BFA5D7" stop-opacity="0.78"/>
<stop offset="0.913" stop-color="#AF8ACA" stop-opacity="0.913"/>
<stop offset="1" stop-color="#A274BF"/>
</linearGradient>
<linearGradient id="paint31_linear_480_3578" x1="9.24669" y1="14.3458" x2="12.1767" y2="17.2759" gradientUnits="userSpaceOnUse">
<stop stop-color="#FEA613"/>
<stop offset="1" stop-color="#C4573A"/>
</linearGradient>
<linearGradient id="paint32_linear_480_3578" x1="10.4999" y1="16.5737" x2="10.4999" y2="17.3084" gradientUnits="userSpaceOnUse">
<stop stop-color="#C4573A" stop-opacity="0"/>
<stop offset="0.235" stop-color="#BE5539" stop-opacity="0.235"/>
<stop offset="0.539" stop-color="#AE4E35" stop-opacity="0.539"/>
<stop offset="0.879" stop-color="#934330" stop-opacity="0.879"/>
<stop offset="1" stop-color="#883F2E"/>
</linearGradient>
<linearGradient id="paint33_linear_480_3578" x1="11.5763" y1="15.599" x2="12.264" y2="15.599" gradientUnits="userSpaceOnUse">
<stop stop-color="#C4573A" stop-opacity="0"/>
<stop offset="0.235" stop-color="#BE5539" stop-opacity="0.235"/>
<stop offset="0.539" stop-color="#AE4E35" stop-opacity="0.539"/>
<stop offset="0.879" stop-color="#934330" stop-opacity="0.879"/>
<stop offset="1" stop-color="#883F2E"/>
</linearGradient>
<linearGradient id="paint34_linear_480_3578" x1="11.5892" y1="15.1271" x2="10.5934" y2="13.7684" gradientUnits="userSpaceOnUse">
<stop stop-color="#C4573A" stop-opacity="0"/>
<stop offset="0.235" stop-color="#BE5539" stop-opacity="0.235"/>
<stop offset="0.539" stop-color="#AE4E35" stop-opacity="0.539"/>
<stop offset="0.879" stop-color="#934330" stop-opacity="0.879"/>
<stop offset="1" stop-color="#883F2E"/>
</linearGradient>
<linearGradient id="paint35_linear_480_3578" x1="10.1282" y1="14.1267" x2="11.0819" y2="14.7048" gradientUnits="userSpaceOnUse">
<stop stop-color="#FEF0AE"/>
<stop offset="1" stop-color="#FAC600"/>
</linearGradient>
<linearGradient id="paint36_linear_480_3578" x1="10.5002" y1="14.5791" x2="10.5002" y2="14.8154" gradientUnits="userSpaceOnUse">
<stop stop-color="#FE9738" stop-opacity="0"/>
<stop offset="1" stop-color="#FE9738"/>
</linearGradient>
<linearGradient id="paint37_linear_480_3578" x1="10.8349" y1="14.3691" x2="11.0172" y2="14.3691" gradientUnits="userSpaceOnUse">
<stop stop-color="#FE9738" stop-opacity="0"/>
<stop offset="1" stop-color="#FE9738"/>
</linearGradient>
<linearGradient id="paint38_linear_480_3578" x1="9.28577" y1="16.2835" x2="10.1489" y2="16.5712" gradientUnits="userSpaceOnUse">
<stop stop-color="#F5FBFF"/>
<stop offset="1" stop-color="#DBD5EF"/>
</linearGradient>
<linearGradient id="paint39_linear_480_3578" x1="9.85723" y1="16.4609" x2="10.4602" y2="16.4609" gradientUnits="userSpaceOnUse">
<stop stop-color="#DBD5EF" stop-opacity="0"/>
<stop offset="0.285" stop-color="#D9D2EE" stop-opacity="0.285"/>
<stop offset="0.474" stop-color="#D4C9E9" stop-opacity="0.474"/>
<stop offset="0.635" stop-color="#CBBAE2" stop-opacity="0.635"/>
<stop offset="0.779" stop-color="#BFA5D7" stop-opacity="0.78"/>
<stop offset="0.913" stop-color="#AF8ACA" stop-opacity="0.913"/>
<stop offset="1" stop-color="#A274BF"/>
</linearGradient>
<linearGradient id="paint40_linear_480_3578" x1="9.81827" y1="16.4594" x2="9.81827" y2="16.8655" gradientUnits="userSpaceOnUse">
<stop stop-color="#DBD5EF" stop-opacity="0"/>
<stop offset="0.285" stop-color="#D9D2EE" stop-opacity="0.285"/>
<stop offset="0.474" stop-color="#D4C9E9" stop-opacity="0.474"/>
<stop offset="0.635" stop-color="#CBBAE2" stop-opacity="0.635"/>
<stop offset="0.779" stop-color="#BFA5D7" stop-opacity="0.78"/>
<stop offset="0.913" stop-color="#AF8ACA" stop-opacity="0.913"/>
<stop offset="1" stop-color="#A274BF"/>
</linearGradient>
<linearGradient id="paint41_linear_480_3578" x1="5.93022" y1="14.3458" x2="8.86025" y2="17.2759" gradientUnits="userSpaceOnUse">
<stop stop-color="#FEA613"/>
<stop offset="1" stop-color="#C4573A"/>
</linearGradient>
<linearGradient id="paint42_linear_480_3578" x1="7.18345" y1="16.7351" x2="7.18345" y2="17.5999" gradientUnits="userSpaceOnUse">
<stop stop-color="#C4573A" stop-opacity="0"/>
<stop offset="0.235" stop-color="#BE5539" stop-opacity="0.235"/>
<stop offset="0.539" stop-color="#AE4E35" stop-opacity="0.539"/>
<stop offset="0.879" stop-color="#934330" stop-opacity="0.879"/>
<stop offset="1" stop-color="#883F2E"/>
</linearGradient>
<linearGradient id="paint43_linear_480_3578" x1="8.25917" y1="15.599" x2="8.94692" y2="15.599" gradientUnits="userSpaceOnUse">
<stop stop-color="#C4573A" stop-opacity="0"/>
<stop offset="0.235" stop-color="#BE5539" stop-opacity="0.235"/>
<stop offset="0.539" stop-color="#AE4E35" stop-opacity="0.539"/>
<stop offset="0.879" stop-color="#934330" stop-opacity="0.879"/>
<stop offset="1" stop-color="#883F2E"/>
</linearGradient>
<linearGradient id="paint44_linear_480_3578" x1="8.2731" y1="15.1271" x2="7.27728" y2="13.7684" gradientUnits="userSpaceOnUse">
<stop stop-color="#C4573A" stop-opacity="0"/>
<stop offset="0.235" stop-color="#BE5539" stop-opacity="0.235"/>
<stop offset="0.539" stop-color="#AE4E35" stop-opacity="0.539"/>
<stop offset="0.879" stop-color="#934330" stop-opacity="0.879"/>
<stop offset="1" stop-color="#883F2E"/>
</linearGradient>
<linearGradient id="paint45_linear_480_3578" x1="6.81171" y1="14.1267" x2="7.76532" y2="14.7048" gradientUnits="userSpaceOnUse">
<stop stop-color="#FEF0AE"/>
<stop offset="1" stop-color="#FAC600"/>
</linearGradient>
<linearGradient id="paint46_linear_480_3578" x1="7.18368" y1="14.5791" x2="7.18368" y2="14.8154" gradientUnits="userSpaceOnUse">
<stop stop-color="#FE9738" stop-opacity="0"/>
<stop offset="1" stop-color="#FE9738"/>
</linearGradient>
<linearGradient id="paint47_linear_480_3578" x1="7.51842" y1="14.3691" x2="7.70065" y2="14.3691" gradientUnits="userSpaceOnUse">
<stop stop-color="#FE9738" stop-opacity="0"/>
<stop offset="1" stop-color="#FE9738"/>
</linearGradient>
<linearGradient id="paint48_linear_480_3578" x1="5.96912" y1="16.2835" x2="6.83229" y2="16.5712" gradientUnits="userSpaceOnUse">
<stop stop-color="#F5FBFF"/>
<stop offset="1" stop-color="#DBD5EF"/>
</linearGradient>
<linearGradient id="paint49_linear_480_3578" x1="6.54053" y1="16.4609" x2="7.14359" y2="16.4609" gradientUnits="userSpaceOnUse">
<stop stop-color="#DBD5EF" stop-opacity="0"/>
<stop offset="0.285" stop-color="#D9D2EE" stop-opacity="0.285"/>
<stop offset="0.474" stop-color="#D4C9E9" stop-opacity="0.474"/>
<stop offset="0.635" stop-color="#CBBAE2" stop-opacity="0.635"/>
<stop offset="0.779" stop-color="#BFA5D7" stop-opacity="0.78"/>
<stop offset="0.913" stop-color="#AF8ACA" stop-opacity="0.913"/>
<stop offset="1" stop-color="#A274BF"/>
</linearGradient>
<linearGradient id="paint50_linear_480_3578" x1="6.50162" y1="16.4594" x2="6.50162" y2="16.8655" gradientUnits="userSpaceOnUse">
<stop stop-color="#DBD5EF" stop-opacity="0"/>
<stop offset="0.285" stop-color="#D9D2EE" stop-opacity="0.285"/>
<stop offset="0.474" stop-color="#D4C9E9" stop-opacity="0.474"/>
<stop offset="0.635" stop-color="#CBBAE2" stop-opacity="0.635"/>
<stop offset="0.779" stop-color="#BFA5D7" stop-opacity="0.78"/>
<stop offset="0.913" stop-color="#AF8ACA" stop-opacity="0.913"/>
<stop offset="1" stop-color="#A274BF"/>
</linearGradient>
<linearGradient id="paint51_linear_480_3578" x1="9.24705" y1="17.6624" x2="12.1771" y2="20.5924" gradientUnits="userSpaceOnUse">
<stop stop-color="#FEA613"/>
<stop offset="1" stop-color="#C4573A"/>
</linearGradient>
<linearGradient id="paint52_linear_480_3578" x1="10.4999" y1="19.8903" x2="10.4999" y2="20.6249" gradientUnits="userSpaceOnUse">
<stop stop-color="#C4573A" stop-opacity="0"/>
<stop offset="0.235" stop-color="#BE5539" stop-opacity="0.235"/>
<stop offset="0.539" stop-color="#AE4E35" stop-opacity="0.539"/>
<stop offset="0.879" stop-color="#934330" stop-opacity="0.879"/>
<stop offset="1" stop-color="#883F2E"/>
</linearGradient>
<linearGradient id="paint53_linear_480_3578" x1="11.5763" y1="18.9156" x2="12.264" y2="18.9156" gradientUnits="userSpaceOnUse">
<stop stop-color="#C4573A" stop-opacity="0"/>
<stop offset="0.235" stop-color="#BE5539" stop-opacity="0.235"/>
<stop offset="0.539" stop-color="#AE4E35" stop-opacity="0.539"/>
<stop offset="0.879" stop-color="#934330" stop-opacity="0.879"/>
<stop offset="1" stop-color="#883F2E"/>
</linearGradient>
<linearGradient id="paint54_linear_480_3578" x1="11.5892" y1="18.4437" x2="10.5934" y2="17.085" gradientUnits="userSpaceOnUse">
<stop stop-color="#C4573A" stop-opacity="0"/>
<stop offset="0.235" stop-color="#BE5539" stop-opacity="0.235"/>
<stop offset="0.539" stop-color="#AE4E35" stop-opacity="0.539"/>
<stop offset="0.879" stop-color="#934330" stop-opacity="0.879"/>
<stop offset="1" stop-color="#883F2E"/>
</linearGradient>
<linearGradient id="paint55_linear_480_3578" x1="10.1282" y1="17.4432" x2="11.0819" y2="18.0213" gradientUnits="userSpaceOnUse">
<stop stop-color="#FEF0AE"/>
<stop offset="1" stop-color="#FAC600"/>
</linearGradient>
<linearGradient id="paint56_linear_480_3578" x1="10.5002" y1="17.8956" x2="10.5002" y2="18.1319" gradientUnits="userSpaceOnUse">
<stop stop-color="#FE9738" stop-opacity="0"/>
<stop offset="1" stop-color="#FE9738"/>
</linearGradient>
<linearGradient id="paint57_linear_480_3578" x1="10.8349" y1="17.6856" x2="11.0172" y2="17.6856" gradientUnits="userSpaceOnUse">
<stop stop-color="#FE9738" stop-opacity="0"/>
<stop offset="1" stop-color="#FE9738"/>
</linearGradient>
<linearGradient id="paint58_linear_480_3578" x1="9.28577" y1="19.6001" x2="10.1489" y2="19.8878" gradientUnits="userSpaceOnUse">
<stop stop-color="#F5FBFF"/>
<stop offset="1" stop-color="#DBD5EF"/>
</linearGradient>
<linearGradient id="paint59_linear_480_3578" x1="9.85723" y1="19.7775" x2="10.4602" y2="19.7775" gradientUnits="userSpaceOnUse">
<stop stop-color="#DBD5EF" stop-opacity="0"/>
<stop offset="0.285" stop-color="#D9D2EE" stop-opacity="0.285"/>
<stop offset="0.474" stop-color="#D4C9E9" stop-opacity="0.474"/>
<stop offset="0.635" stop-color="#CBBAE2" stop-opacity="0.635"/>
<stop offset="0.779" stop-color="#BFA5D7" stop-opacity="0.78"/>
<stop offset="0.913" stop-color="#AF8ACA" stop-opacity="0.913"/>
<stop offset="1" stop-color="#A274BF"/>
</linearGradient>
<linearGradient id="paint60_linear_480_3578" x1="9.81827" y1="19.776" x2="9.81827" y2="20.1821" gradientUnits="userSpaceOnUse">
<stop stop-color="#DBD5EF" stop-opacity="0"/>
<stop offset="0.285" stop-color="#D9D2EE" stop-opacity="0.285"/>
<stop offset="0.474" stop-color="#D4C9E9" stop-opacity="0.474"/>
<stop offset="0.635" stop-color="#CBBAE2" stop-opacity="0.635"/>
<stop offset="0.779" stop-color="#BFA5D7" stop-opacity="0.78"/>
<stop offset="0.913" stop-color="#AF8ACA" stop-opacity="0.913"/>
<stop offset="1" stop-color="#A274BF"/>
</linearGradient>
<linearGradient id="paint61_linear_480_3578" x1="5.93022" y1="17.6624" x2="8.86025" y2="20.5924" gradientUnits="userSpaceOnUse">
<stop stop-color="#FEA613"/>
<stop offset="1" stop-color="#C4573A"/>
</linearGradient>
<linearGradient id="paint62_linear_480_3578" x1="7.18345" y1="19.8903" x2="7.18345" y2="20.6249" gradientUnits="userSpaceOnUse">
<stop stop-color="#C4573A" stop-opacity="0"/>
<stop offset="0.235" stop-color="#BE5539" stop-opacity="0.235"/>
<stop offset="0.539" stop-color="#AE4E35" stop-opacity="0.539"/>
<stop offset="0.879" stop-color="#934330" stop-opacity="0.879"/>
<stop offset="1" stop-color="#883F2E"/>
</linearGradient>
<linearGradient id="paint63_linear_480_3578" x1="8.25917" y1="18.9156" x2="8.94692" y2="18.9156" gradientUnits="userSpaceOnUse">
<stop stop-color="#C4573A" stop-opacity="0"/>
<stop offset="0.235" stop-color="#BE5539" stop-opacity="0.235"/>
<stop offset="0.539" stop-color="#AE4E35" stop-opacity="0.539"/>
<stop offset="0.879" stop-color="#934330" stop-opacity="0.879"/>
<stop offset="1" stop-color="#883F2E"/>
</linearGradient>
<linearGradient id="paint64_linear_480_3578" x1="8.2731" y1="18.4437" x2="7.27728" y2="17.085" gradientUnits="userSpaceOnUse">
<stop stop-color="#C4573A" stop-opacity="0"/>
<stop offset="0.235" stop-color="#BE5539" stop-opacity="0.235"/>
<stop offset="0.539" stop-color="#AE4E35" stop-opacity="0.539"/>
<stop offset="0.879" stop-color="#934330" stop-opacity="0.879"/>
<stop offset="1" stop-color="#883F2E"/>
</linearGradient>
<linearGradient id="paint65_linear_480_3578" x1="6.81171" y1="17.4432" x2="7.76532" y2="18.0213" gradientUnits="userSpaceOnUse">
<stop stop-color="#FEF0AE"/>
<stop offset="1" stop-color="#FAC600"/>
</linearGradient>
<linearGradient id="paint66_linear_480_3578" x1="7.18368" y1="17.8956" x2="7.18368" y2="18.1319" gradientUnits="userSpaceOnUse">
<stop stop-color="#FE9738" stop-opacity="0"/>
<stop offset="1" stop-color="#FE9738"/>
</linearGradient>
<linearGradient id="paint67_linear_480_3578" x1="7.51842" y1="17.6856" x2="7.70065" y2="17.6856" gradientUnits="userSpaceOnUse">
<stop stop-color="#FE9738" stop-opacity="0"/>
<stop offset="1" stop-color="#FE9738"/>
</linearGradient>
<linearGradient id="paint68_linear_480_3578" x1="5.96912" y1="19.6001" x2="6.83229" y2="19.8878" gradientUnits="userSpaceOnUse">
<stop stop-color="#F5FBFF"/>
<stop offset="1" stop-color="#DBD5EF"/>
</linearGradient>
<linearGradient id="paint69_linear_480_3578" x1="6.54053" y1="19.7775" x2="7.14359" y2="19.7775" gradientUnits="userSpaceOnUse">
<stop stop-color="#DBD5EF" stop-opacity="0"/>
<stop offset="0.285" stop-color="#D9D2EE" stop-opacity="0.285"/>
<stop offset="0.474" stop-color="#D4C9E9" stop-opacity="0.474"/>
<stop offset="0.635" stop-color="#CBBAE2" stop-opacity="0.635"/>
<stop offset="0.779" stop-color="#BFA5D7" stop-opacity="0.78"/>
<stop offset="0.913" stop-color="#AF8ACA" stop-opacity="0.913"/>
<stop offset="1" stop-color="#A274BF"/>
</linearGradient>
<linearGradient id="paint70_linear_480_3578" x1="6.50162" y1="19.776" x2="6.50162" y2="20.1821" gradientUnits="userSpaceOnUse">
<stop stop-color="#DBD5EF" stop-opacity="0"/>
<stop offset="0.285" stop-color="#D9D2EE" stop-opacity="0.285"/>
<stop offset="0.474" stop-color="#D4C9E9" stop-opacity="0.474"/>
<stop offset="0.635" stop-color="#CBBAE2" stop-opacity="0.635"/>
<stop offset="0.779" stop-color="#BFA5D7" stop-opacity="0.78"/>
<stop offset="0.913" stop-color="#AF8ACA" stop-opacity="0.913"/>
<stop offset="1" stop-color="#A274BF"/>
</linearGradient>
<linearGradient id="paint71_linear_480_3578" x1="11.6502" y1="10.8995" x2="13.7233" y2="14.4873" gradientUnits="userSpaceOnUse">
<stop stop-color="#FEA613"/>
<stop offset="1" stop-color="#C4573A"/>
</linearGradient>
<linearGradient id="paint72_linear_480_3578" x1="12.2849" y1="13.3755" x2="12.095" y2="14.0852" gradientUnits="userSpaceOnUse">
<stop stop-color="#C4573A" stop-opacity="0"/>
<stop offset="0.235" stop-color="#BE5539" stop-opacity="0.235"/>
<stop offset="0.539" stop-color="#AE4E35" stop-opacity="0.539"/>
<stop offset="0.879" stop-color="#934330" stop-opacity="0.879"/>
<stop offset="1" stop-color="#883F2E"/>
</linearGradient>
<linearGradient id="paint73_linear_480_3578" x1="13.5766" y1="12.7123" x2="14.241" y2="12.8901" gradientUnits="userSpaceOnUse">
<stop stop-color="#C4573A" stop-opacity="0"/>
<stop offset="0.235" stop-color="#BE5539" stop-opacity="0.235"/>
<stop offset="0.539" stop-color="#AE4E35" stop-opacity="0.539"/>
<stop offset="0.879" stop-color="#934330" stop-opacity="0.879"/>
<stop offset="1" stop-color="#883F2E"/>
</linearGradient>
<linearGradient id="paint74_linear_480_3578" x1="13.7113" y1="12.2592" x2="13.1006" y2="10.6893" gradientUnits="userSpaceOnUse">
<stop stop-color="#C4573A" stop-opacity="0"/>
<stop offset="0.235" stop-color="#BE5539" stop-opacity="0.235"/>
<stop offset="0.539" stop-color="#AE4E35" stop-opacity="0.539"/>
<stop offset="0.879" stop-color="#934330" stop-opacity="0.879"/>
<stop offset="1" stop-color="#883F2E"/>
</linearGradient>
<linearGradient id="paint75_linear_480_3578" x1="12.5585" y1="10.9154" x2="13.3303" y2="11.7203" gradientUnits="userSpaceOnUse">
<stop stop-color="#FEF0AE"/>
<stop offset="1" stop-color="#FAC600"/>
</linearGradient>
<linearGradient id="paint76_linear_480_3578" x1="12.8008" y1="11.448" x2="12.7398" y2="11.6762" gradientUnits="userSpaceOnUse">
<stop stop-color="#FE9738" stop-opacity="0"/>
<stop offset="1" stop-color="#FE9738"/>
</linearGradient>
<linearGradient id="paint77_linear_480_3578" x1="13.1784" y1="11.3316" x2="13.3545" y2="11.3787" gradientUnits="userSpaceOnUse">
<stop stop-color="#FE9738" stop-opacity="0"/>
<stop offset="1" stop-color="#FE9738"/>
</linearGradient>
<linearGradient id="paint78_linear_480_3578" x1="11.187" y1="12.7814" x2="11.9465" y2="13.2825" gradientUnits="userSpaceOnUse">
<stop stop-color="#F5FBFF"/>
<stop offset="1" stop-color="#DBD5EF"/>
</linearGradient>
<linearGradient id="paint79_linear_480_3578" x1="11.6936" y1="13.1008" x2="12.2762" y2="13.2567" gradientUnits="userSpaceOnUse">
<stop stop-color="#DBD5EF" stop-opacity="0"/>
<stop offset="0.285" stop-color="#D9D2EE" stop-opacity="0.285"/>
<stop offset="0.474" stop-color="#D4C9E9" stop-opacity="0.474"/>
<stop offset="0.635" stop-color="#CBBAE2" stop-opacity="0.635"/>
<stop offset="0.779" stop-color="#BFA5D7" stop-opacity="0.78"/>
<stop offset="0.913" stop-color="#AF8ACA" stop-opacity="0.913"/>
<stop offset="1" stop-color="#A274BF"/>
</linearGradient>
<linearGradient id="paint80_linear_480_3578" x1="11.656" y1="13.0881" x2="11.5511" y2="13.4803" gradientUnits="userSpaceOnUse">
<stop stop-color="#DBD5EF" stop-opacity="0"/>
<stop offset="0.285" stop-color="#D9D2EE" stop-opacity="0.285"/>
<stop offset="0.474" stop-color="#D4C9E9" stop-opacity="0.474"/>
<stop offset="0.635" stop-color="#CBBAE2" stop-opacity="0.635"/>
<stop offset="0.779" stop-color="#BFA5D7" stop-opacity="0.78"/>
<stop offset="0.913" stop-color="#AF8ACA" stop-opacity="0.913"/>
<stop offset="1" stop-color="#A274BF"/>
</linearGradient>
</defs>
</svg>
