<svg width="100" height="100" viewBox="0 0 100 100" fill="none" xmlns="http://www.w3.org/2000/svg">
<rect width="100" height="100" fill="#050915"/>
<mask id="path-1-inside-1_1077_251" fill="white">
<path fill-rule="evenodd" clip-rule="evenodd" d="M37.8671 75.3605C24.5693 74.6687 14 63.6674 14 50.1975C14 36.2813 25.2813 25 39.1975 25C46.0291 25 52.2258 27.7187 56.7645 32.1333C58.9736 31.3963 61.3372 30.9972 63.794 30.9972C76.0535 30.9972 85.9918 40.9355 85.9918 53.195C85.9918 65.255 76.3744 75.0686 64.3908 75.385V75.3962H37.8671V75.3605Z"/>
</mask>
<path d="M37.8671 75.3605H48.4766V65.2886L38.4182 64.7653L37.8671 75.3605ZM56.7645 32.1333L49.3672 39.7386L53.9963 44.241L60.1219 42.1975L56.7645 32.1333ZM64.3908 75.385L64.1108 64.7792L53.7813 65.0518V75.385H64.3908ZM64.3908 75.3962V86.0057H75.0003V75.3962H64.3908ZM37.8671 75.3962H27.2576V86.0057H37.8671V75.3962ZM38.4182 64.7653C30.7286 64.3653 24.6095 57.9926 24.6095 50.1975H3.39052C3.39052 69.3423 18.4101 84.9722 37.3159 85.9557L38.4182 64.7653ZM24.6095 50.1975C24.6095 42.1408 31.1408 35.6095 39.1975 35.6095V14.3905C19.4219 14.3905 3.39052 30.4219 3.39052 50.1975H24.6095ZM39.1975 35.6095C43.1566 35.6095 46.729 37.1726 49.3672 39.7386L64.1618 24.5279C57.7226 18.2649 48.9017 14.3905 39.1975 14.3905V35.6095ZM60.1219 42.1975C61.2623 41.8171 62.4928 41.6067 63.794 41.6067V20.3877C60.1815 20.3877 56.6849 20.9756 53.4071 22.0691L60.1219 42.1975ZM63.794 41.6067C70.194 41.6067 75.3823 46.795 75.3823 53.195H96.6013C96.6013 35.0761 81.9129 20.3877 63.794 20.3877V41.6067ZM75.3823 53.195C75.3823 59.4893 70.3613 64.6142 64.1108 64.7792L64.6707 85.9907C82.3875 85.5231 96.6013 71.0207 96.6013 53.195H75.3823ZM53.7813 75.385V75.3962H75.0003V75.385H53.7813ZM64.3908 64.7867H37.8671V86.0057H64.3908V64.7867ZM48.4766 75.3962V75.3605H27.2576V75.3962H48.4766Z" fill="#5677E1" mask="url(#path-1-inside-1_1077_251)"/>
</svg>
