<svg width="259" height="259" viewBox="0 0 259 259" fill="none" xmlns="http://www.w3.org/2000/svg">
<path d="M219.525 160.9L219.478 188.655C219.478 189.722 218.788 190.772 217.392 191.575L134.182 239.928C131.394 241.569 126.831 241.569 124.025 239.928L40.2924 191.589C38.8655 190.77 38.1592 189.686 38.1592 188.62L38.2063 160.897C38.2063 161.948 38.9291 163.031 40.3254 163.836L124.058 212.168C126.883 213.792 131.427 213.792 134.234 212.168L217.425 163.819C218.821 163.014 219.509 161.964 219.525 160.9Z" fill="#457AEF"/>
<path d="M219.525 169.471L219.478 186.11C219.478 187.177 218.788 188.229 217.392 189.03L134.182 232.794C131.394 234.437 126.831 234.437 124.025 232.794L40.2924 184.46C38.8655 183.638 38.1592 182.555 38.1592 181.488L38.2063 169.471C38.2063 170.521 38.9291 171.604 40.3254 172.409L124.058 220.739C126.883 222.363 131.427 222.363 134.234 220.739L217.425 172.39C218.821 171.585 219.509 170.535 219.525 169.471Z" fill="#DBDFE6"/>
<path d="M217.43 163.822L134.239 212.168C133.071 212.843 131.588 213.171 130.069 213.284V241.044C131.572 240.926 133.041 240.596 134.19 239.923L217.399 191.572C218.793 190.77 219.483 189.719 219.483 188.653L219.53 160.897C219.514 161.964 218.824 163.017 217.43 163.817V163.822Z" fill="#3A63DF"/>
<path d="M217.43 172.393L134.239 220.741C133.071 221.417 131.588 221.744 130.069 221.857V233.915C131.572 233.797 133.041 233.467 134.19 232.794L217.399 184.443C218.793 183.638 219.483 182.588 219.483 181.524L219.53 169.471C219.514 170.537 218.824 171.59 217.43 172.393Z" fill="#B8BBC0"/>
<path d="M217.406 157.933C220.225 159.558 220.239 162.197 217.439 163.824L134.239 212.175C131.44 213.802 126.886 213.802 124.067 212.175L40.3351 163.831C37.5167 162.206 37.5002 159.567 40.3021 157.94L123.498 109.589C126.3 107.962 130.853 107.962 133.669 109.589L217.406 157.933Z" fill="#4F91FF"/>
<path d="M202.24 139.413L202.203 154.458C202.203 155.322 201.645 156.172 200.514 156.822L133.193 195.94C130.933 197.268 127.243 197.268 124.974 195.94L57.2239 156.836C56.0702 156.172 55.498 155.296 55.498 154.432L55.5381 139.41C55.5381 140.26 56.122 141.138 57.2522 141.788L125 180.895C127.283 182.209 130.961 182.209 133.231 180.895L200.543 141.774C201.671 141.124 202.229 140.277 202.24 139.413Z" fill="#DBE6FA"/>
<path d="M200.539 141.774L133.228 180.893C130.958 182.209 127.28 182.209 124.996 180.893L106.494 170.215V185.277L124.97 195.943C127.24 197.268 130.932 197.268 133.188 195.943L200.511 156.82C201.641 156.17 202.199 155.32 202.199 154.456L202.237 139.41C202.225 140.272 201.667 141.124 200.539 141.774Z" fill="#CBDBF4"/>
<path d="M200.538 141.774L166.439 161.592V176.619L200.51 156.822C201.64 156.172 202.198 155.322 202.198 154.458L202.236 139.412C202.224 140.274 201.666 141.124 200.538 141.774Z" fill="#BBCFEF"/>
<path d="M200.515 137.01C202.795 138.327 202.806 140.46 200.541 141.778L133.225 180.897C130.96 182.215 127.275 182.215 124.996 180.897L57.2461 141.783C54.9669 140.465 54.9551 138.331 57.2225 137.015L124.537 97.8944C126.802 96.5782 130.487 96.5782 132.766 97.8944L200.515 137.01Z" fill="#EBF2FF"/>
<path d="M124.648 109.597C124.658 109.872 124.874 110.131 125.277 110.364L125.26 116.091C124.858 115.855 124.641 115.596 124.632 115.323L124.648 109.597Z" fill="#457AEF"/>
<path d="M173.904 132.739L173.887 138.494C173.871 138.762 173.649 139.026 173.221 139.275L173.237 133.549C173.663 133.3 173.887 133.036 173.904 132.768C173.904 132.758 173.904 132.749 173.904 132.739Z" fill="#3A63DF"/>
<path d="M173.233 133.55L173.216 139.276L170.694 140.741L170.711 135.014L173.233 133.55Z" fill="#3A63DF"/>
<path d="M168.004 135.03L167.988 140.757L125.265 116.091L125.281 110.364L168.004 135.03Z" fill="#457AEF"/>
<path d="M170.715 135.014L170.699 140.74C169.79 141.27 168.886 141.274 167.991 140.756L168.005 135.03C168.902 135.548 169.809 135.543 170.715 135.014Z" fill="#3A63DF"/>
<path d="M173.261 131.974C174.163 132.492 174.073 133.062 173.235 133.549L170.713 135.013C169.804 135.543 168.9 135.548 168.005 135.03L125.278 110.364C124.477 109.902 124.392 109.321 125.296 108.796L127.818 107.329C128.231 107.093 128.698 106.968 129.174 106.964C129.65 106.96 130.118 107.079 130.535 107.307L173.261 131.974Z" fill="#71D8F8"/>
<path d="M136.189 137.536L136.172 143.262L104.953 135.48L104.97 129.754L136.189 137.536ZM162.011 139.664L161.994 145.39C161.994 145.438 161.985 145.485 161.971 145.532L161.987 139.805C162.001 139.758 162.011 139.711 162.011 139.664Z" fill="#3A63DF"/>
<path d="M161.988 139.806L161.971 145.532C161.875 145.774 161.625 146.012 161.225 146.245L161.239 140.519C161.639 140.286 161.891 140.048 161.988 139.806ZM161.239 140.519L161.225 146.245L158.611 147.764L158.63 142.038L161.239 140.519ZM155.814 142.323L155.798 148.049L143.507 145.028L143.521 139.302L155.814 142.323Z" fill="#3A63DF"/>
<path d="M158.63 142.038L158.614 147.764C157.776 148.249 156.744 148.278 155.798 148.047L155.814 142.323C156.761 142.551 157.792 142.523 158.63 142.038Z" fill="#3A63DF"/>
<path d="M143.517 139.302L143.501 145.028L121.41 157.867L121.427 152.141L143.517 139.302Z" fill="#457AEF"/>
<path d="M126.991 159.878L126.975 165.604C126.975 165.964 126.73 166.287 126.24 166.572L126.257 160.846C126.746 160.563 126.991 160.236 126.991 159.878Z" fill="#3A63DF"/>
<path d="M95.4531 132.213L95.4696 126.486C95.4696 126.613 95.6156 126.985 95.8228 127.24C96.0418 127.503 106.649 142.462 120.724 162.007L120.708 167.733C101.81 141.492 96.2537 133.526 95.7922 132.968C95.6156 132.75 95.4987 132.49 95.4531 132.213ZM120.849 162.181L120.833 167.91L120.708 167.733L120.724 162.007L120.849 162.181Z" fill="#457AEF"/>
<path d="M126.259 160.846L126.242 166.572L123.631 168.091L123.647 162.364L126.259 160.846Z" fill="#3A63DF"/>
<path d="M143.518 139.301L121.428 152.141L126.716 159.167C127.201 159.819 127.053 160.382 126.26 160.843L123.648 162.362C122.626 162.955 121.736 162.974 120.849 162.181L112.488 150.549C94.2754 125.12 95.6104 127.051 95.4809 126.575C95.4102 126.316 95.6481 126.022 96.192 125.706C97.6753 124.927 98.3817 124.199 99.4295 124.282C100.823 124.407 96.83 123.592 160.648 138.845C160.664 138.854 160.798 138.892 161.06 138.958C162.22 139.247 162.357 139.867 161.236 140.516C158.839 141.823 158.46 142.355 157.281 142.442C155.931 142.53 156.252 142.346 143.518 139.301ZM118.419 147.865L136.186 137.538L104.967 129.756L118.419 147.865Z" fill="#71D8F8"/>
<path d="M123.656 162.365L123.639 168.091C122.618 168.684 121.728 168.703 120.84 167.91L120.856 162.184C121.744 162.979 122.634 162.958 123.658 162.365H123.656Z" fill="#3A63DF"/>
<path d="M165.71 241.261C164.139 241.532 162.642 241.157 161.895 240.696C159.692 239.408 160.97 237.348 163.468 236.99C164.686 236.78 166.275 236.903 167.342 237.534C169.435 238.753 168.472 240.783 165.71 241.261Z" fill="#BBCFEF"/>
<path d="M153.459 218.496C152.896 219.702 151.876 221.03 150.732 221.699C148.884 222.758 147.372 221.901 147.372 219.782C147.372 217.658 148.827 215.106 150.708 213.99C153.416 212.436 155.017 215.014 153.459 218.496Z" fill="white"/>
<path d="M165.75 226.246L165.71 241.261C164.976 241.388 164.18 241.388 163.45 241.24C163.45 240.543 163.469 236.747 163.469 236.99L163.49 226.875L147.762 217.805C147.992 217.094 148.35 216.423 148.788 215.815C166.925 226.246 157.842 221.031 165.185 225.262C165.522 225.471 165.75 225.848 165.75 226.246Z" fill="#3D4449"/>
<path d="M185.645 230.124C184.128 231.018 181.576 230.976 180.201 230.124C177.995 228.836 179.273 226.773 181.771 226.418C182.989 226.208 184.578 226.33 185.645 226.959C187.152 227.842 187.152 229.243 185.645 230.124Z" fill="#BBCFEF"/>
<path d="M171.763 207.925C171.201 209.131 170.181 210.459 169.037 211.127C167.188 212.187 165.677 211.33 165.677 209.211C165.677 207.087 167.132 204.535 169.013 203.418C170.861 202.359 173.322 204.443 171.763 207.925Z" fill="white"/>
<path d="M184.049 215.674L184.007 230.689C183.277 230.816 182.479 230.816 181.747 230.668L181.768 226.418L181.789 216.302L166.061 207.233C166.291 206.522 166.647 205.851 167.087 205.243C185.224 215.674 176.14 210.458 183.484 214.69C183.819 214.899 184.049 215.276 184.049 215.674Z" fill="#3D4449"/>
<path d="M203.945 219.552C202.446 220.438 199.893 220.414 198.502 219.552C196.293 218.264 197.574 216.202 200.072 215.846C201.29 215.637 202.879 215.759 203.945 216.388C205.452 217.268 205.452 218.672 203.945 219.552Z" fill="#BBCFEF"/>
<path d="M190.67 194.761C190.67 196.31 189.897 198.08 188.824 199.246C186.9 201.676 183.976 201.685 183.976 198.638C183.976 196.479 185.478 193.934 187.312 192.846C189.16 191.787 190.67 192.641 190.67 194.761Z" fill="white"/>
<path d="M202.354 205.102L202.312 220.116C201.582 220.241 200.783 220.241 200.051 220.095L200.072 215.845L200.094 205.73L184.365 196.66C184.596 195.949 184.952 195.278 185.392 194.671C203.529 205.102 194.445 199.886 201.789 204.117C202.123 204.327 202.354 204.704 202.354 205.102Z" fill="#3D4449"/>
<path d="M222.25 208.98C220.75 209.865 218.198 209.842 216.804 208.98C214.598 207.692 215.878 205.629 218.377 205.271C219.592 205.064 221.183 205.187 222.25 205.818C223.757 206.696 223.757 208.102 222.25 208.98Z" fill="#BBCFEF"/>
<path d="M208.979 184.189C208.979 185.739 208.207 187.509 207.131 188.675C205.209 191.105 202.285 191.114 202.285 188.067C202.285 185.908 203.787 183.363 205.622 182.275C207.47 181.215 208.979 182.07 208.979 184.189Z" fill="white"/>
<path d="M220.66 194.53L220.618 209.545C219.885 209.67 219.087 209.67 218.357 209.524L218.378 205.272L218.397 195.157L202.669 186.092C202.9 185.378 203.258 184.707 203.698 184.1C221.835 194.53 212.751 189.315 220.095 193.546C220.429 193.756 220.66 194.132 220.66 194.53Z" fill="#3D4449"/>
<path d="M94.1997 242.417C95.7678 242.685 97.2653 242.311 98.0093 241.852C100.216 240.564 98.937 238.501 96.4389 238.144C95.2216 237.936 93.6323 238.059 92.5656 238.69C91.0587 239.568 91.4355 241.939 94.1997 242.417Z" fill="#BBCFEF"/>
<path d="M106.452 219.655C107.015 220.858 108.034 222.186 109.178 222.855C111.027 223.914 112.538 223.057 112.538 220.938C112.538 218.812 111.083 216.262 109.202 215.146C106.494 213.592 104.893 216.173 106.452 219.655Z" fill="white"/>
<path d="M94.1611 227.401L94.2035 242.416C94.9334 242.541 95.7316 242.541 96.4639 242.395L96.4215 228.028L107.69 221.536L112.15 218.96C111.914 218.247 111.568 217.576 111.123 216.971L94.7262 226.417C94.5575 226.521 94.4174 226.666 94.3187 226.837C94.22 227.009 94.1658 227.203 94.1611 227.401Z" fill="#3D4449"/>
<path d="M75.9009 231.845C77.469 232.113 78.9688 231.739 79.7105 231.28C81.9167 229.992 80.6382 227.929 78.14 227.571C76.9227 227.364 75.3334 227.486 74.2668 228.118C72.7599 228.996 73.1366 231.367 75.9009 231.845Z" fill="#BBCFEF"/>
<path d="M88.1481 209.083C88.4636 209.756 88.8685 210.411 89.3865 210.974C91.3102 213.403 94.2346 213.413 94.2346 210.366C94.2346 208.205 92.7324 205.662 90.8982 204.574C88.1904 203.02 86.5893 205.6 88.1481 209.083Z" fill="white"/>
<path d="M75.8516 216.83L75.8939 231.845C76.6239 231.97 77.422 231.97 78.1543 231.824L78.1119 217.456L89.3808 210.965L93.8403 208.389C93.6044 207.676 93.258 207.005 92.8137 206.399L76.4167 215.843C76.2476 215.948 76.1073 216.093 76.0086 216.265C75.9098 216.437 75.8559 216.631 75.8516 216.83Z" fill="#3D4449"/>
<path d="M57.5913 221.272C59.1594 221.541 60.6593 221.167 61.401 220.707C63.6095 219.419 62.3286 217.357 59.8305 216.999C58.6155 216.792 57.0239 216.914 55.9572 217.545C54.4503 218.423 54.8271 220.795 57.5913 221.272Z" fill="#BBCFEF"/>
<path d="M69.8434 198.509C70.1589 199.185 70.5639 199.84 71.0842 200.402C73.0055 202.83 75.9299 202.842 75.9299 199.795C75.9299 197.669 74.4748 195.119 72.5935 194.003C69.8857 192.449 68.2847 195.027 69.8434 198.509Z" fill="white"/>
<path d="M57.5527 206.258L57.5951 221.273C58.325 221.398 59.1232 221.398 59.8555 221.249L59.8155 206.886C60.0509 206.745 71.8283 199.962 71.082 200.393L75.5415 197.817C75.3055 197.104 74.9591 196.433 74.5149 195.827L58.1178 205.271C57.9491 205.375 57.809 205.52 57.7103 205.692C57.6116 205.863 57.5574 206.06 57.5527 206.258Z" fill="#3D4449"/>
<path d="M39.2891 210.701C40.8572 210.969 42.3571 210.595 43.1011 210.136C44.608 209.255 44.608 207.852 43.1199 206.971C41.6507 206.103 39.0678 206.138 37.6574 206.971C35.5619 208.193 36.5272 210.223 39.2891 210.701Z" fill="#BBCFEF"/>
<path d="M51.5387 187.937C52.1038 189.142 53.1209 190.47 54.2676 191.139C56.1159 192.199 57.6252 191.339 57.6252 189.223C57.6252 187.096 56.1701 184.546 54.2888 183.43C51.5811 181.876 49.98 184.455 51.5387 187.937Z" fill="white"/>
<path d="M39.248 195.686L39.2904 210.701C40.0227 210.826 40.8209 210.826 41.5508 210.678L41.5108 196.315L57.2391 187.245C57.0025 186.532 56.6553 185.861 56.2102 185.256L39.8131 194.698C39.6444 194.802 39.5043 194.946 39.4056 195.118C39.3069 195.29 39.2527 195.484 39.248 195.682V195.686Z" fill="#3D4449"/>
<g opacity="0.7">
<path d="M195.903 55.3227L195.866 138.878C195.866 139.667 195.357 140.444 194.326 141.038L132.818 176.78C130.755 177.992 127.384 177.992 125.307 176.78L63.4154 141.047C62.3582 140.442 61.8379 139.641 61.8379 138.853L61.8732 55.3203C61.8732 56.0973 62.4077 56.8979 63.439 57.4912L125.333 93.2214C127.419 94.4222 130.779 94.4222 132.853 93.2214L194.349 57.4818C195.381 56.8884 195.892 56.1114 195.903 55.3227Z" fill="url(#paint0_linear_839_389)"/>
<path d="M194.326 53.1277C196.41 54.3309 196.422 56.2828 194.35 57.4836L132.849 93.2256C130.779 94.4265 127.415 94.4265 125.331 93.2256L63.4345 57.4907C61.3507 56.2875 61.3389 54.3356 63.4109 53.1348L124.912 17.3928C126.981 16.192 130.346 16.192 132.43 17.3928L194.326 53.1277Z" fill="url(#paint1_linear_839_389)"/>
</g>
<defs>
<linearGradient id="paint0_linear_839_389" x1="128.869" y1="202.708" x2="128.869" y2="39.5307" gradientUnits="userSpaceOnUse">
<stop offset="0.313" stop-color="#5677E1" stop-opacity="0.7"/>
<stop offset="0.474" stop-color="#5677E1" stop-opacity="0.535"/>
<stop offset="0.723" stop-color="#5677E1" stop-opacity="0.283"/>
<stop offset="1" stop-color="#5677E1"/>
</linearGradient>
<linearGradient id="paint1_linear_839_389" x1="128.881" y1="202.707" x2="128.881" y2="39.5302" gradientUnits="userSpaceOnUse">
<stop offset="0.313" stop-color="#5677E1" stop-opacity="0.7"/>
<stop offset="0.474" stop-color="#5677E1" stop-opacity="0.535"/>
<stop offset="0.723" stop-color="#5077F4" stop-opacity="0.31"/>
<stop offset="1" stop-color="#5677E1" stop-opacity="0"/>
</linearGradient>
</defs>
</svg>
