<svg width="298" height="150" viewBox="0 0 298 150" fill="none" xmlns="http://www.w3.org/2000/svg">
<circle cx="2.41227" cy="1.48063" r="1.45133" fill="#A5B62B"/>
<circle cx="20.7965" cy="1.48063" r="1.45133" fill="#A5B62B"/>
<circle cx="39.1795" cy="1.48063" r="1.45133" fill="#A5B62B"/>
<circle cx="57.563" cy="1.48063" r="1.45133" fill="#A5B62B"/>
<circle cx="75.9466" cy="1.48063" r="1.45133" fill="#A5B62B"/>
<circle cx="94.33" cy="1.48063" r="1.45133" fill="#A5B62B"/>
<circle cx="112.714" cy="1.48063" r="1.45133" fill="#A5B62B"/>
<circle cx="131.097" cy="1.48063" r="1.45133" fill="#A5B62B"/>
<circle cx="149.48" cy="1.48063" r="1.45133" fill="#A5B62B"/>
<circle cx="167.864" cy="1.48063" r="1.45133" fill="#A5B62B"/>
<circle cx="186.248" cy="1.48063" r="1.45133" fill="#A5B62B"/>
<circle cx="204.631" cy="1.48063" r="1.45133" fill="#A5B62B"/>
<circle cx="223.015" cy="1.48063" r="1.45133" fill="#A5B62B"/>
<circle cx="241.398" cy="1.48063" r="1.45133" fill="#A5B62B"/>
<circle cx="259.782" cy="1.48063" r="1.45133" fill="#A5B62B"/>
<circle cx="278.165" cy="1.48063" r="1.45133" fill="#A5B62B"/>
<circle cx="296.549" cy="1.48063" r="1.45133" fill="#A5B62B"/>
<circle cx="2.41227" cy="19.8644" r="1.45133" fill="#A5B62B"/>
<circle cx="20.7965" cy="19.8647" r="1.45133" fill="#A5B62B"/>
<circle cx="39.1795" cy="19.8647" r="1.45133" fill="#A5B62B"/>
<circle cx="57.563" cy="19.8647" r="1.45133" fill="#A5B62B"/>
<circle cx="75.9466" cy="19.8647" r="1.45133" fill="#A5B62B"/>
<circle cx="94.33" cy="19.8647" r="1.45133" fill="#A5B62B"/>
<circle cx="112.714" cy="19.8647" r="1.45133" fill="#A5B62B"/>
<circle cx="131.097" cy="19.8647" r="1.45133" fill="#A5B62B"/>
<circle cx="149.48" cy="19.8647" r="1.45133" fill="#A5B62B"/>
<circle cx="167.864" cy="19.8647" r="1.45133" fill="#A5B62B"/>
<circle cx="186.248" cy="19.8647" r="1.45133" fill="#A5B62B"/>
<circle cx="204.631" cy="19.8647" r="1.45133" fill="#A5B62B"/>
<circle cx="223.015" cy="19.8647" r="1.45133" fill="#A5B62B"/>
<circle cx="241.398" cy="19.8647" r="1.45133" fill="#A5B62B"/>
<circle cx="259.782" cy="19.8647" r="1.45133" fill="#A5B62B"/>
<circle cx="278.165" cy="19.8647" r="1.45133" fill="#A5B62B"/>
<circle cx="296.549" cy="19.8647" r="1.45133" fill="#A5B62B"/>
<circle cx="2.41276" cy="38.2482" r="1.45133" fill="#A5B62B"/>
<circle cx="20.7968" cy="38.2482" r="1.45133" fill="#A5B62B"/>
<circle cx="39.1797" cy="38.2482" r="1.45133" fill="#A5B62B"/>
<circle cx="57.5633" cy="38.2482" r="1.45133" fill="#A5B62B"/>
<circle cx="75.9468" cy="38.2482" r="1.45133" fill="#A5B62B"/>
<circle cx="94.3302" cy="38.2482" r="1.45133" fill="#A5B62B"/>
<circle cx="112.714" cy="38.2482" r="1.45133" fill="#A5B62B"/>
<circle cx="131.097" cy="38.2482" r="1.45133" fill="#A5B62B"/>
<circle cx="149.481" cy="38.2482" r="1.45133" fill="#A5B62B"/>
<circle cx="167.864" cy="38.2482" r="1.45133" fill="#A5B62B"/>
<circle cx="186.248" cy="38.2482" r="1.45133" fill="#A5B62B"/>
<circle cx="204.631" cy="38.2482" r="1.45133" fill="#A5B62B"/>
<circle cx="223.015" cy="38.2482" r="1.45133" fill="#A5B62B"/>
<circle cx="241.398" cy="38.2482" r="1.45133" fill="#A5B62B"/>
<circle cx="259.782" cy="38.2482" r="1.45133" fill="#A5B62B"/>
<circle cx="278.165" cy="38.2482" r="1.45133" fill="#A5B62B"/>
<circle cx="296.549" cy="38.2482" r="1.45133" fill="#A5B62B"/>
<circle cx="2.41276" cy="56.63" r="1.45133" fill="#A5B62B"/>
<circle cx="20.7968" cy="56.63" r="1.45133" fill="#A5B62B"/>
<circle cx="39.1797" cy="56.63" r="1.45133" fill="#A5B62B"/>
<circle cx="57.5633" cy="56.63" r="1.45133" fill="#A5B62B"/>
<circle cx="75.9468" cy="56.63" r="1.45133" fill="#A5B62B"/>
<circle cx="94.3302" cy="56.63" r="1.45133" fill="#A5B62B"/>
<circle cx="112.714" cy="56.63" r="1.45133" fill="#A5B62B"/>
<circle cx="131.097" cy="56.63" r="1.45133" fill="#A5B62B"/>
<circle cx="149.481" cy="56.63" r="1.45133" fill="#A5B62B"/>
<circle cx="167.864" cy="56.63" r="1.45133" fill="#A5B62B"/>
<circle cx="186.248" cy="56.63" r="1.45133" fill="#A5B62B"/>
<circle cx="204.631" cy="56.63" r="1.45133" fill="#A5B62B"/>
<circle cx="223.015" cy="56.63" r="1.45133" fill="#A5B62B"/>
<circle cx="241.398" cy="56.63" r="1.45133" fill="#A5B62B"/>
<circle cx="259.782" cy="56.63" r="1.45133" fill="#A5B62B"/>
<circle cx="278.165" cy="56.63" r="1.45133" fill="#A5B62B"/>
<circle cx="296.549" cy="56.63" r="1.45133" fill="#A5B62B"/>
<circle cx="2.41227" cy="75.0148" r="1.45133" fill="#A5B62B"/>
<circle cx="20.7965" cy="75.0147" r="1.45133" fill="#A5B62B"/>
<circle cx="39.1795" cy="75.0147" r="1.45133" fill="#A5B62B"/>
<circle cx="57.563" cy="75.0147" r="1.45133" fill="#A5B62B"/>
<circle cx="75.9466" cy="75.0147" r="1.45133" fill="#A5B62B"/>
<circle cx="94.33" cy="75.0147" r="1.45133" fill="#A5B62B"/>
<circle cx="112.714" cy="75.0147" r="1.45133" fill="#A5B62B"/>
<circle cx="131.097" cy="75.0147" r="1.45133" fill="#A5B62B"/>
<circle cx="149.48" cy="75.0147" r="1.45133" fill="#A5B62B"/>
<circle cx="167.864" cy="75.0147" r="1.45133" fill="#A5B62B"/>
<circle cx="186.248" cy="75.0147" r="1.45133" fill="#A5B62B"/>
<circle cx="204.631" cy="75.0147" r="1.45133" fill="#A5B62B"/>
<circle cx="223.015" cy="75.0147" r="1.45133" fill="#A5B62B"/>
<circle cx="241.398" cy="75.0147" r="1.45133" fill="#A5B62B"/>
<circle cx="259.782" cy="75.0147" r="1.45133" fill="#A5B62B"/>
<circle cx="278.165" cy="75.0147" r="1.45133" fill="#A5B62B"/>
<circle cx="296.549" cy="75.0147" r="1.45133" fill="#A5B62B"/>
<circle cx="2.41227" cy="93.3986" r="1.45133" fill="#A5B62B"/>
<circle cx="20.7965" cy="93.3986" r="1.45133" fill="#A5B62B"/>
<circle cx="39.1795" cy="93.3986" r="1.45133" fill="#A5B62B"/>
<circle cx="57.563" cy="93.3986" r="1.45133" fill="#A5B62B"/>
<circle cx="75.9466" cy="93.3986" r="1.45133" fill="#A5B62B"/>
<circle cx="94.33" cy="93.3986" r="1.45133" fill="#A5B62B"/>
<circle cx="112.714" cy="93.3986" r="1.45133" fill="#A5B62B"/>
<circle cx="131.097" cy="93.3986" r="1.45133" fill="#A5B62B"/>
<circle cx="149.48" cy="93.3986" r="1.45133" fill="#A5B62B"/>
<circle cx="167.864" cy="93.3986" r="1.45133" fill="#A5B62B"/>
<circle cx="186.248" cy="93.3986" r="1.45133" fill="#A5B62B"/>
<circle cx="204.631" cy="93.3986" r="1.45133" fill="#A5B62B"/>
<circle cx="223.015" cy="93.3986" r="1.45133" fill="#A5B62B"/>
<circle cx="241.398" cy="93.3986" r="1.45133" fill="#A5B62B"/>
<circle cx="259.782" cy="93.3986" r="1.45133" fill="#A5B62B"/>
<circle cx="278.165" cy="93.3986" r="1.45133" fill="#A5B62B"/>
<circle cx="296.549" cy="93.3986" r="1.45133" fill="#A5B62B"/>
<circle cx="2.41276" cy="111.781" r="1.45133" fill="#A5B62B"/>
<circle cx="20.7968" cy="111.781" r="1.45133" fill="#A5B62B"/>
<circle cx="39.1797" cy="111.781" r="1.45133" fill="#A5B62B"/>
<circle cx="57.5633" cy="111.781" r="1.45133" fill="#A5B62B"/>
<circle cx="75.9468" cy="111.781" r="1.45133" fill="#A5B62B"/>
<circle cx="94.3302" cy="111.781" r="1.45133" fill="#A5B62B"/>
<circle cx="112.714" cy="111.781" r="1.45133" fill="#A5B62B"/>
<circle cx="131.097" cy="111.781" r="1.45133" fill="#A5B62B"/>
<circle cx="149.481" cy="111.781" r="1.45133" fill="#A5B62B"/>
<circle cx="167.864" cy="111.781" r="1.45133" fill="#A5B62B"/>
<circle cx="186.248" cy="111.781" r="1.45133" fill="#A5B62B"/>
<circle cx="204.631" cy="111.781" r="1.45133" fill="#A5B62B"/>
<circle cx="223.015" cy="111.781" r="1.45133" fill="#A5B62B"/>
<circle cx="241.398" cy="111.781" r="1.45133" fill="#A5B62B"/>
<circle cx="259.782" cy="111.781" r="1.45133" fill="#A5B62B"/>
<circle cx="278.165" cy="111.781" r="1.45133" fill="#A5B62B"/>
<circle cx="296.549" cy="111.781" r="1.45133" fill="#A5B62B"/>
<circle cx="2.41276" cy="130.165" r="1.45133" fill="#A5B62B"/>
<circle cx="20.7968" cy="130.165" r="1.45133" fill="#A5B62B"/>
<circle cx="39.1797" cy="130.165" r="1.45133" fill="#A5B62B"/>
<circle cx="57.5633" cy="130.165" r="1.45133" fill="#A5B62B"/>
<circle cx="75.9468" cy="130.165" r="1.45133" fill="#A5B62B"/>
<circle cx="94.3302" cy="130.165" r="1.45133" fill="#A5B62B"/>
<circle cx="112.714" cy="130.165" r="1.45133" fill="#A5B62B"/>
<circle cx="131.097" cy="130.165" r="1.45133" fill="#A5B62B"/>
<circle cx="149.481" cy="130.165" r="1.45133" fill="#A5B62B"/>
<circle cx="167.864" cy="130.165" r="1.45133" fill="#A5B62B"/>
<circle cx="186.248" cy="130.165" r="1.45133" fill="#A5B62B"/>
<circle cx="204.631" cy="130.165" r="1.45133" fill="#A5B62B"/>
<circle cx="223.015" cy="130.165" r="1.45133" fill="#A5B62B"/>
<circle cx="241.398" cy="130.165" r="1.45133" fill="#A5B62B"/>
<circle cx="259.782" cy="130.165" r="1.45133" fill="#A5B62B"/>
<circle cx="278.165" cy="130.165" r="1.45133" fill="#A5B62B"/>
<circle cx="296.549" cy="130.165" r="1.45133" fill="#A5B62B"/>
<circle cx="2.41276" cy="148.548" r="1.45133" fill="#A5B62B"/>
<circle cx="20.7968" cy="148.548" r="1.45133" fill="#A5B62B"/>
<circle cx="39.1797" cy="148.548" r="1.45133" fill="#A5B62B"/>
<circle cx="57.5633" cy="148.548" r="1.45133" fill="#A5B62B"/>
<circle cx="75.9468" cy="148.548" r="1.45133" fill="#A5B62B"/>
<circle cx="94.3302" cy="148.548" r="1.45133" fill="#A5B62B"/>
<circle cx="112.714" cy="148.548" r="1.45133" fill="#A5B62B"/>
<circle cx="131.097" cy="148.548" r="1.45133" fill="#A5B62B"/>
<circle cx="149.481" cy="148.548" r="1.45133" fill="#A5B62B"/>
<circle cx="167.864" cy="148.548" r="1.45133" fill="#A5B62B"/>
<circle cx="186.248" cy="148.548" r="1.45133" fill="#A5B62B"/>
<circle cx="204.631" cy="148.548" r="1.45133" fill="#A5B62B"/>
<circle cx="223.015" cy="148.548" r="1.45133" fill="#A5B62B"/>
<circle cx="241.398" cy="148.548" r="1.45133" fill="#A5B62B"/>
<circle cx="259.782" cy="148.548" r="1.45133" fill="#A5B62B"/>
<circle cx="278.165" cy="148.548" r="1.45133" fill="#A5B62B"/>
<circle cx="296.549" cy="148.548" r="1.45133" fill="#A5B62B"/>
</svg>
