<svg width="177" height="116" viewBox="0 0 177 116" fill="none" xmlns="http://www.w3.org/2000/svg">
<g filter="url(#filter0_b_119_3546)">
<path d="M144.995 48.6882C143.175 37.0935 137.786 26.3544 129.578 17.9658C121.369 9.57712 110.75 3.95624 99.1973 1.88545C87.6448 -0.185334 75.7341 1.39701 65.123 6.41225C54.5119 11.4275 45.7283 19.6261 39.9948 29.8669C34.4327 30.3271 29.0157 31.8783 24.0531 34.4319C19.0906 36.9856 14.6796 40.4917 11.072 44.7501C7.46442 49.0085 4.73095 53.9358 3.02763 59.2506C1.32431 64.5654 0.68451 70.1636 1.14476 75.7257C1.5996 81.2872 3.14546 86.7047 5.69407 91.6688C8.24269 96.6329 11.7441 101.046 15.9985 104.657C20.2529 108.268 25.1768 111.006 30.4892 112.713C35.8015 114.421 41.3982 115.066 46.9598 114.611H141.031C145.357 114.87 149.693 114.275 153.789 112.858C157.885 111.442 161.662 109.232 164.904 106.356C168.146 103.479 170.79 99.9923 172.684 96.0939C174.578 92.1955 175.686 87.9622 175.944 83.6357C176.47 74.8985 173.504 66.3101 167.699 59.7596C161.893 53.209 153.723 49.2328 144.986 48.7057L144.995 48.6882Z" fill="#FAFCEE"/>
<path d="M144.995 48.6882C143.175 37.0935 137.786 26.3544 129.578 17.9658C121.369 9.57712 110.75 3.95624 99.1973 1.88545C87.6448 -0.185334 75.7341 1.39701 65.123 6.41225C54.5119 11.4275 45.7283 19.6261 39.9948 29.8669C34.4327 30.3271 29.0157 31.8783 24.0531 34.4319C19.0906 36.9856 14.6796 40.4917 11.072 44.7501C7.46442 49.0085 4.73095 53.9358 3.02763 59.2506C1.32431 64.5654 0.68451 70.1636 1.14476 75.7257C1.5996 81.2872 3.14546 86.7047 5.69407 91.6688C8.24269 96.6329 11.7441 101.046 15.9985 104.657C20.2529 108.268 25.1768 111.006 30.4892 112.713C35.8015 114.421 41.3982 115.066 46.9598 114.611H141.031C145.357 114.87 149.693 114.275 153.789 112.858C157.885 111.442 161.662 109.232 164.904 106.356C168.146 103.479 170.79 99.9923 172.684 96.0939C174.578 92.1955 175.686 87.9622 175.944 83.6357C176.47 74.8985 173.504 66.3101 167.699 59.7596C161.893 53.209 153.723 49.2328 144.986 48.7057L144.995 48.6882Z" stroke="#0C2126" stroke-linecap="round" stroke-linejoin="round"/>
</g>
<defs>
<filter id="filter0_b_119_3546" x="-20.7" y="-20.7" width="218.403" height="157.152" filterUnits="userSpaceOnUse" color-interpolation-filters="sRGB">
<feFlood flood-opacity="0" result="BackgroundImageFix"/>
<feGaussianBlur in="BackgroundImageFix" stdDeviation="10.6"/>
<feComposite in2="SourceAlpha" operator="in" result="effect1_backgroundBlur_119_3546"/>
<feBlend mode="normal" in="SourceGraphic" in2="effect1_backgroundBlur_119_3546" result="shape"/>
</filter>
</defs>
</svg>
