<svg width="60" height="60" viewBox="0 0 60 60" fill="none" xmlns="http://www.w3.org/2000/svg">
<g filter="url(#filter0_d_541_37)">
<path d="M26.0917 8.073C27.0857 3.97567 32.9143 3.97567 33.9083 8.073C34.0575 8.68853 34.3498 9.26015 34.7617 9.74133C35.1735 10.2225 35.6931 10.5997 36.2782 10.8421C36.8633 11.0845 37.4974 11.1853 38.1288 11.1364C38.7603 11.0874 39.3712 10.89 39.912 10.5603C43.5123 8.367 47.6353 12.4877 45.442 16.0903C45.1128 16.6309 44.9157 17.2415 44.8669 17.8725C44.818 18.5035 44.9188 19.1371 45.1609 19.7219C45.403 20.3066 45.7797 20.826 46.2604 21.2378C46.741 21.6496 47.312 21.9421 47.927 22.0917C52.0243 23.0857 52.0243 28.9143 47.927 29.9083C47.3115 30.0575 46.7398 30.3498 46.2587 30.7617C45.7775 31.1735 45.4003 31.6931 45.1579 32.2782C44.9155 32.8633 44.8147 33.4974 44.8636 34.1288C44.9126 34.7603 45.11 35.3712 45.4397 35.912C47.633 39.5123 43.5123 43.6353 39.9097 41.442C39.3691 41.1128 38.7585 40.9157 38.1275 40.8669C37.4965 40.818 36.8629 40.9188 36.2781 41.1609C35.6934 41.403 35.174 41.7797 34.7622 42.2604C34.3504 42.741 34.0579 43.312 33.9083 43.927C32.9143 48.0243 27.0857 48.0243 26.0917 43.927C25.9425 43.3115 25.6502 42.7398 25.2383 42.2587C24.8265 41.7775 24.3069 41.4003 23.7218 41.1579C23.1367 40.9155 22.5026 40.8147 21.8712 40.8636C21.2397 40.9126 20.6288 41.11 20.088 41.4397C16.4877 43.633 12.3647 39.5123 14.558 35.9097C14.8872 35.3691 15.0843 34.7585 15.1331 34.1275C15.182 33.4965 15.0812 32.8629 14.8391 32.2781C14.597 31.6934 14.2203 31.174 13.7396 30.7622C13.259 30.3504 12.688 30.0579 12.073 29.9083C7.97567 28.9143 7.97567 23.0857 12.073 22.0917C12.6885 21.9425 13.2602 21.6502 13.7413 21.2383C14.2225 20.8265 14.5997 20.3069 14.8421 19.7218C15.0845 19.1367 15.1853 18.5026 15.1364 17.8712C15.0874 17.2397 14.89 16.6288 14.5603 16.088C12.367 12.4877 16.4877 8.36467 20.0903 10.558C22.4237 11.9767 25.4477 10.7213 26.0917 8.073Z" fill="#EDFF6C"/>
<path d="M26.0917 8.073C27.0857 3.97567 32.9143 3.97567 33.9083 8.073C34.0575 8.68853 34.3498 9.26015 34.7617 9.74133C35.1735 10.2225 35.6931 10.5997 36.2782 10.8421C36.8633 11.0845 37.4974 11.1853 38.1288 11.1364C38.7603 11.0874 39.3712 10.89 39.912 10.5603C43.5123 8.367 47.6353 12.4877 45.442 16.0903C45.1128 16.6309 44.9157 17.2415 44.8669 17.8725C44.818 18.5035 44.9188 19.1371 45.1609 19.7219C45.403 20.3066 45.7797 20.826 46.2604 21.2378C46.741 21.6496 47.312 21.9421 47.927 22.0917C52.0243 23.0857 52.0243 28.9143 47.927 29.9083C47.3115 30.0575 46.7398 30.3498 46.2587 30.7617C45.7775 31.1735 45.4003 31.6931 45.1579 32.2782C44.9155 32.8633 44.8147 33.4974 44.8636 34.1288C44.9126 34.7603 45.11 35.3712 45.4397 35.912C47.633 39.5123 43.5123 43.6353 39.9097 41.442C39.3691 41.1128 38.7585 40.9157 38.1275 40.8669C37.4965 40.818 36.8629 40.9188 36.2781 41.1609C35.6934 41.403 35.174 41.7797 34.7622 42.2604C34.3504 42.741 34.0579 43.312 33.9083 43.927C32.9143 48.0243 27.0857 48.0243 26.0917 43.927C25.9425 43.3115 25.6502 42.7398 25.2383 42.2587C24.8265 41.7775 24.3069 41.4003 23.7218 41.1579C23.1367 40.9155 22.5026 40.8147 21.8712 40.8636C21.2397 40.9126 20.6288 41.11 20.088 41.4397C16.4877 43.633 12.3647 39.5123 14.558 35.9097C14.8872 35.3691 15.0843 34.7585 15.1331 34.1275C15.182 33.4965 15.0812 32.8629 14.8391 32.2781C14.597 31.6934 14.2203 31.174 13.7396 30.7622C13.259 30.3504 12.688 30.0579 12.073 29.9083C7.97567 28.9143 7.97567 23.0857 12.073 22.0917C12.6885 21.9425 13.2602 21.6502 13.7413 21.2383C14.2225 20.8265 14.5997 20.3069 14.8421 19.7218C15.0845 19.1367 15.1853 18.5026 15.1364 17.8712C15.0874 17.2397 14.89 16.6288 14.5603 16.088C12.367 12.4877 16.4877 8.36467 20.0903 10.558C22.4237 11.9767 25.4477 10.7213 26.0917 8.073Z" stroke="black" stroke-linecap="round" stroke-linejoin="round"/>
</g>
<path d="M27 26C27 26.7956 27.3161 27.5587 27.8787 28.1213C28.4413 28.6839 29.2044 29 30 29C30.7956 29 31.5587 28.6839 32.1213 28.1213C32.6839 27.5587 33 26.7956 33 26C33 25.2044 32.6839 24.4413 32.1213 23.8787C31.5587 23.3161 30.7956 23 30 23C29.2044 23 28.4413 23.3161 27.8787 23.8787C27.3161 24.4413 27 25.2044 27 26Z" fill="#FAFCEE" stroke="black" stroke-linecap="round" stroke-linejoin="round"/>
<defs>
<filter id="filter0_d_541_37" x="0.3" y="0.3" width="59.4" height="59.4" filterUnits="userSpaceOnUse" color-interpolation-filters="sRGB">
<feFlood flood-opacity="0" result="BackgroundImageFix"/>
<feColorMatrix in="SourceAlpha" type="matrix" values="0 0 0 0 0 0 0 0 0 0 0 0 0 0 0 0 0 0 127 0" result="hardAlpha"/>
<feOffset dy="4"/>
<feGaussianBlur stdDeviation="4.1"/>
<feComposite in2="hardAlpha" operator="out"/>
<feColorMatrix type="matrix" values="0 0 0 0 0.00492765 0 0 0 0 0.00561523 0 0 0 0 0 0 0 0 0.08 0"/>
<feBlend mode="normal" in2="BackgroundImageFix" result="effect1_dropShadow_541_37"/>
<feBlend mode="normal" in="SourceGraphic" in2="effect1_dropShadow_541_37" result="shape"/>
</filter>
</defs>
</svg>
