<svg width="190" height="190" viewBox="0 0 190 190" fill="none" xmlns="http://www.w3.org/2000/svg">
<path fill-rule="evenodd" clip-rule="evenodd" d="M95 43.2046C123.609 43.2046 146.795 66.3913 146.795 95.0001C146.795 123.609 123.609 146.796 95 146.796C66.3912 146.796 43.2045 123.609 43.2045 95.0001C43.2045 66.3913 66.3912 43.2046 95 43.2046ZM127.518 127.304C135.749 119.019 140.835 107.604 140.835 95.0001C140.835 69.6835 120.317 49.1654 95 49.1654C69.6834 49.1654 49.1652 69.6835 49.1652 95.0001C49.1652 107.604 54.2509 119.019 62.4824 127.304C66.8252 113.473 79.7441 103.438 95 103.438C110.256 103.438 123.175 113.473 127.518 127.304ZM95 99.7124C85.5152 99.7124 77.7606 91.9578 77.7606 82.4731C77.7606 72.9884 85.5152 65.2338 95 65.2338C104.485 65.2338 112.239 72.9884 112.239 82.4731C112.239 91.9578 104.485 99.7124 95 99.7124ZM181.381 97.9805H164.265L166.649 100.809C167.158 101.414 167.406 102.196 167.339 102.983C167.272 103.77 166.894 104.499 166.29 105.009C165.686 105.518 164.904 105.766 164.116 105.699C163.329 105.631 162.6 105.254 162.091 104.65L155.577 96.9206C155.124 96.3832 154.876 95.703 154.876 95.0001C154.876 94.2972 155.124 93.6169 155.577 93.0796L162.091 85.3499C162.6 84.7458 163.329 84.3688 164.116 84.3016C164.904 84.2344 165.686 84.4825 166.29 84.9915C166.894 85.5011 167.272 86.2297 167.339 87.0172C167.406 87.8047 167.158 88.5866 166.649 89.1913L164.265 92.0197H184.412C186.057 92.0197 187.392 93.3553 187.392 95.0001C187.392 139.878 155.324 177.325 112.873 185.661C112.097 185.813 111.293 185.651 110.637 185.21C109.981 184.769 109.527 184.086 109.374 183.311C109.222 182.535 109.385 181.731 109.825 181.075C110.266 180.419 110.949 179.965 111.724 179.812C150.492 172.2 180 138.632 181.381 97.9805ZM92.0196 25.7346V5.5883C92.0196 3.9435 93.3552 2.60791 95 2.60791C139.878 2.60791 177.325 34.6758 185.661 77.127C185.813 77.9026 185.651 78.7067 185.21 79.3627C184.769 80.0188 184.086 80.473 183.311 80.6256C182.535 80.7776 181.731 80.6154 181.075 80.1748C180.419 79.7341 179.965 79.051 179.812 78.2756C172.2 39.5078 138.631 9.99966 97.9803 8.61936V25.7346L100.809 23.3511C101.413 22.8421 102.195 22.594 102.983 22.6612C103.77 22.7285 104.499 23.1057 105.008 23.7098C105.517 24.3144 105.766 25.0963 105.698 25.8837C105.631 26.6711 105.254 27.3997 104.65 27.9092L96.9204 34.4229C96.3831 34.8759 95.7028 35.1245 95 35.1245C94.2971 35.1245 93.6168 34.8759 93.0795 34.4229L85.3498 27.9092C84.7457 27.3997 84.3686 26.6711 84.3014 25.8837C84.2342 25.0963 84.4824 24.3144 84.9914 23.7098C85.501 23.1057 86.2296 22.7285 87.017 22.6612C87.8045 22.594 88.5865 22.8421 89.1912 23.3511L92.0196 25.7346ZM8.61924 92.0197H25.7345L23.3509 89.1913C22.842 88.5866 22.5938 87.8047 22.6611 87.0172C22.7284 86.2297 23.1055 85.5011 23.7097 84.9915C24.3143 84.4825 25.0961 84.2344 25.8836 84.3016C26.671 84.3688 27.3995 84.7458 27.9091 85.3499L34.4227 93.0796C34.8758 93.6169 35.1243 94.2972 35.1243 95.0001C35.1243 95.703 34.8758 96.3832 34.4227 96.9206L27.9091 104.65C27.3995 105.254 26.671 105.631 25.8836 105.699C25.0961 105.766 24.3143 105.518 23.7097 105.009C23.1055 104.499 22.7284 103.77 22.6611 102.983C22.5938 102.196 22.842 101.414 23.3509 100.809L25.7345 97.9805H5.58818C3.94338 97.9805 2.60779 96.6449 2.60779 95.0001C2.60779 50.1217 34.6757 12.6749 77.1269 4.33915C77.9025 4.1872 78.7066 4.34938 79.3626 4.79004C80.0186 5.23069 80.4729 5.91378 80.6255 6.68919C80.7775 7.46482 80.6152 8.26906 80.1745 8.92515C79.7338 9.58125 79.0506 10.0355 78.2751 10.1882C39.5077 17.8005 9.99953 51.3686 8.61924 92.0197ZM92.0196 181.381V164.266L89.1912 166.649C88.5865 167.158 87.8045 167.406 87.017 167.339C86.2296 167.272 85.501 166.894 84.9914 166.29C84.4824 165.686 84.2342 164.904 84.3014 164.116C84.3686 163.329 84.7457 162.6 85.3498 162.091L93.0795 155.577C93.6168 155.124 94.2971 154.876 95 154.876C95.7028 154.876 96.3831 155.124 96.9204 155.577L104.65 162.091C105.254 162.6 105.631 163.329 105.698 164.116C105.766 164.904 105.517 165.686 105.008 166.29C104.499 166.894 103.77 167.272 102.983 167.339C102.195 167.406 101.413 167.158 100.809 166.649L97.9803 164.266V184.412C97.9803 186.057 96.6448 187.392 95 187.392C50.1216 187.392 12.6748 155.324 4.33902 112.873C4.18708 112.098 4.34926 111.293 4.78991 110.637C5.23057 109.981 5.91366 109.527 6.68906 109.375C7.46465 109.223 8.26883 109.385 8.92492 109.825C9.58101 110.266 10.0353 110.949 10.188 111.725C17.8003 150.492 51.3685 180.001 92.0196 181.381Z" fill="white"/>
</svg>
