<svg width="248" height="260" viewBox="0 0 248 260" fill="none" xmlns="http://www.w3.org/2000/svg">
<rect width="248" height="260" rx="8" fill="#0A1A1E"/>
<rect x="14" y="24" width="64" height="64" rx="32" fill="#13373F" fill-opacity="0.27"/>
<rect x="14" y="104" width="64" height="64" rx="32" fill="#13373F" fill-opacity="0.27"/>
<rect x="94" y="24" width="64" height="64" rx="32" fill="#13373F" fill-opacity="0.27"/>
<rect x="174" y="24" width="64" height="64" rx="32" fill="#13373F" fill-opacity="0.27"/>
<g clip-path="url(#clip0_119_2)">
<path d="M31.75 136C31.75 137.871 32.1186 139.724 32.8347 141.453C33.5508 143.182 34.6005 144.753 35.9237 146.076C37.247 147.4 38.8179 148.449 40.5468 149.165C42.2757 149.881 44.1287 150.25 46 150.25C47.8713 150.25 49.7243 149.881 51.4532 149.165C53.1821 148.449 54.753 147.4 56.0763 146.076C57.3995 144.753 58.4492 143.182 59.1653 141.453C59.8814 139.724 60.25 137.871 60.25 136C60.25 134.129 59.8814 132.276 59.1653 130.547C58.4492 128.818 57.3995 127.247 56.0763 125.924C54.753 124.6 53.1821 123.551 51.4532 122.835C49.7243 122.119 47.8713 121.75 46 121.75C44.1287 121.75 42.2757 122.119 40.5468 122.835C38.8179 123.551 37.247 124.6 35.9237 125.924C34.6005 127.247 33.5508 128.818 32.8347 130.547C32.1186 132.276 31.75 134.129 31.75 136Z" stroke="#174B57" stroke-linecap="round" stroke-linejoin="round"/>
<path d="M41.25 132.833C41.25 134.093 41.7504 135.301 42.6412 136.192C43.532 137.083 44.7402 137.583 46 137.583C47.2598 137.583 48.468 137.083 49.3588 136.192C50.2496 135.301 50.75 134.093 50.75 132.833C50.75 131.574 50.2496 130.365 49.3588 129.475C48.468 128.584 47.2598 128.083 46 128.083C44.7402 128.083 43.532 128.584 42.6412 129.475C41.7504 130.365 41.25 131.574 41.25 132.833Z" stroke="#174B57" stroke-linecap="round" stroke-linejoin="round"/>
<path d="M36.766 146.844C37.1579 145.54 37.9598 144.397 39.0527 143.584C40.1457 142.772 41.4714 142.333 42.8333 142.333H49.1667C50.5303 142.333 51.8577 142.773 52.9514 143.587C54.0452 144.401 54.8468 145.547 55.2372 146.854" stroke="#174B57" stroke-linecap="round" stroke-linejoin="round"/>
</g>
<g clip-path="url(#clip1_119_2)">
<path d="M191.75 56C191.75 57.8713 192.119 59.7243 192.835 61.4532C193.551 63.1821 194.6 64.753 195.924 66.0763C197.247 67.3995 198.818 68.4492 200.547 69.1653C202.276 69.8814 204.129 70.25 206 70.25C207.871 70.25 209.724 69.8814 211.453 69.1653C213.182 68.4492 214.753 67.3995 216.076 66.0763C217.4 64.753 218.449 63.1821 219.165 61.4532C219.881 59.7243 220.25 57.8713 220.25 56C220.25 54.1287 219.881 52.2757 219.165 50.5468C218.449 48.8179 217.4 47.247 216.076 45.9237C214.753 44.6005 213.182 43.5508 211.453 42.8347C209.724 42.1186 207.871 41.75 206 41.75C204.129 41.75 202.276 42.1186 200.547 42.8347C198.818 43.5508 197.247 44.6005 195.924 45.9237C194.6 47.247 193.551 48.8179 192.835 50.5468C192.119 52.2757 191.75 54.1287 191.75 56Z" stroke="#174B57" stroke-linecap="round" stroke-linejoin="round"/>
<path d="M201.25 52.8334C201.25 54.0932 201.75 55.3013 202.641 56.1921C203.532 57.0829 204.74 57.5834 206 57.5834C207.26 57.5834 208.468 57.0829 209.359 56.1921C210.25 55.3013 210.75 54.0932 210.75 52.8334C210.75 51.5736 210.25 50.3654 209.359 49.4746C208.468 48.5838 207.26 48.0834 206 48.0834C204.74 48.0834 203.532 48.5838 202.641 49.4746C201.75 50.3654 201.25 51.5736 201.25 52.8334Z" stroke="#174B57" stroke-linecap="round" stroke-linejoin="round"/>
<path d="M196.766 66.8443C197.158 65.54 197.96 64.3967 199.053 63.5842C200.146 62.7716 201.471 62.333 202.833 62.3334H209.167C210.53 62.3329 211.858 62.7726 212.951 63.587C214.045 64.4015 214.847 65.5472 215.237 66.8538" stroke="#174B57" stroke-linecap="round" stroke-linejoin="round"/>
</g>
<g clip-path="url(#clip2_119_2)">
<path d="M31.75 56C31.75 57.8713 32.1186 59.7243 32.8347 61.4532C33.5508 63.1821 34.6005 64.753 35.9237 66.0763C37.247 67.3995 38.8179 68.4492 40.5468 69.1653C42.2757 69.8814 44.1287 70.25 46 70.25C47.8713 70.25 49.7243 69.8814 51.4532 69.1653C53.1821 68.4492 54.753 67.3995 56.0763 66.0763C57.3995 64.753 58.4492 63.1821 59.1653 61.4532C59.8814 59.7243 60.25 57.8713 60.25 56C60.25 54.1287 59.8814 52.2757 59.1653 50.5468C58.4492 48.8179 57.3995 47.247 56.0763 45.9237C54.753 44.6005 53.1821 43.5508 51.4532 42.8347C49.7243 42.1186 47.8713 41.75 46 41.75C44.1287 41.75 42.2757 42.1186 40.5468 42.8347C38.8179 43.5508 37.247 44.6005 35.9237 45.9237C34.6005 47.247 33.5508 48.8179 32.8347 50.5468C32.1186 52.2757 31.75 54.1287 31.75 56Z" stroke="#174B57" stroke-linecap="round" stroke-linejoin="round"/>
<path d="M41.25 52.8334H41.265" stroke="#174B57" stroke-linecap="round" stroke-linejoin="round"/>
<path d="M50.75 52.8334H50.765" stroke="#174B57" stroke-linecap="round" stroke-linejoin="round"/>
<path d="M42.0416 60.75C42.5576 61.2766 43.1735 61.695 43.8532 61.9806C44.5329 62.2662 45.2627 62.4133 46 62.4133C46.7372 62.4133 47.4671 62.2662 48.1468 61.9806C48.8264 61.695 49.4423 61.2766 49.9583 60.75" stroke="#174B57" stroke-linecap="round" stroke-linejoin="round"/>
</g>
<g clip-path="url(#clip3_119_2)">
<path d="M126 70.25C124.129 70.25 122.276 69.8814 120.547 69.1653C118.818 68.4492 117.247 67.3995 115.924 66.0763C114.6 64.753 113.551 63.1821 112.835 61.4532C112.119 59.7243 111.75 57.8713 111.75 56C111.75 54.1287 112.119 52.2757 112.835 50.5468C113.551 48.8179 114.6 47.247 115.924 45.9237C117.247 44.6005 118.818 43.5508 120.547 42.8347C122.276 42.1186 124.129 41.75 126 41.75C129.779 41.75 133.404 43.2513 136.076 45.9237C138.749 48.5961 140.25 52.2207 140.25 56C140.25 59.7793 138.749 63.4039 136.076 66.0763C133.404 68.7487 129.779 70.25 126 70.25Z" stroke="#174B57" stroke-linecap="round" stroke-linejoin="round"/>
<path d="M121.25 52.8334H121.234" stroke="#174B57" stroke-linecap="round" stroke-linejoin="round"/>
<path d="M129.958 60.75C129.442 61.2766 128.826 61.695 128.147 61.9806C127.467 62.2662 126.737 62.4133 126 62.4133C125.263 62.4133 124.533 62.2662 123.853 61.9806C123.173 61.695 122.558 61.2766 122.042 60.75" stroke="#174B57" stroke-linecap="round" stroke-linejoin="round"/>
<path d="M131.542 50.4584L129.167 52.8334L131.542 55.2084" stroke="#174B57" stroke-linecap="round" stroke-linejoin="round"/>
</g>
<defs>
<clipPath id="clip0_119_2">
<rect width="38" height="38" fill="white" transform="translate(27 117)"/>
</clipPath>
<clipPath id="clip1_119_2">
<rect width="38" height="38" fill="white" transform="translate(187 37)"/>
</clipPath>
<clipPath id="clip2_119_2">
<rect width="38" height="38" fill="white" transform="translate(27 37)"/>
</clipPath>
<clipPath id="clip3_119_2">
<rect width="38" height="38" fill="white" transform="translate(107 37)"/>
</clipPath>
</defs>
</svg>
