<svg width="190" height="190" viewBox="0 0 190 190" fill="none" xmlns="http://www.w3.org/2000/svg">
<path d="M49.1091 87.8245C27.7608 87.8245 10.3906 70.4573 10.3906 49.1091C10.3906 27.7608 27.7578 10.3906 49.1091 10.3906C70.4544 10.3906 87.8245 27.7578 87.8245 49.1091C87.8245 70.4603 70.4573 87.8245 49.1091 87.8245ZM49.1091 19.2969C32.6711 19.2969 19.2969 32.6681 19.2969 49.1061C19.2969 65.5441 32.6711 78.9183 49.1091 78.9183C65.547 78.9183 78.9183 65.547 78.9183 49.1091C78.9183 32.6711 65.547 19.2969 49.1091 19.2969Z" fill="white"/>
<path d="M76.4185 74.2777C74.8184 74.2777 73.2717 73.4138 72.4731 71.8968C67.8923 63.1835 58.9356 57.7715 49.1031 57.7715C39.2706 57.7715 30.3109 63.1835 25.7331 71.8968C25.1835 72.9424 24.2411 73.7269 23.1131 74.0776C21.9851 74.4284 20.764 74.3167 19.7184 73.7671C18.6728 73.2175 17.8883 72.2751 17.5376 71.1471C17.1868 70.0191 17.2985 68.798 17.8481 67.7524C23.9726 56.1031 35.9486 48.8652 49.1031 48.8652C62.2576 48.8652 74.2336 56.1031 80.3581 67.7524C80.7155 68.431 80.8916 69.1905 80.8693 69.9571C80.847 70.7238 80.627 71.4717 80.2307 72.1284C79.8344 72.7851 79.2753 73.3283 78.6074 73.7053C77.9395 74.0824 77.1855 74.2776 76.4185 74.2777Z" fill="white"/>
<path d="M49.109 57.7778C39.6595 57.7778 31.9734 50.0917 31.9734 40.6422C31.9734 31.1927 39.6624 23.5036 49.109 23.5036C58.5556 23.5036 66.2417 31.1927 66.2417 40.6422C66.2417 50.0917 58.5585 57.7778 49.109 57.7778ZM49.109 32.4098C44.5728 32.4098 40.8796 36.103 40.8796 40.6422C40.8796 45.1814 44.5728 48.8716 49.109 48.8716C53.6453 48.8716 57.3354 45.1814 57.3354 40.6422C57.3354 36.103 53.6453 32.4098 49.109 32.4098ZM140.891 87.8245C119.546 87.8245 102.175 70.4573 102.175 49.1091C102.175 27.7608 119.543 10.3906 140.891 10.3906C162.239 10.3906 179.609 27.7578 179.609 49.1091C179.609 70.4603 162.242 87.8245 140.891 87.8245ZM140.891 19.2969C124.453 19.2969 111.082 32.6681 111.082 49.1061C111.082 65.5441 124.453 78.9183 140.891 78.9183C157.329 78.9183 170.703 65.547 170.703 49.1091C170.703 32.6711 157.329 19.2969 140.891 19.2969Z" fill="white"/>
<path d="M168.212 74.2777C166.612 74.2777 165.066 73.4138 164.267 71.8968C159.686 63.1835 150.729 57.7715 140.897 57.7715C131.064 57.7715 122.105 63.1835 117.527 71.8968C116.977 72.9424 116.035 73.7269 114.907 74.0776C113.779 74.4284 112.558 74.3167 111.512 73.7671C110.467 73.2175 109.682 72.2751 109.331 71.1471C108.981 70.0191 109.092 68.798 109.642 67.7524C115.766 56.1031 127.742 48.8652 140.897 48.8652C154.051 48.8652 166.027 56.1031 172.152 67.7524C172.509 68.431 172.685 69.1905 172.663 69.9571C172.641 70.7238 172.421 71.4717 172.025 72.1284C171.628 72.7851 171.069 73.3283 170.401 73.7053C169.733 74.0824 168.979 74.2776 168.212 74.2777Z" fill="white"/>
<path d="M140.891 57.7776C131.441 57.7776 123.758 50.0915 123.758 40.642C123.758 31.1925 131.441 23.5034 140.891 23.5034C150.34 23.5034 158.027 31.1925 158.027 40.642C158.027 50.0915 150.337 57.7776 140.891 57.7776ZM140.891 32.4097C136.355 32.4097 132.665 36.1028 132.665 40.642C132.665 45.1812 136.355 48.8714 140.891 48.8714C145.427 48.8714 149.12 45.1812 149.12 40.642C149.12 36.1028 145.427 32.4097 140.891 32.4097ZM56.4062 141.372H34.1347C32.2077 141.373 30.3033 140.957 28.5523 140.153C26.8013 139.348 25.2452 138.174 23.9909 136.712C22.7365 135.249 21.8137 133.532 21.2858 131.679C20.7579 129.825 20.6374 127.88 20.9327 125.976L28.2566 78.4965C28.3321 77.907 28.5249 77.3386 28.8236 76.8247C29.1223 76.3109 29.5208 75.862 29.9957 75.5046C30.4706 75.1472 31.0122 74.8885 31.5887 74.7437C32.1651 74.5989 32.7647 74.571 33.3521 74.6615C33.9395 74.7521 34.5029 74.9593 35.0089 75.271C35.515 75.5827 35.9535 75.9926 36.2987 76.4764C36.6439 76.9603 36.8887 77.5083 37.0188 78.0883C37.1488 78.6682 37.1615 79.2684 37.0559 79.8533L29.735 127.332C29.5331 128.639 29.8953 129.909 30.7533 130.913C31.6142 131.913 32.8166 132.465 34.1347 132.465H56.4062C57.5873 132.465 58.72 132.935 59.5551 133.77C60.3902 134.605 60.8594 135.738 60.8594 136.919C60.8594 138.1 60.3902 139.232 59.5551 140.067C58.72 140.903 57.5873 141.372 56.4062 141.372ZM155.865 141.372H148.437C147.256 141.372 146.124 140.903 145.289 140.067C144.454 139.232 143.984 138.1 143.984 136.919C143.984 135.738 144.454 134.605 145.289 133.77C146.124 132.935 147.256 132.465 148.437 132.465H155.865C156.508 132.47 157.144 132.333 157.728 132.065C158.313 131.796 158.831 131.403 159.247 130.913C160.105 129.909 160.464 128.639 160.265 127.332L152.944 79.8533C152.796 78.7013 153.105 77.5373 153.803 76.6093C154.501 75.6814 155.535 75.063 156.682 74.886C157.83 74.7091 159.002 74.9875 159.947 75.662C160.893 76.3365 161.537 77.3536 161.743 78.4965L169.067 125.976C169.362 127.88 169.241 129.825 168.713 131.678C168.185 133.531 167.262 135.248 166.008 136.711C164.754 138.173 163.198 139.347 161.447 140.152C159.696 140.956 157.792 141.373 155.865 141.372Z" fill="white"/>
<path d="M105.946 179.61C105.164 179.61 104.395 179.405 103.717 179.014C103.04 178.623 102.477 178.061 102.086 177.383L99.6758 173.215C96.5722 173.626 93.4278 173.626 90.3242 173.215L87.9136 177.383C87.3231 178.406 86.3504 179.152 85.2097 179.458C84.0689 179.763 82.8534 179.603 81.8306 179.013L65.1225 169.364C64.6158 169.072 64.1717 168.683 63.8154 168.219C63.4591 167.755 63.1977 167.226 63.0461 166.661C62.8945 166.096 62.8556 165.507 62.9317 164.927C63.0078 164.347 63.1974 163.788 63.4897 163.281L65.9063 159.096C63.996 156.616 62.4162 153.899 61.2067 151.012H56.4062C55.2252 151.012 54.0925 150.542 53.2574 149.707C52.4223 148.872 51.9531 147.74 51.9531 146.558V127.262C51.9531 126.081 52.4223 124.948 53.2574 124.113C54.0925 123.278 55.2252 122.808 56.4062 122.808H61.2067C62.4091 119.932 63.9825 117.227 65.9063 114.725L63.4927 110.539C63.1998 110.032 63.0097 109.473 62.9331 108.893C62.8565 108.313 62.895 107.723 63.0464 107.158C63.1977 106.593 63.459 106.063 63.8152 105.599C64.1715 105.135 64.6157 104.745 65.1225 104.453L81.8306 94.8043C82.3373 94.5112 82.8967 94.3209 83.477 94.2443C84.0573 94.1677 84.647 94.2064 85.2123 94.3581C85.7777 94.5097 86.3075 94.7714 86.7716 95.1282C87.2356 95.4849 87.6247 95.9297 87.9166 96.4371L90.3212 100.605C93.4258 100.193 96.5712 100.193 99.6758 100.605L102.086 96.4341C102.379 95.9277 102.768 95.4838 103.232 95.1279C103.696 94.772 104.226 94.511 104.791 94.3599C105.356 94.2088 105.945 94.1706 106.525 94.2473C107.104 94.3241 107.663 94.5143 108.169 94.8072L124.877 104.456C125.9 105.046 126.646 106.018 126.952 107.158C127.259 108.298 127.1 109.513 126.51 110.536L124.094 114.722C126.004 117.202 127.584 119.921 128.793 122.808H133.594C134.775 122.808 135.907 123.278 136.743 124.113C137.578 124.948 138.047 126.081 138.047 127.262V146.558C138.047 147.74 137.578 148.872 136.743 149.707C135.907 150.542 134.775 151.012 133.594 151.012H128.793C127.591 153.885 126.017 156.593 124.094 159.096L126.507 163.281C127.098 164.304 127.258 165.52 126.952 166.66C126.647 167.801 125.9 168.774 124.877 169.364L108.169 179.013C107.493 179.404 106.728 179.61 105.946 179.61ZM101.977 163.837C102.758 163.837 103.525 164.043 104.201 164.434C104.878 164.825 105.439 165.387 105.83 166.063L107.57 169.073L116.571 163.878L114.819 160.85C114.345 160.029 114.145 159.078 114.249 158.136C114.352 157.193 114.754 156.309 115.395 155.61C118.151 152.636 120.214 149.088 121.437 145.223C121.721 144.319 122.286 143.53 123.049 142.969C123.813 142.408 124.735 142.106 125.682 142.105H129.141V131.715H125.685C124.738 131.714 123.816 131.412 123.052 130.851C122.289 130.29 121.724 129.501 121.44 128.598C120.216 124.73 118.152 121.182 115.395 118.207C114.755 117.509 114.354 116.624 114.251 115.682C114.148 114.741 114.348 113.79 114.822 112.97L116.571 109.942L107.57 104.747L105.83 107.754C105.355 108.573 104.632 109.22 103.766 109.602C102.899 109.984 101.934 110.08 101.009 109.877C97.053 108.981 92.947 108.981 88.9912 109.877C88.0664 110.081 87.1005 109.985 86.2337 109.603C85.3668 109.222 84.644 108.574 84.17 107.754L82.4303 104.744L73.4291 109.939L75.1806 112.967C75.6549 113.788 75.8549 114.739 75.7513 115.681C75.6477 116.624 75.246 117.509 74.6047 118.207C71.849 121.182 69.7858 124.731 68.5633 128.598C68.2791 129.501 67.7143 130.29 66.9509 130.851C66.1874 131.412 65.2651 131.714 64.318 131.715H60.8594V142.105H64.315C65.2621 142.106 66.1844 142.408 66.9479 142.969C67.7113 143.53 68.2762 144.319 68.5603 145.223C69.7839 149.089 71.8481 152.636 74.6047 155.61C75.2449 156.309 75.6456 157.193 75.7486 158.135C75.8517 159.077 75.6517 160.027 75.1777 160.847L73.4291 163.875L82.4303 169.073L84.17 166.063C84.6427 165.242 85.3655 164.594 86.2328 164.212C87.1001 163.831 88.0666 163.737 88.9912 163.943C93.0258 164.837 96.9742 164.837 101.009 163.943C101.327 163.873 101.651 163.837 101.977 163.837Z" fill="white"/>
<path d="M94.9999 155.192C84.9181 155.192 76.7184 146.989 76.7184 136.91C76.7184 126.831 84.921 118.628 94.9999 118.628C105.079 118.628 113.282 126.828 113.282 136.91C113.282 146.992 105.079 155.192 94.9999 155.192ZM94.9999 127.535C89.8314 127.535 85.6246 131.738 85.6246 136.91C85.6246 142.082 89.8314 146.285 94.9999 146.285C100.169 146.285 104.375 142.079 104.375 136.91C104.375 131.741 100.169 127.535 94.9999 127.535Z" fill="white"/>
</svg>
