<svg width="248" height="260" viewBox="0 0 248 260" fill="none" xmlns="http://www.w3.org/2000/svg">
<rect width="248" height="260" rx="8" fill="#0A1A1E"/>
<rect x="12" y="24" width="64" height="64" rx="32" fill="#13373F" fill-opacity="0.27"/>
<rect x="92" y="24" width="64" height="64" rx="32" fill="#13373F" fill-opacity="0.27"/>
<rect x="172" y="24" width="64" height="64" rx="32" fill="#13373F" fill-opacity="0.27"/>
<g clip-path="url(#clip0_119_2)">
<path d="M29.75 56C29.75 57.8713 30.1186 59.7243 30.8347 61.4532C31.5508 63.1821 32.6005 64.753 33.9237 66.0763C35.247 67.3995 36.8179 68.4492 38.5468 69.1653C40.2757 69.8814 42.1287 70.25 44 70.25C45.8713 70.25 47.7243 69.8814 49.4532 69.1653C51.1821 68.4492 52.753 67.3995 54.0763 66.0763C55.3995 64.753 56.4492 63.1821 57.1653 61.4532C57.8814 59.7243 58.25 57.8713 58.25 56C58.25 54.1287 57.8814 52.2757 57.1653 50.5468C56.4492 48.8179 55.3995 47.247 54.0763 45.9237C52.753 44.6005 51.1821 43.5508 49.4532 42.8347C47.7243 42.1186 45.8713 41.75 44 41.75C42.1287 41.75 40.2757 42.1186 38.5468 42.8347C36.8179 43.5508 35.247 44.6005 33.9237 45.9237C32.6005 47.247 31.5508 48.8179 30.8347 50.5468C30.1186 52.2757 29.75 54.1287 29.75 56Z" stroke="#174B57" stroke-linecap="round" stroke-linejoin="round"/>
<path d="M39.25 52.8334C39.25 54.0932 39.7504 55.3013 40.6412 56.1921C41.532 57.0829 42.7402 57.5834 44 57.5834C45.2598 57.5834 46.468 57.0829 47.3588 56.1921C48.2496 55.3013 48.75 54.0932 48.75 52.8334C48.75 51.5736 48.2496 50.3654 47.3588 49.4746C46.468 48.5838 45.2598 48.0834 44 48.0834C42.7402 48.0834 41.532 48.5838 40.6412 49.4746C39.7504 50.3654 39.25 51.5736 39.25 52.8334Z" stroke="#174B57" stroke-linecap="round" stroke-linejoin="round"/>
<path d="M34.766 66.8443C35.1578 65.54 35.9597 64.3967 37.0527 63.5842C38.1456 62.7716 39.4714 62.333 40.8333 62.3334H47.1666C48.5303 62.3329 49.8577 62.7726 50.9514 63.587C52.0451 64.4015 52.8468 65.5472 53.2371 66.8538" stroke="#174B57" stroke-linecap="round" stroke-linejoin="round"/>
</g>
<g clip-path="url(#clip1_119_2)">
<path d="M109.75 56C109.75 57.8713 110.119 59.7243 110.835 61.4532C111.551 63.1821 112.6 64.753 113.924 66.0763C115.247 67.3995 116.818 68.4492 118.547 69.1653C120.276 69.8814 122.129 70.25 124 70.25C125.871 70.25 127.724 69.8814 129.453 69.1653C131.182 68.4492 132.753 67.3995 134.076 66.0763C135.4 64.753 136.449 63.1821 137.165 61.4532C137.881 59.7243 138.25 57.8713 138.25 56C138.25 54.1287 137.881 52.2757 137.165 50.5468C136.449 48.8179 135.4 47.247 134.076 45.9237C132.753 44.6005 131.182 43.5508 129.453 42.8347C127.724 42.1186 125.871 41.75 124 41.75C122.129 41.75 120.276 42.1186 118.547 42.8347C116.818 43.5508 115.247 44.6005 113.924 45.9237C112.6 47.247 111.551 48.8179 110.835 50.5468C110.119 52.2757 109.75 54.1287 109.75 56Z" stroke="#174B57" stroke-linecap="round" stroke-linejoin="round"/>
<path d="M119.25 52.8334C119.25 54.0932 119.75 55.3013 120.641 56.1921C121.532 57.0829 122.74 57.5834 124 57.5834C125.26 57.5834 126.468 57.0829 127.359 56.1921C128.25 55.3013 128.75 54.0932 128.75 52.8334C128.75 51.5736 128.25 50.3654 127.359 49.4746C126.468 48.5838 125.26 48.0834 124 48.0834C122.74 48.0834 121.532 48.5838 120.641 49.4746C119.75 50.3654 119.25 51.5736 119.25 52.8334Z" stroke="#174B57" stroke-linecap="round" stroke-linejoin="round"/>
<path d="M114.766 66.8443C115.158 65.54 115.96 64.3967 117.053 63.5842C118.146 62.7716 119.471 62.333 120.833 62.3334H127.167C128.53 62.3329 129.858 62.7726 130.951 63.587C132.045 64.4015 132.847 65.5472 133.237 66.8538" stroke="#174B57" stroke-linecap="round" stroke-linejoin="round"/>
</g>
<g clip-path="url(#clip2_119_2)">
<path d="M189.75 56C189.75 57.8713 190.119 59.7243 190.835 61.4532C191.551 63.1821 192.6 64.753 193.924 66.0763C195.247 67.3995 196.818 68.4492 198.547 69.1653C200.276 69.8814 202.129 70.25 204 70.25C205.871 70.25 207.724 69.8814 209.453 69.1653C211.182 68.4492 212.753 67.3995 214.076 66.0763C215.4 64.753 216.449 63.1821 217.165 61.4532C217.881 59.7243 218.25 57.8713 218.25 56C218.25 54.1287 217.881 52.2757 217.165 50.5468C216.449 48.8179 215.4 47.247 214.076 45.9237C212.753 44.6005 211.182 43.5508 209.453 42.8347C207.724 42.1186 205.871 41.75 204 41.75C202.129 41.75 200.276 42.1186 198.547 42.8347C196.818 43.5508 195.247 44.6005 193.924 45.9237C192.6 47.247 191.551 48.8179 190.835 50.5468C190.119 52.2757 189.75 54.1287 189.75 56Z" stroke="#174B57" stroke-linecap="round" stroke-linejoin="round"/>
<path d="M199.25 52.8334C199.25 54.0932 199.75 55.3013 200.641 56.1921C201.532 57.0829 202.74 57.5834 204 57.5834C205.26 57.5834 206.468 57.0829 207.359 56.1921C208.25 55.3013 208.75 54.0932 208.75 52.8334C208.75 51.5736 208.25 50.3654 207.359 49.4746C206.468 48.5838 205.26 48.0834 204 48.0834C202.74 48.0834 201.532 48.5838 200.641 49.4746C199.75 50.3654 199.25 51.5736 199.25 52.8334Z" stroke="#174B57" stroke-linecap="round" stroke-linejoin="round"/>
<path d="M194.766 66.8443C195.158 65.54 195.96 64.3967 197.053 63.5842C198.146 62.7716 199.471 62.333 200.833 62.3334H207.167C208.53 62.3329 209.858 62.7726 210.951 63.587C212.045 64.4015 212.847 65.5472 213.237 66.8538" stroke="#174B57" stroke-linecap="round" stroke-linejoin="round"/>
</g>
<defs>
<clipPath id="clip0_119_2">
<rect width="38" height="38" fill="white" transform="translate(25 37)"/>
</clipPath>
<clipPath id="clip1_119_2">
<rect width="38" height="38" fill="white" transform="translate(105 37)"/>
</clipPath>
<clipPath id="clip2_119_2">
<rect width="38" height="38" fill="white" transform="translate(185 37)"/>
</clipPath>
</defs>
</svg>
