<svg width="785" height="794" viewBox="0 0 785 794" fill="none" xmlns="http://www.w3.org/2000/svg">
<path d="M84 1H0V299H84V1Z" fill="url(#paint0_linear_1272_960)"/>
<path d="M184 0H99V353H184V0Z" fill="url(#paint1_linear_1272_960)"/>
<path d="M283 0H199V478H283V0Z" fill="url(#paint2_linear_1272_960)"/>
<path d="M383 0H299V586H383V0Z" fill="url(#paint3_linear_1272_960)"/>
<path d="M484 0H400V586H484V0Z" fill="url(#paint4_linear_1272_960)"/>
<path d="M584.032 0H499.854V477.975H584.032V0Z" fill="url(#paint5_linear_1272_960)"/>
<path d="M684 0H600V353H684V0Z" fill="url(#paint6_linear_1272_960)"/>
<path d="M785 0H700V299H785V0Z" fill="url(#paint7_linear_1272_960)"/>
<line x1="0.5" y1="300" x2="0.499987" y2="1" stroke="url(#paint8_linear_1272_960)"/>
<line x1="700.5" y1="299" x2="700.5" y2="2.18557e-08" stroke="url(#paint9_linear_1272_960)"/>
<line x1="83.5" y1="300" x2="83.5" y2="1" stroke="url(#paint10_linear_1272_960)"/>
<line x1="784.5" y1="299" x2="784.5" y2="2.18557e-08" stroke="url(#paint11_linear_1272_960)"/>
<line x1="99.5" y1="352" x2="99.5" y2="-2.18557e-08" stroke="url(#paint12_linear_1272_960)"/>
<line x1="600.5" y1="352" x2="600.5" y2="-2.18557e-08" stroke="url(#paint13_linear_1272_960)"/>
<line x1="183.5" y1="352" x2="183.5" y2="-2.18557e-08" stroke="url(#paint14_linear_1272_960)"/>
<line x1="683.5" y1="352" x2="683.5" y2="-2.18557e-08" stroke="url(#paint15_linear_1272_960)"/>
<line x1="198.5" y1="478" x2="198.5" y2="-2.9679e-08" stroke="url(#paint16_linear_1272_960)"/>
<line x1="499.5" y1="478" x2="499.5" y2="-2.9679e-08" stroke="url(#paint17_linear_1272_960)"/>
<line x1="282.5" y1="478" x2="282.5" y2="-2.9679e-08" stroke="url(#paint18_linear_1272_960)"/>
<line x1="299.5" y1="586" x2="299.5" y2="-2.18557e-08" stroke="url(#paint19_linear_1272_960)"/>
<line x1="400.5" y1="586" x2="400.5" y2="-2.18557e-08" stroke="url(#paint20_linear_1272_960)"/>
<line x1="382.5" y1="586" x2="382.5" y2="-2.18557e-08" stroke="url(#paint21_linear_1272_960)"/>
<line x1="483.5" y1="586" x2="483.5" y2="-2.18557e-08" stroke="url(#paint22_linear_1272_960)"/>
<line x1="583.5" y1="478" x2="583.5" y2="-2.9679e-08" stroke="url(#paint23_linear_1272_960)"/>
<path opacity="0.53" d="M779 405.776C779 620.187 605.287 794 391 794C176.713 794 3 620.187 3 405.776C3 191.365 176.713 84 391 84C605.287 84 779 191.365 779 405.776Z" fill="url(#paint24_radial_1272_960)"/>
<defs>
<linearGradient id="paint0_linear_1272_960" x1="42" y1="0.59099" x2="42" y2="299.409" gradientUnits="userSpaceOnUse">
<stop stop-color="#5B7FF0" stop-opacity="0.18"/>
<stop offset="1" stop-color="#0A0B26" stop-opacity="0"/>
</linearGradient>
<linearGradient id="paint1_linear_1272_960" x1="141.501" y1="-0.410288" x2="141.501" y2="353.41" gradientUnits="userSpaceOnUse">
<stop stop-color="#5B7FF0" stop-opacity="0.18"/>
<stop offset="1" stop-color="#0A0B26" stop-opacity="0"/>
</linearGradient>
<linearGradient id="paint2_linear_1272_960" x1="241" y1="-0.410106" x2="241" y2="478.41" gradientUnits="userSpaceOnUse">
<stop stop-color="#5B7FF0" stop-opacity="0.18"/>
<stop offset="1" stop-color="#0A0B26" stop-opacity="0"/>
</linearGradient>
<linearGradient id="paint3_linear_1272_960" x1="341" y1="-0.410043" x2="341" y2="586.41" gradientUnits="userSpaceOnUse">
<stop stop-color="#5B7FF0" stop-opacity="0.18"/>
<stop offset="1" stop-color="#0A0B26" stop-opacity="0"/>
</linearGradient>
<linearGradient id="paint4_linear_1272_960" x1="442" y1="-0.410043" x2="442" y2="586.41" gradientUnits="userSpaceOnUse">
<stop stop-color="#5B7FF0" stop-opacity="0.18"/>
<stop offset="1" stop-color="#0A0B26" stop-opacity="0"/>
</linearGradient>
<linearGradient id="paint5_linear_1272_960" x1="541.944" y1="-0.410085" x2="541.944" y2="478.385" gradientUnits="userSpaceOnUse">
<stop stop-color="#5B7FF0" stop-opacity="0.18"/>
<stop offset="1" stop-color="#0A0B26" stop-opacity="0"/>
</linearGradient>
<linearGradient id="paint6_linear_1272_960" x1="642" y1="-0.410288" x2="642" y2="353.41" gradientUnits="userSpaceOnUse">
<stop stop-color="#5B7FF0" stop-opacity="0.18"/>
<stop offset="1" stop-color="#0A0B26" stop-opacity="0"/>
</linearGradient>
<linearGradient id="paint7_linear_1272_960" x1="742.5" y1="-0.410383" x2="742.5" y2="299.41" gradientUnits="userSpaceOnUse">
<stop stop-color="#5B7FF0" stop-opacity="0.18"/>
<stop offset="1" stop-color="#0A0B26" stop-opacity="0"/>
</linearGradient>
<linearGradient id="paint8_linear_1272_960" x1="1" y1="1" x2="1" y2="306" gradientUnits="userSpaceOnUse">
<stop stop-color="#5C80F3" stop-opacity="0.22"/>
<stop offset="1" stop-color="#13142E" stop-opacity="0"/>
</linearGradient>
<linearGradient id="paint9_linear_1272_960" x1="701" y1="0" x2="701" y2="305" gradientUnits="userSpaceOnUse">
<stop stop-color="#5C80F3" stop-opacity="0.22"/>
<stop offset="1" stop-color="#13142E" stop-opacity="0"/>
</linearGradient>
<linearGradient id="paint10_linear_1272_960" x1="84" y1="1" x2="84" y2="306" gradientUnits="userSpaceOnUse">
<stop stop-color="#5C80F3" stop-opacity="0.22"/>
<stop offset="1" stop-color="#13142E" stop-opacity="0"/>
</linearGradient>
<linearGradient id="paint11_linear_1272_960" x1="785" y1="0" x2="785" y2="305" gradientUnits="userSpaceOnUse">
<stop stop-color="#5C80F3" stop-opacity="0.22"/>
<stop offset="1" stop-color="#13142E" stop-opacity="0"/>
</linearGradient>
<linearGradient id="paint12_linear_1272_960" x1="100" y1="0" x2="100" y2="359.064" gradientUnits="userSpaceOnUse">
<stop stop-color="#5C80F3" stop-opacity="0.22"/>
<stop offset="1" stop-color="#13142E" stop-opacity="0"/>
</linearGradient>
<linearGradient id="paint13_linear_1272_960" x1="601" y1="0" x2="601" y2="359.064" gradientUnits="userSpaceOnUse">
<stop stop-color="#5C80F3" stop-opacity="0.22"/>
<stop offset="1" stop-color="#13142E" stop-opacity="0"/>
</linearGradient>
<linearGradient id="paint14_linear_1272_960" x1="184" y1="0" x2="184" y2="359.064" gradientUnits="userSpaceOnUse">
<stop stop-color="#5C80F3" stop-opacity="0.22"/>
<stop offset="1" stop-color="#13142E" stop-opacity="0"/>
</linearGradient>
<linearGradient id="paint15_linear_1272_960" x1="684" y1="0" x2="684" y2="359.064" gradientUnits="userSpaceOnUse">
<stop stop-color="#5C80F3" stop-opacity="0.22"/>
<stop offset="1" stop-color="#13142E" stop-opacity="0"/>
</linearGradient>
<linearGradient id="paint16_linear_1272_960" x1="199" y1="0" x2="199" y2="487.592" gradientUnits="userSpaceOnUse">
<stop stop-color="#5C80F3" stop-opacity="0.22"/>
<stop offset="1" stop-color="#13142E" stop-opacity="0"/>
</linearGradient>
<linearGradient id="paint17_linear_1272_960" x1="500" y1="0" x2="500" y2="487.592" gradientUnits="userSpaceOnUse">
<stop stop-color="#5C80F3" stop-opacity="0.22"/>
<stop offset="1" stop-color="#13142E" stop-opacity="0"/>
</linearGradient>
<linearGradient id="paint18_linear_1272_960" x1="283" y1="0" x2="283" y2="487.592" gradientUnits="userSpaceOnUse">
<stop stop-color="#5C80F3" stop-opacity="0.22"/>
<stop offset="1" stop-color="#13142E" stop-opacity="0"/>
</linearGradient>
<linearGradient id="paint19_linear_1272_960" x1="300" y1="0" x2="300" y2="597.759" gradientUnits="userSpaceOnUse">
<stop stop-color="#5C80F3" stop-opacity="0.22"/>
<stop offset="1" stop-color="#13142E" stop-opacity="0"/>
</linearGradient>
<linearGradient id="paint20_linear_1272_960" x1="401" y1="0" x2="401" y2="597.759" gradientUnits="userSpaceOnUse">
<stop stop-color="#5C80F3" stop-opacity="0.22"/>
<stop offset="1" stop-color="#13142E" stop-opacity="0"/>
</linearGradient>
<linearGradient id="paint21_linear_1272_960" x1="383" y1="0" x2="383" y2="597.759" gradientUnits="userSpaceOnUse">
<stop stop-color="#5C80F3" stop-opacity="0.22"/>
<stop offset="1" stop-color="#13142E" stop-opacity="0"/>
</linearGradient>
<linearGradient id="paint22_linear_1272_960" x1="484" y1="0" x2="484" y2="597.759" gradientUnits="userSpaceOnUse">
<stop stop-color="#5C80F3" stop-opacity="0.22"/>
<stop offset="1" stop-color="#13142E" stop-opacity="0"/>
</linearGradient>
<linearGradient id="paint23_linear_1272_960" x1="584" y1="0" x2="584" y2="487.592" gradientUnits="userSpaceOnUse">
<stop stop-color="#5C80F3" stop-opacity="0.22"/>
<stop offset="1" stop-color="#13142E" stop-opacity="0"/>
</linearGradient>
<radialGradient id="paint24_radial_1272_960" cx="0" cy="0" r="1" gradientUnits="userSpaceOnUse" gradientTransform="translate(391 405.776) rotate(90) scale(388.224 472.518)">
<stop stop-color="#6083F3" stop-opacity="0.47"/>
<stop offset="1" stop-color="#384C8D" stop-opacity="0"/>
</radialGradient>
</defs>
</svg>
