<svg width="1440" height="300" viewBox="0 0 1440 300" fill="none" xmlns="http://www.w3.org/2000/svg">
<line x1="38.3452" y1="1.14742e-08" x2="38.3452" y2="300" stroke="white" stroke-opacity="0.07" stroke-width="0.5"/>
<line x1="76.4404" y1="1.14742e-08" x2="76.4404" y2="300" stroke="white" stroke-opacity="0.07" stroke-width="0.5"/>
<line x1="114.536" y1="1.14742e-08" x2="114.536" y2="300" stroke="white" stroke-opacity="0.07" stroke-width="0.5"/>
<line x1="152.631" y1="1.14742e-08" x2="152.631" y2="300" stroke="white" stroke-opacity="0.07" stroke-width="0.5"/>
<line x1="190.726" y1="1.14742e-08" x2="190.726" y2="300" stroke="white" stroke-opacity="0.07" stroke-width="0.5"/>
<line x1="228.822" y1="1.14742e-08" x2="228.822" y2="300" stroke="white" stroke-opacity="0.07" stroke-width="0.5"/>
<line x1="266.917" y1="1.14742e-08" x2="266.917" y2="300" stroke="white" stroke-opacity="0.07" stroke-width="0.5"/>
<line x1="305.012" y1="1.14742e-08" x2="305.012" y2="300" stroke="white" stroke-opacity="0.07" stroke-width="0.5"/>
<line x1="343.107" y1="1.14742e-08" x2="343.107" y2="300" stroke="white" stroke-opacity="0.07" stroke-width="0.5"/>
<line x1="381.202" y1="1.14742e-08" x2="381.202" y2="300" stroke="white" stroke-opacity="0.07" stroke-width="0.5"/>
<line x1="419.298" y1="1.14742e-08" x2="419.298" y2="300" stroke="white" stroke-opacity="0.07" stroke-width="0.5"/>
<line x1="457.393" y1="1.14742e-08" x2="457.393" y2="300" stroke="white" stroke-opacity="0.07" stroke-width="0.5"/>
<line x1="495.488" y1="1.14742e-08" x2="495.488" y2="300" stroke="white" stroke-opacity="0.07" stroke-width="0.5"/>
<line x1="533.583" y1="1.14742e-08" x2="533.583" y2="300" stroke="white" stroke-opacity="0.07" stroke-width="0.5"/>
<line x1="571.679" y1="1.14742e-08" x2="571.679" y2="300" stroke="white" stroke-opacity="0.07" stroke-width="0.5"/>
<line x1="609.774" y1="1.14742e-08" x2="609.774" y2="300" stroke="white" stroke-opacity="0.07" stroke-width="0.5"/>
<line x1="647.869" y1="1.14742e-08" x2="647.869" y2="300" stroke="white" stroke-opacity="0.07" stroke-width="0.5"/>
<line x1="685.964" y1="1.14742e-08" x2="685.964" y2="300" stroke="white" stroke-opacity="0.07" stroke-width="0.5"/>
<line x1="724.06" y1="1.14742e-08" x2="724.06" y2="300" stroke="white" stroke-opacity="0.07" stroke-width="0.5"/>
<line x1="762.155" y1="1.14742e-08" x2="762.155" y2="300" stroke="white" stroke-opacity="0.07" stroke-width="0.5"/>
<line x1="800.25" y1="1.14742e-08" x2="800.25" y2="300" stroke="white" stroke-opacity="0.07" stroke-width="0.5"/>
<line x1="838.345" y1="1.14742e-08" x2="838.345" y2="300" stroke="white" stroke-opacity="0.07" stroke-width="0.5"/>
<line x1="876.44" y1="1.14742e-08" x2="876.44" y2="300" stroke="white" stroke-opacity="0.07" stroke-width="0.5"/>
<line x1="914.536" y1="1.14742e-08" x2="914.536" y2="300" stroke="white" stroke-opacity="0.07" stroke-width="0.5"/>
<line x1="952.631" y1="1.14742e-08" x2="952.631" y2="300" stroke="white" stroke-opacity="0.07" stroke-width="0.5"/>
<line x1="990.726" y1="1.14742e-08" x2="990.726" y2="300" stroke="white" stroke-opacity="0.07" stroke-width="0.5"/>
<line x1="1028.82" y1="1.14742e-08" x2="1028.82" y2="300" stroke="white" stroke-opacity="0.07" stroke-width="0.5"/>
<line x1="1066.92" y1="1.14742e-08" x2="1066.92" y2="300" stroke="white" stroke-opacity="0.07" stroke-width="0.5"/>
<line x1="1105.01" y1="1.14742e-08" x2="1105.01" y2="300" stroke="white" stroke-opacity="0.07" stroke-width="0.5"/>
<line x1="1143.11" y1="1.14742e-08" x2="1143.11" y2="300" stroke="white" stroke-opacity="0.07" stroke-width="0.5"/>
<line x1="1181.2" y1="1.14742e-08" x2="1181.2" y2="300" stroke="white" stroke-opacity="0.07" stroke-width="0.5"/>
<line x1="1219.3" y1="1.14742e-08" x2="1219.3" y2="300" stroke="white" stroke-opacity="0.07" stroke-width="0.5"/>
<line x1="1257.39" y1="1.14742e-08" x2="1257.39" y2="300" stroke="white" stroke-opacity="0.07" stroke-width="0.5"/>
<line x1="1295.49" y1="1.14742e-08" x2="1295.49" y2="300" stroke="white" stroke-opacity="0.07" stroke-width="0.5"/>
<line x1="1333.58" y1="1.14742e-08" x2="1333.58" y2="300" stroke="white" stroke-opacity="0.07" stroke-width="0.5"/>
<line x1="1371.68" y1="1.14742e-08" x2="1371.68" y2="300" stroke="white" stroke-opacity="0.07" stroke-width="0.5"/>
<line x1="1409.77" y1="1.14742e-08" x2="1409.77" y2="300" stroke="white" stroke-opacity="0.07" stroke-width="0.5"/>
<line y1="29.5" x2="1440" y2="29.5" stroke="white" stroke-opacity="0.07"/>
<line y1="59.5" x2="1440" y2="59.5" stroke="white" stroke-opacity="0.07"/>
<line y1="89.5" x2="1440" y2="89.5" stroke="white" stroke-opacity="0.07"/>
<line y1="119.5" x2="1440" y2="119.5" stroke="white" stroke-opacity="0.07"/>
<line y1="149.5" x2="1440" y2="149.5" stroke="white" stroke-opacity="0.07"/>
<line y1="179.5" x2="1440" y2="179.5" stroke="white" stroke-opacity="0.07"/>
<line y1="209.5" x2="1440" y2="209.5" stroke="white" stroke-opacity="0.07"/>
<line y1="239.5" x2="1440" y2="239.5" stroke="white" stroke-opacity="0.07"/>
<line y1="269.5" x2="1440" y2="269.5" stroke="white" stroke-opacity="0.07"/>
<rect x="1440" y="300" width="1440" height="300" transform="rotate(-180 1440 300)" fill="url(#paint0_linear_455_107)"/>
<defs>
<linearGradient id="paint0_linear_455_107" x1="2160" y1="300" x2="2160" y2="600" gradientUnits="userSpaceOnUse">
<stop stop-color="#0C2126"/>
<stop offset="1" stop-color="#0C2126" stop-opacity="0"/>
</linearGradient>
</defs>
</svg>
