<svg width="124" height="124" viewBox="0 0 124 124" fill="none" xmlns="http://www.w3.org/2000/svg">
<path d="M98.0898 40.2087L85.7673 27.8862C85.5134 27.6303 85.1932 27.4502 84.8425 27.3663C84.4919 27.2824 84.1248 27.298 83.7825 27.4113C83.4403 27.5247 83.1364 27.7313 82.9052 28.0079C82.6739 28.2845 82.5245 28.6201 82.4736 28.9771C82.2698 30.4017 81.6734 31.7415 80.7511 32.8464C79.8289 33.9512 78.6172 34.7774 77.2518 35.2324C75.8865 35.6874 74.4214 35.7532 73.0208 35.4225C71.6201 35.0918 70.3392 34.3776 69.3215 33.36C68.3039 32.3423 67.5897 31.0614 67.259 29.6607C66.9283 28.2601 66.9941 26.795 67.4491 25.4297C67.9041 24.0643 68.7303 22.8526 69.8352 21.9304C70.94 21.0081 72.2798 20.4117 73.7044 20.2079C74.0614 20.157 74.397 20.0076 74.6736 19.7763C74.9502 19.5451 75.1568 19.2412 75.2701 18.899C75.3835 18.5567 75.3991 18.1896 75.3152 17.839C75.2313 17.4883 75.0512 17.1681 74.7952 16.9142L62.4727 4.59169C62.1094 4.22846 61.6167 4.02441 61.1029 4.02441C60.5892 4.02441 60.0965 4.22846 59.7331 4.59169L49.0323 15.2886C48.5054 13.3166 47.4686 11.5181 46.0261 10.0739C44.5836 8.62976 42.7862 7.59087 40.8148 7.06173C38.8434 6.53259 36.7674 6.53186 34.7957 7.0596C32.8239 7.58734 31.0258 8.62496 29.5823 10.0681C28.1387 11.5112 27.1006 13.309 26.5724 15.2807C26.0441 17.2523 26.0442 19.3283 26.5728 21.2998C27.1014 23.2714 28.1398 25.069 29.5836 26.5119C31.0274 27.9548 32.8256 28.9921 34.7975 29.5196L24.1083 40.2087C23.7451 40.5721 23.541 41.0648 23.541 41.5786C23.541 42.0923 23.7451 42.585 24.1083 42.9484L34.8014 53.655C32.454 54.2856 30.3634 55.636 28.8234 57.5165C27.2834 59.397 26.3716 61.7128 26.2161 64.1384C26.0606 66.564 26.6694 68.9773 27.9567 71.039C29.244 73.1007 31.1452 74.707 33.3928 75.6321L28.8687 88.6811C28.2678 90.0351 27.9853 91.5089 28.0431 92.9891C28.1008 94.4694 28.4973 95.9167 29.202 97.2197L36.0026 113.301C36.0278 113.363 36.0569 113.423 36.0898 113.481C36.5661 114.354 36.8147 115.333 36.8125 116.327V118.187C36.8125 118.701 37.0166 119.194 37.38 119.557C37.7433 119.921 38.2361 120.125 38.75 120.125C39.2639 120.125 39.7567 119.921 40.12 119.557C40.4834 119.194 40.6875 118.701 40.6875 118.187V116.327C40.6854 114.716 40.2862 113.129 39.525 111.708L32.7224 95.6271C32.6954 95.5606 32.6644 95.4959 32.6294 95.4333C32.1854 94.6228 31.9385 93.7191 31.9089 92.7954C31.8793 91.8717 32.0677 90.9541 32.4589 90.1168L37.1981 76.4768C37.4015 76.4768 37.6011 76.5059 37.8064 76.5059C40.3636 76.5081 42.8499 75.6656 44.8789 74.1092C46.9079 72.5529 48.366 70.3699 49.0265 67.8995L52.3125 71.1719V91.0623C52.3125 91.5762 52.5166 92.069 52.88 92.4323C53.2433 92.7957 53.7361 92.9998 54.25 92.9998C54.7639 92.9998 55.2567 92.7957 55.62 92.4323C55.9834 92.069 56.1875 91.5762 56.1875 91.0623V63.9373C56.1875 62.3957 56.7999 60.9173 57.8899 59.8273C58.98 58.7372 60.4584 58.1248 62 58.1248C63.5416 58.1248 65.02 58.7372 66.1101 59.8273C67.2001 60.9173 67.8125 62.3957 67.8125 63.9373V87.4024C67.8159 90.1091 68.4459 92.7782 69.6531 95.2008L70.3623 96.6229C71.2998 98.507 71.7877 100.583 71.7877 102.687C71.7877 104.792 71.2998 106.868 70.3623 108.752L68.4248 112.627C68.0225 113.434 67.813 114.324 67.8125 115.227V118.187C67.8125 118.701 68.0166 119.194 68.38 119.557C68.7433 119.921 69.2361 120.125 69.75 120.125C70.2639 120.125 70.7567 119.921 71.12 119.557C71.4834 119.194 71.6875 118.701 71.6875 118.187V115.227C71.6855 114.927 71.7518 114.631 71.8812 114.361L73.8187 110.486C75.0239 108.063 75.6511 105.394 75.6511 102.688C75.6511 99.9824 75.0239 97.3134 73.8187 94.8908L73.1096 93.4687C72.415 92.0735 71.9648 90.5695 71.7786 89.0221C73.0369 90.285 74.5326 91.2866 76.1796 91.9693C77.8265 92.6519 79.5922 93.0022 81.375 92.9998C82.9166 92.9998 84.395 92.3874 85.4851 91.2974C86.5751 90.2073 87.1875 88.7289 87.1875 87.1873V76.1436C89.6882 75.5248 91.9121 74.0922 93.5095 72.0711C95.1068 70.05 95.9867 67.5552 96.0109 64.9792C96.0351 62.4032 95.2021 59.8923 93.6431 57.8416C92.084 55.7909 89.8873 54.3167 87.3987 53.6511L98.0898 42.9445C98.4519 42.5813 98.6552 42.0894 98.6552 41.5766C98.6552 41.0638 98.4519 40.5719 98.0898 40.2087ZM81.375 89.1248C78.8067 89.1217 76.3444 88.1001 74.5283 86.284C72.7122 84.4679 71.6906 82.0056 71.6875 79.4373V69.3623L73.1677 67.8821C73.7784 70.1765 75.0787 72.2282 76.893 73.7597C78.7073 75.2913 80.9481 76.2289 83.3125 76.4458V87.1873C83.3125 87.7012 83.1084 88.194 82.745 88.5573C82.3817 88.9207 81.8889 89.1248 81.375 89.1248ZM81.6521 53.9262C81.3613 54.2137 81.1689 54.5857 81.1025 54.9892C81.036 55.3926 81.0989 55.8067 81.2821 56.1722C81.4652 56.5377 81.7594 56.8359 82.1223 57.0242C82.4853 57.2124 82.8985 57.2809 83.3028 57.22C84.9125 56.9922 86.5531 57.2763 87.9924 58.0322C89.4317 58.7882 90.5968 59.9776 91.3229 61.4321C92.049 62.8867 92.2993 64.5328 92.0384 66.1374C91.7774 67.7421 91.0185 69.224 89.8689 70.3736C88.7194 71.5232 87.2374 72.2821 85.6327 72.5431C84.0281 72.804 82.382 72.5537 80.9274 71.8276C79.4729 71.1015 78.2835 69.9364 77.5276 68.4971C76.7717 67.0578 76.4875 65.4172 76.7153 63.8075C76.7762 63.4032 76.7077 62.99 76.5195 62.627C76.3313 62.2641 76.0331 61.9699 75.6675 61.7867C75.302 61.6035 74.8879 61.5407 74.4845 61.6071C74.0811 61.6736 73.709 61.866 73.4216 62.1567L71.6875 63.8947C71.6818 61.3254 70.6558 58.8636 68.835 57.0508C67.0143 55.2381 64.548 54.2228 61.9787 54.2285C59.4094 54.2341 56.9476 55.2602 55.1348 57.081C53.3221 58.9017 52.3068 61.368 52.3125 63.9373V65.6927L48.7611 62.1413C48.4736 61.8505 48.1016 61.6581 47.6981 61.5916C47.2947 61.5252 46.8806 61.588 46.5151 61.7712C46.1496 61.9544 45.8514 62.2486 45.6632 62.6115C45.475 62.9745 45.4064 63.3877 45.4673 63.792C45.6951 65.4017 45.411 67.0423 44.6551 68.4816C43.8991 69.9209 42.7097 71.086 41.2552 71.8121C39.8006 72.5382 38.1545 72.7885 36.5499 72.5275C34.9452 72.2666 33.4633 71.5077 32.3137 70.3581C31.1641 69.2085 30.4052 67.7266 30.1443 66.1219C29.8833 64.5173 30.1336 62.8712 30.8597 61.4166C31.5858 59.9621 32.751 58.7727 34.1903 58.0168C35.6296 57.2608 37.2701 56.9767 38.8798 57.2045C39.2843 57.2659 39.6978 57.1977 40.0611 57.0097C40.4245 56.8217 40.719 56.5235 40.9025 56.1579C41.0859 55.7922 41.1489 55.3779 41.0825 54.9742C41.016 54.5706 40.8235 54.1983 40.5325 53.9107L28.2158 41.5786L40.5461 29.2561C40.8368 28.9686 41.0292 28.5966 41.0957 28.1931C41.1621 27.7897 41.0993 27.3756 40.9161 27.0101C40.7329 26.6446 40.4388 26.3464 40.0758 26.1582C39.7128 25.97 39.2996 25.9014 38.8953 25.9623C37.2877 26.187 35.6502 25.9012 34.2137 25.1454C32.7773 24.3895 31.6144 23.2017 30.8891 21.7495C30.1639 20.2974 29.913 18.6541 30.1717 17.0517C30.4304 15.4493 31.1857 13.9685 32.3311 12.8183C33.8082 11.4111 35.7702 10.6262 37.8103 10.6262C39.8505 10.6262 41.8124 11.4111 43.2896 12.8183C44.1374 13.6684 44.7762 14.7039 45.1555 15.843C45.5347 16.9822 45.6441 18.1939 45.4751 19.3826C45.4142 19.7869 45.4827 20.2001 45.6709 20.563C45.8591 20.926 46.1573 21.2201 46.5228 21.4033C46.8884 21.5865 47.3025 21.6494 47.7059 21.5829C48.1093 21.5165 48.4814 21.3241 48.7688 21.0333L61.1088 8.70694L69.7907 17.3908C68.1125 18.1923 66.6511 19.3847 65.5292 20.868C64.4072 22.3513 63.6576 24.0821 63.3431 25.915C63.0286 27.748 63.1585 29.6297 63.7218 31.4021C64.2851 33.1745 65.2655 34.7859 66.5805 36.101C67.8956 37.416 69.507 38.3964 71.2794 38.9597C73.0518 39.5231 74.9335 39.6529 76.7665 39.3384C78.5994 39.0239 80.3302 38.2743 81.8135 37.1523C83.2968 36.0304 84.4892 34.569 85.2907 32.8908L93.9746 41.5728L81.6521 53.9262ZM118.188 44.5623H106.562C106.049 44.5623 105.556 44.3582 105.192 43.9948C104.829 43.6315 104.625 43.1387 104.625 42.6248C104.625 42.111 104.829 41.6181 105.192 41.2548C105.556 40.8914 106.049 40.6873 106.562 40.6873H118.188C118.701 40.6873 119.194 40.8914 119.558 41.2548C119.921 41.6181 120.125 42.111 120.125 42.6248C120.125 43.1387 119.921 43.6315 119.558 43.9948C119.194 44.3582 118.701 44.5623 118.188 44.5623ZM104.468 22.2811C104.042 22.281 103.627 22.1403 103.289 21.8807C102.95 21.621 102.707 21.257 102.597 20.845C102.486 20.4331 102.515 19.9962 102.678 19.6022C102.841 19.2081 103.13 18.879 103.499 18.6657L113.574 12.8532C114.019 12.6003 114.546 12.5336 115.04 12.6677C115.533 12.8017 115.954 13.1256 116.21 13.5687C116.466 14.0118 116.536 14.5381 116.405 15.0327C116.274 15.5274 115.953 15.9502 115.512 16.2089L105.437 22.0214C105.143 22.1922 104.808 22.2818 104.468 22.2811ZM114.533 72.6561C114.193 72.6568 113.859 72.5672 113.565 72.3964L103.49 66.5839C103.268 66.4576 103.073 66.2887 102.916 66.0867C102.759 65.8848 102.644 65.6539 102.577 65.4073C102.51 65.1607 102.493 64.9033 102.526 64.6499C102.559 64.3965 102.642 64.1521 102.769 63.9309C102.897 63.7096 103.067 63.5158 103.27 63.3605C103.473 63.2053 103.705 63.0918 103.952 63.0265C104.199 62.9612 104.457 62.9454 104.71 62.98C104.963 63.0146 105.207 63.099 105.427 63.2282L115.502 69.0407C115.871 69.2539 116.16 69.5831 116.323 69.9772C116.487 70.3712 116.515 70.8081 116.405 71.22C116.294 71.632 116.051 71.996 115.713 72.2557C115.374 72.5153 114.96 72.656 114.533 72.6561ZM17.4375 44.5623H5.8125C5.29864 44.5623 4.80583 44.3582 4.44248 43.9948C4.07913 43.6315 3.875 43.1387 3.875 42.6248C3.875 42.111 4.07913 41.6181 4.44248 41.2548C4.80583 40.8914 5.29864 40.6873 5.8125 40.6873H17.4375C17.9514 40.6873 18.4442 40.8914 18.8075 41.2548C19.1709 41.6181 19.375 42.111 19.375 42.6248C19.375 43.1387 19.1709 43.6315 18.8075 43.9948C18.4442 44.3582 17.9514 44.5623 17.4375 44.5623ZM19.5319 22.2811C19.1917 22.2818 18.8574 22.1922 18.5632 22.0214L8.48819 16.2089C8.04681 15.9502 7.7257 15.5274 7.59493 15.0327C7.46415 14.5381 7.53433 14.0118 7.79016 13.5687C8.04598 13.1256 8.46667 12.8017 8.96042 12.6677C9.45418 12.5336 9.98092 12.6003 10.4257 12.8532L20.5007 18.6657C20.87 18.879 21.1587 19.2081 21.3219 19.6022C21.4851 19.9962 21.5137 20.4331 21.4033 20.845C21.2929 21.257 21.0497 21.621 20.7114 21.8807C20.373 22.1403 19.9584 22.281 19.5319 22.2811ZM9.46663 72.6561C9.04013 72.656 8.62556 72.5153 8.2872 72.2557C7.94885 71.996 7.70562 71.632 7.59523 71.22C7.48484 70.8081 7.51347 70.3712 7.67667 69.9772C7.83988 69.5831 8.12853 69.2539 8.49788 69.0407L18.5729 63.2282C18.7933 63.099 19.0371 63.0146 19.2903 62.98C19.5434 62.9454 19.801 62.9612 20.048 63.0265C20.295 63.0918 20.5267 63.2053 20.7297 63.3605C20.9326 63.5158 21.1029 63.7096 21.2307 63.9309C21.3584 64.1521 21.4412 64.3965 21.4741 64.6499C21.507 64.9033 21.4895 65.1607 21.4226 65.4073C21.3556 65.6539 21.2406 65.8848 21.084 66.0867C20.9275 66.2887 20.7325 66.4576 20.5104 66.5839L10.4354 72.3964C10.1411 72.5672 9.80683 72.6568 9.46663 72.6561Z" fill="white"/>
</svg>
