<svg width="124" height="124" viewBox="0 0 124 124" fill="none" xmlns="http://www.w3.org/2000/svg">
<g clip-path="url(#clip0_893_139)">
<path d="M51.6667 124C23.25 124 0 100.75 0 72.3337C0 43.917 23.25 20.667 51.6667 20.667C80.0833 20.667 103.333 43.917 103.333 72.3337C103.333 100.75 80.0833 124 51.6667 124ZM51.6667 25.8337C25.8333 25.8337 5.16667 46.5003 5.16667 72.3337C5.16667 98.167 25.8333 118.834 51.6667 118.834C77.5 118.834 98.1667 98.167 98.1667 72.3337C98.1667 46.5003 77.5 25.8337 51.6667 25.8337Z" fill="white"/>
<path d="M51.6663 105.917C33.0663 105.917 18.083 90.9333 18.083 72.3333C18.083 53.7333 33.0663 38.75 51.6663 38.75C70.2663 38.75 85.2497 53.7333 85.2497 72.3333C85.2497 90.9333 70.2663 105.917 51.6663 105.917ZM51.6663 43.9167C36.1663 43.9167 23.2497 56.8333 23.2497 72.3333C23.2497 87.8333 36.1663 100.75 51.6663 100.75C67.1663 100.75 80.083 87.8333 80.083 72.3333C80.083 56.8333 67.1663 43.9167 51.6663 43.9167Z" fill="white"/>
<path d="M51.667 87.833C42.8837 87.833 36.167 81.1163 36.167 72.333C36.167 63.5497 42.8837 56.833 51.667 56.833C60.4503 56.833 67.167 63.5497 67.167 72.333C67.167 81.1163 60.4503 87.833 51.667 87.833ZM51.667 61.9997C45.9837 61.9997 41.3337 66.6497 41.3337 72.333C41.3337 78.0163 45.9837 82.6663 51.667 82.6663C57.3503 82.6663 62.0003 78.0163 62.0003 72.333C62.0003 66.6497 57.3503 61.9997 51.667 61.9997Z" fill="white"/>
<path d="M51.6669 74.9171C51.1502 74.9171 50.1169 74.9171 49.6002 74.4005C48.5669 73.3671 48.5669 71.8171 49.6002 70.7838L88.3502 32.0338C89.3835 31.0005 90.9335 31.0005 91.9669 32.0338C93.0002 33.0671 93.0002 34.6171 91.9669 35.6505L53.2169 74.4005C53.2169 74.9171 52.1835 74.9171 51.6669 74.9171Z" fill="white"/>
<path d="M103.333 36.1667H90.4163C88.8663 36.1667 87.833 35.1333 87.833 33.5833V20.6667C87.833 20.15 88.3497 19.1167 88.3497 18.6L106.433 0.516667C107.466 0 108.5 0 109.533 0C110.566 0.516667 111.083 1.55 111.083 2.58333V12.9167H121.416C122.45 12.9167 123.483 13.4333 124 14.4667C124 15.5 124 16.5333 123.483 17.5667L105.4 35.65C104.883 35.65 103.85 36.1667 103.333 36.1667ZM92.9997 31H102.3L115.216 18.0833H108.5C106.95 18.0833 105.916 17.05 105.916 15.5V8.78333L92.9997 21.7V31Z" fill="white"/>
</g>
<defs>
<clipPath id="clip0_893_139">
<rect width="124" height="124" fill="white"/>
</clipPath>
</defs>
</svg>
