<svg width="1440" height="399" viewBox="0 0 1440 399" fill="none" xmlns="http://www.w3.org/2000/svg">
<rect width="1440" height="399" fill="#5677E1"/>
<mask id="mask0_1195_958" style="mask-type:alpha" maskUnits="userSpaceOnUse" x="0" y="58" width="1440" height="341">
<rect x="0.925781" y="58" width="1439.07" height="340.781" fill="#5677E1"/>
</mask>
<g mask="url(#mask0_1195_958)">
<path opacity="0.2" fill-rule="evenodd" clip-rule="evenodd" d="M-23.0586 154.627L-6.8791 161.984C7.82953 169.342 38.7177 184.057 69.6058 213.486C100.494 242.916 131.382 287.06 162.27 310.604C193.158 332.676 225.517 332.676 256.405 325.318C287.294 317.961 318.182 303.246 349.07 310.604C379.958 317.961 410.846 347.391 441.734 340.033C472.622 332.676 503.51 288.531 534.399 295.889C565.287 303.246 596.175 362.105 627.063 376.82C657.951 391.535 688.839 362.105 721.198 340.033C752.086 317.961 782.974 303.246 813.863 272.345C844.751 242.916 875.639 198.771 906.527 184.057C937.415 169.342 968.303 184.057 999.191 198.771C1030.08 213.486 1060.97 228.201 1091.86 235.558C1122.74 242.916 1153.63 242.916 1184.52 220.844C1216.88 198.771 1247.77 154.627 1278.66 147.27C1309.54 139.912 1340.43 169.342 1371.32 206.129C1402.21 242.916 1433.1 287.06 1447.8 310.604L1463.98 332.676V510.724H1447.8C1433.1 510.724 1402.21 510.724 1371.32 510.724C1340.43 510.724 1309.54 510.724 1278.66 510.724C1247.77 510.724 1216.88 510.724 1184.52 510.724C1153.63 510.724 1122.74 510.724 1091.86 510.724C1060.97 510.724 1030.08 510.724 999.191 510.724C968.303 510.724 937.415 510.724 906.527 510.724C875.639 510.724 844.751 510.724 813.863 510.724C782.974 510.724 752.086 510.724 721.198 510.724C688.839 510.724 657.951 510.724 627.063 510.724C596.175 510.724 565.287 510.724 534.399 510.724C503.51 510.724 472.622 510.724 441.734 510.724C410.846 510.724 379.958 510.724 349.07 510.724C318.182 510.724 287.294 510.724 256.405 510.724C225.517 510.724 193.158 510.724 162.27 510.724C131.382 510.724 100.494 510.724 69.6058 510.724C38.7177 510.724 7.82953 510.724 -6.8791 510.724H-23.0586V154.627Z" fill="white" fill-opacity="0.39"/>
<path opacity="0.2" fill-rule="evenodd" clip-rule="evenodd" d="M-23.0586 213.172L-0.995647 245.953C22.5382 280.373 66.6641 345.935 112.261 345.935C157.858 345.935 201.983 280.373 247.58 288.568C291.706 296.764 337.303 378.716 382.9 345.935C427.026 313.154 472.622 164 518.219 164C562.345 164 607.942 313.154 653.538 337.74C697.664 362.326 743.261 263.982 787.387 213.172C832.984 164 878.58 164 922.706 155.805C968.303 147.61 1013.9 131.219 1058.03 123.024C1103.62 114.829 1149.22 114.829 1193.35 164C1238.94 213.172 1283.07 313.154 1328.66 370.521C1374.26 429.527 1418.39 445.918 1441.92 454.113L1463.98 462.308V511.48H1441.92C1418.39 511.48 1374.26 511.48 1328.66 511.48C1283.07 511.48 1238.94 511.48 1193.35 511.48C1149.22 511.48 1103.62 511.48 1058.03 511.48C1013.9 511.48 968.303 511.48 922.706 511.48C878.58 511.48 832.984 511.48 787.387 511.48C743.261 511.48 697.664 511.48 653.538 511.48C607.942 511.48 562.345 511.48 518.219 511.48C472.622 511.48 427.026 511.48 382.9 511.48C337.303 511.48 291.706 511.48 247.58 511.48C201.983 511.48 157.858 511.48 112.261 511.48C66.6641 511.48 22.5382 511.48 -0.995647 511.48H-23.0586V213.172Z" fill="white" fill-opacity="0.39"/>
<path opacity="0.2" fill-rule="evenodd" clip-rule="evenodd" d="M-23.0586 249.919L-6.8791 282.25C9.30039 314.581 43.1302 380.322 75.4892 401.876C109.319 423.43 141.678 401.876 175.508 369.545C207.867 336.135 241.697 293.027 274.056 260.696C307.886 227.287 340.245 205.732 374.074 211.121C406.433 216.509 440.263 249.919 472.622 303.804C504.981 358.767 538.811 434.207 571.17 450.373C605 467.616 637.359 423.43 671.189 423.43C703.548 423.43 737.378 467.616 769.737 439.596C803.566 412.653 835.925 314.581 869.755 298.416C902.114 282.25 935.944 347.99 968.303 358.767C1000.66 369.545 1034.49 325.358 1066.85 325.358C1100.68 325.358 1133.04 369.545 1166.87 358.767C1199.23 347.99 1233.06 282.25 1265.42 249.919C1299.25 216.509 1331.61 216.509 1365.44 255.307C1397.8 293.027 1431.63 369.545 1447.8 407.264L1463.98 444.984V510.725H1447.8C1431.63 510.725 1397.8 510.725 1365.44 510.725C1331.61 510.725 1299.25 510.725 1265.42 510.725C1233.06 510.725 1199.23 510.725 1166.87 510.725C1133.04 510.725 1100.68 510.725 1066.85 510.725C1034.49 510.725 1000.66 510.725 968.303 510.725C935.944 510.725 902.114 510.725 869.755 510.725C835.925 510.725 803.566 510.725 769.737 510.725C737.378 510.725 703.548 510.725 671.189 510.725C637.359 510.725 605 510.725 571.17 510.725C538.811 510.725 504.981 510.725 472.622 510.725C440.263 510.725 406.433 510.725 374.074 510.725C340.245 510.725 307.886 510.725 274.056 510.725C241.697 510.725 207.867 510.725 175.508 510.725C141.678 510.725 109.319 510.725 75.4892 510.725C43.1302 510.725 9.30039 510.725 -6.8791 510.725H-23.0586V249.919Z" fill="white" fill-opacity="0.39"/>
</g>
</svg>
