<svg width="1440" height="315" viewBox="0 0 1440 315" fill="none" xmlns="http://www.w3.org/2000/svg">
<rect width="1440" height="315" fill="#5677E1"/>
<mask id="mask0_1195_959" style="mask-type:alpha" maskUnits="userSpaceOnUse" x="0" y="0" width="1440" height="315">
<rect width="1440" height="315" fill="#5677E1"/>
</mask>
<g mask="url(#mask0_1195_959)">
<path opacity="0.14" fill-rule="evenodd" clip-rule="evenodd" d="M0 285.163V202.658H49.8516V162.082H99.7033V202.658H149.555V244.587H197.982V121.505H247.834V408.245H297.685V202.658H347.537V79.5764H397.389V202.658H447.24V325.74H497.092V366.316H545.519V39H595.371V121.505H645.223V285.163H695.074V121.505H744.926V121.505H794.777V121.505H844.629V285.163H894.481V285.163H942.908V366.316H992.76V408.245H1042.61V121.505H1092.46V79.5764H1142.31V408.245H1192.17V162.082H1242.02V244.587H1290.45V285.163H1340.3V162.082H1390.15V448.821H1440V448.821H1390.15V448.821H1340.3V448.821H1290.45V448.821H1242.02V448.821H1192.17V448.821H1142.31V448.821H1092.46V448.821H1042.61V448.821H992.76V448.821H942.908V448.821H894.481V448.821H844.629V448.821H794.777V448.821H744.926V448.821H695.074V448.821H645.223V448.821H595.371V448.821H545.519V448.821H497.092V448.821H447.24V448.821H397.389V448.821H347.537V448.821H297.685V448.821H247.834V448.821H197.982V448.821H149.555V448.821H99.7033V448.821H49.8516V448.821H0V448.821V285.163Z" fill="white" fill-opacity="0.35"/>
<path opacity="0.14" fill-rule="evenodd" clip-rule="evenodd" d="M0 244.587V202.658H95.4303V121.505H192.285V162.082H287.715V366.316H384.57V408.245H480V325.74H575.43V79.5764H672.285V121.505H767.715V285.163H864.57V202.658H960V39H1055.43V79.5764H1152.28V121.505H1247.72V325.74H1344.57V202.658H1440V448.821H1344.57V448.821H1247.72V448.821H1152.28V448.821H1055.43V448.821H960V448.821H864.57V448.821H767.715V448.821H672.285V448.821H575.43V448.821H480V448.821H384.57V448.821H287.715V448.821H192.285V448.821H95.4303V448.821H0V448.821V244.587Z" fill="white" fill-opacity="0.35"/>
<path opacity="0.14" fill-rule="evenodd" clip-rule="evenodd" d="M0 366.316V366.316H84.0356V121.505H169.496V408.245H253.531V121.505H338.991V121.505H423.027V366.316H508.487V408.245H592.522V162.082H677.982V366.316H762.018V202.658H847.478V244.587H931.513V162.082H1016.97V244.587H1101.01V285.163H1186.47V202.658H1270.5V244.587H1355.96V39H1440V448.821H1355.96V448.821H1270.5V448.821H1186.47V448.821H1101.01V448.821H1016.97V448.821H931.513V448.821H847.478V448.821H762.018V448.821H677.982V448.821H592.522V448.821H508.487V448.821H423.027V448.821H338.991V448.821H253.531V448.821H169.496V448.821H84.0356V448.821H0V448.821V366.316Z" fill="white" fill-opacity="0.35"/>
</g>
</svg>
