<svg width="72" height="18" viewBox="0 0 72 18" fill="none" xmlns="http://www.w3.org/2000/svg">
<path fill-rule="evenodd" clip-rule="evenodd" d="M22.815 17.216H26.0511V0H22.815V17.216ZM17.5939 17.216H20.83V0H17.5939V17.216ZM0 17.216H3.7969L7.07948 11.0894H10.6036L12.1138 8.51999V17.216H15.3499V0H9.22291L0 17.216ZM12.1142 8.19844H8.62819L12.1142 1.69158V8.19844ZM71.2779 12.707H67.8966V14.2127C67.8094 15.0794 67.3511 15.2406 66.3735 15.2528C65.3951 15.2406 64.9368 15.0794 64.8495 14.2127V11.1838H71.2779V6.05615C71.4512 3.41821 68.4285 2.63795 66.3735 2.71262C64.3169 2.63833 61.2949 3.41859 61.4683 6.05615V14.5278C61.2949 17.1657 64.3169 17.946 66.3735 17.8717C68.4289 17.9456 71.4512 17.1653 71.2779 14.5278V12.707ZM64.8495 6.37161C64.9368 5.50449 65.3951 5.34371 66.3735 5.33114C67.3511 5.34371 67.8098 5.50449 67.8966 6.37161V8.50856H64.8495V6.37161ZM44.6043 2.84787H42.7062V0H39.4701V2.84787H38.7364L37.5218 5.01187C37.2776 3.19647 35.0812 2.59109 32.8848 2.50727C30.7315 2.47793 28.0066 3.23952 27.9407 5.2538V8.19844C27.9259 9.35549 28.2413 10.2268 29.6106 10.7468L33.134 11.7111C33.8445 11.8868 34.3569 12.5242 34.2765 13.4252C34.0784 14.5601 33.6391 15.0333 32.5625 15.0257C31.9255 14.9823 31.1787 14.8291 31.1787 13.9067V12.3382H27.8935V14.9381C27.9522 17.2952 30.2838 17.6332 32.5846 17.7063C34.7379 17.7357 37.4623 16.9741 37.5286 14.9598V11.6886C37.5435 10.5316 37.2288 9.66028 35.8588 9.14023L32.3354 8.17596C31.6249 8.00033 31.1124 7.36294 31.1928 6.4619C31.3906 5.32657 31.8298 5.17989 32.9069 5.18713C33.5443 5.23056 34.2255 5.38371 34.2255 6.30608V7.45056H37.5435V5.30637H39.4701V17.2152H42.7062V5.30751H44.6043V2.84787Z" fill="#A3AAB3"/>
<path fill-rule="evenodd" clip-rule="evenodd" d="M61.4734 2.84787H59.5745V0H56.3384V2.84787H55.6054L54.3234 5.13036C53.915 3.11418 51.3052 2.49736 49.4674 2.56366C47.4116 2.48936 44.5012 3.27 44.6746 5.90757V7.46847H47.9442V6.22303C48.0314 5.3559 48.489 5.19512 49.4674 5.18255C50.4457 5.19512 50.9041 5.3559 50.9905 6.22303V8.35997H48.5016C46.5075 8.31044 44.2905 8.92955 44.3397 13.0042C44.4513 14.6638 44.6746 17.1779 46.7551 17.3139H49.6906L50.9905 15.1255V17.3882H54.3718V5.90795C54.3858 5.70769 54.3795 5.50652 54.3531 5.30751H56.3384V17.2164H59.5745V5.30751H61.4734V2.84787ZM50.9902 14.751H49.2071C48.0554 14.6641 48.0181 13.8347 47.9807 12.9303C47.9682 11.4814 48.2901 10.9613 49.5039 10.924H50.9898L50.9902 14.751Z" fill="#A3AAB3"/>
</svg>
