<svg width="72" height="27" viewBox="0 0 72 27" fill="none" xmlns="http://www.w3.org/2000/svg">
<g clip-path="url(#clip0_733_93)">
<path d="M3.64118 1.39355L0.0146484 9.83387H2.37477L3.04395 8.14293H6.93671L7.6059 9.83387H10.0236L6.39705 1.39355H3.64118ZM4.98674 3.35073L6.17399 6.30088H3.79948L4.98674 3.35073Z" fill="#A3AAB3"/>
<path d="M10.2681 9.82606V1.38574L13.6284 1.40013L15.5783 6.83993L17.4851 1.38574H20.8167V9.82606H18.7084V3.60915L16.4706 9.82606H14.6213L12.3763 3.60915V9.82606H10.2681Z" fill="#A3AAB3"/>
<path d="M22.2627 9.82606V1.38574H29.1488V3.27097H24.3998V4.71726H29.0337V6.49454H24.3926V7.99121H29.1416V9.82606H22.2627Z" fill="#A3AAB3"/>
<path d="M30.3652 1.39355V9.83387H32.4735V6.83335H33.3586L35.8914 9.83387H38.4674L35.6899 6.72542C36.8268 6.63188 38.0068 5.65329 38.0068 4.13504C38.0068 2.35775 36.6109 1.40075 35.0567 1.40075L30.3652 1.39355ZM32.4735 3.27877H34.884C35.4596 3.27877 35.8842 3.73209 35.8842 4.16382C35.8842 4.72506 35.3373 5.04886 34.9128 5.04886H32.4735V3.27877Z" fill="#A3AAB3"/>
<path d="M41.0221 9.82606H38.8706V1.38574H41.0221V9.82606Z" fill="#A3AAB3"/>
<path d="M46.1301 9.82667H45.6624C43.4102 9.82667 42.0503 8.05658 42.0503 5.64609C42.0503 3.17804 43.403 1.39355 46.2381 1.39355H48.5694V3.3939H46.1589C45.0076 3.3939 44.1874 4.29334 44.1874 5.66768C44.1874 7.30105 45.1228 7.98463 46.4611 7.98463H47.0152L46.1301 9.82667Z" fill="#A3AAB3"/>
<path d="M50.7213 1.39294L47.0947 9.82606H49.4548L50.124 8.13512H54.0168L54.686 9.82606H57.0965L53.4699 1.38574L50.7213 1.39294ZM52.0596 3.35012L53.2469 6.30027H50.8724L52.0596 3.35012Z" fill="#A3AAB3"/>
<path d="M57.3408 9.82606V1.38574H60.0247L63.4498 6.68883V1.38574H65.5581V9.82606H62.9605L59.4491 4.38627V9.82606H57.3408Z" fill="#A3AAB3"/>
<path d="M15.377 24.5917V16.1514H22.263V18.0366H17.514V19.4829H22.1551V21.2602H17.514V22.7568H22.263V24.5917H15.377Z" fill="#A3AAB3"/>
<path d="M49.1021 24.5917V16.1514H55.9881V18.0366H51.2391V19.4829H55.8586V21.2602H51.2391V22.7568H55.9881V24.5917H49.1021Z" fill="#A3AAB3"/>
<path d="M22.5289 24.5917L25.882 20.4255L22.4497 16.1514H25.1048L27.1484 18.7921L29.1991 16.1514H31.7535L28.3644 20.3679L31.7247 24.5845H29.0696L27.0836 21.9869L25.148 24.5845L22.5289 24.5917Z" fill="#A3AAB3"/>
<path d="M31.9766 16.1582V24.5985H34.1424V21.9362H36.3658C38.2438 21.9362 39.6685 20.936 39.6685 19.0004C39.6685 17.3958 38.5532 16.1654 36.6392 16.1654H31.9766V16.1582ZM34.1424 18.065H36.4809C37.0854 18.065 37.5243 18.4392 37.5243 19.0364C37.5243 19.5976 37.0926 20.0078 36.4737 20.0078H34.1424V18.065Z" fill="#A3AAB3"/>
<path d="M41.0586 16.3975V24.8378H43.1669V21.8373H44.0519L46.5847 24.8378H49.1607L46.3833 21.7293C47.5201 21.6358 48.7002 20.6572 48.7002 19.1389C48.7002 17.3617 47.3043 16.4047 45.7501 16.4047L41.0586 16.3975ZM43.1741 18.2899H45.5846C46.1602 18.2899 46.5847 18.7432 46.5847 19.1749C46.5847 19.7362 46.0379 20.06 45.6133 20.06H43.1741V18.2899Z" fill="#A3AAB3"/>
<path d="M56.9669 24.5913V22.7565H61.1907C61.8167 22.7565 62.0829 22.4183 62.0829 22.0513C62.0829 21.6987 61.8167 21.339 61.1907 21.339H59.2839C57.6289 21.339 56.7007 20.3316 56.7007 18.8133C56.7007 17.4606 57.5498 16.1582 60.0106 16.1582H64.1192L63.2342 18.0578H59.6796C59.0032 18.0578 58.7946 18.4176 58.7946 18.7558C58.7946 19.1084 59.0536 19.4897 59.5717 19.4897H61.572C63.4213 19.4897 64.22 20.5403 64.22 21.9146C64.22 23.3897 63.3277 24.5985 61.4713 24.5985H56.9669V24.5913Z" fill="#A3AAB3"/>
<path d="M64.7086 24.5913V22.7565H68.9324C69.5584 22.7565 69.8246 22.4183 69.8246 22.0513C69.8246 21.6987 69.5584 21.339 68.9324 21.339H67.0256C65.3706 21.339 64.4424 20.3316 64.4424 18.8133C64.4424 17.4606 65.2915 16.1582 67.7523 16.1582H71.8609L70.9759 18.0578H67.4213C66.7449 18.0578 66.5363 18.4176 66.5363 18.7558C66.5363 19.1084 66.7953 19.4897 67.3134 19.4897H69.3137C71.163 19.4897 71.9617 20.5403 71.9617 21.9146C71.9617 23.3897 71.0694 24.5985 69.213 24.5985H64.7086V24.5913Z" fill="#A3AAB3"/>
</g>
<defs>
<clipPath id="clip0_733_93">
<rect width="71.9549" height="26.0333" fill="white"/>
</clipPath>
</defs>
</svg>
