<svg width="37" height="37" viewBox="0 0 37 37" fill="none" xmlns="http://www.w3.org/2000/svg">
<path d="M26.0289 30.9602C24.5328 32.4105 22.8994 32.1815 21.3269 31.4945C19.6629 30.7923 18.1363 30.7618 16.3806 31.4945C14.1823 32.441 13.0221 32.1663 11.7092 30.9602C4.25922 23.2813 5.35839 11.5873 13.8159 11.1598C15.8769 11.2667 17.3119 12.2896 18.5179 12.3811C20.3194 12.0148 22.0444 10.9614 23.968 11.0988C26.2732 11.282 28.0136 12.198 29.1585 13.8467C24.3954 16.7015 25.5252 22.976 29.8913 24.7316C29.0211 27.0215 27.8914 29.2962 26.0137 30.9755L26.0289 30.9602ZM18.3653 11.0682C18.1363 7.66387 20.8995 4.85487 24.0749 4.58008C24.5176 8.51878 20.5025 11.4499 18.3653 11.0682Z" fill="#A3AAB3"/>
</svg>
