<svg width="51" height="31" viewBox="0 0 51 31" fill="none" xmlns="http://www.w3.org/2000/svg">
<path d="M14.2143 10.9541C14.2143 11.5748 14.2814 12.0781 14.3989 12.4471C14.5331 12.8162 14.7008 13.2188 14.9357 13.6549C15.0195 13.7891 15.0531 13.9233 15.0531 14.0408C15.0531 14.2085 14.9524 14.3763 14.7344 14.544L13.6775 15.2486C13.5266 15.3492 13.3756 15.3996 13.2414 15.3996C13.0736 15.3996 12.9059 15.3157 12.7381 15.1647C12.5033 14.9131 12.302 14.6447 12.1342 14.3763C11.9665 14.0911 11.7987 13.7724 11.6142 13.3865C10.3057 14.9298 8.66178 15.7015 6.68232 15.7015C5.27321 15.7015 4.14928 15.2989 3.3273 14.4937C2.50532 13.6885 2.08594 12.6149 2.08594 11.2729C2.08594 9.84699 2.58919 8.68951 3.61247 7.8172C4.63575 6.9449 5.99454 6.50874 7.72237 6.50874C8.29273 6.50874 8.87986 6.55907 9.50054 6.64294C10.1212 6.72682 10.7587 6.86102 11.4297 7.012V5.78741C11.4297 4.5125 11.1613 3.62342 10.6412 3.1034C10.1044 2.58337 9.19858 2.33174 7.9069 2.33174C7.31977 2.33174 6.71587 2.39884 6.09519 2.54982C5.47451 2.70079 4.87061 2.88532 4.28348 3.12017C4.01508 3.2376 3.81377 3.3047 3.69635 3.33825C3.57892 3.3718 3.49505 3.38857 3.42795 3.38857C3.19309 3.38857 3.07567 3.22082 3.07567 2.86854V2.04656C3.07567 1.77816 3.10922 1.57686 3.19309 1.45943C3.27697 1.34201 3.42795 1.22458 3.6628 1.10716C4.24993 0.805205 4.95448 0.553579 5.77646 0.352277C6.59844 0.134201 7.47075 0.0335502 8.39338 0.0335502C10.3896 0.0335502 11.8491 0.486478 12.7885 1.39233C13.7111 2.29819 14.1808 3.67375 14.1808 5.51901V10.9541H14.2143ZM7.40365 13.504C7.95723 13.504 8.52758 13.4033 9.13148 13.202C9.73539 13.0007 10.2722 12.6317 10.7251 12.1284C10.9935 11.8097 11.1948 11.4574 11.2955 11.0548C11.3961 10.6522 11.4632 10.1657 11.4632 9.59536V8.89081C10.9767 8.77338 10.4567 8.67273 9.91991 8.60563C9.38311 8.53853 8.86308 8.50498 8.34305 8.50498C7.21912 8.50498 6.39714 8.72306 5.84356 9.17598C5.28998 9.62891 5.02158 10.2664 5.02158 11.1051C5.02158 11.8936 5.22288 12.4807 5.64226 12.8833C6.04486 13.3027 6.63199 13.504 7.40365 13.504ZM20.8741 15.3157C20.5721 15.3157 20.3708 15.2654 20.2366 15.1479C20.1024 15.0473 19.985 14.8124 19.8843 14.4937L15.9422 1.52653C15.8415 1.19103 15.7912 0.972956 15.7912 0.855531C15.7912 0.587129 15.9254 0.436153 16.1938 0.436153H17.8378C18.1565 0.436153 18.3746 0.486478 18.492 0.603904C18.6262 0.704555 18.7268 0.939406 18.8275 1.25813L21.6457 12.3633L24.2626 1.25813C24.3465 0.922631 24.4472 0.704555 24.5814 0.603904C24.7156 0.503253 24.9504 0.436153 25.2524 0.436153H26.5944C26.9131 0.436153 27.1312 0.486478 27.2654 0.603904C27.3996 0.704555 27.517 0.939406 27.5841 1.25813L30.2346 12.4975L33.1367 1.25813C33.2373 0.922631 33.3547 0.704555 33.4722 0.603904C33.6064 0.503253 33.8244 0.436153 34.1264 0.436153H35.6865C35.9549 0.436153 36.1059 0.570354 36.1059 0.855531C36.1059 0.939406 36.0891 1.02328 36.0723 1.12393C36.0555 1.22458 36.022 1.35878 35.9549 1.54331L31.9121 14.5105C31.8114 14.846 31.694 15.064 31.5598 15.1647C31.4256 15.2654 31.2075 15.3324 30.9223 15.3324H29.4797C29.161 15.3324 28.9429 15.2821 28.8087 15.1647C28.6745 15.0473 28.5571 14.8292 28.49 14.4937L25.8898 3.67375L23.3065 14.4769C23.2226 14.8124 23.1219 15.0305 22.9877 15.1479C22.8535 15.2654 22.6187 15.3157 22.3167 15.3157H20.8741ZM42.4301 15.7686C41.5578 15.7686 40.6855 15.668 39.8467 15.4667C39.008 15.2654 38.3537 15.0473 37.9176 14.7956C37.6492 14.6447 37.4646 14.4769 37.3975 14.3259C37.3304 14.175 37.2969 14.0072 37.2969 13.8562V13.0007C37.2969 12.6484 37.4311 12.4807 37.6827 12.4807C37.7834 12.4807 37.884 12.4975 37.9847 12.531C38.0853 12.5646 38.2363 12.6317 38.404 12.6988C38.9744 12.9504 39.5951 13.1517 40.2493 13.2859C40.9203 13.4201 41.5745 13.4872 42.2455 13.4872C43.3024 13.4872 44.1244 13.3027 44.6947 12.9336C45.2651 12.5646 45.567 12.0278 45.567 11.34C45.567 10.8703 45.416 10.4844 45.1141 10.1657C44.8121 9.84699 44.2418 9.56181 43.4198 9.29341L40.9874 8.53853C39.7628 8.1527 38.857 7.58235 38.3034 6.82747C37.7498 6.08936 37.4646 5.26738 37.4646 4.39508C37.4646 3.69052 37.6156 3.06985 37.9176 2.53304C38.2195 1.99624 38.6221 1.52653 39.1254 1.15748C39.6286 0.771655 40.199 0.486478 40.87 0.285177C41.541 0.0838755 42.2455 0 42.9837 0C43.3527 0 43.7385 0.0167751 44.1076 0.0671004C44.4934 0.117426 44.8457 0.184526 45.198 0.251627C45.5335 0.335502 45.8522 0.419378 46.1541 0.520028C46.4561 0.620679 46.691 0.72133 46.8587 0.82198C47.0936 0.956181 47.2613 1.09038 47.362 1.24136C47.4626 1.37556 47.5129 1.56009 47.5129 1.79494V2.58337C47.5129 2.93564 47.3787 3.12017 47.1271 3.12017C46.9929 3.12017 46.7748 3.05307 46.4896 2.91887C45.5335 2.48272 44.4599 2.26464 43.2688 2.26464C42.3126 2.26464 41.5578 2.41562 41.0377 2.73434C40.5177 3.05307 40.2493 3.53955 40.2493 4.22733C40.2493 4.69703 40.4171 5.09963 40.7526 5.41836C41.0881 5.73709 41.7087 6.05581 42.5978 6.34099L44.9799 7.09587C46.1877 7.4817 47.06 8.0185 47.58 8.70628C48.1001 9.39406 48.3517 10.1825 48.3517 11.0548C48.3517 11.7761 48.2007 12.4304 47.9155 13.0007C47.6136 13.5711 47.211 14.0743 46.691 14.4769C46.1709 14.8963 45.5502 15.1982 44.8289 15.4163C44.074 15.6512 43.2856 15.7686 42.4301 15.7686Z" fill="#A3AAB3"/>
<path fill-rule="evenodd" clip-rule="evenodd" d="M45.6001 23.8861C40.0811 27.9624 32.0626 30.1264 25.168 30.1264C15.5056 30.1264 6.79929 26.5533 0.223447 20.6149C-0.296581 20.1452 0.173122 19.5078 0.793801 19.8768C7.90645 24.0035 16.6798 26.503 25.7552 26.503C31.8781 26.503 38.6049 25.2281 44.7949 22.6112C45.7175 22.1918 46.506 23.2151 45.6001 23.8861Z" fill="#A3AAB3"/>
<path fill-rule="evenodd" clip-rule="evenodd" d="M47.898 21.2693C47.1934 20.3635 43.2345 20.8332 41.4395 21.0513C40.9027 21.1184 40.8189 20.6487 41.3053 20.2964C44.4591 18.0821 49.6426 18.7195 50.2465 19.4576C50.8504 20.2125 50.0787 25.396 47.1263 27.8787C46.6734 28.2646 46.2372 28.0633 46.4385 27.56C47.1095 25.8993 48.6025 22.1584 47.898 21.2693Z" fill="#A3AAB3"/>
</svg>
