<svg width="87" height="37" viewBox="0 0 87 37" fill="none" xmlns="http://www.w3.org/2000/svg">
<path d="M36.7828 19.5591C36.7828 23.6182 33.6073 26.6093 29.7102 26.6093C25.8132 26.6093 22.6377 23.6182 22.6377 19.5591C22.6377 15.4713 25.8132 12.5088 29.7102 12.5088C33.6073 12.5088 36.7828 15.4713 36.7828 19.5591ZM33.6867 19.5591C33.6867 17.0225 31.8463 15.2869 29.7102 15.2869C27.5742 15.2869 25.7337 17.0225 25.7337 19.5591C25.7337 22.0702 27.5742 23.8312 29.7102 23.8312C31.8463 23.8312 33.6867 22.067 33.6867 19.5591Z" fill="#A3AAB3"/>
<path d="M52.0406 19.5591C52.0406 23.6182 48.8651 26.6093 44.968 26.6093C41.071 26.6093 37.8955 23.6182 37.8955 19.5591C37.8955 15.4745 41.071 12.5088 44.968 12.5088C48.8651 12.5088 52.0406 15.4713 52.0406 19.5591ZM48.9446 19.5591C48.9446 17.0225 47.1041 15.2869 44.968 15.2869C42.832 15.2869 40.9915 17.0225 40.9915 19.5591C40.9915 22.0702 42.832 23.8312 44.968 23.8312C47.1041 23.8312 48.9446 22.067 48.9446 19.5591Z" fill="#A3AAB3"/>
<path d="M66.6627 12.9347V25.5922C66.6627 30.7988 63.5921 32.9254 59.962 32.9254C56.545 32.9254 54.4884 30.6399 53.7128 28.7708L56.4083 27.6488C56.8883 28.7963 58.0644 30.1504 59.9589 30.1504C62.2825 30.1504 63.7224 28.7168 63.7224 26.0181V25.0041H63.6143C62.9214 25.8592 61.5863 26.6062 59.9016 26.6062C56.3765 26.6062 53.147 23.5356 53.147 19.5845C53.147 15.6048 56.3765 12.5088 59.9016 12.5088C61.5832 12.5088 62.9182 13.2558 63.6143 14.0854H63.7224V12.9379H66.6627V12.9347ZM63.9417 19.5845C63.9417 17.102 62.2856 15.2869 60.1782 15.2869C58.0421 15.2869 56.2525 17.102 56.2525 19.5845C56.2525 22.0416 58.0421 23.8312 60.1782 23.8312C62.2856 23.8312 63.9417 22.0416 63.9417 19.5845Z" fill="#A3AAB3"/>
<path d="M71.51 5.51562V26.177H68.4902V5.51562H71.51Z" fill="#A3AAB3"/>
<path d="M83.2774 21.8797L85.6805 23.4818C84.9049 24.6293 83.0358 26.6064 79.8063 26.6064C75.8012 26.6064 72.8101 23.5104 72.8101 19.5561C72.8101 15.3635 75.8266 12.5059 79.4598 12.5059C83.1185 12.5059 84.908 15.4175 85.4929 16.991L85.814 17.792L76.3892 21.6954C77.1108 23.1099 78.2329 23.8314 79.8063 23.8314C81.3829 23.8314 82.4764 23.0558 83.2774 21.8797ZM75.8806 19.3432L82.1808 16.7271C81.8343 15.8466 80.7917 15.2332 79.5647 15.2332C77.9913 15.2332 75.8012 16.6222 75.8806 19.3432V19.3432Z" fill="#A3AAB3"/>
<path d="M11.2076 17.7254V14.7342H21.2871C21.3857 15.2555 21.4365 15.8722 21.4365 16.5397C21.4365 18.7839 20.823 21.5588 18.8459 23.536C16.9228 25.5385 14.4657 26.6066 11.2107 26.6066C5.17764 26.6066 0.104492 21.6923 0.104492 15.6592C0.104492 9.62613 5.17764 4.71191 11.2107 4.71191C14.5483 4.71191 16.926 6.02152 18.7124 7.72847L16.6018 9.8391C15.3208 8.63757 13.5852 7.70304 11.2076 7.70304C6.80194 7.70304 3.35627 11.2536 3.35627 15.6592C3.35627 20.0649 6.80194 23.6154 11.2076 23.6154C14.0652 23.6154 15.6927 22.4679 16.7353 21.4253C17.5808 20.5798 18.1371 19.3719 18.3564 17.7222L11.2076 17.7254V17.7254Z" fill="#A3AAB3"/>
</svg>
