<svg width="72" height="42" viewBox="0 0 72 42" fill="none" xmlns="http://www.w3.org/2000/svg">
<path fill-rule="evenodd" clip-rule="evenodd" d="M50.9577 24.7077C53.2002 24.7077 55.0992 22.8571 55.0992 20.5444C55.0992 18.2314 53.2003 16.4043 50.9577 16.4043C48.6465 16.4043 46.7944 18.2314 46.7944 20.5443C46.7944 22.8571 48.6465 24.7077 50.9577 24.7077M45.684 20.5443C45.684 17.6303 48.0436 15.2722 50.9577 15.2722C53.8733 15.2722 56.2299 17.6303 56.2299 20.5443C56.2299 23.4803 53.8733 25.8415 50.9577 25.8415C48.0436 25.8415 45.684 23.4803 45.684 20.5443ZM38.2864 20.5443C38.9548 20.4969 40.0432 19.7354 40.4587 19.2731C40.2963 19.8275 40.2963 21.5844 40.4587 22.1404C39.9964 21.4704 38.9548 20.6599 38.2864 20.5443ZM34.4931 14.9723C35.3255 14.9723 35.9954 15.7813 35.9954 16.7073C35.9954 17.6303 35.3255 18.4424 34.4931 18.4424H31.6228V14.9723L34.4931 14.9723ZM34.4931 22.7634C35.3255 22.7634 35.9954 23.574 35.9954 24.4985C35.9954 25.4713 35.3255 26.2788 34.4931 26.2788H31.6228V22.7634H34.4931ZM50.9577 31.2057C56.739 31.2057 61.4568 26.3958 61.4568 20.5443C61.4568 14.6006 56.739 10 50.9577 10C45.1077 10 42.1468 14.2539 41.4315 15.9889C41.4315 13.4215 38.8626 10.3467 35.8799 10.3467H26.2366V31.1137H35.2084C38.8626 31.1137 41.4315 27.9904 41.4315 25.2621C42.2405 26.9504 45.1077 31.2058 50.9577 31.2058M25.0825 31.1133H19.4387V23.0645H15.7828V31.1133H10V10.3463H15.7828V18.0921H19.4387V10.3464H25.0825V31.1133Z" fill="#A3AAB3"/>
</svg>
