<svg width="38" height="25" viewBox="0 0 38 25" fill="none" xmlns="http://www.w3.org/2000/svg">
<path d="M4.05093 16.4286C4.05093 17.8607 4.36513 18.96 4.77609 19.6252C5.31478 20.4965 6.11818 20.8663 6.93729 20.8663C7.99362 20.8663 8.96009 20.6041 10.8225 18.0281C12.3149 15.9636 14.0727 13.0656 15.2556 11.2487L17.2589 8.1707C18.6505 6.03307 20.2612 3.65681 22.1081 2.04608C23.6162 0.731325 25.2422 0.000976562 26.879 0.000976562C29.6271 0.000976562 32.2447 1.59348 34.248 4.58023C36.4405 7.85117 37.5046 11.9714 37.5046 16.2231C37.5046 18.7508 37.0065 20.608 36.1586 22.0753C35.3397 23.4942 33.7432 24.912 31.0578 24.912V20.8656C33.3573 20.8656 33.931 18.7527 33.931 16.3346C33.931 12.8888 33.1276 9.0649 31.3577 6.3325C30.1019 4.39438 28.4742 3.21017 26.6834 3.21017C24.7466 3.21017 23.188 4.67119 21.4363 7.2754C20.5051 8.65928 19.5491 10.3456 18.4757 12.2485L17.294 14.3418C14.9205 18.5513 14.3192 19.5096 13.1323 21.0912C11.0522 23.8612 9.2757 24.9114 6.93729 24.9114C4.1631 24.9114 2.40894 23.7101 1.32245 21.8998C0.435633 20.4248 0 18.4892 0 16.2839L4.05093 16.4286Z" fill="#A3AAB3"/>
<path d="M3.19434 4.86486C5.05155 2.00206 7.7318 0 10.8059 0C12.5861 0 14.3563 0.526907 16.2041 2.03599C18.2256 3.68552 20.3802 6.40332 23.0683 10.8806L24.0321 12.4869C26.3589 16.3632 27.6826 18.3574 28.4574 19.2978C29.4537 20.5054 30.1516 20.8654 31.058 20.8654C33.3575 20.8654 33.9312 18.7525 33.9312 16.3344L37.5049 16.2223C37.5049 18.75 37.0067 20.6072 36.1588 22.0745C35.3399 23.4934 33.7435 24.9112 31.058 24.9112C29.3885 24.9112 27.9096 24.5486 26.2741 23.0056C25.0173 21.8214 23.5469 19.7177 22.4161 17.8265L19.0524 12.2079C17.3649 9.38818 15.8162 7.28574 14.9208 6.33356C13.9568 5.3096 12.7178 4.07324 10.7405 4.07324C9.14034 4.07324 7.78128 5.19618 6.64405 6.91388L3.19434 4.86486Z" fill="#A3AAB3"/>
<path d="M10.7403 4.07324C9.14012 4.07324 7.78107 5.19617 6.64383 6.91388C5.03562 9.34105 4.05172 12.9563 4.05172 16.4282C4.05172 17.8603 4.36591 18.9597 4.77688 19.6248L1.32245 21.8995C0.435633 20.4245 0 18.4889 0 16.2835C0 12.273 1.10079 8.0929 3.19412 4.86485C5.05133 2.00206 7.73158 0 10.8057 0L10.7403 4.07324Z" fill="#A3AAB3"/>
</svg>
