<svg width="184" height="39" viewBox="0 0 184 39" fill="none" xmlns="http://www.w3.org/2000/svg">
<path fill-rule="evenodd" clip-rule="evenodd" d="M93.2252 0.185854L93.0392 0.836284L84.7677 14.2216V15.244C85.6976 17.6597 88.5787 19.8904 87.2769 22.68L76.4943 38.8521C76.4008 38.9465 76.1223 39.1315 76.0308 38.8521V38.4811L78.4465 34.0196L85.0462 22.0286C85.2321 20.9138 84.3948 20.0774 84.0238 19.24C83.2809 17.3803 81.1426 15.8009 82.0715 13.6637L92.5738 0.0923849C92.7607 -0.000120276 93.1327 -0.0926253 93.2252 0.185854Z" fill="#A3AAB3"/>
<path fill-rule="evenodd" clip-rule="evenodd" d="M85.1383 7.25C83.6515 9.38726 81.7917 11.5255 80.3049 13.7562C79.19 16.7308 82.2571 18.6831 82.8141 21.2848L82.7216 22.3997L78.3536 30.8581C75.8435 30.5787 72.4053 31.8805 71.1045 29.2768V9.01627C71.383 8.27334 71.9409 7.25 72.8698 7.25H85.1383ZM96.5714 7.34251C97.1283 7.62195 97.6853 8.0864 98.0582 8.64432L98.1507 10.9685V29.3732C97.8722 30.0227 97.5012 30.5806 96.7564 30.9535H84.0234V30.674L89.1353 22.5876C90.8091 19.427 87.0905 17.5682 86.7186 14.873L87.184 13.3862L91.0875 7.34347L96.5714 7.34251Z" fill="#A3AAB3"/>
<path fill-rule="evenodd" clip-rule="evenodd" d="M59.2069 10.5028C59.7648 12.827 60.7872 14.9643 61.7161 17.1025C62.8319 15.0568 63.8543 12.827 64.3188 10.4103H66.7355C66.5485 11.1533 65.9925 11.8047 65.6196 12.3626C64.5038 14.6868 63.3889 16.9165 62.459 19.2407C62.5515 21.6574 62.3665 24.0741 62.5515 26.3048H59.9489C60.2283 23.9816 60.0423 21.4705 60.0423 18.9613C58.833 16.4521 57.8116 13.8494 56.4173 11.4327L55.6734 12.5486C54.5575 11.7122 52.8847 11.2467 51.5829 11.9906C50.84 12.3626 50.5605 13.2924 50.468 14.0354C50.468 17.5679 50.1886 21.1939 51.1185 24.2601C51.7699 25.0955 53.0707 25.003 53.9071 24.7246C55.4874 23.6087 55.1155 21.378 55.023 19.6117C54.28 19.4257 53.3502 19.6117 52.5138 19.5182C53.0717 17.1015 55.7669 18.4959 57.4397 18.1239C57.1612 21.0051 58.463 24.9096 55.3014 26.2104C53.1632 26.3954 50.1896 27.1393 48.8887 25.0021C47.5869 22.2134 47.8663 18.6818 47.9588 15.4278C48.1448 13.569 48.3308 11.2448 50.468 10.5944C53.3511 9.75991 56.2313 10.8748 59.2069 10.5028ZM10.131 10.5963C10.6889 12.9205 11.6178 15.1512 12.6402 17.2885C13.756 15.1503 14.7774 12.9195 15.2428 10.5963H21.0996L21.3771 12.3626C22.4929 15.7091 23.7938 19.0557 25.0021 22.3078H25.0956C25.0021 18.4043 25.375 14.3148 24.8162 10.5973H27.0469L26.6749 12.3626L26.7684 25.7469C26.8599 25.9329 26.7684 26.2114 26.8599 26.3974L23.5143 26.4908L23.1434 24.5395L19.0529 13.1074L18.9604 13.014C18.7754 17.382 18.6819 22.1228 19.0529 26.4908H17.1016C17.1951 25.7479 17.3811 25.004 17.2876 24.2611V11.9897L17.1951 11.8047C15.4288 14.1288 14.4064 16.9165 13.2916 19.6127C13.2916 21.8424 13.1046 24.2601 13.3831 26.4908C12.5477 26.5843 11.5253 26.5843 10.6889 26.4908C10.9683 24.0741 10.7814 21.5649 10.8749 19.0557L7.71426 12.2701C7.43482 12.2701 7.43482 12.642 7.24981 12.828C6.80841 12.4794 6.30011 12.2253 5.75644 12.0812C5.21276 11.9372 4.6453 11.9063 4.08922 11.9906C3.34628 12.0841 2.60239 12.5486 2.32294 13.199C2.23044 14.0354 1.95196 15.1512 2.50892 15.8951C4.36769 17.7539 8.27122 17.9399 8.27122 21.2864C8.27122 23.3312 7.99274 25.5629 5.94799 26.3058C4.18172 26.8637 2.0435 26.4908 0.278195 26.4908C0.371664 25.7479 0.557638 25.0965 0.929586 24.5395C2.23044 25.3759 4.18172 25.3759 5.39007 24.5395C6.133 23.7031 6.22647 22.4948 5.94799 21.4715C4.36769 19.1482 0.650143 19.4267 0.092221 16.453C-0.093753 14.6868 -0.0937529 12.828 1.02113 11.5262C3.53226 9.38796 6.97037 11.1533 10.131 10.5963ZM44.5217 10.5028C45.73 10.7823 46.473 11.8047 46.6599 12.9195C46.8449 14.4064 46.7524 15.9867 45.8235 17.1015C45.3591 17.6595 44.7077 17.8445 44.0572 18.0314C46.7524 19.9827 45.2646 24.0732 47.6823 26.2104V26.3039C46.4739 26.0254 44.5227 27.0468 44.0572 25.4675C43.4058 23.4227 43.6853 20.9126 42.4769 19.1463C41.919 18.6818 41.1751 18.6818 40.4322 18.5884C40.7116 18.1239 41.2676 17.6585 41.6396 17.2875C42.29 17.2875 43.0339 17.2875 43.4984 16.8221C44.4273 15.7997 44.1488 14.1279 43.9628 12.8261C43.4049 11.5243 41.8246 11.8972 40.6172 11.8972L40.2453 12.3626L40.3387 24.9105C40.5247 25.375 40.6182 25.9339 40.7107 26.3974H37.736L38.0155 23.6087L37.9211 11.9897C37.9211 11.4317 37.5501 10.8748 37.7351 10.4094L44.5217 10.5028ZM36.8987 10.5028C36.8987 11.0608 36.5267 11.6187 36.2483 12.0831C34.8539 11.8047 33.1811 11.9897 31.7868 11.9897L31.6008 12.1756C31.4158 14.1279 31.5074 16.2661 31.5074 18.4034C32.0653 18.2174 32.4372 17.381 32.9942 17.1025H36.3398C36.1548 17.6604 35.8753 18.3109 35.4109 18.6828C34.1091 18.6828 32.8082 18.3109 31.5999 18.6828L31.5064 24.5386C31.7858 25.189 32.5297 24.9105 33.1802 24.9105C34.2941 24.8171 35.5959 25.004 36.6183 24.632C36.4323 25.2834 36.4323 26.1189 35.7819 26.4908H28.7178L29.0897 23.8891V11.8056C29.0897 11.3412 28.6243 10.9692 28.8103 10.5038L36.8987 10.5028ZM110.327 10.5963C110.141 11.1533 109.954 12.0831 109.489 12.6411C108.654 11.9897 107.538 11.7112 106.237 11.8047C105.586 11.9897 104.934 12.4551 104.656 13.013C104.377 13.8494 104.285 15.2437 104.934 15.8942C106.888 17.567 110.513 17.9389 110.513 21.193C110.513 23.1433 110.232 25.4684 108.096 26.2114C106.423 26.7693 104.377 26.3048 102.612 26.3964C102.612 25.746 102.798 24.9096 103.169 24.3516C104.377 25.003 106.516 25.375 107.724 24.3516C108.375 23.5162 108.467 22.1219 108.002 21.193C106.423 19.0548 102.705 19.1473 102.426 16.1736C102.148 14.4073 102.24 12.7345 103.263 11.4327C105.029 9.57394 108.002 10.5963 110.327 10.5963ZM147.32 10.4103C147.042 11.2467 147.042 12.3626 147.226 13.199L149.271 23.1443L149.55 22.9592L151.594 11.8056V10.3188H153.734C153.734 11.0627 153.269 11.7131 153.175 12.456L150.851 24.2611L150.667 26.2123C149.643 26.3974 148.528 26.2123 147.505 26.3058C146.856 23.6097 146.391 20.9145 145.74 18.2184H145.647C145.088 20.9145 144.531 23.5172 144.253 26.3058C143.139 26.3984 142.02 26.3984 140.906 26.3058L140.349 22.8667L138.025 11.5271L137.839 11.3421L137.282 12.0851C136.631 11.8066 135.795 11.9001 134.96 11.8066L134.772 12.0851V25.3769C134.866 25.7488 134.866 26.0283 135.052 26.3068H132.169L132.45 23.4256V11.9897C131.334 11.7112 130.033 11.8972 129.196 12.2691C128.453 11.7112 127.244 12.0831 126.315 11.9897L126.036 12.2691C125.944 14.3128 125.944 16.3597 126.036 18.4034L127.43 17.1025H130.312C130.033 17.6604 129.939 18.3109 129.382 18.6828C128.266 18.4968 126.965 18.4968 125.944 18.6828C125.944 21.193 125.665 23.9816 126.13 26.3048H123.154L123.527 23.9816L123.432 11.1542C123.34 10.8758 123.248 10.7832 123.34 10.5038H140.815C140.815 14.9653 142.302 19.0557 142.953 23.3312L143.137 23.1452C143.417 18.8697 146.391 14.5943 143.974 10.4113C145.088 10.317 146.207 10.3166 147.32 10.4103ZM182.175 12.0831C180.781 11.8047 179.107 11.8981 177.713 11.9897C177.34 13.9419 177.434 16.2661 177.618 18.2174L178.829 17.1025H182.454C182.175 17.6604 181.897 18.2174 181.431 18.6828C180.129 18.6828 178.829 18.4034 177.618 18.6828L177.434 18.8688C177.527 20.8201 177.34 22.9583 177.618 24.8171C179.2 25.0955 181.151 25.0955 182.64 24.632L182.081 26.3048H174.737C175.389 21.7499 175.018 16.4521 175.11 11.5262L174.832 10.5038C177.527 10.4103 180.222 10.5038 183.011 10.4103L182.175 12.0831ZM120.829 11.9897C122.132 15.4287 121.945 20.1687 121.202 23.7937C120.829 25.0955 119.622 26.3039 118.228 26.4899C116.277 26.5833 113.952 26.9543 112.557 25.4675C110.792 23.0498 111.256 19.6117 111.256 16.4521C111.442 14.1279 111.627 11.3402 114.323 10.5963C116.46 10.2244 119.435 9.94492 120.829 11.9897ZM116.09 11.8981C115.438 11.9906 114.696 12.2691 114.417 12.9205C113.674 14.7783 113.858 16.9165 113.858 18.9622C114.046 21.007 113.487 23.4237 114.974 24.818C116.09 25.19 117.484 25.2834 118.414 24.3536C119.342 21.9378 119.064 18.9632 119.064 16.1746C118.971 14.8727 118.971 13.4784 118.228 12.456C117.577 11.9897 116.833 11.8981 116.09 11.8981ZM170.741 10.5028C171.484 10.6888 172.228 11.2458 172.601 11.9897C173.158 13.2915 173.065 15.3362 172.415 16.7306C171.95 17.4745 171.021 17.7529 170.277 18.1249C172.879 20.0771 171.299 24.0732 173.531 26.3048H170.555C169.441 24.3526 169.72 21.8424 169.068 19.7042C168.511 18.7753 167.582 18.4968 166.559 18.5893C166.465 21.0995 166.279 23.8881 166.743 26.3039H163.77L164.141 24.7236L164.048 11.3392L163.77 10.4094L170.741 10.5028ZM168.976 11.9897C168.233 11.8972 167.303 11.8047 166.744 12.0831L166.652 18.3109L167.766 17.195C168.603 17.195 169.44 17.2885 169.904 16.5446C170.368 15.3353 170.555 13.384 169.811 12.2681L168.976 11.9897ZM159.681 12.3626L162.933 25.4684C163.028 25.7469 163.214 26.0264 163.306 26.3048H160.332C160.332 24.7246 159.868 23.3302 159.309 21.9369H155.406C154.849 23.3302 154.383 24.8171 154.57 26.3048H152.617L153.454 24.0741L156.149 11.9906V10.4103C157.265 10.3178 158.381 10.4103 159.589 10.4103L159.681 12.3626ZM157.264 13.57C156.615 16.1726 155.87 18.8688 155.591 21.4705C156.056 20.0771 157.73 20.7276 158.938 20.5406C158.565 18.2174 158.008 15.7091 157.264 13.57Z" fill="#A3AAB3"/>
</svg>
