<svg width="57" height="25" viewBox="0 0 57 25" fill="none" xmlns="http://www.w3.org/2000/svg">
<path fill-rule="evenodd" clip-rule="evenodd" d="M35.5313 7.88513C35.2293 8.44912 34.5657 8.59048 33.4392 8.59048H31.1254V2.17136C31.1254 1.3882 31.2871 1.30824 32.2116 1.30824L32.8963 1.28789V0.221668H27.1621V1.28789H27.6662C28.4718 1.28789 28.9537 1.36821 28.9537 2.17171L28.9747 7.76591C28.9747 8.57013 28.6107 8.6508 27.7875 8.6508H27.2442V9.71667H37.0394V5.88833C37.0394 5.88726 36.1088 5.88833 35.9329 5.88833C35.9329 6.81284 35.8129 7.38254 35.5313 7.88513ZM23.0264 8.59048H19.9681V5.28936H20.672C21.8603 5.28936 22.0209 5.51138 22.1009 7.14124H23.2078V2.33413H22.1219C22.0213 3.76159 21.8606 4.16495 20.6527 4.16495H19.9684V1.34822H22.6245C24.556 1.34822 25.0782 1.68982 25.1393 3.90259H26.2244V0.221312H12.1115V1.28754H12.7736C13.3166 1.28754 13.5789 1.40819 13.5789 1.70981C13.5789 1.87044 13.5789 2.1121 13.4576 2.43443L11.6282 7.24119C11.6282 7.24119 11.6246 7.23548 11.5136 7.23548C10.679 4.83138 9.53605 2.07141 9.53605 2.07141C9.48194 1.94424 9.45449 1.80732 9.45538 1.66912C9.45538 1.38748 9.63671 1.28718 10.1186 1.28718H10.9242V0.220955H5.83407V1.28718H6.47802C7.30223 1.28718 7.56423 1.68911 7.64455 2.4737L5.75376 7.22155C5.75483 7.22155 5.71342 7.22298 5.61954 7.20764C4.74465 4.6372 3.64201 2.03179 3.64201 2.03179C3.58169 1.89079 3.60025 1.78977 3.60025 1.72945C3.58133 1.42782 3.82334 1.28682 4.36627 1.28682H4.82746V0.220598H0V1.28682H0.222027C0.925942 1.28682 1.40926 1.74979 1.73016 2.57472L4.56653 9.71524H6.33702L8.4095 4.4448L10.5823 9.71524H12.2907L15.0078 2.45335C15.3291 1.58809 15.5904 1.28646 16.375 1.28646H16.5292C17.353 1.28646 17.8178 1.36678 17.8178 2.15137V7.76413C17.8178 8.54871 17.353 8.62831 16.5292 8.62831L15.9662 8.64937V9.71524H26.4079V5.89297H25.3213C25.1728 7.77805 24.7555 8.59048 23.0264 8.59048ZM46.1668 5.88833C46.1668 6.8132 46.0461 7.3829 45.7645 7.88549C45.4625 8.44948 44.7996 8.59084 43.6738 8.59084H41.3582V2.17136C41.3582 1.3882 41.5206 1.30824 42.4452 1.30824L43.1291 1.28789V0.221668H37.396V1.28789H37.9996C38.8042 1.28789 39.1862 1.36821 39.1862 2.17171L39.2065 7.76591C39.2065 8.57013 38.8438 8.6508 38.0193 8.6508H37.8751V9.71667H47.2737V5.88833C47.274 5.88726 46.3238 5.88833 46.1668 5.88833ZM56.9996 6.93992C56.9996 9.1127 55.2895 9.89765 52.7544 9.89765C51.227 9.89765 49.7577 9.03167 49.4365 8.73147L49.1138 9.7231H48.1489V5.89868H49.2562C49.5568 7.72451 50.779 8.51302 52.5259 8.59048C54.0219 8.65866 55.091 8.25887 55.2088 7.22191C55.3462 6.02254 54.0244 6.09501 52.9157 5.89511L51.2873 5.59241C48.8536 5.16942 48.0697 4.46658 48.0083 2.87741C47.9469 1.1469 49.5164 0.0207034 51.6282 0C52.6544 0 53.9841 0.16063 55.0103 0.986267L55.4922 0.201322H56.3371V3.51779H55.2706C55.0357 1.6759 53.2181 1.11477 51.6689 1.15511C50.543 1.19509 49.7991 1.83832 49.7991 2.60363C49.7991 3.3154 50.5041 3.41035 51.4012 3.56741L53.3923 3.90973C55.4237 4.25169 57 4.66647 57 6.92029V6.93992H56.9996ZM11.4433 18.1294C11.4433 17.3987 11.323 16.7551 11.0631 16.2304C10.7397 15.6685 10.0761 15.5875 8.95029 15.5875H6.57654V18.4249H7.32079C8.5273 18.4249 8.70899 18.2026 8.70899 16.7344H9.59067V21.4823L8.68793 21.4612C8.66829 19.8731 8.50766 19.5522 7.32043 19.5522H6.57618V22.0245C6.57618 22.8101 6.69612 22.8905 7.5214 22.8905H8.6276V23.9556H2.77354V22.8905L3.31683 22.8701C4.14068 22.8701 4.42303 22.7905 4.42303 22.0048V16.3932C4.42303 15.6082 4.14032 15.5272 3.31683 15.5272H2.77354V14.462H12.5295V18.129L11.4433 18.1294ZM33.3939 21.2606H32.489C32.5293 22.3886 32.489 22.8105 31.9053 22.8501C31.6244 22.8705 31.4028 22.6088 31.3624 22.0463C31.3624 21.8449 31.3835 21.5826 31.3624 21.4612C31.2621 20.1737 31.0412 19.5704 29.351 19.1681C31.1615 18.9261 32.2277 18.0826 32.2277 16.7155C32.2277 15.1852 31.1018 14.4624 28.6671 14.4624H22.1287V15.5275H22.9137C23.7389 15.5275 23.8592 15.6086 23.8592 16.3935V22.0052C23.8592 22.6963 23.413 22.8926 22.8708 22.8905H22.1787C21.6561 22.8833 21.3534 22.6784 21.0771 21.9667L18.0384 14.4624H15.7107L12.5309 21.9667C12.2511 22.6288 12.0294 22.8926 11.2851 22.8926H10.8518V23.9563H15.802V22.8926H14.8165C14.311 22.8926 14.0512 22.8705 14.0512 22.5699C14.0512 22.4485 14.0915 22.3086 14.1722 22.1273L14.6541 20.9393H18.355L18.7587 22.0466C18.8383 22.2272 18.8986 22.3889 18.8986 22.5103C18.8986 22.8308 18.6373 22.8929 18.094 22.8929H17.0674V23.9567H27.8221V22.8908H26.9576C26.1323 22.8908 26.0124 22.8105 26.0124 22.0248V19.4712H26.9772C28.6274 19.4712 29.1307 19.7924 29.1893 21.3823L29.231 22.4889C29.291 23.7968 30.1345 24.1594 31.4431 24.1594C32.5893 24.1594 33.3939 23.4755 33.3939 21.7436H33.4149C33.4146 21.5826 33.4146 21.4223 33.3939 21.2606ZM15.1178 19.8131L16.5463 16.1726L17.9934 19.8131H15.1178ZM28.0845 18.4028L26.012 18.4249V15.5482H28.0427C29.391 15.5482 30.0353 15.8695 30.0353 16.9768V16.9964C30.0356 17.9823 29.4109 18.4028 28.0845 18.4028ZM41.8555 17.504C41.3989 16.0797 40.443 15.4165 38.8756 15.4165C37.3257 15.4165 36.0996 16.6841 36.1203 19.0989C36.1203 21.5515 37.1062 22.8805 38.8756 22.9004C40.1631 22.9004 41.31 22.2569 41.31 21.1692V20.6463C41.31 20.0034 41.1491 20.0034 40.2435 20.0034H39.7694V18.9165H44.181V20.0034H43.8191C43.1344 20.0034 43.0341 19.9427 43.0341 20.7473V23.9249H42.2553L41.752 23.1414C40.8867 23.8253 39.6395 24.1473 38.5344 24.1473C37.2265 24.1473 36.1199 23.685 35.2347 22.7998C34.3087 21.8539 33.7658 20.587 33.7851 19.0985C33.7851 17.6289 34.2684 16.4617 35.2136 15.5165C36.0389 14.7119 37.2864 14.2482 38.5726 14.2707C39.6391 14.2707 40.8863 14.5516 41.5928 15.2955L42.0739 14.3082H42.8332V17.4958L41.8555 17.504ZM50.5345 24.1223C47.3811 24.1223 44.9299 22.1526 44.9299 19.1606C44.9299 16.1865 47.3811 14.2379 50.5156 14.2379C53.6689 14.2379 56.0601 16.1865 56.0601 19.1803C56.0605 22.153 53.6692 24.1223 50.5345 24.1223ZM53.7164 19.2099C53.7164 15.8231 51.429 15.4026 50.4956 15.4026C48.6465 15.4026 47.2405 16.7083 47.2405 19.1995C47.2405 21.6907 48.6465 23.0165 50.4956 23.0165C51.4187 23.0168 53.7164 22.5642 53.7164 19.2099Z" fill="#A3AAB3"/>
</svg>
